<?xml version="1.0" encoding="utf-8"?>
<!-- Generator: Adobe Illustrator 19.2.0, SVG Export Plug-In . SVG Version: 6.00 Build 0)  -->
<svg version="1.1" id="Layer_1" xmlns="http://www.w3.org/2000/svg" xmlns:xlink="http://www.w3.org/1999/xlink" x="0px" y="0px"
	 width="1000px" height="1000px" viewBox="0 0 1000 1000" style="enable-background:new 0 0 1000 1000;" xml:space="preserve">
<style type="text/css">
	.st0{fill:#FFFFFF;}
</style>
<path class="st0" d="M4.3,24.7c1.4,0.5,3,0.2,4.1-0.9L29.6,2.7c0.7-0.7,1.1-1.8,1.1-2.7c0-1.1-0.4-1.9-1.1-2.7L8.4-23.9
	c-1.1-1.1-2.7-1.4-4.1-0.9S2-22.8,2-21.2v9.4h-27.6c-2.8,0-5.1,2.3-5.1,5.1V7.1c0,2.8,2.3,5.1,5.1,5.1H2v9C2,22.8,2.9,24.2,4.3,24.7
	z"/>
</svg>
