<?xml version="1.0" encoding="utf-8"?>
<!-- Generator: Adobe Illustrator 19.2.0, SVG Export Plug-In . SVG Version: 6.00 Build 0)  -->
<svg version="1.1" id="Layer_1" xmlns="http://www.w3.org/2000/svg" xmlns:xlink="http://www.w3.org/1999/xlink" x="0px" y="0px"
	 width="1000px" height="1000px" viewBox="0 0 1000 1000" style="enable-background:new 0 0 1000 1000;" xml:space="preserve">
<style type="text/css">
	.st0{fill:#FFFFFF;}
</style>
<path class="st0" d="M5,0l19.2-15.5c1-0.7,1.5-1.9,1.5-3.1s-0.6-2.3-1.5-3.1l-25-20c-1.2-1-2.8-1.2-4.2-0.5s-2.3,2.1-2.3,3.6V-10
	l-11.9-9.6c-1.7-1.4-4.2-1.1-5.6,0.6c-1.4,1.7-1.1,4.2,0.6,5.6L-7.7,0l-16.5,13.3c-1.7,1.4-2,3.9-0.6,5.6c0.8,1,1.9,1.5,3.1,1.5
	c0.9,0,1.8-0.3,2.5-0.9l11.9-9.6v28.6c0,1.5,0.9,2.9,2.3,3.6c0.5,0.3,1.1,0.4,1.7,0.4c0.9,0,1.8-0.3,2.5-0.9l25-20
	c1-0.7,1.5-1.9,1.5-3.1s-0.6-2.3-1.5-3.1L5,0z"/>
<polygon class="st0" points="0.7,-30.3 15.3,-18.5 0.7,-6.8 "/>
<polygon class="st0" points="0.7,30.3 0.7,6.8 15.3,18.6 "/>
</svg>
