<?xml version="1.0" encoding="utf-8"?>
<!-- Generator: Adobe Illustrator 19.2.0, SVG Export Plug-In . SVG Version: 6.00 Build 0)  -->
<svg version="1.1" id="Layer_1" xmlns="http://www.w3.org/2000/svg" xmlns:xlink="http://www.w3.org/1999/xlink" x="0px" y="0px"
	 width="1000px" height="1000px" viewBox="0 0 1000 1000" style="enable-background:new 0 0 1000 1000;" xml:space="preserve">
<g>
	<path d="M-38.9,16.6c1.6-3.8,5.3-7.8,11.2-12c5.1-3.7,8.4-6.3,9.9-7.9c2.3-2.5,3.5-5.2,3.5-8.1c0-2.4-0.7-4.4-2-6
		c-1.3-1.6-3.2-2.4-5.7-2.4c-3.4,0-5.7,1.3-6.9,3.8c-0.7,1.5-1.1,3.8-1.2,6.9h-10.8c0.2-4.8,1.1-8.7,2.6-11.6
		c3-5.6,8.2-8.5,15.8-8.5c6,0,10.7,1.7,14.3,5s5.3,7.7,5.3,13.1c0,4.2-1.2,7.9-3.7,11.1c-1.6,2.2-4.3,4.6-8.1,7.2l-4.4,3.2
		c-2.8,2-4.7,3.4-5.7,4.3s-1.9,1.9-2.6,3.1h24.7v9.8h-38.7C-41.4,23.6-40.5,19.9-38.9,16.6z"/>
	<path d="M13.4,10.3c0,2.3,0.4,4.1,1.1,5.6c1.3,2.7,3.8,4.1,7.3,4.1c2.2,0,4.1-0.7,5.7-2.2c1.6-1.5,2.4-3.6,2.4-6.4
		c0-3.7-1.5-6.2-4.5-7.4c-1.7-0.7-4.4-1.1-8.1-1.1v-7.9c3.6-0.1,6.1-0.4,7.5-1.1c2.5-1.1,3.7-3.3,3.7-6.6c0-2.2-0.6-3.9-1.9-5.3
		c-1.3-1.4-3-2-5.3-2c-2.6,0-4.5,0.8-5.8,2.5s-1.8,3.9-1.8,6.7H3.5c0.1-2.8,0.6-5.5,1.4-8c0.9-2.2,2.3-4.2,4.3-6.1
		c1.5-1.3,3.2-2.3,5.2-3c2-0.7,4.4-1.1,7.4-1.1c5.4,0,9.7,1.4,13.1,4.2s5,6.5,5,11.2c0,3.3-1,6.1-3,8.4c-1.2,1.4-3.3,2.8-3.9,2.9
		c1,0,2.5,0.9,4.4,2.6c2.8,2.6,4.2,6.2,4.2,10.8c0,4.8-1.7,9-5,12.6c-3.3,3.6-8.2,5.4-14.7,5.4c-8,0-13.5-2.6-16.7-7.8
		c-1.6-2.8-2.5-6.4-2.7-10.9H13.4z"/>
</g>
</svg>
