<?xml version="1.0" encoding="utf-8"?>
<!-- Generator: Adobe Illustrator 19.2.0, SVG Export Plug-In . SVG Version: 6.00 Build 0)  -->
<svg version="1.0" id="Layer_1" xmlns="http://www.w3.org/2000/svg" xmlns:xlink="http://www.w3.org/1999/xlink" x="0px" y="0px"
	 width="1000px" height="1000px" viewBox="0 0 1000 1000" enable-background="new 0 0 1000 1000" xml:space="preserve">
<path fill="#FFFFFF" d="M19.4-24.1h-9c-0.9,0-1.6,0.8-1.6,1.6v8.5c0,0.9,0.8,1.6,1.6,1.6h1.9V-5L2.5-0.3v-25.8h4
	c0.6,0,1.2-0.3,1.5-0.9c0.3-0.5,0.3-1.2-0.2-1.7l-6.5-9C1-38.2,0.5-38.5,0-38.5s-1,0.3-1.4,0.7l-6.5,9c-0.3,0.5-0.4,1.2-0.2,1.7
	c0.3,0.5,0.9,0.9,1.5,0.9h4v31l-9.9-4.6v-8.6C-10.3-9.4-9-11.5-9-14c0-3.4-2.8-6.1-6.1-6.1s-6.1,2.8-6.1,6.1c0,2.5,1.5,4.6,3.5,5.6
	V1.8c0,0.9,0.6,1.9,1.5,2.3l13.5,6.3v10.1c-3.8,1.1-6.6,4.6-6.6,8.8c0,5.1,4.1,9.2,9.2,9.2s9.2-4,9.2-9.1c0-4.1-2.8-7.7-6.6-8.8V5.3
	L16-0.9c0.9-0.4,1.5-1.4,1.5-2.3v-9h1.9c0.9,0,1.6-0.8,1.6-1.6v-8.5C21.1-23.4,20.3-24.1,19.4-24.1z"/>
</svg>
