<?xml version="1.0" encoding="utf-8"?>
<!-- Generator: Adobe Illustrator 19.2.0, SVG Export Plug-In . SVG Version: 6.00 Build 0)  -->
<svg version="1.1" id="Layer_1" xmlns="http://www.w3.org/2000/svg" xmlns:xlink="http://www.w3.org/1999/xlink" x="0px" y="0px"
	 width="2834.6px" height="2834.6px" viewBox="0 0 2834.6 2834.6" style="enable-background:new 0 0 2834.6 2834.6;"
	 xml:space="preserve">
<style type="text/css">
	.st0{fill:#E6E7E8;stroke:#000000;stroke-width:0.7087;stroke-miterlimit:10;}
</style>
<path class="st0" d="M126.9,122.6l-0.6-1.4c-1-2-2.8-3.5-4.9-4.3c-2.3-0.7-4.4-0.7-8.7-0.7H99.9h-6H-93.9h-40.8h-40.8
	c-27,0-40.6,0-55.1-4.6c-15.9-5.8-28.4-18.3-34.2-34.2c-4.6-14.6-4.6-28.1-4.6-55.1v-81.5c0-27,0-40.6,4.6-55.1
	c5.8-15.9,18.3-28.4,34.2-34.2c14.6-4.6,28.1-4.6,55.1-4.6h40.8h40.8H93.9h40.8h40.8c27,0,40.5,0,55.1,4.6
	c15.9,5.8,28.4,18.3,34.2,34.2c4.6,14.6,4.6,28.1,4.6,55.1v81.5c0,27,0,40.5-4.6,55.1c-5.8,15.9-18.3,28.4-34.2,34.2
	c-14.6,4.6-28.1,4.6-55.1,4.6h-4.7c-4.3,0-6.4,0-8.7,0.7c-2.5,0.9-4.5,2.9-5.4,5.4c0.1-0.1-11.8,28.9-11.8,28.9
	c-0.6,1.1-1.7,1.9-3.1,1.9c-1.4,0-2.6-0.8-3.1-2l-0.1-0.3L126.9,122.6l11.6,28.3c0,0.1,0.1,0.2,0.1,0.3"/>
</svg>
