<?xml version="1.0" encoding="utf-8"?>
<!-- Generator: Adobe Illustrator 19.2.0, SVG Export Plug-In . SVG Version: 6.00 Build 0)  -->
<svg version="1.1" id="Layer_1" xmlns="http://www.w3.org/2000/svg" xmlns:xlink="http://www.w3.org/1999/xlink" x="0px" y="0px"
	 width="2834.6px" height="2834.6px" viewBox="0 0 2834.6 2834.6" style="enable-background:new 0 0 2834.6 2834.6;"
	 xml:space="preserve">
<style type="text/css">
	.st0{fill:#FFFFFF;stroke:#000000;stroke-width:0.7087;}
</style>
<path class="st0" d="M0-134.6c-74.4,0-134.6,60.3-134.6,134.6c0,74.4,60.3,134.6,134.6,134.6c74.4,0,134.6-60.3,134.6-134.6
	C134.6-74.4,74.4-134.6,0-134.6z"/>
<path class="st0" d="M-6.2,19.7l-51.6,89.4c-1.2,2.1-4,2.9-6.1,1.6l0,0C-82.8,99.9-99.1,84.1-110.8,64C-122.5,43.8-128,21.8-128,0
	l0,0c0-2.5,2-4.5,4.5-4.5h103.2h0.2v0.1c2.3,0.1,4.2,2.1,4.2,4.4v0.1c0.1,1.4,0.2,2.5,0.5,3.7c0.3,1.4,0.9,2.7,1.6,4
	c0.7,1.2,1.8,2.5,2.5,3.3c0.7,0.7,2.3,1.8,3.3,2.5C-5.7,14.9-5,17.6-6.2,19.7z"/>
<path class="st0" d="M0-15.7c-1.4,0-3.1,0.3-4.1,0.5s-2.7,1.1-3.8,1.6c-2.1,1.2-4.8,0.5-6.1-1.7l-51.6-89.4
	c-1.2-2.1-0.5-4.9,1.6-6.1l0,0c18.8-10.9,40.7-17.1,64-17.1s45.2,6.2,64,17.1l0,0c2.1,1.2,2.9,4,1.6,6.1L14-15.2L13.9-15h-0.1
	c-1.3,2-3.9,2.6-5.9,1.5c0,0-0.1,0-0.1-0.1c-1.3-0.6-2.3-1.1-3.5-1.5C2.9-15.5,1.5-15.7,0-15.7z"/>
<path class="st0" d="M64,110.8L64,110.8c-2.2,1.2-4.9,0.5-6.1-1.7L6.2,19.7L6,19.5v-0.1c-1.1-2.1-0.3-4.7,1.7-5.9c0,0,0.1,0,0.1-0.1
	c1.2-0.8,2.1-1.4,3-2.3c1-1,1.9-2.1,2.7-3.4c0.7-1.2,1.3-2.8,1.6-3.8s0.4-2.9,0.5-4.1c0-2.5,2-4.4,4.5-4.4h103.2
	c2.5,0,4.5,2,4.5,4.5l0,0c0,21.7-5.5,43.8-17.2,64C99.1,84.1,82.8,99.9,64,110.8z"/>
</svg>
