<?xml version="1.0" encoding="utf-8"?>
<!-- Generator: Adobe Illustrator 19.2.0, SVG Export Plug-In . SVG Version: 6.00 Build 0)  -->
<svg version="1.0" id="Layer_1" xmlns="http://www.w3.org/2000/svg" xmlns:xlink="http://www.w3.org/1999/xlink" x="0px" y="0px"
	 width="1000px" height="1000px" viewBox="0 0 1000 1000" enable-background="new 0 0 1000 1000" xml:space="preserve">
<g>
	<path opacity="0.2" fill="#BE1E2D" stroke="#000000" stroke-width="0.7087" stroke-miterlimit="10" d="M458.9,530.3
		c1.8,5,5.8,9,10.8,10.8c4.6,1.5,8.9,1.5,17.4,1.5h25.7c8.5,0,12.8,0,17.4-1.5c5-1.8,9-5.8,10.8-10.8c1.5-4.6,1.5-8.9,1.5-17.4
		v-25.7c0-8.5,0-12.8-1.5-17.4c-1.8-5-5.8-9-10.8-10.8c-4.6-1.5-8.9-1.5-17.4-1.5h-25.7c-8.5,0-12.8,0-17.4,1.5
		c-5,1.8-9,5.8-10.8,10.8c-1.5,4.6-1.5,8.9-1.5,17.4v25.7C457.5,521.4,457.5,525.7,458.9,530.3z"/>
	<path fill="none" stroke="#000000" stroke-width="0.7087" stroke-miterlimit="10" d="M458.9,530.3c1.8,5,5.8,9,10.8,10.8
		c4.6,1.5,8.9,1.5,17.4,1.5h25.7c8.5,0,12.8,0,17.4-1.5c5-1.8,9-5.8,10.8-10.8c1.5-4.6,1.5-8.9,1.5-17.4v-25.7
		c0-8.5,0-12.8-1.5-17.4c-1.8-5-5.8-9-10.8-10.8c-4.6-1.5-8.9-1.5-17.4-1.5h-25.7c-8.5,0-12.8,0-17.4,1.5c-5,1.8-9,5.8-10.8,10.8
		c-1.5,4.6-1.5,8.9-1.5,17.4v25.7C457.5,521.4,457.5,525.7,458.9,530.3z"/>
</g>
</svg>
