<?xml version="1.0" encoding="utf-8"?>
<!-- Generator: Adobe Illustrator 19.1.0, SVG Export Plug-In . SVG Version: 6.00 Build 0)  -->
<svg version="1.1" id="Layer_1" xmlns="http://www.w3.org/2000/svg" xmlns:xlink="http://www.w3.org/1999/xlink" x="0px" y="0px"
	 viewBox="0 0 1000 1000" style="enable-background:new 0 0 1000 1000;" xml:space="preserve">
<path d="M13.7-19.4c2.6,4.6,3.9,11.1,3.9,19.5c0,8.4-1.3,14.9-3.9,19.4C11,24,6.5,26.3,0,26.3c-6.5,0-11-2.3-13.7-6.8
	c-2.6-4.5-3.9-11-3.9-19.4c0-8.4,1.3-14.9,3.9-19.5C-11-24-6.5-26.3,0-26.3C6.5-26.3,11-24,13.7-19.4z M-5.9,13.5
	c1,3.1,2.9,4.7,5.9,4.7c3,0,4.9-1.6,5.9-4.7C6.8,10.4,7.2,5.9,7.2,0c0-6.1-0.5-10.7-1.4-13.6C4.9-16.6,3-18,0-18
	c-3,0-4.9,1.5-5.9,4.4c-1,3-1.4,7.5-1.4,13.6C-7.3,5.9-6.9,10.4-5.9,13.5z"/>
<g>
</g>
<g>
</g>
<g>
</g>
<g>
</g>
<g>
</g>
<g>
</g>
</svg>
