<?xml version="1.0" encoding="utf-8"?>
<!-- Generator: Adobe Illustrator 19.1.0, SVG Export Plug-In . SVG Version: 6.00 Build 0)  -->
<svg version="1.1" id="Layer_1" xmlns="http://www.w3.org/2000/svg" xmlns:xlink="http://www.w3.org/1999/xlink" x="0px" y="0px"
	 viewBox="0 0 1000 1000" style="enable-background:new 0 0 1000 1000;" xml:space="preserve">
<path d="M-7.8,9.3c0,2,0.3,3.7,1,5.1c1.2,2.5,3.4,3.7,6.6,3.7c2,0,3.7-0.7,5.1-2c1.5-1.3,2.2-3.3,2.2-5.8c0-3.4-1.4-5.6-4.1-6.7
	c-1.5-0.6-4-0.9-7.3-0.9v-7.2c3.2,0,5.5-0.4,6.8-0.9c2.2-1,3.3-3,3.3-6c0-1.9-0.6-3.5-1.7-4.7c-1.1-1.2-2.7-1.8-4.8-1.8
	c-2.4,0-4.1,0.8-5.2,2.2c-1.1,1.5-1.6,3.5-1.6,6h-9.4c0.1-2.5,0.5-4.9,1.3-7.2c0.8-2,2.1-3.8,3.9-5.5c1.3-1.2,2.9-2.1,4.7-2.7
	c1.8-0.6,4-0.9,6.6-0.9c4.9,0,8.8,1.3,11.8,3.8c3,2.5,4.5,5.9,4.5,10.1c0,3-0.9,5.5-2.7,7.6c-1.1,1.3-2.3,2.2-3.5,2.6
	c0.9,0,2.2,0.8,3.9,2.4c2.6,2.4,3.8,5.6,3.8,9.7c0,4.3-1.5,8.1-4.5,11.4c-3,3.3-7.4,4.9-13.3,4.9c-7.2,0-12.2-2.4-15-7.1
	c-1.5-2.5-2.3-5.8-2.5-9.8H-7.8z"/>
<g>
</g>
<g>
</g>
<g>
</g>
<g>
</g>
<g>
</g>
<g>
</g>
</svg>
