<?xml version="1.0" encoding="utf-8"?>
<!-- Generator: Adobe Illustrator 19.1.0, SVG Export Plug-In . SVG Version: 6.00 Build 0)  -->
<svg version="1.1" id="Layer_1" xmlns="http://www.w3.org/2000/svg" xmlns:xlink="http://www.w3.org/1999/xlink" x="0px" y="0px"
	 viewBox="0 0 1000 1000" style="enable-background:new 0 0 1000 1000;" xml:space="preserve">
<path d="M-7.6,10.8c0.4,2.2,1.2,3.9,2.3,5c1.1,1.2,2.8,1.8,4.9,1.8c2.5,0,4.4-0.9,5.7-2.6c1.3-1.7,1.9-3.9,1.9-6.6
	c0-2.6-0.6-4.8-1.8-6.6C4.1,0.1,2.2-0.8-0.3-0.8c-1.2,0-2.3,0.2-3.2,0.5C-5.1,0.2-6.2,1.2-7,2.8l-9-0.4l3.6-28.2h28v8.5H-5.2L-7-6.2
	c1.5-1,2.7-1.7,3.6-2C-2-8.7-0.2-9,1.9-9c4.2,0,7.9,1.4,11,4.3c3.1,2.8,4.7,7,4.7,12.4c0,4.7-1.5,8.9-4.5,12.6
	c-3,3.7-7.5,5.6-13.6,5.6c-4.8,0-8.8-1.3-11.9-3.9c-3.1-2.6-4.8-6.3-5.2-11.1H-7.6z"/>
<g>
</g>
<g>
</g>
<g>
</g>
<g>
</g>
<g>
</g>
<g>
</g>
</svg>
