<?xml version="1.0" encoding="utf-8"?>
<!-- Generator: Adobe Illustrator 19.1.0, SVG Export Plug-In . SVG Version: 6.00 Build 0)  -->
<svg version="1.1" id="Layer_1" xmlns="http://www.w3.org/2000/svg" xmlns:xlink="http://www.w3.org/1999/xlink" x="0px" y="0px"
	 viewBox="0 0 1000 1000" style="enable-background:new 0 0 1000 1000;" xml:space="preserve">
<path d="M6.5-13.1c0-0.8-0.3-1.7-0.9-2.7c-1.1-1.6-2.7-2.4-4.9-2.4c-3.3,0-5.6,1.8-7,5.5c-0.8,2-1.3,5-1.5,8.9
	C-6.6-5.2-5.1-6.3-3.5-7C-1.8-7.7,0-8,2.1-8c4.5,0,8.2,1.5,11.1,4.6c2.9,3.1,4.3,7,4.3,11.8c0,4.8-1.4,9-4.3,12.6
	c-2.8,3.6-7.2,5.4-13.2,5.4c-6.4,0-11.2-2.7-14.2-8.1c-2.4-4.2-3.6-9.6-3.6-16.2c0-3.9,0.2-7.1,0.5-9.5c0.6-4.3,1.7-7.9,3.4-10.8
	c1.5-2.5,3.4-4.4,5.7-5.9c2.4-1.5,5.2-2.2,8.5-2.2c4.7,0,8.5,1.2,11.3,3.6s4.4,5.7,4.7,9.7H6.5z M-5.3,15.6c1.5,1.7,3.4,2.6,5.6,2.6
	c2.2,0,4-0.8,5.3-2.5c1.3-1.7,1.9-3.8,1.9-6.5c0-3-0.7-5.3-2.2-6.8C3.8,0.8,2,0-0.1,0c-1.7,0-3.2,0.5-4.5,1.5c-2,1.5-3,4-3,7.4
	C-7.6,11.7-6.8,13.9-5.3,15.6z"/>
<g>
</g>
<g>
</g>
<g>
</g>
<g>
</g>
<g>
</g>
<g>
</g>
</svg>
