<?xml version="1.0" encoding="utf-8"?>
<!-- Generator: Adobe Illustrator 19.1.0, SVG Export Plug-In . SVG Version: 6.00 Build 0)  -->
<svg version="1.1" id="Layer_1" xmlns="http://www.w3.org/2000/svg" xmlns:xlink="http://www.w3.org/1999/xlink" x="0px" y="0px"
	 viewBox="0 0 1000 1000" style="enable-background:new 0 0 1000 1000;" xml:space="preserve">
<path d="M-15.8,3c1.3-2.3,3.2-4.1,5.7-5.2c-2.5-1.6-4.1-3.4-4.8-5.3c-0.7-1.9-1.1-3.7-1.1-5.4c0-3.7,1.4-6.9,4.2-9.5
	C-9-25-5.1-26.3,0-26.3c5.1,0,9,1.3,11.8,3.9c2.8,2.6,4.2,5.8,4.2,9.5c0,1.7-0.4,3.5-1.1,5.4c-0.7,1.9-2.3,3.6-4.8,5
	c2.5,1.4,4.4,3.3,5.7,5.6c1.3,2.3,1.9,4.9,1.9,7.8c0,4.3-1.6,7.9-4.8,11c-3.2,3-7.6,4.5-13.3,4.5s-10-1.5-13-4.5
	c-2.9-3-4.4-6.7-4.4-11C-17.7,8-17.1,5.4-15.8,3z M-5.4,16c1.3,1.4,3.1,2.1,5.4,2.1c2.3,0,4.1-0.7,5.4-2.1c1.3-1.4,2-3.3,2-5.8
	c0-2.6-0.7-4.6-2-5.9c-1.3-1.3-3.1-2-5.4-2s-4,0.7-5.4,2c-1.3,1.3-2,3.3-2,5.9C-7.3,12.7-6.7,14.6-5.4,16z M-4.7-7.2
	C-3.6-6.1-2-5.5,0-5.5c2,0,3.6-0.6,4.7-1.8c1.1-1.2,1.7-2.7,1.7-4.5c0-2-0.6-3.6-1.7-4.7c-1.1-1.1-2.7-1.7-4.7-1.7
	c-2,0-3.6,0.6-4.7,1.7c-1.1,1.1-1.7,2.7-1.7,4.7C-6.4-9.9-5.9-8.4-4.7-7.2z"/>
<g>
</g>
<g>
</g>
<g>
</g>
<g>
</g>
<g>
</g>
<g>
</g>
</svg>
