<?xml version="1.0" encoding="utf-8"?>
<!-- Generator: Adobe Illustrator 19.1.0, SVG Export Plug-In . SVG Version: 6.00 Build 0)  -->
<svg version="1.1" id="Layer_1" xmlns="http://www.w3.org/2000/svg" xmlns:xlink="http://www.w3.org/1999/xlink" x="0px" y="0px"
	 viewBox="0 0 1000 1000" style="enable-background:new 0 0 1000 1000;" xml:space="preserve">
<style type="text/css">
	.st0{fill:#FFFFFF;}
	.st1{fill:none;stroke:#000000;stroke-linecap:round;stroke-linejoin:round;}
	.st2{fill:#FFFFFF;stroke:#000000;stroke-linecap:round;stroke-linejoin:round;}
	.st3{fill:#FFFFFF;stroke:#000000;}
	.st4{fill:none;stroke:#000000;}
</style>
<g>
	<g>
		<path class="st0" d="M474.9,527.8"/>
	</g>
	<g>
		<path class="st1" d="M474.9,527.8"/>
	</g>
</g>
<path class="st2" d="M481.1,508.2"/>
<path class="st2" d="M481.1,508.2"/>
<path class="st3" d="M476.8,462.6"/>
<g>
	<path class="st4" d="M476.9,462.5c-4.3,2.6-7,8.1-7,15.7c0,9.9,4.4,21.2,11.2,30.1c3.9,5.1,8.5,9.5,13.5,12.4
		c6.9,4,13.1,4.3,17.5,1.7"/>
	<path class="st4" d="M476.9,462.5l4.8-2.8l0,0c4.5-2.5,10.6-2.1,17.3,1.8c13.6,7.9,24.6,26.9,24.6,42.4c0,7.6-2.6,13-6.9,15.6
		l-4.7,3"/>
	<path class="st4" d="M512.1,522.4"/>
</g>
<polyline class="st4" points="481,508.2 474.8,511.8 474.8,527.8 503.8,544.5 518.4,536.1 518.4,519.9 517.2,519.2 "/>
</svg>
