<?xml version="1.0" encoding="utf-8"?>
<!-- Generator: Adobe Illustrator 19.1.0, SVG Export Plug-In . SVG Version: 6.00 Build 0)  -->
<svg version="1.1" id="Layer_1" xmlns="http://www.w3.org/2000/svg" xmlns:xlink="http://www.w3.org/1999/xlink" x="0px" y="0px"
	 viewBox="0 0 1000 1000" style="enable-background:new 0 0 1000 1000;" xml:space="preserve">
<style type="text/css">
	.st0{fill:#FFFFFF;}
</style>
<path class="st0" d="M14-2.4c0.3-0.8,0.1-1.7-0.5-2.3l-12-12c-0.4-0.4-1-0.6-1.5-0.6c-0.6,0-1.1,0.2-1.5,0.6l-12,12
	c-0.6,0.6-0.8,1.5-0.5,2.3c0.3,0.8,1.1,1.3,2,1.3h5.3v15.6c0,1.6,1.3,2.9,2.9,2.9h7.8c1.6,0,2.9-1.3,2.9-2.9V-1.1H12
	C12.9-1.1,13.7-1.6,14-2.4z"/>
<g>
</g>
<g>
</g>
<g>
</g>
<g>
</g>
<g>
</g>
<g>
</g>
</svg>
