<?xml version="1.0" encoding="utf-8"?>
<!-- Generator: Adobe Illustrator 19.1.0, SVG Export Plug-In . SVG Version: 6.00 Build 0)  -->
<svg version="1.1" id="Layer_1" xmlns="http://www.w3.org/2000/svg" xmlns:xlink="http://www.w3.org/1999/xlink" x="0px" y="0px"
	 viewBox="0 0 1000 1000" style="enable-background:new 0 0 1000 1000;" xml:space="preserve">
<style type="text/css">
	.st0{fill:#FFFFFF;}
</style>
<path class="st0" d="M63.6,37.1l-5.8-12.7C57.1,23,55.4,22.3,54,23c-1.4,0.7-2.1,2.4-1.4,3.8l2.9,6.3L11.1,15.7
	c0.7-1.6,1.1-3.3,1.1-5.1c0-6.1-4.3-11.2-9.9-12.5v-35.2l4.9,4.9c0.6,0.6,1.3,0.8,2,0.8s1.5-0.3,2-0.8c1.1-1.1,1.1-3,0-4.1l-9.9-9.9
	l0,0c-0.1-0.1-0.1-0.1-0.2-0.2c0,0,0,0-0.1,0s-0.1-0.1-0.2-0.1c0,0,0,0-0.1,0s-0.1-0.1-0.2-0.1l0,0c-0.1,0-0.1-0.1-0.2-0.1l0,0
	c-0.1,0-0.2-0.1-0.2-0.1l0,0c-0.1,0-0.2,0-0.2-0.1c0,0,0,0-0.1,0s-0.1,0-0.2,0s-0.2,0-0.3,0s-0.2,0-0.3,0s-0.1,0-0.2,0
	c0,0,0,0-0.1,0s-0.2,0-0.2,0.1l0,0c-0.1,0-0.2,0.1-0.2,0.1l0,0c-0.1,0-0.1,0.1-0.2,0.1l0,0c-0.1,0-0.1,0.1-0.2,0.1c0,0,0,0-0.1,0
	s-0.1,0.1-0.2,0.1c0,0,0,0-0.1,0c-0.1,0.1-0.1,0.1-0.2,0.2l0,0l-9.9,9.9c-1.1,1.1-1.1,3,0,4.1s3,1.1,4.1,0l4.9-4.9V-2
	c-5.7,1.3-9.9,6.4-9.9,12.5c0,2,0.5,3.9,1.3,5.6l-43.2,17l2.9-6.3c0.7-1.4,0-3.2-1.4-3.8c-1.4-0.7-3.2,0-3.8,1.4l-5.8,12.7
	c-0.7,1.4,0,3.2,1.4,3.8l12.7,5.8c0.4,0.2,0.8,0.3,1.2,0.3c1.1,0,2.1-0.6,2.6-1.7c0.7-1.4,0-3.2-1.4-3.8l-6.3-2.9l45-17.8
	c2.1,1.6,4.8,2.6,7.7,2.6c3.1,0,5.9-1.1,8.1-2.9l45.9,18.1l-6.3,2.9c-1.4,0.7-2.1,2.4-1.4,3.8c0.5,1.1,1.5,1.7,2.6,1.7
	c0.4,0,0.8-0.1,1.2-0.3l12.7-5.8C63.6,40.2,64.2,38.5,63.6,37.1z M-0.7,17.6c-3.9,0-7.1-3.2-7.1-7.1s3.2-7.1,7.1-7.1
	s7.1,3.2,7.1,7.1S3.2,17.6-0.7,17.6z"/>
</svg>
