<?xml version="1.0" encoding="utf-8"?>
<!-- Generator: Adobe Illustrator 19.1.0, SVG Export Plug-In . SVG Version: 6.00 Build 0)  -->
<svg version="1.1" id="Layer_1" xmlns="http://www.w3.org/2000/svg" xmlns:xlink="http://www.w3.org/1999/xlink" x="0px" y="0px"
	 viewBox="0 0 1000 1000" style="enable-background:new 0 0 1000 1000;" xml:space="preserve">
<style type="text/css">
	.st0{fill:none;stroke:#000000;stroke-linecap:round;stroke-linejoin:round;stroke-miterlimit:3.8637;}
	.st1{fill:none;stroke:#000000;stroke-width:0.25;stroke-linecap:round;stroke-linejoin:round;stroke-miterlimit:3.8637;}
	.st2{fill:none;stroke:#000000;stroke-width:0.25;stroke-linecap:round;stroke-linejoin:round;}
	.st3{fill:none;stroke:#000000;stroke-linecap:round;stroke-linejoin:round;}
</style>
<g>
	<line class="st0" x1="538" y1="551" x2="545.7" y2="576.8"/>
	<path class="st0" d="M449.5,445c1.8-1,3.9-1.5,6.3-1.2c2.4,0.2,5,1.1,7.7,2.7l0,0l0,0l0,0l0,0l23.6,13.6l23.5,13.6l23.6,13.6
		l23.5,13.6c2.7,1.6,5.4,3.7,7.7,6.3c2.4,2.5,4.5,5.4,6.3,8.5c1.8,3.1,3.3,6.4,4.3,9.7c1,3.3,1.6,6.6,1.6,9.8v2v2v2v2
		c0,3.1-0.6,5.8-1.6,8c-1,2.1-2.5,3.8-4.3,4.8"/>
</g>
<g>
	<path class="st1" d="M565.7,559.4c-3.6,2.5-8.9,2.4-14.8-1l-21.7-12.5l9.5,34.8L513,536.6l-56.3-32.5c-11-6.3-19.9-21.7-19.9-34.3
		v-8.1c0-12.6,8.9-17.7,19.9-11.3l0,0l94.2,54.4c11,6.3,19.9,21.7,19.9,34.3v8.1C570.8,553,568.9,557.2,565.7,559.4"/>
</g>
<g>
	<path class="st0" d="M538.6,580.7L513,536.6l-56.3-32.5c-11-6.3-19.9-21.7-19.9-34.3v-8.1c0-6.5,2.4-11,6.2-12.9"/>
	<polyline class="st1" points="546.2,555.7 529.2,545.9 538.6,580.7 	"/>
	<path class="st0" d="M565.5,559.6c-3.6,2.4-8.8,2.2-14.6-1.1l-12.8-7.4"/>
	<path class="st1" d="M443,448.8c3.6-1.8,8.4-1.5,13.7,1.6l0,0l94.2,54.4c11,6.3,19.9,21.7,19.9,34.3v8.1c0,6-2,10.3-5.3,12.5"/>
</g>
<line class="st0" x1="565.7" y1="559.4" x2="571.8" y2="555.9"/>
<line class="st0" x1="538.6" y1="580.8" x2="545.7" y2="576.8"/>
<line class="st0" x1="443" y1="448.8" x2="449.5" y2="445"/>
<polygon class="st1" points="446.3,463.1 558.1,527.8 558.1,542.1 446.3,477.5 "/>
<path class="st2" d="M551.7,552.5c0.6-0.4,0.9-1.1,0.9-2.2c0-2.2-1.6-4.9-3.5-6c-1-0.6-1.9-0.6-2.6-0.2"/>
<path class="st3" d="M546.6,544.2c-0.6,0.4-0.9,1.1-0.9,2.2c0,2.2,1.6,4.9,3.5,6c1,0.6,1.9,0.6,2.5,0.2"/>
<path class="st2" d="M549.2,544.3"/>
<path class="st3" d="M555.1,550.6c0.6-0.4,1-1.1,1-2.2c0-1.1-0.4-2.3-1-3.4c-0.6-1.1-1.5-2-2.5-2.6c-1-0.6-1.8-0.6-2.5-0.3"/>
<path class="st2" d="M552.7,550.3"/>
<line class="st3" x1="551.7" y1="552.5" x2="555.1" y2="550.6"/>
<line class="st3" x1="546.7" y1="544.1" x2="550.2" y2="542.1"/>
</svg>
