<?xml version="1.0" encoding="utf-8"?>
<!-- Generator: Adobe Illustrator 19.1.0, SVG Export Plug-In . SVG Version: 6.00 Build 0)  -->
<svg version="1.1" id="Layer_1" xmlns="http://www.w3.org/2000/svg" xmlns:xlink="http://www.w3.org/1999/xlink" x="0px" y="0px"
	 viewBox="0 0 1000 1000" style="enable-background:new 0 0 1000 1000;" xml:space="preserve">
<style type="text/css">
	.st0{fill:none;stroke:#000000;stroke-linecap:round;stroke-linejoin:round;stroke-miterlimit:3.8637;}
	.st1{fill:none;stroke:#000000;stroke-width:0.25;stroke-linecap:round;stroke-linejoin:round;}
	.st2{fill:none;stroke:#000000;stroke-linecap:round;stroke-linejoin:round;}
</style>
<g>
</g>
<path class="st0" d="M565.5,559.6c-3.6,2.4-8.8,2.2-14.6-1.1L538,551l7.7,25.8l-7.1,4L513,536.6l-56.3-32.5
	c-11-6.3-19.9-21.7-19.9-34.3v-8.1c0-6.5,2.4-11,6.2-12.9l6.5-3.8c1.8-1,3.9-1.5,6.3-1.2c2.4,0.2,5,1.1,7.7,2.7l0,0l0,0l0,0l0,0
	l23.6,13.6l23.5,13.6l23.6,13.6l23.5,13.6c2.7,1.6,5.4,3.7,7.7,6.3c2.4,2.5,4.5,5.4,6.3,8.5s3.3,6.4,4.3,9.7s1.6,6.6,1.6,9.8v2v2v2
	v2c0,3.1-0.6,5.8-1.6,8c-1,2.1-2.5,3.8-4.3,4.8L565.5,559.6z"/>
<path class="st1" d="M549.2,544.3"/>
<path class="st1" d="M552.7,550.3"/>
<path class="st2" d="M550.1,542.1l-3.5,2.1c-0.6,0.4-0.9,1.1-0.9,2.2c0,2.2,1.6,4.9,3.5,6c1,0.6,1.9,0.6,2.5,0.2l3.4-2
	c0.6-0.4,1-1.1,1-2.2c0-1.1-0.4-2.3-1-3.4c-0.6-1.1-1.5-2-2.5-2.6S550.8,541.8,550.1,542.1z"/>
</svg>
