<?xml version="1.0" encoding="utf-8"?>
<!-- Generator: Adobe Illustrator 19.1.0, SVG Export Plug-In . SVG Version: 6.00 Build 0)  -->
<svg version="1.1" id="Layer_1" xmlns="http://www.w3.org/2000/svg" xmlns:xlink="http://www.w3.org/1999/xlink" x="0px" y="0px"
	 viewBox="0 0 1000 1000" style="enable-background:new 0 0 1000 1000;" xml:space="preserve">
<style type="text/css">
	.st0{fill:#FFFFFF;}
</style>
<path class="st0" d="M14.5-36.3H8.1V-41H-8.4v4.7h-6c-3.9,0-7.1,3.2-7.1,7.1V34c0,3.9,3.2,7.1,7.1,7.1h28.9c3.9,0,7.1-3.2,7.1-7.1
	v-63.1C21.6-33.1,18.4-36.3,14.5-36.3z M-14.2-15.7h28.5v10.4h-28.5V-15.7z M-14.2-2.8h28.5V7.6h-28.5V-2.8z M-14.2,10.1h28.5v10.4
	h-28.5V10.1z M-14.2,33.5V23.1h28.5v10.4H-14.2z"/>
</svg>
