<?xml version="1.0" encoding="utf-8"?>
<!-- Generator: Adobe Illustrator 19.2.0, SVG Export Plug-In . SVG Version: 6.00 Build 0)  -->
<svg version="1.1" id="Layer_1" xmlns="http://www.w3.org/2000/svg" xmlns:xlink="http://www.w3.org/1999/xlink" x="0px" y="0px"
	 width="1000px" height="1000px" viewBox="0 0 1000 1000" style="enable-background:new 0 0 1000 1000;" xml:space="preserve">
<style type="text/css">
	.st0{fill:#FFFFFF;}
</style>
<path class="st0" d="M524.2,515.4c0.9,0.8,1.5,1.9,1.5,3.1c0,1.2-0.5,2.4-1.5,3.1l-25,20c-0.7,0.6-1.6,0.9-2.5,0.9
	c-0.6,0-1.2-0.1-1.7-0.4c-1.4-0.7-2.3-2.1-2.3-3.6v-28.6l-11.9,9.6c-0.7,0.6-1.6,0.9-2.5,0.9c-1.2,0-2.3-0.5-3.1-1.5
	c-1.4-1.7-1.1-4.2,0.6-5.6l16.5-13.3l-16.5-13.4c-1.7-1.4-2-3.9-0.6-5.6c1.4-1.7,3.9-2,5.6-0.6l11.9,9.6v-28.6
	c0-1.5,0.9-2.9,2.3-3.6c1.4-0.7,3-0.5,4.2,0.5l25,20c0.9,0.8,1.5,1.9,1.5,3.1c0,1.2-0.5,2.4-1.5,3.1L505,500L524.2,515.4z
	 M500.7,493.2l14.6-11.7l-14.6-11.8V493.2z M500.7,530.3l14.6-11.7l-14.6-11.8V530.3z"/>
</svg>
