<?xml version="1.0" encoding="utf-8"?>
<!-- Generator: Adobe Illustrator 19.1.0, SVG Export Plug-In . SVG Version: 6.00 Build 0)  -->
<svg version="1.1" id="Layer_1" xmlns="http://www.w3.org/2000/svg" xmlns:xlink="http://www.w3.org/1999/xlink" x="0px" y="0px"
	 viewBox="0 0 1000 1000" style="enable-background:new 0 0 1000 1000;" xml:space="preserve">
<style type="text/css">
	.st0{fill:#FFFFFF;}
</style>
<g>
	<path class="st0" d="M0-42.1c-23.2,0-42.1,18.9-42.1,42.1c0,23.2,18.9,42.1,42.1,42.1S42.1,23.2,42.1,0C42.1-23.2,23.2-42.1,0-42.1
		z M0,34.1c-18.8,0-34.1-15.3-34.1-34.1S-18.8-34.1,0-34.1S34.1-18.8,34.1,0S18.8,34.1,0,34.1z"/>
	<path class="st0" d="M0-21.6c-11.9,0-21.6,9.7-21.6,21.6c0,11.9,9.7,21.6,21.6,21.6S21.6,11.9,21.6,0C21.6-11.9,11.9-21.6,0-21.6z
		 M0,13.1c-7.2,0-13.1-5.9-13.1-13.1c0-7.2,5.9-13.1,13.1-13.1c7.2,0,13.1,5.9,13.1,13.1C13.1,7.2,7.2,13.1,0,13.1z"/>
	<path class="st0" d="M0-9.5c-2.8,0-5,1.4-5,3c0,1.7,2.3,3,5,3c2.8,0,5-1.4,5-3C5-8.2,2.8-9.5,0-9.5z"/>
</g>
<g>
</g>
<g>
</g>
<g>
</g>
<g>
</g>
<g>
</g>
<g>
</g>
</svg>
