<?xml version="1.0" encoding="utf-8"?>
<!-- Generator: Adobe Illustrator 19.1.0, SVG Export Plug-In . SVG Version: 6.00 Build 0)  -->
<svg version="1.1" id="Layer_1" xmlns="http://www.w3.org/2000/svg" xmlns:xlink="http://www.w3.org/1999/xlink" x="0px" y="0px"
	 viewBox="0 0 1000 1000" style="enable-background:new 0 0 1000 1000;" xml:space="preserve">
<g>
	<g>
		<path d="M45.7-5.5c-1-0.6-2.3-0.6-3.3,0l-17,10V-6.1c0-0.6-0.1-1.1-0.4-1.6c7.7-3.5,13-11.2,13-20.1c0-12.2-9.9-22.1-22-22.1
			c-7.2,0-13.6,3.5-17.6,8.8c-4-5.3-10.4-8.8-17.6-8.8c-12.2,0-22.1,9.9-22.1,22.1c0,9,5.4,16.7,13.2,20.2c-0.2,0.5-0.4,1-0.4,1.5
			v40.7c0,1.8,1.5,3.3,3.3,3.3h47.3c1.8,0,3.3-1.5,3.3-3.3V23.9l17,10c1,0.6,2.3,0.6,3.3,0c1-0.6,1.7-1.7,1.7-2.9V-2.6
			C47.4-3.8,46.7-4.9,45.7-5.5z M-1.7-14.6c1.5,2,3.3,3.7,5.4,5.1H-7.1C-5-10.9-3.2-12.6-1.7-14.6z M15.9-41
			c7.3,0,13.2,5.9,13.2,13.2c0,7.3-5.9,13.2-13.2,13.2c-7.3,0-13.2-5.9-13.2-13.2C2.7-35.1,8.7-41,15.9-41z M-32.5-27.8
			c0-7.3,5.9-13.2,13.2-13.2c7.3,0,13.2,5.9,13.2,13.2c0,7.3-5.9,13.2-13.2,13.2C-26.6-14.6-32.5-20.5-32.5-27.8z"/>
	</g>
</g>
<g>
</g>
<g>
</g>
<g>
</g>
<g>
</g>
<g>
</g>
<g>
</g>
</svg>
