<?xml version="1.0" encoding="utf-8"?>
<!-- Generator: Adobe Illustrator 19.1.0, SVG Export Plug-In . SVG Version: 6.00 Build 0)  -->
<svg version="1.1" id="Layer_1" xmlns="http://www.w3.org/2000/svg" xmlns:xlink="http://www.w3.org/1999/xlink" x="0px" y="0px"
	 viewBox="0 0 1000 1000" style="enable-background:new 0 0 1000 1000;" xml:space="preserve">
<style type="text/css">
	.st0{fill:#808285;stroke:#FFFFFF;stroke-width:0;stroke-linecap:round;stroke-linejoin:round;}
</style>
<rect x="-19" y="51.3" class="st0" width="1.6" height="20.7"/>
<rect x="9.6" y="51.3" class="st0" width="1.6" height="20.7"/>
<rect x="-29.4" y="51.3" class="st0" width="1.6" height="20.7"/>
<rect x="-24.2" y="51.3" class="st0" width="1.6" height="20.7"/>
<rect x="-26.8" y="51.3" class="st0" width="1.6" height="20.7"/>
<rect x="-21.6" y="51.3" class="st0" width="1.6" height="20.7"/>
<rect x="4.4" y="51.3" class="st0" width="1.6" height="20.7"/>
<rect x="1.8" y="51.3" class="st0" width="1.6" height="20.7"/>
<rect x="-0.8" y="51.3" class="st0" width="1.6" height="20.7"/>
<rect x="-16.4" y="51.3" class="st0" width="1.6" height="20.7"/>
<rect x="7" y="51.3" class="st0" width="1.6" height="20.7"/>
<rect x="-13.8" y="51.3" class="st0" width="1.6" height="20.7"/>
<rect x="-3.4" y="51.3" class="st0" width="1.6" height="20.7"/>
<rect x="-8.6" y="51.3" class="st0" width="1.6" height="20.7"/>
<rect x="-6" y="51.3" class="st0" width="1.6" height="20.7"/>
<rect x="-11.2" y="51.3" class="st0" width="1.6" height="20.7"/>
<path class="st0" d="M-46-43.1v-28.8c-0.5,0-1.1,0.1-1.6,0.2v30.5C-47.1-41.9-46.6-42.5-46-43.1z"/>
<path class="st0" d="M-48.6-39.8v-31.8c-0.5,0.1-1.1,0.2-1.6,0.3V-37C-49.7-38-49.2-38.9-48.6-39.8z"/>
<path class="st0" d="M-52.8-23.2v93.7c0.5,0.2,1.1,0.3,1.6,0.5v-87.3C-52-18.5-52.6-20.8-52.8-23.2z"/>
<path class="st0" d="M-51.2-34.8V-71c-0.5,0.1-1.1,0.3-1.6,0.5v42.6C-52.6-30.3-52-32.6-51.2-34.8z"/>
<path class="st0" d="M27.8-3.7v14.4l1.6-0.9V-4.8C28.9-4.4,28.3-4,27.8-3.7z"/>
<path class="st0" d="M30.4-5.5V9.2L32,8.3V-7C31.5-6.5,31-6,30.4-5.5z"/>
<path class="st0" d="M-43.4-45.5V-72h-0.3c-0.5,0-0.9,0-1.3,0v27.9C-44.5-44.6-44-45.1-43.4-45.5z"/>
<path class="st0" d="M-39.8-3.1V72h1.6V-2.3C-38.7-2.5-39.3-2.8-39.8-3.1z"/>
<path class="st0" d="M-50.2-14.1v85.3c0.5,0.1,1.1,0.2,1.6,0.3v-82.8C-49.2-12.2-49.7-13.1-50.2-14.1z"/>
<path class="st0" d="M-37.2,49.7V72h1.6V51C-36.2,50.7-36.8,50.3-37.2,49.7z"/>
<path class="st0" d="M-34.1,51.3c-0.2,0-0.4,0-0.5-0.1V72h1.6V51.3H-34.1z"/>
<rect x="-32" y="51.3" class="st0" width="1.6" height="20.7"/>
<path class="st0" d="M-42.4-4.8V72h1.6V-3.7C-41.4-4-41.9-4.4-42.4-4.8z"/>
<path class="st0" d="M-47.6-9.9v81.6c0.5,0.1,1.1,0.1,1.6,0.2V-8C-46.6-8.6-47.1-9.2-47.6-9.9z"/>
<path class="st0" d="M-45-7V72c0.4,0,0.9,0,1.3,0h0.3V-5.6C-44-6-44.5-6.5-45-7z"/>
<path class="st0" d="M25.2-2.2v1.9c0,0,0,0.1,0,0.1v12.4l1.6-0.9V-3.1C26.3-2.8,25.7-2.5,25.2-2.2z"/>
<path class="st0" d="M-55.4-69.4V69.4c0.5,0.2,1.1,0.5,1.6,0.7V-70.1C-54.3-69.9-54.9-69.7-55.4-69.4z"/>
<path class="st0" d="M64.2-63.2V63.2c0.6-0.6,1.1-1.2,1.6-1.8V-61.3C65.3-62,64.8-62.6,64.2-63.2z"/>
<path class="st0" d="M66.8-60V60c0.6-0.8,1.1-1.7,1.6-2.5V-57.5C67.9-58.3,67.4-59.2,66.8-60z"/>
<path class="st0" d="M61.6-65.6V65.6c0.6-0.5,1.1-0.9,1.6-1.4V-64.2C62.7-64.7,62.2-65.1,61.6-65.6z"/>
<path class="st0" d="M53.8-70.1V70.1c0.5-0.2,1.1-0.4,1.6-0.7V-69.4C54.9-69.7,54.3-69.9,53.8-70.1z"/>
<path class="st0" d="M59-67.5v135c0.5-0.4,1.1-0.7,1.6-1.1V-66.4C60.1-66.8,59.5-67.1,59-67.5z"/>
<path class="st0" d="M56.4-69V69c0.5-0.3,1.1-0.6,1.6-0.9V-68.1C57.5-68.4,56.9-68.7,56.4-69z"/>
<path class="st0" d="M-63.2-64.2V64.2c0.5,0.5,1,1,1.6,1.4V-65.6C-62.2-65.1-62.7-64.7-63.2-64.2z"/>
<path class="st0" d="M-68.4-57.5V57.5c0.5,0.9,1,1.7,1.6,2.5V-60C-67.4-59.2-67.9-58.3-68.4-57.5z"/>
<path class="st0" d="M-58-68.1V68.1c0.5,0.3,1.1,0.6,1.6,0.9V-69C-56.9-68.7-57.5-68.4-58-68.1z"/>
<path class="st0" d="M-71-51.1V51.1c0.4,1.5,1,3,1.6,4.4v-111C-70.1-54.1-70.6-52.6-71-51.1z"/>
<rect x="12.2" y="51.3" class="st0" width="1.6" height="20.7"/>
<path class="st0" d="M-60.6-66.4V66.4c0.5,0.4,1.1,0.8,1.6,1.1v-135C-59.5-67.1-60.1-66.8-60.6-66.4z"/>
<path class="st0" d="M69.4-55.5v111c0.6-1.4,1.2-2.9,1.6-4.4V-51.1C70.6-52.6,70.1-54.1,69.4-55.5z"/>
<path class="st0" d="M51.2-71V71c0.5-0.1,1.1-0.3,1.6-0.5v-141C52.3-70.7,51.7-70.8,51.2-71z"/>
<path class="st0" d="M-65.8-61.3V61.3c0.5,0.6,1,1.2,1.6,1.8V-63.2C-64.8-62.6-65.3-62-65.8-61.3z"/>
<path class="st0" d="M49,46.7c-0.1,0.1-0.2,0.1-0.4,0.2v24.7c0.5-0.1,1.1-0.2,1.6-0.3V45.6C49.9,46,49.5,46.4,49,46.7z"/>
<path class="st0" d="M25.2,35v12.4c0,0,0,0.1,0,0.1V72h1.6V36L25.2,35z"/>
<polygon class="st0" points="27.8,36.6 27.8,72 29.4,72 29.4,37.5 "/>
<path class="st0" d="M22.6,51.1V72h1.6V50C23.8,50.5,23.2,50.9,22.6,51.1z"/>
<rect x="14.8" y="51.3" class="st0" width="1.6" height="20.7"/>
<rect x="17.4" y="51.3" class="st0" width="1.6" height="20.7"/>
<path class="st0" d="M21.3,51.3H20V72h1.6V51.3C21.5,51.3,21.4,51.3,21.3,51.3z"/>
<polygon class="st0" points="30.4,38.1 30.4,72 32,72 32,39 "/>
<path class="st0" d="M43.4,45.7V72h0.3c0.5,0,0.9,0,1.3,0V46.6L43.4,45.7z"/>
<path class="st0" d="M46,47.1v24.8c0.5,0,1.1-0.1,1.6-0.2V47.2C47.1,47.2,46.5,47.2,46,47.1z"/>
<polygon class="st0" points="40.8,44.2 40.8,72 42.4,72 42.4,45.1 "/>
<polygon class="st0" points="35.6,41.1 35.6,72 37.2,72 37.2,42.1 "/>
<polygon class="st0" points="38.2,42.7 38.2,72 39.8,72 39.8,43.6 "/>
<polygon class="st0" points="33,39.6 33,72 34.6,72 34.6,40.5 "/>
<path class="st0" d="M8.6-50.7V-72H7v21.7C7.5-50.5,8.1-50.6,8.6-50.7z"/>
<path class="st0" d="M11.2-51.2V-72H9.6v21.1C10.1-51,10.7-51.1,11.2-51.2z"/>
<path class="st0" d="M0.8-47.6V-72h-1.6v25.4C-0.3-46.9,0.3-47.3,0.8-47.6z"/>
<path class="st0" d="M32-44.1V-72h-1.6v26.4C31-45.1,31.5-44.6,32-44.1z"/>
<path class="st0" d="M29.4-46.3V-72h-1.6v24.6C28.3-47.1,28.9-46.7,29.4-46.3z"/>
<path class="st0" d="M-25.2-51.3V-72h-1.6v20.7C-26.3-51.3-25.7-51.3-25.2-51.3z"/>
<path class="st0" d="M-30.4-51.1V-72H-32v21.1C-31.5-51-30.9-51.1-30.4-51.1z"/>
<path class="st0" d="M37.2-37.1V-72h-1.6v32.2C36.2-39,36.7-38,37.2-37.1z"/>
<path class="st0" d="M-9.6-44.5V-72h-1.6v26.2C-10.6-45.4-10.1-44.9-9.6-44.5z"/>
<path class="st0" d="M-27.8-51.3V-72h-1.6v20.8C-28.9-51.3-28.3-51.3-27.8-51.3z"/>
<path class="st0" d="M-14.8-48.2V-72h-1.6v23C-15.9-48.8-15.3-48.5-14.8-48.2z"/>
<path class="st0" d="M34.6-41.2V-72H33v28.9C33.6-42.5,34.1-41.9,34.6-41.2z"/>
<path class="st0" d="M16.4-51.2V-72h-1.6v20.7C15.3-51.3,15.9-51.3,16.4-51.2z"/>
<path class="st0" d="M-17.4-49.4V-72H-19v22C-18.5-49.8-17.9-49.6-17.4-49.4z"/>
<path class="st0" d="M-20-50.3V-72h-1.6v21.3C-21.1-50.6-20.5-50.5-20-50.3z"/>
<path class="st0" d="M21.6-50.2V-72H20v21.3C20.5-50.5,21.1-50.4,21.6-50.2z"/>
<path class="st0" d="M19-50.9V-72h-1.6v20.9C17.9-51.1,18.5-51,19-50.9z"/>
<path class="st0" d="M-33-50.7V-72h-1.6v21.8C-34.1-50.4-33.5-50.5-33-50.7z"/>
<path class="st0" d="M26.8-48v-24h-1.6v23.2C25.7-48.6,26.3-48.3,26.8-48z"/>
<path class="st0" d="M-22.6-50.9V-72h-1.6v20.8C-23.7-51.1-23.1-51-22.6-50.9z"/>
<path class="st0" d="M24.2-49.3V-72h-1.6v22.1C23.1-49.7,23.7-49.5,24.2-49.3z"/>
<path class="st0" d="M-12.2-46.6V-72h-1.6v24.4C-13.3-47.3-12.7-46.9-12.2-46.6z"/>
<path class="st0" d="M13.8-51.3V-72h-1.6v20.7C12.7-51.3,13.3-51.3,13.8-51.3z"/>
<path class="st0" d="M-7-41.7V-72h-1.6v28.5C-8-42.9-7.5-42.3-7-41.7z"/>
<path class="st0" d="M35.6-11.2V6.2l1.6-0.9V-14C36.7-13.1,36.2-12.1,35.6-11.2z"/>
<path class="st0" d="M3.4-49v-23H1.8v23.8C2.3-48.5,2.9-48.7,3.4-49z"/>
<polygon class="st0" points="42.4,2.2 42.4,-72 40.8,-72 40.8,3.1 "/>
<path class="st0" d="M47.6,0.1v-71.8c-0.5-0.1-1.1-0.1-1.6-0.2V0.2C46.5,0.1,47.1,0,47.6,0.1z"/>
<path class="st0" d="M45,0.6V-72c-0.4,0-0.9,0-1.3,0h-0.3V1.6L45,0.6z"/>
<path class="st0" d="M-1.8-45.8V-72h-1.6v27.6C-2.9-44.9-2.4-45.4-1.8-45.8z"/>
<path class="st0" d="M-40.8-47.4V-72h-1.6v25.7C-41.9-46.7-41.3-47.1-40.8-47.4z"/>
<path class="st0" d="M38.2,4.6l1.6-0.9V-23c-0.2,2.4-0.8,4.7-1.6,6.8V4.6z"/>
<path class="st0" d="M-38.2-48.8V-72h-1.6v24C-39.3-48.3-38.7-48.6-38.2-48.8z"/>
<path class="st0" d="M39.8-28.2V-72h-1.6v37.2C39-32.7,39.6-30.5,39.8-28.2z"/>
<path class="st0" d="M-35.6-49.9V-72h-1.6v22.7C-36.7-49.5-36.1-49.7-35.6-49.9z"/>
<path class="st0" d="M33-8V7.7l1.6-0.9V-9.8C34.1-9.2,33.6-8.6,33-8z"/>
<path class="st0" d="M6-50v-22H4.4v22.6C4.9-49.6,5.5-49.8,6-50z"/>
<path class="st0" d="M49,0.6c0.5,0.3,0.9,0.7,1.2,1.1v-73c-0.5-0.1-1.1-0.2-1.6-0.3v72C48.7,0.5,48.8,0.5,49,0.6z"/>
<path class="st0" d="M-4.4-43.5V-72H-6v30.4C-5.5-42.3-5-42.9-4.4-43.5z"/>
<path class="st0" d="M-8.6-7.6v3.6H-7v-5.4C-7.5-8.8-8-8.2-8.6-7.6z"/>
<path class="st0" d="M-11.2-5.3v1.2h1.6v-2.6C-10.1-6.1-10.6-5.7-11.2-5.3z"/>
<path class="st0" d="M-6-9.5v5.4h1.6v-3.6C-5-8.2-5.5-8.8-6-9.5z"/>
<path class="st0" d="M-12.8-4.1h0.6v-0.5C-12.4-4.4-12.6-4.2-12.8-4.1z"/>
<path class="st0" d="M-0.1-4.1c-0.2-0.2-0.4-0.3-0.7-0.5v0.5H-0.1z"/>
<path class="st0" d="M-3.4-6.6v2.6h1.6v-1.2C-2.4-5.7-2.9-6.2-3.4-6.6z"/>
<path class="st0" d="M17.4-40.6v30.2c0.5-0.1,1.1-0.3,1.6-0.4v-29.3C18.5-40.4,17.9-40.5,17.4-40.6z"/>
<path class="st0" d="M1.8-34.8v18.5c0.5,0.6,1,1.3,1.6,1.8v-22.2C2.8-36.1,2.3-35.4,1.8-34.8z"/>
<path class="st0" d="M-0.8-29.4v7.7c0.4,1.4,0.9,2.7,1.6,3.9v-15.5C0.1-32.1-0.4-30.8-0.8-29.4z"/>
<path class="st0" d="M26.8-34.4c-0.5-0.7-1-1.3-1.6-1.9v21.5c0.6-0.6,1.1-1.2,1.6-1.9V-34.4z"/>
<path class="st0" d="M22.6-38.4v25.8c0.6-0.4,1.1-0.8,1.6-1.2v-23.4C23.7-37.7,23.2-38.1,22.6-38.4z"/>
<path class="st0" d="M20-39.8v28.6c0.5-0.2,1.1-0.5,1.6-0.8v-27C21.1-39.3,20.6-39.6,20-39.8z"/>
<path class="st0" d="M14.8-41v30.8c0.5,0,1.1-0.1,1.6-0.2v-30.5C15.9-40.9,15.3-40.9,14.8-41z"/>
<path class="st0" d="M12.2-40.9v30.6c0.5,0.1,1.1,0.1,1.6,0.1V-41C13.3-41,12.7-40.9,12.2-40.9z"/>
<path class="st0" d="M7-39.2v27.4c0.5,0.3,1.1,0.5,1.6,0.7v-28.8C8.1-39.7,7.5-39.5,7-39.2z"/>
<path class="st0" d="M4.4-37.5v24c0.5,0.4,1,0.8,1.6,1.1v-26.2C5.4-38.3,4.9-37.9,4.4-37.5z"/>
<path class="st0" d="M9.6-40.3v29.5c0.5,0.2,1.1,0.3,1.6,0.4v-30.3C10.7-40.6,10.1-40.5,9.6-40.3z"/>
<path class="st0" d="M29.4-23.3v-4.5c-0.3-1.8-0.8-3.4-1.6-4.9v14.4C28.6-19.9,29.1-21.5,29.4-23.3z"/>
<path class="st0" d="M-37.2-37.2v23.3c0.5,0.4,1,0.8,1.6,1.2v-25.8C-36.2-38.1-36.7-37.7-37.2-37.2z"/>
<path class="st0" d="M-34.6-39v27c0.5,0.3,1,0.5,1.6,0.8v-28.6C-33.6-39.6-34.1-39.3-34.6-39z"/>
<path class="st0" d="M-42.4-27.6v4.2c0.2,1.8,0.8,3.5,1.6,5v-14.3C-41.6-31.1-42.2-29.4-42.4-27.6z"/>
<path class="st0" d="M-32-40.2v29.3c0.5,0.2,1.1,0.3,1.6,0.4v-30.2C-30.9-40.5-31.5-40.4-32-40.2z"/>
<path class="st0" d="M-39.8-34.3v17.6c0.5,0.7,1,1.3,1.6,1.9v-21.5C-38.8-35.7-39.3-35-39.8-34.3z"/>
<path class="st0" d="M-26.8-41v30.9c0.5,0,1.1,0,1.6-0.1v-30.6C-25.7-40.9-26.3-41-26.8-41z"/>
<path class="st0" d="M-19-38.7v26.2c0.6-0.3,1.1-0.7,1.6-1.1v-24C-17.9-37.9-18.4-38.3-19-38.7z"/>
<path class="st0" d="M-24.2-40.7v30.3c0.5-0.1,1.1-0.2,1.6-0.4v-29.5C-23.1-40.5-23.7-40.6-24.2-40.7z"/>
<path class="st0" d="M-16.4-36.6v22.2c0.6-0.6,1.1-1.2,1.6-1.8v-18.6C-15.3-35.5-15.8-36.1-16.4-36.6z"/>
<path class="st0" d="M-13.8-33.3v15.6c0.7-1.2,1.2-2.5,1.6-3.8v-7.9C-12.6-30.9-13.1-32.1-13.8-33.3z"/>
<path class="st0" d="M-21.6-40v28.8c0.5-0.2,1.1-0.4,1.6-0.7v-27.4C-20.5-39.5-21.1-39.7-21.6-40z"/>
<path class="st0" d="M-29.4-40.8v30.5c0.5,0.1,1.1,0.1,1.6,0.2V-41C-28.3-40.9-28.9-40.9-29.4-40.8z"/>
<g>
</g>
<g>
</g>
<g>
</g>
<g>
</g>
<g>
</g>
<g>
</g>
</svg>
