<?xml version="1.0" encoding="utf-8"?>
<!-- Generator: Adobe Illustrator 19.1.0, SVG Export Plug-In . SVG Version: 6.00 Build 0)  -->
<svg version="1.1" id="Layer_1" xmlns="http://www.w3.org/2000/svg" xmlns:xlink="http://www.w3.org/1999/xlink" x="0px" y="0px"
	 viewBox="0 0 1000 1000" style="enable-background:new 0 0 1000 1000;" xml:space="preserve">
<style type="text/css">
	.st0{fill:#808285;stroke:#FFFFFF;stroke-width:0;stroke-linecap:round;stroke-linejoin:round;}
</style>
<g>
	<path class="st0" d="M43.7-72h-87.3C-59.3-72-72-59.3-72-43.7v87.3C-72,59.3-59.3,72-43.7,72h87.3C59.3,72,72,59.3,72,43.7v-87.3
		C72-59.3,59.3-72,43.7-72z M51.9,43.3c0,1.4-0.7,2.7-2,3.4c-1.2,0.7-2.7,0.7-3.9,0L26.2,35v12.4c0,2.1-1.7,3.9-3.9,3.9h-55.4
		c-2.1,0-3.9-1.7-3.9-3.9V-0.2c0-0.6,0.2-1.2,0.4-1.8c-9.1-4-15.4-13.1-15.4-23.6c0-14.2,11.6-25.8,25.8-25.8
		c8.4,0,15.9,4.1,20.6,10.3c4.7-6.3,12.2-10.3,20.6-10.3c14.2,0,25.8,11.6,25.8,25.8c0,10.4-6.2,19.5-15.2,23.5
		c0.3,0.5,0.5,1.2,0.5,1.8v12.4L46.1,0.6c1.2-0.7,2.7-0.7,3.9,0c1.2,0.7,2,2,2,3.4V43.3z"/>
	<path class="st0" d="M-5.5-10.1c-1.8,2.3-3.9,4.4-6.4,6H0.9C-1.6-5.7-3.7-7.7-5.5-10.1z"/>
	<path class="st0" d="M30.6-25.5c0-8.5-6.9-15.4-15.4-15.4C6.6-41-0.3-34.1-0.3-25.5c0,8.5,6.9,15.4,15.4,15.4
		C23.7-10.1,30.6-17,30.6-25.5z"/>
	<path class="st0" d="M-26.1-41c-8.5,0-15.4,6.9-15.4,15.4c0,8.5,6.9,15.4,15.4,15.4c8.5,0,15.4-6.9,15.4-15.4
		C-10.7-34.1-17.6-41-26.1-41z"/>
</g>
<g>
</g>
<g>
</g>
<g>
</g>
<g>
</g>
<g>
</g>
<g>
</g>
</svg>
