<?xml version="1.0" encoding="utf-8"?>
<!-- Generator: Adobe Illustrator 19.1.0, SVG Export Plug-In . SVG Version: 6.00 Build 0)  -->
<svg version="1.1" id="Layer_1" xmlns="http://www.w3.org/2000/svg" xmlns:xlink="http://www.w3.org/1999/xlink" x="0px" y="0px"
	 viewBox="0 0 1000 1000" style="enable-background:new 0 0 1000 1000;" xml:space="preserve">
<style type="text/css">
	.st0{fill:#FFFFFF;}
</style>
<g>
	<path class="st0" d="M35.5-4.4c0.2-0.9,0.2-1.8,0.2-2.7c0-8.5-6.9-15.4-15.4-15.4c-1.9,0-3.6,0.3-5.3,0.9c-5-7.8-13.8-13-23.7-13
		c-15.6,0-28.3,12.6-28.3,28.3c0,0.7,0.1,1.5,0.1,2.2C-44.4-2.3-50,4.6-50,12.7c0,9.6,7.8,17.4,17.4,17.4h65.2
		c9.6,0,17.4-7.8,17.4-17.4C50,4.1,43.7-3,35.5-4.4z"/>
</g>
<g>
</g>
<g>
</g>
<g>
</g>
<g>
</g>
<g>
</g>
<g>
</g>
</svg>
