<?xml version="1.0" encoding="utf-8"?>
<!-- Generator: Adobe Illustrator 19.1.0, SVG Export Plug-In . SVG Version: 6.00 Build 0)  -->
<svg version="1.1" id="Layer_1" xmlns="http://www.w3.org/2000/svg" xmlns:xlink="http://www.w3.org/1999/xlink" x="0px" y="0px"
	 viewBox="0 0 1000 1000" style="enable-background:new 0 0 1000 1000;" xml:space="preserve">
<style type="text/css">
	.st0{fill:#FFFFFF;}
</style>
<g>
	<path class="st0" d="M0-42.1c-23.2,0-42.1,18.9-42.1,42.1S-23.2,42.1,0,42.1S42.1,23.2,42.1,0S23.2-42.1,0-42.1z M0,34.1
		c-18.8,0-34.1-15.3-34.1-34.1S-18.8-34.1,0-34.1S34.1-18.8,34.1,0S18.8,34.1,0,34.1z"/>
	<path class="st0" d="M18.6-21.2c-0.5,0-1,0.1-1.4,0.4L-5.3-6.1c-0.3,0.2-0.6,0.5-0.8,0.8l-14.6,22.5c-0.7,1-0.5,2.4,0.3,3.2
		c0.5,0.5,1.1,0.8,1.8,0.8c0.5,0,1-0.1,1.4-0.4L5.3,6.1c0.3-0.2,0.6-0.4,0.8-0.8l14.6-22.5c0.7-1,0.5-2.4-0.3-3.2
		C19.9-20.9,19.3-21.2,18.6-21.2z M0,4c-2.2,0-4-1.8-4-4s1.8-4,4-4s4,1.8,4,4S2.2,4,0,4z"/>
</g>
<g>
</g>
<g>
</g>
<g>
</g>
<g>
</g>
<g>
</g>
<g>
</g>
</svg>
