<?xml version="1.0" encoding="utf-8"?>
<!-- Generator: Adobe Illustrator 19.1.0, SVG Export Plug-In . SVG Version: 6.00 Build 0)  -->
<svg version="1.1" id="Layer_1" xmlns="http://www.w3.org/2000/svg" xmlns:xlink="http://www.w3.org/1999/xlink" x="0px" y="0px"
	 viewBox="0 0 1000 1000" style="enable-background:new 0 0 1000 1000;" xml:space="preserve">
<style type="text/css">
	.st0{fill:#FFFFFF;}
</style>
<g>
	<g>
		<path class="st0" d="M-28.4-18.8c0.6,0.1,1.1,0.1,2.8-1.1c0.7-0.6,1.8-1.5,2.8-2.8l0.4-0.6c3.7-5,12.5-16.6,25.1-15.9
			c10.4,0.8,17.8,8.6,21.3,22.7c0.1,0.5,0.2,0.8,0.3,1c0.5,2.3,1.5,5.2,2.8,6.1c0.3,0.2,0.7,0.3,1.1,0.3c0.6,0,1.1-0.3,1.5-0.8
			c0.6-0.8,0.4-1.9-0.3-2.5c-0.4-0.5-1-2.4-1.4-4.2c0-0.1-0.1-0.2-0.1-0.3c0-0.1-0.1-0.4-0.2-0.6c-0.6-2.2-2.1-8.2-5.7-13.7
			c-4.7-7.2-11-11.1-18.9-11.7c0,0,0,0,0,0c-14.6-0.7-24.1,12-28.2,17.4l-0.4,0.6c-1.1,1.5-2.4,2.4-2.9,2.7
			c-0.2,0.1-0.3,0.1-0.4,0.2c-0.6,0.4-0.9,1.2-0.7,1.9C-29.7-19.5-29.1-19-28.4-18.8z"/>
		<path class="st0" d="M17.6-11.8c1.4-3.5,1.4-7,0.1-9.8c-1.2-2.5-3.4-4.3-6.4-5.2c-4.4-1.3-9.7,1.1-14.6,6.7
			c-0.1,0.1-7,7.4-14.3,11.8c-0.1,0-5.4,3.2-11,4.7c-1,0.3-1.6,1.3-1.3,2.3c0.3,1,1.3,1.6,2.3,1.3c6.1-1.6,11.7-5,11.9-5.2
			C-7.8-10-0.6-17.6-0.6-17.7c3-3.4,7.3-6.6,10.8-5.6c2,0.6,3.4,1.7,4.1,3.3c0.9,1.8,0.8,4.3-0.2,6.9C12.3-8.5,6.5-2.8-2.2,2.7
			c-4.4,2.8-15.3,9.7-23.1,13c-0.9,0.4-1.4,1.5-1,2.4c0.3,0.7,1,1.1,1.7,1.1c0.2,0,0.5,0,0.7-0.1c8-3.4,19.2-10.4,23.6-13.3
			C6.3,1.6,14.8-4.9,17.6-11.8z"/>
		<path class="st0" d="M-12-25.5c-0.8,0.9-1.6,1.9-2.4,2.8c-1.1,1.2-2.2,2.4-3.4,3.5c-1.2,1.1-2.2,1.9-3.7,2.8
			c-1.5,0.9-3.1,1.8-4.7,2.6c-0.6,0.3-1,0.4-1.6,0.6c-1,0.3-1.6,1.3-1.3,2.3c0.3,0.9,1.3,1.6,2.3,1.3c1.9-0.6,3.6-1.5,5.3-2.5
			c1.4-0.8,2.9-1.5,4.2-2.5c2.6-1.9,4.8-4.2,6.8-6.7c0.8-1,1.7-2,2.6-2.9c0.5-0.5,1-1,1.5-1.5c0.3-0.2,0.6-0.5,0.8-0.7
			c0.1-0.1,0.3-0.2,0.4-0.4c0,0,0.3-0.3,0.4-0.3c1.3-1,2.6-1.8,4.1-2.6C0.6-30.5,2-31,3.6-31.3c0.5-0.1,0.7-0.1,1.1-0.2
			c1-0.1,1.8-0.8,1.8-1.8c0-0.9-0.8-1.9-1.8-1.8C-2-34.5-7.6-30.3-12-25.5z"/>
		<path class="st0" d="M-26.3,9.6c4-1.4,24.5-9,35.9-25.1c0.6-0.8,0.4-2-0.4-2.6c-0.8-0.6-2-0.4-2.6,0.4C-4.2-2.4-23.7,4.9-27.5,6.2
			c-0.1,0-0.1,0-0.1,0.1c-0.9,0.4-1.4,1.4-1.1,2.4c0.3,0.7,1,1.2,1.7,1.2C-26.8,9.8-26.6,9.7-26.3,9.6L-26.3,9.6z"/>
		<path class="st0" d="M23.7,20.6c-2.5-0.8-5.7-3.1-8.7-5.2c-4.4-3.1-8.1-5.8-11.2-5.3c-2.3,0.4-6.3,3-12.7,7.2
			c-4.6,3-9.8,6.4-12,7.1c-1,0.3-1.6,1.3-1.3,2.2c0.2,0.8,1,1.4,1.8,1.4c0.2,0,0.3,0,0.5-0.1c2.8-0.8,7.8-4.1,13.1-7.5
			c4.3-2.8,9.6-6.3,11.3-6.6c1.6-0.3,5.4,2.4,8.4,4.6c3.2,2.3,6.6,4.7,9.6,5.7c1,0.3,2-0.2,2.3-1.2C25.1,21.9,24.6,20.9,23.7,20.6z"
			/>
		<path class="st0" d="M19.1,29.6c-1.5-0.5-3.9-2-6.2-3.5c-4.9-3-8-4.9-10.3-4.5c-2.3,0.4-7,3.6-15,9.5c-1,0.7-1.8,1.3-2.4,1.7
			c-0.8,0.6-1,1.7-0.4,2.6c0.4,0.5,0.9,0.8,1.5,0.8c0.4,0,0.7-0.1,1.1-0.3c0.6-0.4,1.5-1.1,2.5-1.8c3.2-2.3,11.6-8.5,13.5-8.8
			c1.1-0.1,5.3,2.5,7.7,4c2.6,1.6,5.1,3.1,6.9,3.8c1,0.3,2-0.1,2.3-1.1C20.5,31,20,29.9,19.1,29.6z"/>
		<path class="st0" d="M12.9,38.7c-1-0.7-2-1.4-2.9-2c-3-2.2-5.6-4-8.5-3.5c-3.2,0.6-8.3,5.7-9.3,6.7c-0.7,0.7-0.7,1.9,0,2.6
			C-7.4,42.8-7,43-6.5,43c0.5,0,1-0.2,1.3-0.6c2.5-2.5,5.9-5.4,7.3-5.7c1.3-0.2,3.4,1.2,5.7,2.9c0.9,0.6,1.9,1.4,3,2.1
			c0.8,0.6,2,0.3,2.5-0.5C13.9,40.4,13.7,39.2,12.9,38.7z"/>
		<path class="st0" d="M29,0.8c-1.5-0.6-3.1-1.3-4.4-2.4c-1.4-1.2-2.1-2.7-2.4-4.5c-0.4-2.3-3.9-1.3-3.5,1C19.5-0.4,23,2.2,27.2,4
			c0.9,0.4,2,0.3,2.5-0.7C30.1,2.5,29.9,1.2,29,0.8z"/>
		<path class="st0" d="M25.4,10.4c-1.4-0.4-2.4-1-3.9-1.8c-2.7-1.6-5.1-3.9-6.3-6.8c-0.4-0.9-1.2-1.6-2.3-1.3
			c-0.9,0.2-1.7,1.3-1.3,2.3c2.2,5.4,7.2,9.5,12.7,11.2C26.7,14.6,27.7,11.1,25.4,10.4z"/>
	</g>
</g>
<g>
</g>
<g>
</g>
<g>
</g>
<g>
</g>
<g>
</g>
<g>
</g>
</svg>
