<?xml version="1.0" encoding="utf-8"?>
<!-- Generator: Adobe Illustrator 19.1.0, SVG Export Plug-In . SVG Version: 6.00 Build 0)  -->
<svg version="1.1" id="Layer_1" xmlns="http://www.w3.org/2000/svg" xmlns:xlink="http://www.w3.org/1999/xlink" x="0px" y="0px"
	 viewBox="0 0 1000 1000" style="enable-background:new 0 0 1000 1000;" xml:space="preserve">
<style type="text/css">
	.st0{fill:none;}
</style>
<g id="Layer_1_1_">
</g>
<g>
	<path class="st0" d="M11.5-18.1C11.4-13.3,10.2-1.8,0.2-1.8c-2,0-1.8,3.4,0.3,3.4c12.2,0,13.9-13.7,14-19.7"/>
	<path class="st0" d="M11.5-18.1c-0.8-0.3-1.4-0.9-1.9-1.6C8.5-21.6,9.2-23.9,11-25c1.9-1.1,4.2-0.4,5.3,1.4
		c1.1,1.9,0.4,4.2-1.4,5.3c-0.1,0.1-0.3,0.1-0.5,0.2"/>
	<path class="st0" d="M11.5-18.1c0.9,0.4,2,0.4,3,0"/>
</g>
</svg>
