<?xml version="1.0" encoding="utf-8"?>
<!-- Generator: Adobe Illustrator 19.1.0, SVG Export Plug-In . SVG Version: 6.00 Build 0)  -->
<svg version="1.1" id="Layer_1" xmlns="http://www.w3.org/2000/svg" xmlns:xlink="http://www.w3.org/1999/xlink" x="0px" y="0px"
	 viewBox="0 0 1000 1000" style="enable-background:new 0 0 1000 1000;" xml:space="preserve">
<style type="text/css">
	.st0{fill:none;stroke:#000000;stroke-linecap:round;stroke-linejoin:round;}
	.st1{fill:#00A651;stroke:#010101;stroke-width:0.25;}
</style>
<path class="st0" d="M472.5,495.1"/>
<path class="st1" d="M500.2,498.4v38.4l30.9-17.9v-38.5L500.2,498.4z M512.3,522.4l2.7-15.4l0,0l-0.6-0.4c-0.4,0-0.7,0-1-0.1
	c-0.6-0.5-0.9-1.4-0.9-2.5c0-2.7,1.9-5.9,4.2-7.3c1-0.6,2-0.7,2.7-0.5l0,0c0.6,0.5,0.9,1.4,0.9,2.5c0,2-1,4.3-2.5,5.9l3,12.9
	L512.3,522.4z"/>
<g>
</g>
<g>
</g>
<g>
</g>
<g>
</g>
<g>
</g>
<g>
</g>
</svg>
