<?xml version="1.0" encoding="utf-8"?>
<!-- Generator: Adobe Illustrator 19.1.0, SVG Export Plug-In . SVG Version: 6.00 Build 0)  -->
<svg version="1.1" id="Layer_1" xmlns="http://www.w3.org/2000/svg" xmlns:xlink="http://www.w3.org/1999/xlink" x="0px" y="0px"
	 viewBox="0 0 1000 1000" style="enable-background:new 0 0 1000 1000;" xml:space="preserve">
<style type="text/css">
	.st0{fill:none;stroke:#000000;stroke-width:0.25;stroke-linecap:round;stroke-linejoin:round;}
	.st1{fill:none;stroke:#000000;stroke-linecap:round;stroke-linejoin:round;}
	.st2{fill:none;stroke:#000000;stroke-linecap:round;}
	.st3{fill:none;stroke:#000000;}
	.st4{fill:none;stroke:#000000;stroke-width:0.25;}
	.st5{fill:#FFFFFF;stroke:#000000;stroke-width:0.25;stroke-miterlimit:10;}
	.st6{fill:none;stroke:#000000;stroke-width:0.25;stroke-miterlimit:10;}
</style>
<g id="Layer_1_1_">
</g>
<g id="Layer_2">
	<line class="st0" x1="468.8" y1="480.4" x2="500.3" y2="498.4"/>
	<polyline class="st1" points="500.3,536.8 468.8,518.8 468.8,480.4 	"/>
	<line class="st2" x1="500.3" y1="462.2" x2="531.2" y2="480.4"/>
	<polyline class="st0" points="500.3,498.4 500.3,536.8 500,536.7 	"/>
	<line class="st1" x1="531.3" y1="480.5" x2="531.2" y2="518.9"/>
	<line class="st3" x1="468.8" y1="480.4" x2="500.3" y2="462.2"/>
	<line class="st4" x1="500.3" y1="498.4" x2="531.2" y2="480.4"/>
	<line class="st3" x1="500.3" y1="536.8" x2="531.2" y2="518.9"/>
	<path class="st5" d="M521.4,517.9l-3-12.9c1.5-1.6,2.5-3.9,2.5-5.9c0-2.7-1.9-3.8-4.2-2.4s-4.2,4.6-4.2,7.3c0,2,1,3.1,2.5,3
		l-2.8,16.2L521.4,517.9z"/>
	<path class="st6" d="M512.3,522.4l8.5-4.9l-3-12.9c1.5-1.6,2.5-3.9,2.5-5.9c0-1.1-0.3-2-0.9-2.5"/>
	<path class="st6" d="M521.4,517.9"/>
	<line class="st6" x1="517.8" y1="504.7" x2="518.4" y2="505"/>
	<path class="st6" d="M513.4,506.5c0.3,0.1,0.6,0.2,1,0.1l0.6,0.4"/>
	<line class="st6" x1="520.8" y1="517.5" x2="521.4" y2="517.9"/>
</g>
</svg>
