<?xml version="1.0" encoding="utf-8"?>
<!-- Generator: Adobe Illustrator 19.1.0, SVG Export Plug-In . SVG Version: 6.00 Build 0)  -->
<svg version="1.1" id="Layer_1" xmlns="http://www.w3.org/2000/svg" xmlns:xlink="http://www.w3.org/1999/xlink" x="0px" y="0px"
	 viewBox="104 113 1000 1000" style="enable-background:new 104 113 1000 1000;" xml:space="preserve">
<style type="text/css">
	.st0{fill:#FFFFFF;}
</style>
<g>
	<path class="st0" d="M104,31.3c-15.6,0-28.3,12.7-28.3,28.3c0,15,25.7,50.2,26.8,51.7l1,1.4c0.1,0.2,0.3,0.3,0.5,0.3
		s0.4-0.1,0.5-0.3l1-1.4c1.1-1.5,26.8-36.6,26.8-51.7C132.3,44,119.6,31.3,104,31.3z M104,49.5c5.6,0,10.2,4.6,10.2,10.2
		c0,5.5-4.6,10.1-10.2,10.1s-10.2-4.6-10.2-10.2S98.4,49.5,104,49.5z"/>
</g>
</svg>
