<?xml version="1.0" encoding="utf-8"?>
<!-- Generator: Adobe Illustrator 19.1.0, SVG Export Plug-In . SVG Version: 6.00 Build 0)  -->
<svg version="1.1" id="Layer_1" xmlns="http://www.w3.org/2000/svg" xmlns:xlink="http://www.w3.org/1999/xlink" x="0px" y="0px"
	 viewBox="0 0 1000 1000" style="enable-background:new 0 0 1000 1000;" xml:space="preserve">
<g>
	<path d="M-85.4,16.5c-0.2-0.5-0.4-1.2-0.4-2.1V-0.5h4.5v-2.3h-4.5v-6.6h-2.7v6.6h-3.8v2.3h3.8v15.1c0,1.9,0.3,3.2,1,3.9
		c0.7,0.7,2,1,3.8,1c0.4,0,0.8,0,1.2,0c0.4,0,0.8,0,1.2,0v-2.3c-0.8,0.1-1.5,0.1-2.3,0.1C-84.6,17.3-85.2,17-85.4,16.5z"/>
	<path d="M-63.7,0.5c-0.8-1.2-1.8-2.1-3.1-2.8C-68-3-69.5-3.4-71.3-3.4c-1.7,0-3.2,0.3-4.5,1c-1.3,0.7-2.3,1.6-3.1,2.7
		c-0.8,1.1-1.4,2.3-1.8,3.7c-0.4,1.4-0.6,2.8-0.6,4.3c0,1.6,0.2,3.1,0.6,4.5c0.4,1.4,1,2.7,1.8,3.7c0.8,1.1,1.8,1.9,3.1,2.5
		c1.3,0.6,2.8,0.9,4.5,0.9c2.8,0,5-0.7,6.5-2.1c1.5-1.4,2.6-3.3,3.1-5.8h-2.7c-0.4,1.7-1.2,3.1-2.3,4.1c-1.1,1-2.7,1.5-4.6,1.5
		c-1.3,0-2.4-0.3-3.3-0.8c-0.9-0.5-1.7-1.2-2.3-2.1c-0.6-0.8-1-1.8-1.3-2.8c-0.3-1-0.4-2-0.4-3h17c0.1-1.5-0.1-3.1-0.4-4.6
		C-62.4,3-62.9,1.7-63.7,0.5z M-78.6,6.8c0.1-1,0.3-2,0.7-2.9c0.4-1,0.8-1.8,1.4-2.5c0.6-0.7,1.3-1.3,2.2-1.8c0.9-0.4,1.8-0.7,3-0.7
		c1.1,0,2.1,0.2,2.9,0.7c0.9,0.4,1.6,1,2.2,1.8c0.6,0.7,1.1,1.6,1.4,2.5c0.3,0.9,0.5,1.9,0.5,3H-78.6z"/>
	<rect x="-60.3" y="-11.2" width="2.7" height="30.5"/>
	<path d="M-38.3,0.5c-0.8-1.2-1.8-2.1-3.1-2.8c-1.3-0.7-2.8-1.1-4.5-1.1c-1.7,0-3.2,0.3-4.5,1c-1.3,0.7-2.3,1.6-3.1,2.7
		c-0.8,1.1-1.4,2.3-1.8,3.7c-0.4,1.4-0.6,2.8-0.6,4.3c0,1.6,0.2,3.1,0.6,4.5c0.4,1.4,1,2.7,1.8,3.7c0.8,1.1,1.8,1.9,3.1,2.5
		c1.3,0.6,2.8,0.9,4.5,0.9c2.8,0,5-0.7,6.5-2.1c1.5-1.4,2.6-3.3,3.1-5.8H-39c-0.4,1.7-1.2,3.1-2.3,4.1c-1.1,1-2.7,1.5-4.6,1.5
		c-1.3,0-2.4-0.3-3.3-0.8c-0.9-0.5-1.7-1.2-2.3-2.1c-0.6-0.8-1-1.8-1.3-2.8c-0.3-1-0.4-2-0.4-3h17c0.1-1.5-0.1-3.1-0.4-4.6
		C-37,3-37.5,1.7-38.3,0.5z M-53.2,6.8c0.1-1,0.3-2,0.7-2.9c0.4-1,0.8-1.8,1.4-2.5c0.6-0.7,1.3-1.3,2.2-1.8c0.9-0.4,1.8-0.7,3-0.7
		c1.1,0,2.1,0.2,2.9,0.7c0.9,0.4,1.6,1,2.2,1.8c0.6,0.7,1.1,1.6,1.4,2.5c0.3,0.9,0.5,1.9,0.5,3H-53.2z"/>
	<path d="M-17,0.1c-0.9-1.1-2-1.9-3.3-2.5c-1.3-0.6-2.8-0.9-4.5-0.9c-1.7,0-3.2,0.3-4.5,0.9c-1.3,0.6-2.4,1.5-3.3,2.5
		c-0.9,1.1-1.6,2.3-2,3.7c-0.5,1.4-0.7,2.9-0.7,4.5c0,1.6,0.2,3.1,0.7,4.5c0.5,1.4,1.1,2.6,2,3.7c0.9,1.1,2,1.9,3.3,2.5
		c1.3,0.6,2.8,0.9,4.5,0.9c1.7,0,3.2-0.3,4.5-0.9c1.3-0.6,2.4-1.4,3.3-2.5c0.9-1.1,1.6-2.3,2-3.7c0.5-1.4,0.7-2.9,0.7-4.5
		c0-1.6-0.2-3.1-0.7-4.5C-15.4,2.4-16.1,1.1-17,0.1z M-17.5,11.7c-0.3,1.1-0.8,2.1-1.5,3c-0.6,0.9-1.4,1.6-2.4,2.1
		c-1,0.5-2.1,0.8-3.4,0.8s-2.4-0.3-3.4-0.8c-1-0.5-1.8-1.3-2.4-2.1c-0.6-0.9-1.1-1.9-1.5-3c-0.3-1.1-0.5-2.3-0.5-3.4
		c0-1.2,0.2-2.3,0.5-3.4c0.3-1.1,0.8-2.1,1.5-3c0.6-0.9,1.4-1.6,2.4-2.1c1-0.5,2.1-0.8,3.4-0.8s2.4,0.3,3.4,0.8
		c1,0.5,1.8,1.3,2.4,2.1c0.6,0.9,1.1,1.9,1.5,3C-17.1,6-17,7.1-17,8.3C-17,9.5-17.1,10.6-17.5,11.7z"/>
	<path d="M7.6,8.3c0-1.6-0.2-3.1-0.6-4.5C6.6,2.4,6,1.2,5.2,0.1C4.3-1,3.3-1.8,2.1-2.4C0.8-3.1-0.6-3.4-2.3-3.4
		c-0.8,0-1.6,0.1-2.4,0.3c-0.8,0.2-1.5,0.5-2.2,0.9c-0.7,0.4-1.3,0.9-1.8,1.5C-9.3,0-9.7,0.7-10,1.5h-0.1v-12.7h-2.7v30.5h2.5v-4.2
		h0.1c0.6,1.5,1.6,2.7,3.1,3.6c1.4,0.8,3,1.2,4.8,1.2c1.7,0,3.1-0.3,4.4-0.9c1.2-0.6,2.3-1.5,3.1-2.5C6,15.4,6.6,14.2,7,12.8
		C7.4,11.4,7.6,9.9,7.6,8.3z M4.5,11.7c-0.3,1.1-0.7,2.1-1.3,3c-0.6,0.9-1.3,1.6-2.2,2.2c-0.9,0.6-2,0.8-3.3,0.8
		c-1.4,0-2.6-0.3-3.6-0.8c-1-0.6-1.8-1.3-2.4-2.2c-0.6-0.9-1.1-1.9-1.3-3c-0.3-1.1-0.4-2.3-0.4-3.4c0-1.1,0.1-2.3,0.4-3.4
		c0.3-1.1,0.7-2.1,1.3-3C-7.7,1-6.9,0.3-5.9-0.3s2.2-0.8,3.6-0.8C-1-1.1,0.1-0.8,1-0.3C1.9,0.3,2.6,1,3.2,1.9c0.6,0.9,1,1.9,1.3,3
		C4.8,6,4.9,7.2,4.9,8.3C4.9,9.4,4.8,10.6,4.5,11.7z"/>
	<path d="M9.7,22c0,0.9-0.1,1.7-0.4,2.3c-0.3,0.6-1,0.9-2,0.9c-0.2,0-0.4,0-0.7,0c-0.3,0-0.5,0-0.7-0.1v2.2c0.3,0,0.6,0,0.9,0
		c0.3,0,0.6,0,0.9,0c0.9,0,1.7-0.2,2.3-0.5c0.6-0.3,1.1-0.8,1.5-1.3c0.4-0.6,0.6-1.2,0.7-1.9c0.1-0.7,0.2-1.5,0.2-2.4V-2.7H9.7V22z"
		/>
	<path d="M31.8,0.5c-0.8-1.2-1.8-2.1-3.1-2.8C27.5-3,26-3.4,24.3-3.4c-1.7,0-3.2,0.3-4.5,1c-1.3,0.7-2.3,1.6-3.1,2.7
		c-0.8,1.1-1.4,2.3-1.8,3.7c-0.4,1.4-0.6,2.8-0.6,4.3c0,1.6,0.2,3.1,0.6,4.5c0.4,1.4,1,2.7,1.8,3.7c0.8,1.1,1.8,1.9,3.1,2.5
		c1.3,0.6,2.8,0.9,4.5,0.9c2.8,0,5-0.7,6.5-2.1c1.5-1.4,2.6-3.3,3.1-5.8h-2.7c-0.4,1.7-1.2,3.1-2.3,4.1c-1.1,1-2.7,1.5-4.6,1.5
		c-1.3,0-2.4-0.3-3.3-0.8c-0.9-0.5-1.7-1.2-2.3-2.1c-0.6-0.8-1-1.8-1.3-2.8c-0.3-1-0.4-2-0.4-3h17C34,7.5,33.9,6,33.5,4.5
		C33.2,3,32.6,1.7,31.8,0.5z M17,6.8c0.1-1,0.3-2,0.7-2.9c0.4-1,0.8-1.8,1.4-2.5c0.6-0.7,1.3-1.3,2.2-1.8c0.9-0.4,1.8-0.7,3-0.7
		c1.1,0,2.1,0.2,2.9,0.7c0.9,0.4,1.6,1,2.2,1.8c0.6,0.7,1.1,1.6,1.4,2.5c0.3,0.9,0.5,1.9,0.5,3H17z"/>
	<path d="M51.2,14c-0.4,0.8-0.8,1.4-1.4,2c-0.6,0.6-1.2,1-2,1.3c-0.7,0.3-1.5,0.5-2.4,0.5c-1.3,0-2.4-0.3-3.4-0.8
		c-1-0.5-1.8-1.3-2.4-2.1c-0.6-0.9-1.1-1.9-1.5-3c-0.3-1.1-0.5-2.3-0.5-3.4c0-1.2,0.2-2.3,0.5-3.4c0.3-1.1,0.8-2.1,1.5-3
		C40.3,1,41.1,0.2,42-0.3c1-0.5,2.1-0.8,3.4-0.8c1.8,0,3.2,0.5,4.2,1.4c1,0.9,1.7,2.2,2.1,3.9h2.7c-0.3-2.5-1.3-4.4-2.9-5.7
		c-1.6-1.3-3.6-1.9-6-1.9c-1.7,0-3.2,0.3-4.5,0.9c-1.3,0.6-2.4,1.5-3.3,2.5c-0.9,1.1-1.6,2.3-2,3.7C35.2,5.2,35,6.7,35,8.3
		c0,1.6,0.2,3.1,0.7,4.5c0.5,1.4,1.1,2.6,2,3.7c0.9,1.1,2,1.9,3.3,2.5c1.3,0.6,2.8,0.9,4.5,0.9c2.5,0,4.6-0.7,6.2-2.2
		c1.6-1.5,2.6-3.6,3-6.3h-2.7C51.8,12.3,51.5,13.2,51.2,14z"/>
	<path d="M60.6-9.4h-2.7v6.6h-3.8v2.3h3.8v15.1c0,1.9,0.3,3.2,1,3.9c0.7,0.7,2,1,3.8,1c0.4,0,0.8,0,1.2,0c0.4,0,0.8,0,1.2,0v-2.3
		c-0.8,0.1-1.5,0.1-2.3,0.1c-1-0.1-1.6-0.3-1.8-0.8c-0.2-0.5-0.4-1.2-0.4-2.1V-0.5h4.5v-2.3h-4.5V-9.4z"/>
	<path d="M81.3,9c-0.6-0.5-1.3-0.9-2-1.2c-0.8-0.3-1.5-0.5-2.3-0.6l-3.6-0.8c-0.5-0.1-1-0.3-1.5-0.4c-0.5-0.2-1-0.4-1.5-0.7
		c-0.5-0.3-0.8-0.6-1.1-1c-0.3-0.4-0.4-0.9-0.4-1.5c0-0.7,0.2-1.3,0.5-1.8c0.3-0.5,0.7-0.9,1.2-1.2c0.5-0.3,1.1-0.5,1.7-0.6
		c0.6-0.1,1.2-0.2,1.8-0.2c0.8,0,1.5,0.1,2.2,0.3C77-0.6,77.6-0.3,78.1,0C78.6,0.4,79,1,79.3,1.6c0.3,0.6,0.5,1.3,0.5,2.2h2.7
		c-0.1-1.2-0.3-2.2-0.7-3.1c-0.4-0.9-1-1.6-1.7-2.2c-0.7-0.6-1.6-1-2.5-1.3c-1-0.3-2-0.4-3.1-0.4c-1,0-1.9,0.1-2.9,0.3
		c-1,0.2-1.9,0.6-2.7,1.1c-0.8,0.5-1.4,1.1-1.9,1.9c-0.5,0.8-0.7,1.8-0.7,2.9c0,0.9,0.2,1.7,0.5,2.4c0.3,0.6,0.7,1.2,1.3,1.6
		c0.6,0.4,1.2,0.8,1.9,1.1c0.7,0.3,1.6,0.6,2.4,0.8l3.5,0.8c0.6,0.1,1.2,0.3,1.8,0.5c0.6,0.2,1.1,0.4,1.6,0.7
		c0.5,0.3,0.8,0.7,1.1,1.1c0.3,0.4,0.4,1,0.4,1.6c0,0.8-0.2,1.4-0.6,1.9c-0.4,0.5-0.9,1-1.5,1.3c-0.6,0.3-1.2,0.6-1.9,0.7
		c-0.7,0.1-1.4,0.2-2,0.2c-1.8,0-3.3-0.5-4.5-1.4c-1.2-0.9-1.9-2.3-2-4.1h-2.7c0.2,2.7,1.1,4.7,2.8,5.9c1.6,1.2,3.7,1.8,6.3,1.8
		c1,0,2.1-0.1,3.1-0.3c1.1-0.2,2-0.6,2.8-1.1c0.8-0.5,1.5-1.2,2.1-2.1c0.5-0.8,0.8-1.9,0.8-3.1c0-1-0.2-1.8-0.6-2.5
		C82.4,10.1,81.9,9.5,81.3,9z"/>
	<polygon points="91.3,-3.5 89.8,0.5 88.2,-3.5 87.2,-3.5 87.2,1.4 87.8,1.4 87.8,-2.9 87.8,-2.9 89.6,1.4 89.9,1.4 91.7,-2.9 
		91.7,-2.9 91.7,1.4 92.3,1.4 92.3,-3.5 	"/>
	<polygon points="82.9,-3 84.5,-3 84.5,1.4 85.2,1.4 85.2,-3 86.7,-3 86.7,-3.5 82.9,-3.5 	"/>
	<circle cx="11.1" cy="-8.9" r="2.4"/>
	<path d="M11.1-16.7c-2.3,0-4.5,1-6,2.8c-0.2,0.2-0.3,0.5-0.2,0.8c0,0.3,0.2,0.5,0.4,0.7c0.2,0.2,0.4,0.2,0.7,0.2
		c0.3,0,0.6-0.1,0.8-0.4c1.1-1.3,2.7-2,4.4-2c1.7,0,3.3,0.7,4.4,2c0.2,0.2,0.5,0.4,0.8,0.4c0.2,0,0.5-0.1,0.7-0.2l0,0
		c0.2-0.2,0.3-0.4,0.4-0.7c0-0.3-0.1-0.6-0.2-0.8C15.6-15.7,13.4-16.7,11.1-16.7z"/>
	<path d="M19.6-16c0.2,0.2,0.5,0.4,0.8,0.4c0.3,0,0.5-0.1,0.7-0.2l0,0c0.2-0.2,0.3-0.4,0.4-0.7c0-0.3-0.1-0.6-0.2-0.8
		c-2.5-3-6.2-4.7-10.1-4.7c-3.9,0-7.6,1.7-10.1,4.7c-0.2,0.2-0.3,0.5-0.2,0.8c0,0.3,0.2,0.5,0.4,0.7c0.2,0.2,0.4,0.2,0.7,0.2
		c0.3,0,0.6-0.1,0.8-0.4c2.1-2.5,5.2-4,8.5-4C14.4-20,17.5-18.5,19.6-16z"/>
	<path d="M-2.3-19.1c0.3,0,0.6-0.1,0.8-0.4c3.2-3.8,7.8-5.9,12.6-5.9c4.9,0,9.5,2.2,12.6,5.9c0.2,0.2,0.5,0.4,0.8,0.4
		c0.3,0,0.5-0.1,0.7-0.2l0,0c0.2-0.2,0.3-0.4,0.4-0.7c0-0.3-0.1-0.6-0.2-0.8c-3.6-4.2-8.7-6.7-14.2-6.7c-5.5,0-10.7,2.4-14.2,6.7
		c-0.2,0.2-0.3,0.5-0.2,0.8c0,0.3,0.2,0.5,0.4,0.7C-2.8-19.2-2.6-19.1-2.3-19.1z"/>
</g>
</svg>
