<?xml version="1.0" encoding="utf-8"?>
<!-- Generator: Adobe Illustrator 19.1.0, SVG Export Plug-In . SVG Version: 6.00 Build 0)  -->
<svg version="1.1" id="Layer_1" xmlns="http://www.w3.org/2000/svg" xmlns:xlink="http://www.w3.org/1999/xlink" x="0px" y="0px"
	 viewBox="0 0 1000 1000" style="enable-background:new 0 0 1000 1000;" xml:space="preserve">
<style type="text/css">
	.st0{fill:none;stroke:#BE202E;stroke-width:0.25;}
</style>
<g>
	<polygon class="st0" points="521.4,527.8 524,526.3 524.2,526.5 523.9,527 521.4,528.5 521.1,528.4 	"/>
	<polygon class="st0" points="524.3,526.5 524,527 523.8,529.8 524,529.9 524.3,529.3 524.5,526.7 	"/>
	<polygon class="st0" points="521,528.5 521.2,528.6 521,531.3 520.7,531.9 520.5,531.7 520.6,529 	"/>
	<polygon class="st0" points="520.8,531.9 521.1,531.4 523.7,530 523.9,530 523.6,530.6 521,532 	"/>
	<polygon class="st0" points="523.7,530.7 524,530.1 524.3,530.3 524,533.1 523.8,533.4 523.5,533.4 	"/>
	<polygon class="st0" points="523.4,533.5 523.7,533.7 523.4,534.2 520.9,535.6 520.6,535.4 520.9,535 	"/>
	<polygon class="st0" points="520.5,535.4 520.7,534.9 521,532.2 520.6,532.1 520.4,532.6 520.2,535.3 	"/>
</g>
<g>
	<polygon class="st0" points="527.4,524.3 529.9,522.9 530.1,523 529.8,523.5 527.3,525 527.1,524.9 	"/>
	<polygon class="st0" points="530.3,523.1 530,523.6 529.8,526.3 530.1,526.4 530.3,525.9 530.5,523.2 	"/>
	<polygon class="st0" points="527,525 527.2,525.2 527,527.9 526.7,528.4 526.5,528.2 526.7,525.6 	"/>
	<polygon class="st0" points="526.8,528.5 527.1,527.9 529.6,526.5 529.9,526.6 529.6,527.2 527.1,528.6 	"/>
	<polygon class="st0" points="529.7,527.2 530,526.7 530.2,526.8 530.1,529.6 529.8,530 529.5,529.9 	"/>
	<polygon class="st0" points="529.4,530 529.7,530.2 529.4,530.7 526.8,532.2 526.6,532 526.8,531.5 	"/>
	<polygon class="st0" points="526.5,531.9 526.7,531.5 526.9,528.8 526.7,528.7 526.4,529.2 526.2,531.8 	"/>
</g>
<g>
	<polygon class="st0" points="533.4,520.9 535.9,519.4 536.2,519.6 535.8,520.1 533.3,521.6 533.1,521.4 	"/>
	<polygon class="st0" points="536.2,519.7 535.9,520.1 535.8,522.8 536,522.9 536.3,522.4 536.5,519.8 	"/>
	<polygon class="st0" points="533,521.6 533.2,521.7 533,524.4 532.7,524.9 532.4,524.8 532.7,522.1 	"/>
	<polygon class="st0" points="532.8,525 533.1,524.5 535.6,523 535.9,523.1 535.5,523.7 533.1,525.1 	"/>
	<polygon class="st0" points="535.7,523.8 536,523.2 536.2,523.3 536,526.2 535.8,526.5 535.5,526.4 	"/>
	<polygon class="st0" points="535.4,526.6 535.7,526.8 535.5,527.2 532.8,528.7 532.5,528.5 532.8,528.1 	"/>
	<polygon class="st0" points="532.4,528.5 532.8,528 532.9,525.4 532.7,525.2 532.4,525.8 532.2,528.3 	"/>
</g>
</svg>
