<?xml version="1.0" encoding="utf-8"?>
<!-- Generator: Adobe Illustrator 19.1.0, SVG Export Plug-In . SVG Version: 6.00 Build 0)  -->
<svg version="1.1" id="Layer_1" xmlns="http://www.w3.org/2000/svg" xmlns:xlink="http://www.w3.org/1999/xlink" x="0px" y="0px"
	 viewBox="0 0 1000 1000" style="enable-background:new 0 0 1000 1000;" xml:space="preserve">
<style type="text/css">
	.st0{fill:#939598;}
</style>
<path class="st0" d="M43.7-72h-87.3C-59.3-72-72-59.3-72-43.7v87.3C-72,59.3-59.3,72-43.7,72h87.3C59.3,72,72,59.3,72,43.7v-87.3
	C72-59.3,59.3-72,43.7-72z M-37.7-32.4H0h37.7c3.4,0,4,1.7,1.3,3.8L5.6-2.2C4.1-1,2-0.4,0-0.5C-2-0.4-4.1-1-5.6-2.2L-39-28.6
	C-41.7-30.7-41.1-32.4-37.7-32.4z M46.4,26.3c0,3.4-2.8,6.2-6.2,6.2H0h-40.2c-3.4,0-6.2-2.8-6.2-6.2v-45.5c0-3.4,2.2-4.5,4.9-2.4
	L-4.9,6.1c1.4,1,3.2,1.5,4.9,1.5c1.8,0,3.6-0.5,4.9-1.5l36.5-27.7c2.7-2.1,4.9-1,4.9,2.4V26.3z"/>
<g>
</g>
<g>
</g>
<g>
</g>
<g>
</g>
<g>
</g>
<g>
</g>
</svg>
