<?xml version="1.0" encoding="utf-8"?>
<!-- Generator: Adobe Illustrator 19.1.0, SVG Export Plug-In . SVG Version: 6.00 Build 0)  -->
<svg version="1.1" id="Layer_1" xmlns="http://www.w3.org/2000/svg" xmlns:xlink="http://www.w3.org/1999/xlink" x="0px" y="0px"
	 viewBox="0 0 1000 1000" style="enable-background:new 0 0 1000 1000;" xml:space="preserve">
<style type="text/css">
	.st0{fill:none;stroke:#000000;}
	.st1{fill:none;stroke:#000000;stroke-width:0.25;}
	.st2{fill:none;stroke:#000000;stroke-width:0.25;stroke-linecap:round;stroke-linejoin:round;}
	.st3{fill:none;stroke:#000000;stroke-linecap:round;stroke-linejoin:round;}
</style>
<polyline class="st0" points="571.2,598 421.9,511.9 421.9,408.1 "/>
<line class="st1" x1="571.2" y1="494.2" x2="571.2" y2="598"/>
<line class="st1" x1="421.9" y1="408.1" x2="571.2" y2="494.2"/>
<line class="st0" x1="421.9" y1="408.1" x2="429.4" y2="403.8"/>
<line class="st1" x1="571.2" y1="494.2" x2="578.6" y2="489.9"/>
<line class="st0" x1="571.1" y1="598.1" x2="578.5" y2="593.7"/>
<line class="st0" x1="429.4" y1="403.8" x2="578.6" y2="489.9"/>
<line class="st0" x1="578.5" y1="593.7" x2="578.6" y2="489.9"/>
<path class="st0" d="M526.4,481.8c-12.4-7.1-23.2-6.2-29.6,1.1c-6.4-14.6-17.2-28.2-29.6-35.3c-19.6-11.3-35.5-2.3-35.5,20.2
	s15.9,49.9,35.5,61.2c12.4,7.1,23.2,6.2,29.6-1.1c6.4,14.7,17.2,28.2,29.6,35.3c19.6,11.3,35.5,2.3,35.5-20.2S546,493.1,526.4,481.8
	z"/>
<g>
	<path class="st2" d="M559.2,584.1c0.6-0.4,1-1.2,1-2.3c0-2.4-1.7-5.3-3.7-6.4c-1.1-0.6-2.1-0.7-2.8-0.2"/>
	<path class="st3" d="M553.7,575.1c-0.6,0.4-1,1.2-1,2.3c0,2.4,1.7,5.3,3.7,6.4c1.1,0.6,2.1,0.7,2.7,0.2"/>
	<path class="st2" d="M556.5,575.3"/>
	<path class="st3" d="M562.9,582c0.7-0.4,1.1-1.2,1.1-2.4s-0.4-2.5-1.1-3.7c-0.7-1.2-1.6-2.2-2.6-2.8s-2-0.7-2.6-0.3"/>
	<path class="st2" d="M560.2,581.7"/>
	<line class="st3" x1="559.1" y1="584.1" x2="562.9" y2="581.9"/>
	<line class="st3" x1="553.8" y1="575" x2="557.6" y2="572.8"/>
</g>
</svg>
