<?xml version="1.0" encoding="utf-8"?>
<!-- Generator: Adobe Illustrator 19.1.0, SVG Export Plug-In . SVG Version: 6.00 Build 0)  -->
<svg version="1.1" id="Layer_1" xmlns="http://www.w3.org/2000/svg" xmlns:xlink="http://www.w3.org/1999/xlink" x="0px" y="0px"
	 viewBox="0 0 1000 1000" style="enable-background:new 0 0 1000 1000;" xml:space="preserve">
<style type="text/css">
	.st0{fill:none;stroke:#000000;}
</style>
<path class="st0" d="M429.4,403.8l-7.5,4.3v103.8L571.2,598l-0.1,0.1l7.5-4.3l0.1-103.8L429.4,403.8z M526.4,563.2
	c-12.4-7.1-23.2-20.7-29.6-35.3c-6.4,7.3-17.2,8.3-29.6,1.1c-19.6-11.3-35.5-38.7-35.5-61.2s15.9-31.5,35.5-20.2
	c12.4,7.1,23.2,20.7,29.6,35.3c6.4-7.3,17.2-8.3,29.6-1.1c19.6,11.3,35.5,38.7,35.5,61.2C561.9,565.5,546,574.6,526.4,563.2z"/>
</svg>
