<?xml version="1.0" encoding="utf-8"?>
<!-- Generator: Adobe Illustrator 19.1.0, SVG Export Plug-In . SVG Version: 6.00 Build 0)  -->
<svg version="1.1" id="Layer_1" xmlns="http://www.w3.org/2000/svg" xmlns:xlink="http://www.w3.org/1999/xlink" x="0px" y="0px"
	 viewBox="0 0 1000 1000" style="enable-background:new 0 0 1000 1000;" xml:space="preserve">
<style type="text/css">
	.st0{fill:none;stroke:#000000;}
	.st1{fill:none;stroke:#010101;stroke-width:0.25;stroke-linecap:round;stroke-linejoin:round;}
	.st2{fill:none;stroke:#010101;stroke-linecap:round;stroke-linejoin:round;}
</style>
<polygon class="st0" points="578.6,489.9 429.4,403.8 421.9,408.1 421.9,511.9 571.2,598 571.1,598.1 578.5,593.7 "/>
<path class="st0" d="M526.4,481.8c-12.4-7.1-23.2-6.2-29.6,1.1c-6.4-14.6-17.2-28.2-29.6-35.3c-19.6-11.3-35.5-2.3-35.5,20.2
	c0,22.5,15.9,49.9,35.5,61.2c12.4,7.1,23.2,6.2,29.6-1.1c6.4,14.7,17.2,28.2,29.6,35.3c19.6,11.3,35.5,2.3,35.5-20.2
	C561.9,520.5,546,493.1,526.4,481.8z"/>
<path class="st1" d="M556.5,574.3"/>
<path class="st1" d="M560.2,580.7"/>
<path class="st2" d="M557.7,572.8l-4,2.3c-0.7,0.4-1,1.2-1,2.3c0,2.4,1.7,5.3,3.7,6.4c1.1,0.6,1.9,0.6,2.7,0.2l3.8-2
	c0.7-0.4,1.1-1.2,1.1-2.4s-0.4-2.5-1.1-3.7c-0.7-1.2-1.6-2.2-2.6-2.8S558.4,572.4,557.7,572.8z"/>
</svg>
