<?xml version="1.0" encoding="utf-8"?>
<!-- Generator: Adobe Illustrator 19.1.0, SVG Export Plug-In . SVG Version: 6.00 Build 0)  -->
<svg version="1.1" id="Layer_1" xmlns="http://www.w3.org/2000/svg" xmlns:xlink="http://www.w3.org/1999/xlink" x="0px" y="0px"
	 viewBox="0 0 1000 1000" style="enable-background:new 0 0 1000 1000;" xml:space="preserve">
<rect x="-60.6" y="-22.5" width="1.6" height="32"/>
<rect x="-39.8" y="-72" width="1.3" height="33.1"/>
<rect x="38.2" y="54.2" width="1.6" height="17.8"/>
<rect x="20" y="54.2" width="1.6" height="17.8"/>
<rect x="35.6" y="-22.6" width="1.6" height="69.4"/>
<path d="M-68.4,15v42.5c0.5,0.9,1,1.7,1.6,2.5V15H-68.4z"/>
<path d="M17.4,38.8V72H19V38.4C18.5,38.6,17.9,38.7,17.4,38.8z"/>
<rect x="40.8" y="54.2" width="1.6" height="17.8"/>
<rect x="-63.2" y="-22.5" width="1.6" height="32"/>
<rect x="-19" y="-22.6" width="1.6" height="32"/>
<rect x="27.8" y="54.2" width="1.6" height="17.8"/>
<rect x="30.4" y="54.2" width="1.6" height="17.8"/>
<rect x="-16.4" y="-22.6" width="1.6" height="32"/>
<rect x="-65.8" y="-22.5" width="1.6" height="32"/>
<rect x="33" y="-22.6" width="1.6" height="69.4"/>
<rect x="22.6" y="54.2" width="1.6" height="17.8"/>
<rect x="-68.4" y="-22.5" width="1.6" height="32"/>
<rect x="25.2" y="54.2" width="1.6" height="17.8"/>
<path d="M21.6,37.2c-0.5,0.3-1,0.6-1.6,0.8v8.8h1.6V37.2z"/>
<path d="M-45,15v57c0.4,0,0.9,0,1.3,0h0.3V15H-45z"/>
<rect x="9.6" y="39.2" width="1.6" height="32.8"/>
<rect x="-52.8" y="-22.5" width="1.6" height="32"/>
<path d="M-60.6,15v51.4c0.5,0.4,1.1,0.8,1.6,1.1V15H-60.6z"/>
<rect x="-55.4" y="-22.5" width="1.6" height="32"/>
<rect x="38.2" y="-22.6" width="1.6" height="69.4"/>
<path d="M-58,15v53.1c0.5,0.3,1.1,0.6,1.6,0.9V15H-58z"/>
<rect x="-42.4" y="15" width="1.6" height="57"/>
<path d="M-65.8,15v46.3c0.5,0.6,1,1.2,1.6,1.8V15H-65.8z"/>
<rect x="51.2" y="-22.5" width="1.6" height="69.3"/>
<rect x="7" y="39.2" width="1.6" height="32.8"/>
<rect x="-50.2" y="-22.5" width="1.6" height="32"/>
<path d="M-63.2,15v49.2c0.5,0.5,1,1,1.6,1.4V15H-63.2z"/>
<path d="M-47.6,15v56.7c0.5,0.1,1.1,0.1,1.6,0.2V15H-47.6z"/>
<rect x="40.8" y="-22.6" width="1.6" height="69.4"/>
<rect x="43.4" y="-22.6" width="0.6" height="69.4"/>
<rect x="33" y="54.2" width="0.7" height="17.8"/>
<path d="M14.8,39.2V72h1.6V39C15.9,39.1,15.3,39.1,14.8,39.2z"/>
<rect x="-58" y="-22.5" width="1.6" height="32"/>
<rect x="12.2" y="39.2" width="1.6" height="32.8"/>
<path d="M-50.2,15v56.2c0.5,0.1,1.1,0.2,1.6,0.3V15H-50.2z"/>
<path d="M-55.4,15v54.5c0.5,0.2,1.1,0.5,1.6,0.7V15H-55.4z"/>
<path d="M-52.8,15v55.5c0.5,0.2,1.1,0.3,1.6,0.5V15H-52.8z"/>
<rect x="30.4" y="-22.6" width="1.6" height="69.4"/>
<path d="M19-14.6v-8h-1.6v7.6C17.9-14.9,18.5-14.7,19-14.6z"/>
<path d="M16.4-15.2v-7.4h-1.6v7.2C15.3-15.3,15.9-15.3,16.4-15.2z"/>
<path d="M21.6-13.4v-9.2H20v8.4C20.6-13.9,21.1-13.7,21.6-13.4z"/>
<path d="M66.8-22.5V60c0.6-0.8,1.1-1.7,1.6-2.5v-80H66.8z"/>
<path d="M64.2-22.5v85.7c0.6-0.6,1.1-1.2,1.6-1.8v-83.8H64.2z"/>
<rect x="7" y="-22.6" width="1.6" height="7.2"/>
<rect x="12.2" y="-22.6" width="1.6" height="7.2"/>
<path d="M5.3-15.4H6v-7.2H4.4v7.2C4.7-15.4,5-15.4,5.3-15.4z"/>
<path d="M3.4-15.3v-7.3H1.8v7.6C2.3-15.1,2.9-15.2,3.4-15.3z"/>
<path d="M69.4-22.5v78c0.6-1.4,1.2-2.9,1.6-4.4v-73.6H69.4z"/>
<rect x="9.6" y="-22.6" width="1.6" height="7.2"/>
<rect x="-11.2" y="-22.6" width="1.6" height="32"/>
<path d="M-6-22.6v12.5c0.5-0.6,1-1.1,1.6-1.6v-10.9H-6z"/>
<path d="M-8.6-22.6v17C-8.2-6.8-7.7-7.8-7-8.8v-13.8H-8.6z"/>
<path d="M0.8-14.7v-7.9h-1.6v8.5C-0.3-14.3,0.3-14.5,0.8-14.7z"/>
<path d="M-2.5-0.6v25c0,1.1,0.3,2.2,0.7,3.2V-3.8C-2.2-2.8-2.5-1.7-2.5-0.6z"/>
<rect x="-13.8" y="-22.6" width="1.6" height="32"/>
<path d="M-3.4-22.6v10.1c0.5-0.4,1-0.7,1.6-1v-9H-3.4z"/>
<rect x="-39.8" y="-22.5" width="1.3" height="32"/>
<path d="M24.2-11.5v-11.1h-1.6v9.9C23.2-12.4,23.7-11.9,24.2-11.5z"/>
<path d="M26.8-8.3v-14.3h-1.6v12.2C25.8-9.8,26.3-9.1,26.8-8.3z"/>
<rect x="-39.8" y="15" width="1.2" height="57"/>
<path d="M5.3-8.4c-0.3,0-0.6,0-0.9,0.1v40.5c0.3,0,0.6,0.1,0.9,0.1H6V-8.4H5.3z"/>
<path d="M61.6-22.5v69.3H63v7.4h-1.4v11.4c0.6-0.5,1.1-0.9,1.6-1.4v-86.7H61.6z"/>
<path d="M59,54.2v13.3c0.5-0.4,1.1-0.7,1.6-1.1V54.2H59z"/>
<path d="M-0.8-5.4v34.7c0.5,0.6,1,1.1,1.6,1.5V-7C0.2-6.5-0.3-6-0.8-5.4z"/>
<path d="M22.6,36.6v10.2h1.6V35.3C23.7,35.7,23.2,36.2,22.6,36.6z"/>
<path d="M25.2,34.3v12.5h1.6V32.1C26.3,32.9,25.8,33.6,25.2,34.3z"/>
<path d="M56.4,54.2V69c0.5-0.3,1.1-0.6,1.6-0.9V54.2H56.4z"/>
<path d="M46,54.2v17.7c0.5,0,1.1-0.1,1.6-0.2V54.2H46z"/>
<rect x="-21.5" y="15" width="1.5" height="57"/>
<path d="M48.6,54.2v17.4c0.5-0.1,1.1-0.2,1.6-0.3v-17H48.6z"/>
<path d="M53.8,54.2v15.9c0.5-0.2,1.1-0.4,1.6-0.7V54.2H53.8z"/>
<path d="M51.2,54.2V71c0.5-0.1,1.1-0.3,1.6-0.5V54.2H51.2z"/>
<path d="M27.8-22.6v16.2C28.6-4.6,29-2.7,29-0.6v25c0,2.1-0.4,4-1.2,5.8v16.6h1.6v-69.4H27.8z"/>
<rect x="7" y="-8.4" width="1.6" height="40.6"/>
<rect x="9.6" y="-8.4" width="1.6" height="40.6"/>
<rect x="12.2" y="-8.4" width="1.6" height="40.6"/>
<path d="M1.8-7.6v38.9c0.5,0.3,1,0.5,1.6,0.6V-8.2C2.8-8,2.3-7.8,1.8-7.6z"/>
<path d="M43.4,54.2V72h0.3c0.4,0,0.9,0,1.3,0V54.2H43.4z"/>
<path d="M17.4-7.7v39.1c0.6-0.3,1.1-0.6,1.6-1V-6.7C18.5-7.1,18-7.4,17.4-7.7z"/>
<rect x="-11.2" y="-72" width="1.6" height="33.1"/>
<rect x="-21.5" y="-22.6" width="1.5" height="32"/>
<path d="M20-5.7v35.2c0.7-0.9,1.3-1.9,1.6-3V-2.7C21.3-3.8,20.7-4.8,20-5.7z"/>
<rect x="-21.5" y="-72" width="1.5" height="33.1"/>
<path d="M14.8-8.4v40.5c0.6,0,1.1-0.2,1.6-0.3V-8.1C15.9-8.2,15.4-8.3,14.8-8.4z"/>
<rect x="-42.4" y="-72" width="1.6" height="33.1"/>
<rect x="-19" y="15" width="1.6" height="57"/>
<path d="M63.2-38.9v-25.3c-0.5-0.5-1-1-1.6-1.4v26.7H63.2z"/>
<rect x="-0.8" y="-72" width="1.6" height="33.1"/>
<rect x="-16.4" y="-72" width="1.6" height="33.1"/>
<rect x="-13.8" y="15" width="1.6" height="57"/>
<rect x="1.8" y="-72" width="1.6" height="33.1"/>
<rect x="25.2" y="-72" width="1.6" height="33.1"/>
<path d="M45-38.9V-72c-0.4,0-0.9,0-1.3,0h-0.3v33.1H45z"/>
<path d="M68.4-38.9v-18.6c-0.5-0.9-1-1.7-1.6-2.5v21.1H68.4z"/>
<rect x="30.4" y="-72" width="1.6" height="33.1"/>
<polygon points="-1.8,-38.9 -1.8,-72 -2.3,-72 -2.3,-46.2 -3.4,-46.2 -3.4,-38.9 "/>
<rect x="27.8" y="-72" width="1.6" height="33.1"/>
<polygon points="37.2,-38.9 37.2,-55.5 36,-55.5 36,-72 35.6,-72 35.6,-38.9 "/>
<rect x="-42.4" y="-22.5" width="1.6" height="32"/>
<path d="M65.8-38.9v-22.4c-0.5-0.6-1-1.2-1.6-1.8v24.3H65.8z"/>
<rect x="53.8" y="-22.5" width="1.6" height="69.3"/>
<path d="M52.8-38.9v-31.6c-0.5-0.2-1.1-0.3-1.6-0.5v32.1H52.8z"/>
<rect x="-16.4" y="15" width="1.6" height="57"/>
<rect x="9.6" y="-72" width="1.6" height="33.1"/>
<rect x="17.4" y="-51.5" width="1.6" height="12.6"/>
<rect x="14.8" y="-51.5" width="1.6" height="12.6"/>
<rect x="-19" y="-72" width="1.6" height="33.1"/>
<path d="M55.4-38.9v-30.6c-0.5-0.2-1.1-0.5-1.6-0.7v31.2H55.4z"/>
<polygon points="13.8,-38.9 13.8,-51.5 13,-51.5 13,-72 12.2,-72 12.2,-38.9 "/>
<path d="M60.6-38.9v-27.5c-0.5-0.4-1.1-0.8-1.6-1.1v28.6H60.6z"/>
<rect x="4.4" y="-72" width="1.6" height="33.1"/>
<rect x="22.6" y="-72" width="1.6" height="33.1"/>
<rect x="-71" y="-22.5" width="1.6" height="32"/>
<path d="M58-38.9v-29.2c-0.5-0.3-1.1-0.6-1.6-0.9v30.1H58z"/>
<path d="M47.6-38.9v-32.8c-0.5-0.1-1.1-0.1-1.6-0.2v33H47.6z"/>
<polygon points="21.6,-38.9 21.6,-72 20.3,-72 20.3,-51.5 20,-51.5 20,-38.9 "/>
<rect x="7" y="-72" width="1.6" height="33.1"/>
<path d="M-0.8,37.9V72h1.6V38.5C0.3,38.3-0.3,38.1-0.8,37.9z"/>
<rect x="38.2" y="-55.5" width="1.6" height="16.6"/>
<path d="M50.2-38.9v-32.3c-0.5-0.1-1.1-0.2-1.6-0.3v32.7H50.2z"/>
<rect x="-45" y="-22.5" width="1.6" height="32"/>
<path d="M-64.2-38.9v-24.3c-0.6,0.6-1.1,1.2-1.6,1.8v22.4H-64.2z"/>
<path d="M-3.4,36.3V72h1.6V37.4C-2.4,37.1-2.9,36.7-3.4,36.3z"/>
<path d="M1.8,38.8V72h1.6V39.1C2.9,39,2.3,38.9,1.8,38.8z"/>
<path d="M-59-38.9v-28.6c-0.5,0.4-1.1,0.7-1.6,1.1v27.5H-59z"/>
<path d="M-61.6-38.9v-26.7c-0.6,0.5-1.1,0.9-1.6,1.4v25.3H-61.6z"/>
<rect x="-8.6" y="-46.2" width="1.6" height="7.3"/>
<path d="M-69.4-38.9v-16.6c-0.6,1.4-1.2,2.9-1.6,4.4v12.2H-69.4z"/>
<rect x="33" y="-72" width="1.6" height="33.1"/>
<rect x="59" y="-22.5" width="1.6" height="69.3"/>
<rect x="56.4" y="-22.5" width="1.6" height="69.3"/>
<path d="M-71,15v36.1c0.4,1.5,1,3,1.6,4.4V15H-71z"/>
<path d="M5.3,39.2c-0.3,0-0.6,0-0.9,0V72H6V39.2H5.3z"/>
<rect x="-47.6" y="-22.5" width="1.6" height="32"/>
<path d="M-66.8-38.9V-60c-0.6,0.8-1.1,1.7-1.6,2.5v18.6H-66.8z"/>
<path d="M-56.4-38.9V-69c-0.5,0.3-1.1,0.6-1.6,0.9v29.2H-56.4z"/>
<path d="M-53.8-38.9v-31.2c-0.5,0.2-1.1,0.4-1.6,0.7v30.5H-53.8z"/>
<rect x="-13.8" y="-72" width="1.6" height="33.1"/>
<path d="M-46-38.9v-33c-0.5,0-1.1,0.1-1.6,0.2v32.8H-46z"/>
<rect x="-6" y="-46.2" width="1.6" height="7.3"/>
<path d="M-8.6,29.4V72H-7V32.6C-7.7,31.6-8.2,30.5-8.6,29.4z"/>
<path d="M-48.6-38.9v-32.7c-0.5,0.1-1.1,0.2-1.6,0.3v32.3H-48.6z"/>
<path d="M-43.4-38.9V-72h-0.2c-0.5,0-0.9,0-1.4,0v33.1H-43.4z"/>
<path d="M71-38.9v-12.2c-0.4-1.5-1-3-1.6-4.4v16.6H71z"/>
<path d="M-51.2-38.9V-71c-0.5,0.1-1.1,0.3-1.6,0.5v31.6H-51.2z"/>
<rect x="-11.2" y="15" width="1.6" height="57"/>
<path d="M-6,33.9V72h1.6V35.5C-5,35-5.5,34.5-6,33.9z"/>
<rect x="40.8" y="-55.5" width="1.6" height="16.6"/>
<rect x="20" y="46.8" width="0" height="7.4"/>
</svg>
