<?xml version="1.0" encoding="utf-8"?>
<!-- Generator: Adobe Illustrator 19.1.0, SVG Export Plug-In . SVG Version: 6.00 Build 0)  -->
<svg version="1.1" id="Layer_1" xmlns="http://www.w3.org/2000/svg" xmlns:xlink="http://www.w3.org/1999/xlink" x="0px" y="0px"
	 viewBox="0 0 1000 1000" style="enable-background:new 0 0 1000 1000;" xml:space="preserve">
<style type="text/css">
	.st0{fill:#58595B;}
</style>
<path class="st0" d="M-38.5,9.5H-72v-32h33.5V9.5z M-72,43.7C-72,59.3-59.3,72-43.7,72h5.1V15H-72V43.7z M-38.5-72h-5.1
	C-59.3-72-72-59.3-72-43.7v4.8h33.5V-72z M51,46.8h12v7.4H38V72h5.7C59.3,72,72,59.3,72,43.7v-66.2H51V46.8z M5.3,32.2h8.8
	c4.3,0,7.8-3.5,7.8-7.8v-25c0-4.3-3.5-7.8-7.8-7.8H5.3C1-8.4-2.5-4.9-2.5-0.6v25C-2.5,28.7,1,32.2,5.3,32.2z M20,54.2v-7.4h24v-69.4
	h-65.5v32h12v-10c0-8.2,6.7-14.8,14.8-14.8h8.8C22.3-15.4,29-8.8,29-0.6v25c0,8.2-6.7,14.8-14.8,14.8H5.3c-8.2,0-14.8-6.7-14.8-14.8
	V15h-12v57h55.2V54.2H20z M43.7-72h-0.3v16.5H36V-72H20.3v20.5H13V-72H-2.3v25.8h-7V-72h-12.2v33.1H72v-4.8C72-59.3,59.3-72,43.7-72
	z"/>
<g>
</g>
<g>
</g>
<g>
</g>
<g>
</g>
<g>
</g>
<g>
</g>
</svg>
