<?xml version="1.0" encoding="utf-8"?>
<!-- Generator: Adobe Illustrator 19.1.0, SVG Export Plug-In . SVG Version: 6.00 Build 0)  -->
<svg version="1.1" id="Layer_1" xmlns="http://www.w3.org/2000/svg" xmlns:xlink="http://www.w3.org/1999/xlink" x="0px" y="0px"
	 viewBox="0 0 1000 1000" style="enable-background:new 0 0 1000 1000;" xml:space="preserve">
<style type="text/css">
	.st0{fill:#ED1C24;stroke:#FFFFFF;stroke-width:0;stroke-linecap:round;stroke-linejoin:round;}
</style>
<g>
	<path class="st0" d="M43.7-72h-87.3C-59.3-72-72-59.3-72-43.7v87.3C-72,59.3-59.3,72-43.7,72h87.3C59.3,72,72,59.3,72,43.7v-87.3
		C72-59.3,59.3-72,43.7-72z M1.5,39.2l-1,1.4c-0.1,0.2-0.3,0.3-0.5,0.3c-0.2,0-0.4-0.1-0.5-0.3l-1-1.4c-1.1-1.5-26.8-36.6-26.8-51.7
		c0-15.6,12.7-28.3,28.3-28.3c15.6,0,28.3,12.7,28.3,28.3C28.3,2.6,2.6,37.7,1.5,39.2z"/>
	<path class="st0" d="M0-22.6c-5.6,0-10.2,4.6-10.2,10.2C-10.2-6.9-5.6-2.3,0-2.3c5.6,0,10.2-4.6,10.2-10.2
		C10.2-18.1,5.6-22.6,0-22.6z"/>
</g>
<g>
</g>
<g>
</g>
<g>
</g>
<g>
</g>
<g>
</g>
<g>
</g>
</svg>
