<?xml version="1.0" encoding="utf-8"?>
<!-- Generator: Adobe Illustrator 19.1.0, SVG Export Plug-In . SVG Version: 6.00 Build 0)  -->
<svg version="1.1" id="Layer_1" xmlns="http://www.w3.org/2000/svg" xmlns:xlink="http://www.w3.org/1999/xlink" x="0px" y="0px"
	 viewBox="0 0 1000 1000" style="enable-background:new 0 0 1000 1000;" xml:space="preserve">
<style type="text/css">
	.st0{fill:#FFFFFF;}
</style>
<path class="st0" d="M-9.6-39.1V-72h-1.6v33.5C-10.7-38.7-10.1-38.9-9.6-39.1z"/>
<path class="st0" d="M-20-32.5V-72h-1.6v41.2C-21.1-31.4-20.6-31.9-20-32.5z"/>
<path class="st0" d="M-12.2-38v-34h-1.6v34.8C-13.3-37.5-12.7-37.8-12.2-38z"/>
<path class="st0" d="M-14.8-36.6V-72h-1.6v36.5C-15.9-35.9-15.3-36.3-14.8-36.6z"/>
<path class="st0" d="M-17.4-34.8V-72H-19v38.5C-18.5-33.9-17.9-34.4-17.4-34.8z"/>
<path class="st0" d="M-22.6-29.5V-72h-1.6v44.8C-23.7-28-23.2-28.7-22.6-29.5z"/>
<path class="st0" d="M3.4-40.6V-72H1.8v31.3C2.3-40.7,2.9-40.7,3.4-40.6z"/>
<path class="st0" d="M6-40.2V-72H4.4v31.5C4.9-40.4,5.5-40.3,6-40.2z"/>
<path class="st0" d="M-1.8-40.7V-72h-1.6v31.4C-2.9-40.7-2.3-40.7-1.8-40.7z"/>
<path class="st0" d="M-7-39.9V-72h-1.6v32.5C-8.1-39.6-7.5-39.8-7-39.9z"/>
<path class="st0" d="M8.6-39.5V-72H7v32.1C7.5-39.8,8.1-39.6,8.6-39.5z"/>
<path class="st0" d="M-4.4-40.5V-72H-6v31.8C-5.5-40.3-4.9-40.4-4.4-40.5z"/>
<path class="st0" d="M-13.8,20.9V72h1.6V23.5C-12.7,22.6-13.3,21.8-13.8,20.9z"/>
<path class="st0" d="M-11.2,25v47h1.6V27.5C-10.1,26.7-10.7,25.9-11.2,25z"/>
<path class="st0" d="M-16.4,16.6V72h1.6V19.3C-15.3,18.4-15.9,17.5-16.4,16.6z"/>
<path class="st0" d="M-6,32.8V72h1.6V35.1C-4.9,34.4-5.4,33.7-6,32.8z"/>
<path class="st0" d="M-8.6,29v43H-7V31.4C-7.5,30.6-8,29.8-8.6,29z"/>
<path class="st0" d="M-19,12.1V72h1.6V14.9C-17.9,14-18.5,13.1-19,12.1z"/>
<path class="st0" d="M-25.2-25.3V-72h-1.6v50.4C-26.4-22.9-25.8-24.1-25.2-25.3z"/>
<path class="st0" d="M-28.3-12.5c0-1.8,0.2-3.6,0.5-5.3V-72h-1.6V72h1.6V-8.4C-28.1-9.9-28.3-11.3-28.3-12.5z"/>
<path class="st0" d="M-26.8-4.8V72h1.6V-0.4C-25.8-1.9-26.4-3.4-26.8-4.8z"/>
<path class="st0" d="M-24.2,1.9V72h1.6V5.3C-23.2,4.1-23.7,3-24.2,1.9z"/>
<path class="st0" d="M-21.6,7.3V72h1.6V10.3C-20.6,9.3-21.1,8.3-21.6,7.3z"/>
<path class="st0" d="M24.2-27.2V-72h-1.6v42.5C23.2-28.7,23.7-28,24.2-27.2z"/>
<path class="st0" d="M-60.6-66.4V66.4c0.5,0.4,1.1,0.8,1.6,1.1V-67.5C-59.5-67.1-60.1-66.8-60.6-66.4z"/>
<rect x="-39.8" y="-72" class="st0" width="1.6" height="144"/>
<rect x="-37.2" y="-72" class="st0" width="1.6" height="144"/>
<path class="st0" d="M-58-68.1V68.1c0.5,0.3,1.1,0.6,1.6,0.9V-69C-56.9-68.7-57.5-68.4-58-68.1z"/>
<path class="st0" d="M-43.6-72c-0.5,0-0.9,0-1.4,0V72c0.4,0,0.9,0,1.3,0h0.3V-72H-43.6z"/>
<rect x="-42.4" y="-72" class="st0" width="1.6" height="144"/>
<path class="st0" d="M-68.4-57.5V57.4c0.5,0.9,1,1.7,1.6,2.5V-60C-67.4-59.2-67.9-58.3-68.4-57.5z"/>
<path class="st0" d="M-3.4,36.6V72h1.6V38.8C-2.1,38.3-2.7,37.6-3.4,36.6z"/>
<rect x="-34.6" y="-72" class="st0" width="1.6" height="144"/>
<path class="st0" d="M-63.2-64.2V64.2c0.5,0.5,1,1,1.6,1.4V-65.6C-62.2-65.1-62.7-64.7-63.2-64.2z"/>
<path class="st0" d="M11.2-38.5V-72H9.6v32.9C10.1-38.9,10.7-38.7,11.2-38.5z"/>
<rect x="-32" y="-72" class="st0" width="1.6" height="144"/>
<path class="st0" d="M19-33.5V-72h-1.6v37.2C17.9-34.4,18.5-33.9,19-33.5z"/>
<path class="st0" d="M21.6-30.8V-72H20v39.5C20.6-31.9,21.1-31.4,21.6-30.8z"/>
<path class="st0" d="M-65.8-61.3V61.3c0.5,0.6,1,1.2,1.6,1.8V-63.2C-64.8-62.6-65.3-62-65.8-61.3z"/>
<path class="st0" d="M16.4-35.5V-72h-1.6v35.4C15.3-36.3,15.9-35.9,16.4-35.5z"/>
<path class="st0" d="M13.8-37.2V-72h-1.6v34C12.7-37.8,13.3-37.5,13.8-37.2z"/>
<path class="st0" d="M-50.2-71.2V71.2c0.5,0.1,1.1,0.2,1.6,0.3V-71.6C-49.1-71.5-49.7-71.3-50.2-71.2z"/>
<path class="st0" d="M-47.6-71.7V71.7c0.5,0.1,1.1,0.1,1.6,0.2V-71.9C-46.5-71.8-47.1-71.8-47.6-71.7z"/>
<path class="st0" d="M-52.8-70.5v141c0.5,0.2,1.1,0.3,1.6,0.5V-71C-51.7-70.8-52.3-70.7-52.8-70.5z"/>
<path class="st0" d="M-55.4-69.4V69.5c0.5,0.2,1.1,0.5,1.6,0.7V-70.1C-54.3-69.9-54.9-69.7-55.4-69.4z"/>
<path class="st0" d="M-71-51.1V51.1c0.4,1.5,1,3,1.6,4.4v-111C-70.1-54.1-70.6-52.6-71-51.1z"/>
<path class="st0" d="M26.8-21.6V-72h-1.6v46.7C25.8-24.1,26.4-22.9,26.8-21.6z"/>
<path class="st0" d="M0-40.8c0.3,0,0.5,0,0.8,0V-72h-1.6v31.2C-0.5-40.8-0.3-40.8,0-40.8z"/>
<path class="st0" d="M59-67.5V67.5c0.5-0.4,1.1-0.7,1.6-1.1V-66.4C60.1-66.8,59.5-67.1,59-67.5z"/>
<path class="st0" d="M9.6,27.5V72h1.6V25C10.7,25.9,10.1,26.7,9.6,27.5z"/>
<path class="st0" d="M14.8,19.3V72h1.6V16.6C15.9,17.5,15.3,18.4,14.8,19.3z"/>
<rect x="38.2" y="-72" class="st0" width="1.6" height="144"/>
<path class="st0" d="M66.8-60V60c0.6-0.8,1.1-1.7,1.6-2.5V-57.4C67.9-58.3,67.4-59.2,66.8-60z"/>
<path class="st0" d="M43.7-72h-0.3V72h0.2c0.5,0,0.9,0,1.4,0V-72C44.6-72,44.1-72,43.7-72z"/>
<path class="st0" d="M12.2,23.5V72h1.6V20.9C13.3,21.8,12.7,22.6,12.2,23.5z"/>
<path class="st0" d="M22.6,5.3V72h1.6V1.9C23.7,3,23.2,4.1,22.6,5.3z"/>
<path class="st0" d="M61.6-65.6V65.6c0.6-0.5,1.1-0.9,1.6-1.4V-64.2C62.7-64.7,62.2-65.1,61.6-65.6z"/>
<path class="st0" d="M20,10.3V72h1.6V7.3C21.1,8.3,20.6,9.3,20,10.3z"/>
<path class="st0" d="M64.2-63.2V63.2c0.6-0.6,1.1-1.2,1.6-1.8V-61.3C65.3-62,64.8-62.6,64.2-63.2z"/>
<path class="st0" d="M27.8-72v54.2c0.3,1.7,0.5,3.5,0.5,5.3c0,1.2-0.2,2.6-0.5,4.1V72h1.6V-72H27.8z"/>
<rect x="35.6" y="-72" class="st0" width="1.6" height="144"/>
<path class="st0" d="M25.2-0.4V72h1.6V-4.8C26.4-3.4,25.8-1.9,25.2-0.4z"/>
<path class="st0" d="M17.4,14.9V72H19V12.1C18.5,13.1,17.9,14,17.4,14.9z"/>
<rect x="30.4" y="-72" class="st0" width="1.6" height="144"/>
<rect x="33" y="-72" class="st0" width="1.6" height="144"/>
<rect x="40.8" y="-72" class="st0" width="1.6" height="144"/>
<path class="st0" d="M48.6-71.6V71.6c0.5-0.1,1.1-0.2,1.6-0.3V-71.2C49.7-71.4,49.1-71.5,48.6-71.6z"/>
<path class="st0" d="M1.8,38.8V72h1.6V36.6C2.7,37.6,2.1,38.3,1.8,38.8z"/>
<path class="st0" d="M4.4,35.1V72H6V32.8C5.4,33.7,4.9,34.4,4.4,35.1z"/>
<path class="st0" d="M0.5,40.6c-0.1,0.2-0.3,0.3-0.5,0.3s-0.4-0.1-0.5-0.3l-0.3-0.4V72h1.6V40.2L0.5,40.6z"/>
<path class="st0" d="M69.4-55.5v111c0.6-1.4,1.2-2.9,1.6-4.4V-51.1C70.6-52.6,70.1-54.1,69.4-55.5z"/>
<path class="st0" d="M56.4-69V69c0.5-0.3,1.1-0.6,1.6-0.9V-68.1C57.5-68.4,56.9-68.7,56.4-69z"/>
<path class="st0" d="M53.8-70.1V70.1c0.5-0.2,1.1-0.4,1.6-0.7V-69.5C54.9-69.7,54.3-69.9,53.8-70.1z"/>
<path class="st0" d="M51.2-71V71c0.5-0.1,1.1-0.3,1.6-0.5v-141C52.3-70.7,51.7-70.8,51.2-71z"/>
<path class="st0" d="M46-71.9V71.9c0.5,0,1.1-0.1,1.6-0.2V-71.7C47.1-71.8,46.5-71.9,46-71.9z"/>
<path class="st0" d="M7,31.4V72h1.6V29C8,29.8,7.5,30.6,7,31.4z"/>
<path class="st0" d="M-6-20.6v16.3c0.5,0.4,1,0.7,1.6,1v-18.3C-5-21.3-5.5-21-6-20.6z"/>
<path class="st0" d="M7-19.8v14.7c0.6-0.6,1.1-1.2,1.6-1.9v-10.9C8.1-18.6,7.6-19.3,7-19.8z"/>
<path class="st0" d="M10.2-12.5c0-1.2-0.2-2.3-0.6-3.4v6.8C10-10.2,10.2-11.3,10.2-12.5z"/>
<path class="st0" d="M-10.2-12.4c0,1.2,0.2,2.3,0.6,3.3v-6.7C-10-14.7-10.2-13.6-10.2-12.4z"/>
<path class="st0" d="M1.8-22.4v20c0.6-0.1,1.1-0.2,1.6-0.4V-22C2.9-22.2,2.4-22.3,1.8-22.4z"/>
<path class="st0" d="M0-22.6c-0.3,0-0.5,0-0.8,0v20.2c0.3,0,0.5,0,0.8,0c0.3,0,0.5,0,0.8,0v-20.2C0.5-22.6,0.3-22.6,0-22.6z"/>
<path class="st0" d="M4.4-21.6v18.3C5-3.6,5.5-3.9,6-4.3v-16.4C5.5-21,5-21.3,4.4-21.6z"/>
<path class="st0" d="M-3.4-22v19.1c0.5,0.2,1,0.3,1.6,0.4v-20C-2.4-22.3-2.9-22.2-3.4-22z"/>
<path class="st0" d="M-8.6-17.8V-7c0.5,0.7,1,1.4,1.6,1.9v-14.7C-7.6-19.2-8.1-18.6-8.6-17.8z"/>
</svg>
