<?xml version="1.0" encoding="utf-8"?>
<!-- Generator: Adobe Illustrator 19.1.0, SVG Export Plug-In . SVG Version: 6.00 Build 0)  -->
<svg version="1.1" id="Layer_1" xmlns="http://www.w3.org/2000/svg" xmlns:xlink="http://www.w3.org/1999/xlink" x="0px" y="0px"
	 viewBox="0 0 1000 1000" style="enable-background:new 0 0 1000 1000;" xml:space="preserve">
<style type="text/css">
	.st0{fill:#FFFFFF;}
</style>
<g>
	<g>
		<path class="st0" d="M0,21.5c8.9,0,16.2-7.3,16.2-16.2v-36.4c0-8.9-7.3-16.2-16.2-16.2s-16.2,7.3-16.2,16.2V5.3
			C-16.2,14.2-8.9,21.5,0,21.5z"/>
		<path class="st0" d="M26.1-2.5h-3.2c-1,0-1.9,0.8-1.9,1.9V6c0,11.6-9.4,21-21,21s-21-9.4-21-21v-6.6c0-1-0.8-1.9-1.9-1.9h-3.2
			c-1,0-1.9,0.8-1.9,1.9V6c0,13.8,10.7,26,24.4,27.7v4.7h-14.4c-1,0-1.9,0.8-1.9,1.9v3.2c0,1,0.8,1.9,1.9,1.9h35.8
			c1,0,1.9-0.8,1.9-1.9v-3.2c0-1-0.8-1.9-1.9-1.9H3.5v-4.7C17.2,31.9,27.9,19.8,27.9,6v-6.6C27.9-1.7,27.1-2.5,26.1-2.5z"/>
	</g>
</g>
<g>
</g>
<g>
</g>
<g>
</g>
<g>
</g>
<g>
</g>
<g>
</g>
</svg>
