<?xml version="1.0" encoding="utf-8"?>
<!-- Generator: Adobe Illustrator 19.1.0, SVG Export Plug-In . SVG Version: 6.00 Build 0)  -->
<svg version="1.1" id="Layer_1" xmlns="http://www.w3.org/2000/svg" xmlns:xlink="http://www.w3.org/1999/xlink" x="0px" y="0px"
	 viewBox="0 0 1000 1000" style="enable-background:new 0 0 1000 1000;" xml:space="preserve">
<style type="text/css">
	.st0{fill:#FFFFFF;}
</style>
<g>
	<g>
		<g>
			<path class="st0" d="M-37.1,14.8c-2.3,0-4.2-1.9-4.2-4.2v-21.2c0-2.3,1.9-4.2,4.2-4.2c2.3,0,4.2,1.9,4.2,4.2v21.2
				C-32.9,12.9-34.8,14.8-37.1,14.8z"/>
		</g>
		<g>
			<path class="st0" d="M-24.7,25.4c-2.3,0-4.2-1.9-4.2-4.2v-42.4c0-2.3,1.9-4.2,4.2-4.2s4.2,1.9,4.2,4.2v42.4
				C-20.5,23.5-22.4,25.4-24.7,25.4z"/>
		</g>
		<g>
			<path class="st0" d="M-12.4,20.1c-2.3,0-4.2-1.9-4.2-4.2v-31.8c0-2.3,1.9-4.2,4.2-4.2s4.2,1.9,4.2,4.2v31.8
				C-8.1,18.2-10,20.1-12.4,20.1z"/>
		</g>
		<g>
			<path class="st0" d="M0,30.7c-2.3,0-4.2-1.9-4.2-4.2v-53c0-2.3,1.9-4.2,4.2-4.2s4.2,1.9,4.2,4.2v53C4.2,28.8,2.3,30.7,0,30.7z"/>
		</g>
		<g>
			<path class="st0" d="M12.4,41.3c-2.3,0-4.2-1.9-4.2-4.2v-74.2c0-2.3,1.9-4.2,4.2-4.2c2.3,0,4.2,1.9,4.2,4.2v74.2
				C16.6,39.4,14.7,41.3,12.4,41.3z"/>
		</g>
		<g>
			<path class="st0" d="M24.7,25.4c-2.3,0-4.2-1.9-4.2-4.2v-42.4c0-2.3,1.9-4.2,4.2-4.2c2.3,0,4.2,1.9,4.2,4.2v42.4
				C29,23.5,27.1,25.4,24.7,25.4z"/>
		</g>
		<g>
			<path class="st0" d="M37.1,9.5c-2.3,0-4.2-1.9-4.2-4.2V-5.3c0-2.3,1.9-4.2,4.2-4.2s4.2,1.9,4.2,4.2V5.3
				C41.3,7.6,39.4,9.5,37.1,9.5z"/>
		</g>
	</g>
</g>
<g>
</g>
<g>
</g>
<g>
</g>
<g>
</g>
<g>
</g>
<g>
</g>
</svg>
