<?xml version="1.0" encoding="utf-8"?>
<!-- Generator: Adobe Illustrator 19.1.0, SVG Export Plug-In . SVG Version: 6.00 Build 0)  -->
<svg version="1.1" id="Layer_1" xmlns="http://www.w3.org/2000/svg" xmlns:xlink="http://www.w3.org/1999/xlink" x="0px" y="0px"
	 viewBox="0 0 1000 1000" style="enable-background:new 0 0 1000 1000;" xml:space="preserve">
<style type="text/css">
	.st0{fill:none;stroke:#000000;}
</style>
<path class="st0" d="M0-430c-237.5,0-430,192.5-430,430S-237.5,430,0,430S430,237.5,430,0S237.5-430,0-430z M-361.7,52
	c-0.5,0.1-1-0.2-1.1-0.7c-0.2-1-0.4-1.9-0.5-2.9c-0.6-3.7-1.1-7.5-1.6-11.2c-0.3-2.6-0.7-5.2-1-7.8c-0.3-2.7-0.5-5.4-0.8-8.1
	c-0.3-3.8-0.7-7.5-0.9-11.3c-0.1-1.8-0.2-3.7-0.3-5.5c-0.2-4.6-0.3-9.2-0.3-13.8c0-0.7,0-1.3,0-2c0-0.7,0-1.3,0-2
	c0-4.6,0.1-9.2,0.3-13.8c0.1-1.8,0.1-3.7,0.3-5.5c0.2-3.8,0.5-7.6,0.9-11.3c0.2-2.7,0.5-5.4,0.8-8.1c0.3-2.6,0.6-5.3,1-7.9
	c0.5-3.7,1-7.5,1.6-11.2c0.2-1.4,0.5-2.7,0.7-4.1c0.9-4.8,1.7-9.6,2.8-14.4c0-0.1,0.1-0.2,0.1-0.3c2.4-11.2,5.4-22.3,8.9-33.2
	c0.1-0.3,0.2-0.6,0.3-1c1.4-4.4,3-8.9,4.6-13.3c0.6-1.5,1.1-3,1.6-4.5c1.2-3.3,2.6-6.6,4-9.9c1.1-2.6,2.2-5.3,3.3-7.9
	c1-2.3,2.1-4.5,3.1-6.8c1.7-3.6,3.4-7.3,5.2-10.9c0.7-1.4,1.5-2.8,2.2-4.2c2.2-4.3,4.5-8.6,7-12.9c0.3-0.5,0.5-0.9,0.8-1.4
	c0.3-0.5,0.5-0.9,0.8-1.4c2.5-4.2,5-8.4,7.6-12.5c0.9-1.3,1.7-2.7,2.5-4c2.2-3.4,4.5-6.7,6.9-10.1c1.4-2,2.8-4,4.2-6
	c1.8-2.4,3.6-4.7,5.3-7c2.1-2.8,4.2-5.5,6.4-8.2c1.1-1.3,2.2-2.6,3.3-3.9c2.9-3.5,5.9-7,8.9-10.3c0.3-0.4,0.7-0.7,1-1.1
	c7.6-8.3,15.6-16.4,24-24c0.1-0.1,0.3-0.2,0.4-0.3c3.6-3.3,7.3-6.4,11-9.5c1.1-0.9,2.2-1.9,3.3-2.8c2.9-2.4,5.8-4.6,8.8-6.9
	c2.1-1.6,4.2-3.3,6.4-4.9c2.2-1.6,4.4-3.1,6.6-4.7c3.1-2.2,6.3-4.4,9.5-6.5c1.5-1,3-1.9,4.5-2.9c3.8-2.4,7.7-4.8,11.7-7.2
	c1-0.6,2.1-1.2,3.1-1.8c0.1-0.1,0.3-0.2,0.4-0.2c4-2.3,8-4.4,12-6.5c1.7-0.9,3.4-1.8,5.1-2.7c3.3-1.7,6.6-3.2,10-4.8
	c2.6-1.2,5.1-2.4,7.7-3.5c2.3-1,4.7-2,7-2.9c3.6-1.5,7.2-3,10.8-4.3c0.9-0.3,1.8-0.6,2.7-1c0.5-0.2,1,0.1,1.2,0.6l73.8,221.3
	c0.1,0.4-0.1,0.9-0.5,1.1c-47.7,20.6-81.1,68-81.1,123.3c0,5.3,0.4,10.5,1,15.6c0.1,0.5-0.3,0.9-0.7,1L-361.7,52z M237,272.3
	c-0.8,0.6-1.5,1.3-2.3,1.9c-2.9,2.4-5.8,4.6-8.8,6.9c-2.1,1.6-4.2,3.3-6.4,4.9c-2.2,1.6-4.4,3.1-6.6,4.7c-3.1,2.2-6.3,4.4-9.5,6.5
	c-1.5,1-3,1.9-4.5,2.9c-3.8,2.4-7.7,4.8-11.7,7.1c-1.1,0.6-2.2,1.3-3.3,1.9c-0.1,0.1-0.2,0.1-0.3,0.2c-4,2.3-8,4.4-12,6.5
	c-1.7,0.9-3.4,1.8-5.2,2.7c-3.3,1.7-6.6,3.2-9.9,4.8c-2.6,1.2-5.1,2.4-7.7,3.5c-2.3,1-4.6,2-6.9,2.9c-3.6,1.5-7.2,3-10.8,4.3
	c-1.2,0.4-2.4,0.9-3.6,1.3c-4.7,1.7-9.4,3.4-14.2,4.9c0,0,0,0,0,0c-11.1,3.5-22.4,6.6-33.8,9.1c-0.2,0-0.3,0.1-0.5,0.1
	c-4.7,1-9.5,1.9-14.2,2.7c-1.4,0.3-2.8,0.5-4.3,0.8c-3.6,0.6-7.3,1.1-11,1.6c-2.7,0.3-5.4,0.7-8.1,1c-2.6,0.3-5.2,0.5-7.9,0.8
	c-3.9,0.3-7.7,0.6-11.6,0.9c-1.7,0.1-3.5,0.2-5.2,0.2c-4.7,0.2-9.5,0.3-14.3,0.4c-0.3,0-0.7,0-1.1,0c-0.8,0-1.6,0-2.5,0
	c-4.8,0-9.5-0.2-14.3-0.4c-1.7-0.1-3.3-0.1-5-0.2c-4-0.2-7.9-0.6-11.9-0.9c-2.5-0.2-5.1-0.4-7.6-0.7c-2.8-0.3-5.6-0.7-8.4-1.1
	c-3.6-0.5-7.1-0.9-10.7-1.5c-1.6-0.3-3.1-0.6-4.7-0.8c-4.6-0.8-9.3-1.7-13.8-2.7c-0.3-0.1-0.6-0.1-0.9-0.2
	c-11.2-2.4-22.2-5.4-33.1-8.9c-0.2-0.1-0.3-0.1-0.5-0.2c-4.6-1.5-9.1-3.1-13.7-4.7c-1.4-0.5-2.7-1-4.1-1.5
	c-3.5-1.3-6.9-2.7-10.3-4.1c-2.5-1-5-2.1-7.5-3.2c-2.4-1.1-4.8-2.2-7.2-3.3c-3.5-1.6-6.9-3.3-10.4-5c-1.6-0.8-3.2-1.6-4.7-2.5
	c-4.1-2.2-8.2-4.4-12.3-6.7c-0.6-0.3-1.2-0.7-1.8-1c-0.5-0.3-1.1-0.6-1.6-0.9c-4-2.4-8-4.8-11.9-7.3c-1.5-1-3-1.9-4.5-2.9
	c-3.2-2.1-6.3-4.3-9.5-6.5c-2.2-1.6-4.4-3.1-6.6-4.7c-2.2-1.6-4.3-3.2-6.4-4.9c-3-2.3-5.9-4.5-8.8-6.9c-0.8-0.6-1.5-1.3-2.3-1.9
	c-0.4-0.3-0.4-0.9-0.1-1.3L-80.4,96.3c0.3-0.4,0.8-0.4,1.2-0.1c22.4,16.7,50,26.7,80.1,26.7c30.1,0,57.7-10,80.1-26.7
	c0.4-0.3,0.9-0.2,1.2,0.1L237.1,271C237.5,271.4,237.4,272,237,272.3z M370-9.3c0,4.7-0.1,9.3-0.3,13.9c-0.1,1.8-0.1,3.5-0.2,5.3
	c-0.2,3.8-0.5,7.7-0.9,11.5c-0.2,2.6-0.5,5.3-0.8,7.9c-0.3,2.7-0.7,5.4-1,8.1c-0.5,3.7-1,7.3-1.6,11c-0.2,1-0.4,2-0.5,2.9
	c-0.1,0.5-0.6,0.8-1.1,0.7L134.9,5.2c-0.5-0.1-0.8-0.5-0.7-1c0.6-5.1,1-10.3,1-15.6c0-55.2-33.4-102.7-81.1-123.3
	c-0.4-0.2-0.7-0.7-0.5-1.1l73.8-221.3c0.2-0.5,0.7-0.7,1.2-0.6c1,0.3,1.9,0.7,2.9,1c3.4,1.3,6.8,2.7,10.1,4.1
	c2.6,1.1,5.1,2.1,7.7,3.2c2.4,1,4.7,2.1,7,3.2c3.6,1.7,7.1,3.3,10.6,5.1c1.5,0.8,3,1.6,4.5,2.3c4.2,2.2,8.3,4.4,12.4,6.7
	c0.9,0.5,1.7,1,2.6,1.5c0.2,0.1,0.4,0.2,0.6,0.4c4.1,2.4,8.1,4.8,12,7.3c1.5,1,3,1.9,4.5,2.9c3.2,2.1,6.3,4.3,9.5,6.5
	c2.2,1.5,4.4,3.1,6.6,4.7c2.2,1.6,4.3,3.2,6.4,4.9c3,2.3,5.9,4.5,8.8,6.9c1.1,0.9,2.2,1.9,3.3,2.8c3.7,3.1,7.4,6.2,11,9.5
	c0.1,0.1,0.3,0.2,0.4,0.3c8.6,7.8,16.8,16,24.6,24.6c0.1,0.1,0.1,0.1,0.2,0.2c3.3,3.6,6.5,7.4,9.6,11.1c0.9,1,1.8,2.1,2.6,3.1
	c2.4,2.9,4.7,5.9,7,8.9c1.6,2.1,3.2,4.1,4.8,6.3c1.6,2.2,3.2,4.4,4.7,6.6c2.2,3.1,4.3,6.2,6.4,9.4c1,1.5,2,3,2.9,4.6
	c2.5,3.9,4.9,7.8,7.3,11.9c0.3,0.6,0.6,1.1,1,1.7c0.3,0.6,0.6,1.1,1,1.7c2.3,4,4.5,8.1,6.6,12.2c0.8,1.6,1.7,3.2,2.5,4.8
	c1.7,3.4,3.4,6.9,5,10.4c1.1,2.4,2.3,4.9,3.3,7.3c1.1,2.5,2.1,4.9,3.1,7.4c1.4,3.4,2.8,6.9,4.2,10.4c0.5,1.3,1,2.7,1.4,4
	c1.7,4.6,3.3,9.1,4.8,13.8c0,0.1,0.1,0.3,0.1,0.4c3.5,11,6.5,22.3,9,33.6c0,0.1,0.1,0.3,0.1,0.4c1,4.8,1.9,9.6,2.8,14.4
	c0.2,1.4,0.5,2.7,0.7,4.1c0.6,3.7,1.1,7.4,1.6,11.1c0.3,2.6,0.7,5.3,1,7.9c0.3,2.7,0.5,5.4,0.8,8.1c0.3,3.8,0.6,7.5,0.9,11.3
	c0.1,1.8,0.2,3.7,0.3,5.5c0.2,4.6,0.3,9.3,0.4,13.9c0,0.4,0,0.7,0,1.1C370-11.2,370-10.3,370-9.3z"/>
<g>
</g>
<g>
</g>
<g>
</g>
<g>
</g>
<g>
</g>
<g>
</g>
</svg>
