<?xml version="1.0" encoding="utf-8"?>
<!-- Generator: Adobe Illustrator 19.1.0, SVG Export Plug-In . SVG Version: 6.00 Build 0)  -->
<svg version="1.1" id="Layer_1" xmlns="http://www.w3.org/2000/svg" xmlns:xlink="http://www.w3.org/1999/xlink" x="0px" y="0px"
	 viewBox="0 0 1000 1000" style="enable-background:new 0 0 1000 1000;" xml:space="preserve">
<style type="text/css">
	.st0{fill:#FFFFFF;}
</style>
<g>
	<path class="st0" d="M-14.2,9.9l-10.9,10.9l-6.6-6.6c-0.4-0.4-0.9-0.5-1.4-0.3c-0.5,0.2-0.8,0.7-0.8,1.2l0,17.5
		c0,0.7,0.6,1.3,1.3,1.3l17.5,0c0.5,0,1-0.3,1.2-0.8c0.2-0.5,0.1-1-0.3-1.4l-6.6-6.6l10.9-10.9c1.2-1.2,1.2-3.1,0-4.3
		C-11.1,8.7-13,8.7-14.2,9.9z"/>
	<path class="st0" d="M33,13.9c-0.5-0.2-1-0.1-1.4,0.3L25,20.7L14.1,9.9c-1.2-1.2-3.1-1.2-4.3,0c-1.2,1.2-1.2,3.1,0,4.3l10.9,10.9
		l-6.6,6.6c-0.4,0.4-0.5,0.9-0.3,1.4c0.2,0.5,0.7,0.8,1.2,0.8l17.5,0c0.7,0,1.3-0.6,1.3-1.3l0-17.5C33.7,14.5,33.4,14.1,33,13.9z"/>
	<path class="st0" d="M-20.8-25.3l6.6-6.6c0.4-0.4,0.5-0.9,0.3-1.4c-0.2-0.5-0.7-0.8-1.2-0.8l-17.5,0c-0.7,0-1.3,0.6-1.3,1.3l0,17.5
		c0,0.5,0.3,1,0.8,1.2c0.5,0.2,1,0.1,1.4-0.3l6.6-6.6L-14.2-10c0.6,0.6,1.4,0.9,2.2,0.9c0.8,0,1.6-0.3,2.2-0.9
		c1.2-1.2,1.2-3.1,0-4.3L-20.8-25.3z"/>
	<path class="st0" d="M32.5-34L15-34c-0.5,0-1,0.3-1.2,0.8c-0.2,0.5-0.1,1,0.3,1.4l6.6,6.6L9.8-14.4c-1.2,1.2-1.2,3.1,0,4.3
		c0.6,0.6,1.4,0.9,2.2,0.9c0.8,0,1.6-0.3,2.2-0.9L25-20.9l6.6,6.6c0.4,0.4,0.9,0.5,1.4,0.3c0.5-0.2,0.8-0.7,0.8-1.2l0-17.5
		C33.7-33.5,33.2-34,32.5-34z"/>
	<path class="st0" d="M38.8-46h-77.7c-4,0-7.2,3.2-7.2,7.2v77.7c0,4,3.2,7.2,7.2,7.2h77.7c4,0,7.2-3.2,7.2-7.2v-77.7
		C46-42.8,42.8-46,38.8-46z M39.9,38.8c0,0.6-0.5,1.1-1.1,1.1h-77.7c-0.6,0-1.1-0.5-1.1-1.1v-77.7c0-0.6,0.5-1.1,1.1-1.1h77.7
		c0.6,0,1.1,0.5,1.1,1.1L39.9,38.8L39.9,38.8z"/>
</g>
<g>
</g>
<g>
</g>
<g>
</g>
<g>
</g>
<g>
</g>
<g>
</g>
</svg>
