<?xml version="1.0" encoding="utf-8"?>
<!-- Generator: Adobe Illustrator 19.1.0, SVG Export Plug-In . SVG Version: 6.00 Build 0)  -->
<svg version="1.1" id="Layer_1" xmlns="http://www.w3.org/2000/svg" xmlns:xlink="http://www.w3.org/1999/xlink" x="0px" y="0px"
	 viewBox="0 0 1000 1000" style="enable-background:new 0 0 1000 1000;" xml:space="preserve">
<style type="text/css">
	.st0{fill:#FFFFFF;}
</style>
<path class="st0" d="M30.3,2.8L30.3,2.8c1.7,0,3.1-1.4,3.1-3.1v-31.8c0-4.7-3.9-8.6-8.6-8.6H-4.4c-0.6,0-5.6,0.1-9,3.6L-32.5-18
	c-0.6,0.6-0.9,1.4-0.9,2.2v47.9c0,4.7,3.9,8.6,8.6,8.6h49.7c4.7,0,8.6-3.9,8.6-8.6v-19c0-1.7-1.4-3.1-3.1-3.1h-0.3V2.8H30.3z
	 M5.8-30.1c0-1.3,1.1-2.4,2.4-2.4h3.1c1.3,0,2.4,1.1,2.4,2.4v9.7c0,1.3-1.1,2.4-2.4,2.4H8.3c-1.3,0-2.4-1.1-2.4-2.4V-30.1z
	 M-4.4-30.1c0-1.3,1.1-2.4,2.4-2.4h3.1c1.3,0,2.4,1.1,2.4,2.4v9.7c0,1.3-1.1,2.4-2.4,2.4h-3.1c-1.3,0-2.4-1.1-2.4-2.4V-30.1z
	 M-14.5-23.3c0-1.3,1.1-2.4,2.4-2.4H-9c1.3,0,2.4,1.1,2.4,2.4v9.7c0,1.3-1.1,2.4-2.4,2.4h-3.1c-1.3,0-2.4-1.1-2.4-2.4V-23.3z
	 M22.8,28.6c0,2.2-1.8,4-4,4h-37.7c-2.2,0-4-1.8-4-4V10.5c0-2.2,1.8-4,4-4h37.7c2.2,0,4,1.8,4,4V28.6z M24-20.4
	c0,1.3-1.1,2.4-2.4,2.4h-3.1c-1.3,0-2.4-1.1-2.4-2.4v-9.7c0-1.3,1.1-2.4,2.4-2.4h3.1c1.3,0,2.4,1.1,2.4,2.4V-20.4z"/>
<g>
</g>
<g>
</g>
<g>
</g>
<g>
</g>
<g>
</g>
<g>
</g>
</svg>
