<?xml version="1.0" encoding="utf-8"?>
<!-- Generator: Adobe Illustrator 19.1.0, SVG Export Plug-In . SVG Version: 6.00 Build 0)  -->
<svg version="1.1" id="Layer_1" xmlns="http://www.w3.org/2000/svg" xmlns:xlink="http://www.w3.org/1999/xlink" x="0px" y="0px"
	 viewBox="0 0 1000 1000" style="enable-background:new 0 0 1000 1000;" xml:space="preserve">
<style type="text/css">
	.st0{fill:#FFFFFF;}
</style>
<path class="st0" d="M61.6-65.6V65.6c0.6-0.5,1.1-0.9,1.6-1.4V-64.2C62.7-64.7,62.2-65.1,61.6-65.6z"/>
<path class="st0" d="M51.9,0.1c0,2.9-0.2,5.8-0.7,8.6v0c0.6,0.7,1.1,1.4,1.6,2.1v-81.3c-0.5-0.2-1.1-0.3-1.6-0.5v62.6
	C51.7-5.6,51.9-2.8,51.9,0.1z"/>
<path class="st0" d="M55.4,16.6v-86.1c-0.5-0.2-1.1-0.5-1.6-0.7v82.6C54.5,13.8,55,15.2,55.4,16.6z"/>
<path class="st0" d="M47.6-20.7v-51.1c-0.5-0.1-1.1-0.1-1.6-0.2V-24C46.6-22.9,47.1-21.8,47.6-20.7z"/>
<path class="st0" d="M-37.2,36.7V72h1.6V38.3C-36.1,37.8-36.7,37.3-37.2,36.7z"/>
<path class="st0" d="M42.4-29.9V-72h-1.6v39.9C41.4-31.4,41.9-30.7,42.4-29.9z"/>
<path class="st0" d="M50.2-13.2v-58.1c-0.5-0.1-1.1-0.2-1.6-0.3v53.4C49.2-16.6,49.8-14.9,50.2-13.2z"/>
<path class="st0" d="M45-25.8V-72c-0.4,0-0.9,0-1.3,0h-0.3v43.5C44-27.6,44.5-26.7,45-25.8z"/>
<path class="st0" d="M-29.4,43.2V72h1.6V44.2C-28.3,43.9-28.9,43.6-29.4,43.2z"/>
<path class="st0" d="M-34.6,39.2V72h1.6V40.5C-33.5,40.1-34.1,39.6-34.6,39.2z"/>
<path class="st0" d="M-65.8-61.3V61.3c0.5,0.6,1,1.2,1.6,1.8V-63.2C-64.8-62.6-65.3-62-65.8-61.3z"/>
<path class="st0" d="M-68.4-57.5V57.4c0.5,0.9,1,1.7,1.6,2.5V-60C-67.4-59.2-67.9-58.3-68.4-57.5z"/>
<path class="st0" d="M-32,41.3V72h1.6V42.5C-30.9,42.1-31.5,41.7-32,41.3z"/>
<path class="st0" d="M-71-51.1V51.1c0.4,1.5,1,3,1.6,4.4v-111C-70.1-54.1-70.6-52.6-71-51.1z"/>
<path class="st0" d="M26.8-44.5V-72h-1.6v26.5C25.7-45.1,26.3-44.8,26.8-44.5z"/>
<path class="st0" d="M24.2-46v-26h-1.6v25.2C23.1-46.6,23.7-46.3,24.2-46z"/>
<path class="st0" d="M6-51.7V-72H4.4v20.1C4.9-51.8,5.5-51.8,6-51.7z"/>
<path class="st0" d="M21.6-47.3V-72H20v24C20.5-47.8,21.1-47.5,21.6-47.3z"/>
<path class="st0" d="M19-48.4V-72h-1.6v23C17.9-48.8,18.5-48.6,19-48.4z"/>
<path class="st0" d="M8.6-51.3V-72H7v20.4C7.5-51.5,8.1-51.4,8.6-51.3z"/>
<path class="st0" d="M13.8-50.2V-72h-1.6v21.4C12.7-50.5,13.3-50.3,13.8-50.2z"/>
<path class="st0" d="M11.2-50.8V-72H9.6v20.8C10.1-51,10.7-50.9,11.2-50.8z"/>
<path class="st0" d="M29.4-42.8V-72h-1.6v28.1C28.3-43.5,28.9-43.2,29.4-42.8z"/>
<path class="st0" d="M59-67.5V67.5c0.5-0.4,1.1-0.7,1.6-1.1V-66.4C60.1-66.8,59.5-67.1,59-67.5z"/>
<path class="st0" d="M37.2-36.2V-72h-1.6v34.2C36.1-37.3,36.7-36.7,37.2-36.2z"/>
<path class="st0" d="M32-40.9V-72h-1.6v29.9C30.9-41.7,31.5-41.3,32-40.9z"/>
<path class="st0" d="M34.6-38.7V-72H33v31.9C33.5-39.7,34.1-39.2,34.6-38.7z"/>
<path class="st0" d="M39.8-33.3V-72h-1.6v36.8C38.8-34.6,39.3-33.9,39.8-33.3z"/>
<path class="st0" d="M-26.8,44.9V72h1.6V45.8C-25.7,45.5-26.3,45.2-26.8,44.9z"/>
<path class="st0" d="M16.4-49.4V-72h-1.6v22.1C15.3-49.7,15.9-49.5,16.4-49.4z"/>
<path class="st0" d="M9.6,52.8V72h1.6V53.8C10.7,53.5,10.1,53.1,9.6,52.8z"/>
<path class="st0" d="M69.4-55.5v111c0.6-1.4,1.2-2.9,1.6-4.4V-51.1C70.6-52.6,70.1-54.1,69.4-55.5z"/>
<path class="st0" d="M33,54.6V72h1.6V54C34.1,54.2,33.5,54.4,33,54.6z"/>
<path class="st0" d="M4.4,52v20H6V51.9C5.5,51.9,4.9,52,4.4,52z"/>
<path class="st0" d="M66.8-60V60c0.6-0.8,1.1-1.7,1.6-2.5V-57.4C67.9-58.3,67.4-59.2,66.8-60z"/>
<path class="st0" d="M8.1,51.6c-0.4,0.1-0.7,0.1-1.1,0.1V72h1.6V52C8.4,51.9,8.3,51.7,8.1,51.6z"/>
<path class="st0" d="M30.4,55.5V72H32V55C31.5,55.2,30.9,55.4,30.4,55.5z"/>
<path class="st0" d="M25.2,56.5V72h1.6V56.3C26.3,56.4,25.7,56.5,25.2,56.5z"/>
<path class="st0" d="M12.2,54.3V72h1.6V55.1C13.3,54.9,12.7,54.6,12.2,54.3z"/>
<path class="st0" d="M20,56.6V72h1.6V56.7C21.1,56.6,20.5,56.6,20,56.6z"/>
<path class="st0" d="M17.4,56.2V72H19V56.4C18.5,56.4,17.9,56.3,17.4,56.2z"/>
<path class="st0" d="M1.8,52.2V72h1.6V52.1C2.9,52.1,2.3,52.1,1.8,52.2z"/>
<path class="st0" d="M27.8,56.1V72h1.6V55.8C28.9,55.9,28.3,56,27.8,56.1z"/>
<path class="st0" d="M14.8,55.4V72h1.6V55.9C15.9,55.8,15.3,55.6,14.8,55.4z"/>
<path class="st0" d="M-3.4,52.1V72h1.6V52.2C-2.3,52.1-2.9,52.1-3.4,52.1z"/>
<path class="st0" d="M-0.1,52.2c-0.2,0-0.5,0-0.7,0V72h1.6V52.2C0.5,52.2,0.2,52.2-0.1,52.2z"/>
<path class="st0" d="M-19,48.7V72h1.6V49.3C-17.9,49.1-18.5,48.9-19,48.7z"/>
<path class="st0" d="M-21.6,47.6V72h1.6V48.3C-20.5,48-21.1,47.8-21.6,47.6z"/>
<path class="st0" d="M-24.2,46.3V72h1.6V47.1C-23.1,46.9-23.7,46.6-24.2,46.3z"/>
<path class="st0" d="M-16.4,49.6V72h1.6V50.1C-15.3,49.9-15.9,49.8-16.4,49.6z"/>
<path class="st0" d="M-60.6-66.4V66.4c0.5,0.4,1.1,0.8,1.6,1.1V-67.5C-59.5-67.1-60.1-66.8-60.6-66.4z"/>
<path class="st0" d="M-58-68.1V68.1c0.5,0.3,1.1,0.6,1.6,0.9V-69C-56.9-68.7-57.5-68.4-58-68.1z"/>
<path class="st0" d="M-13.8,50.4V72h1.6V50.8C-12.7,50.6-13.3,50.5-13.8,50.4z"/>
<path class="st0" d="M-6,51.9V72h1.6V52C-4.9,52-5.5,51.9-6,51.9z"/>
<path class="st0" d="M-63.2-64.2V64.2c0.5,0.5,1,1,1.6,1.4V-65.6C-62.2-65.1-62.7-64.7-63.2-64.2z"/>
<path class="st0" d="M64.2-63.2V63.2c0.6-0.6,1.1-1.2,1.6-1.8V-61.3C65.3-62,64.8-62.6,64.2-63.2z"/>
<path class="st0" d="M-11.2,51v21h1.6V51.3C-10.1,51.2-10.7,51.1-11.2,51z"/>
<path class="st0" d="M-8.6,51.5V72H-7V51.7C-7.5,51.7-8.1,51.6-8.6,51.5z"/>
<path class="st0" d="M35.6,53.5V72h1.6V52.7C36.7,53,36.1,53.3,35.6,53.5z"/>
<path class="st0" d="M-14.8-54.7V-72h-1.6v16.8C-15.9-55-15.3-54.8-14.8-54.7z"/>
<path class="st0" d="M53.8,34.5v35.6c0.5-0.2,1.1-0.4,1.6-0.7V29.7C55,31.3,54.5,32.9,53.8,34.5z"/>
<path class="st0" d="M51.2,39.5V71c0.5-0.1,1.1-0.3,1.6-0.5V36.7C52.3,37.7,51.8,38.6,51.2,39.5z"/>
<path class="st0" d="M-30.4-54.8V-72H-32v17.7C-31.5-54.5-30.9-54.7-30.4-54.8z"/>
<path class="st0" d="M-40.8-49.9V-72h-1.6v23.3C-41.9-49.1-41.3-49.5-40.8-49.9z"/>
<path class="st0" d="M-12.2-53.5V-72h-1.6v17.7C-13.3-54.1-12.7-53.8-12.2-53.5z"/>
<path class="st0" d="M-53.8-34.1v-36c-0.5,0.2-1.1,0.4-1.6,0.7v39.9C-55-31-54.5-32.6-53.8-34.1z"/>
<path class="st0" d="M-33-54v-18h-1.6v18.7C-34.1-53.6-33.5-53.8-33-54z"/>
<path class="st0" d="M48.6,43.2v28.4c0.5-0.1,1.1-0.2,1.6-0.3V41.1C49.7,41.8,49.2,42.5,48.6,43.2z"/>
<path class="st0" d="M-51.2-39v-32c-0.5,0.1-1.1,0.3-1.6,0.5v34.2C-52.3-37.2-51.8-38.1-51.2-39z"/>
<path class="st0" d="M-27.8-55.4V-72h-1.6v16.9C-28.9-55.2-28.3-55.3-27.8-55.4z"/>
<path class="st0" d="M-46-45.5v-26.4c-0.5,0-1.1,0.1-1.6,0.2v27.9C-47.1-44.4-46.6-44.9-46-45.5z"/>
<path class="st0" d="M-25.2-55.8V-72h-1.6v16.4C-26.3-55.7-25.7-55.8-25.2-55.8z"/>
<path class="st0" d="M46,46.1v25.8c0.5,0,1.1-0.1,1.6-0.2V44.4C47.1,45,46.6,45.5,46,46.1z"/>
<path class="st0" d="M-43.4-47.9V-72h-0.2c-0.5,0-0.9,0-1.4,0v25.5C-44.5-46.9-43.9-47.4-43.4-47.9z"/>
<path class="st0" d="M-48.6-42.6v-28.9c-0.5,0.1-1.1,0.2-1.6,0.3v30.7C-49.7-41.2-49.2-41.9-48.6-42.6z"/>
<path class="st0" d="M22.6,56.7V72h1.6V56.6C23.7,56.6,23.1,56.7,22.6,56.7z"/>
<path class="st0" d="M-20-55.8V-72h-1.6v16.1C-21.1-55.9-20.5-55.9-20-55.8z"/>
<path class="st0" d="M-22.6-55.9V-72h-1.6v16.1C-23.7-55.9-23.1-55.9-22.6-55.9z"/>
<path class="st0" d="M-17.4-55.4V-72H-19v16.3C-18.5-55.6-17.9-55.5-17.4-55.4z"/>
<path class="st0" d="M-45,26.6V72c0.4,0,0.9,0,1.3,0h0.3V29.2C-44,28.3-44.5,27.5-45,26.6z"/>
<path class="st0" d="M56.4-69V69c0.5-0.3,1.1-0.6,1.6-0.9V-68.1C57.5-68.4,56.9-68.7,56.4-69z"/>
<path class="st0" d="M-1.8-52.1V-72h-1.6v20C-2.9-52-2.3-52.1-1.8-52.1z"/>
<path class="st0" d="M-0.3-52.1c0.4,0,0.7,0,1.1,0V-72h-1.6v19.9C-0.6-52.1-0.5-52.1-0.3-52.1z"/>
<path class="st0" d="M43.4,48.5V72h0.2c0.5,0,0.9,0,1.4,0V47.1C44.5,47.6,43.9,48,43.4,48.5z"/>
<path class="st0" d="M3.4-52v-20H1.8v20C2.3-52,2.9-52,3.4-52z"/>
<path class="st0" d="M-47.6,21.7v50.1c0.5,0.1,1.1,0.1,1.6,0.2v-47C-46.6,23.8-47.1,22.8-47.6,21.7z"/>
<path class="st0" d="M-39.8,33.9V72h1.6V35.7C-38.7,35.1-39.3,34.5-39.8,33.9z"/>
<path class="st0" d="M40.8,50.5V72h1.6V49.3C41.9,49.7,41.3,50.1,40.8,50.5z"/>
<path class="st0" d="M-42.4,30.6V72h1.6V32.7C-41.4,32-41.9,31.3-42.4,30.6z"/>
<path class="st0" d="M-52.3,0c0-2.8,0.2-5.6,0.6-8.2c-0.4-0.5-0.8-1-1.1-1.5v80.2c0.5,0.2,1.1,0.3,1.6,0.5V10.7
	C-51.9,7.2-52.3,3.7-52.3,0z"/>
<path class="st0" d="M-7-51.7V-72h-1.6v20.6C-8.1-51.5-7.5-51.6-7-51.7z"/>
<path class="st0" d="M38.2,52.2V72h1.6V51.2C39.3,51.5,38.7,51.8,38.2,52.2z"/>
<path class="st0" d="M-38.2-51.5V-72h-1.6v21.5C-39.3-50.9-38.7-51.2-38.2-51.5z"/>
<path class="st0" d="M-50.2,14.7v56.6c0.5,0.1,1.1,0.2,1.6,0.3V19.3C-49.2,17.8-49.7,16.2-50.2,14.7z"/>
<path class="st0" d="M-9.6-51.9V-72h-1.6v19C-10.7-52.7-10.1-52.3-9.6-51.9z"/>
<path class="st0" d="M-55.4-15.2v84.6c0.5,0.2,1.1,0.5,1.6,0.7v-81.5C-54.5-12.6-55-13.8-55.4-15.2z"/>
<path class="st0" d="M-4.4-52v-20H-6v20.2C-5.5-51.9-4.9-51.9-4.4-52z"/>
<path class="st0" d="M-35.6-52.9V-72h-1.6v19.9C-36.7-52.4-36.1-52.6-35.6-52.9z"/>
<path class="st0" d="M-11.2,18.6v14.7c0.5,0.1,1.1,0.3,1.6,0.4V20.2C-10.2,19.7-10.7,19.2-11.2,18.6z"/>
<path class="st0" d="M-6,22.5v11.9c0.5,0.1,1.1,0.1,1.6,0.2V23.1C-5,22.9-5.5,22.7-6,22.5z"/>
<path class="st0" d="M24.2-12.9v-11.5c-0.5-0.6-1-1.2-1.6-1.8V-12C23.2-12.2,23.7-12.5,24.2-12.9z"/>
<path class="st0" d="M-6-10V5c0.5,0.1,1.1,0.3,1.6,0.4V-9.4C-5-9.6-5.5-9.8-6-10z"/>
<path class="st0" d="M-7.6,21.7c-0.3-0.2-0.7-0.4-1-0.7v13c0.5,0.1,1.1,0.2,1.6,0.3V22C-7.2,21.9-7.4,21.8-7.6,21.7z"/>
<path class="st0" d="M-8.6-11.4V4.2C-8.1,4.4-7.5,4.6-7,4.7v-15.2C-7.6-10.8-8.1-11.1-8.6-11.4z"/>
<path class="st0" d="M4.4,23.8v11c0.5,0,1.1-0.1,1.6-0.1V23.5C5.5,23.6,5,23.7,4.4,23.8z"/>
<path class="st0" d="M-3.4,23.4v11.4c0.5,0,1.1,0.1,1.6,0.1V23.6C-2.4,23.6-2.9,23.5-3.4,23.4z"/>
<path class="st0" d="M20-1.7v32.5c0.6-0.3,1.1-0.6,1.6-1V-0.8C21.1-1.1,20.6-1.4,20-1.7z"/>
<path class="st0" d="M17.4-2.9V32c0.6-0.2,1.1-0.5,1.6-0.7V-2.2C18.5-2.4,18-2.7,17.4-2.9z"/>
<path class="st0" d="M27.8,23c0.7-1.3,1.2-2.7,1.6-4.2V8.4c-0.4-1.2-0.9-2.2-1.6-3.3V23z"/>
<path class="st0" d="M14.8-4V33c0.5-0.2,1.1-0.4,1.6-0.6V-3.3C15.9-3.5,15.4-3.8,14.8-4z"/>
<path class="st0" d="M22.6-0.1v29.2c0.6-0.4,1.1-0.9,1.6-1.4V1.1C23.7,0.7,23.2,0.3,22.6-0.1z"/>
<path class="st0" d="M25.2,2v24.7c0.5-0.6,1.1-1.2,1.5-1.9c0-0.1,0.1-0.1,0.1-0.2V3.8C26.3,3.1,25.8,2.6,25.2,2z"/>
<path class="st0" d="M26.7-18c0-1.6-0.5-3.3-1.5-4.9v9.2C26.2-14.9,26.7-16.3,26.7-18z"/>
<path class="st0" d="M12.2-4.8v16.6c1,1.2,1.5,2.8,1.5,4.8c0,1.3-0.5,2.5-1.5,3.6v13.6c0.5-0.1,1.1-0.3,1.6-0.4V-4.3
	C13.3-4.5,12.7-4.7,12.2-4.8z"/>
<path class="st0" d="M-16.4,11.5v19.9c0.5,0.2,1,0.4,1.5,0.7c0,0,0.1,0,0.1,0V13.4C-15.3,12.6-15.9,12-16.4,11.5z"/>
<path class="st0" d="M-0.8,23.8v11.1c0.5,0,0.9,0,1.4,0c0.1,0,0.1,0,0.2,0v-11C0.2,23.8-0.3,23.8-0.8,23.8z"/>
<path class="st0" d="M2.2,23.9c-0.1,0-0.3,0-0.4,0v11c0.5,0,1.1,0,1.6,0v-11C3,23.9,2.6,23.9,2.2,23.9z"/>
<path class="st0" d="M7,23.2v11.3c0.5-0.1,1.1-0.1,1.6-0.2V22.7C8.1,22.9,7.6,23.1,7,23.2z"/>
<path class="st0" d="M10.5,21.6c-0.3,0.2-0.6,0.4-0.9,0.6v12c0.5-0.1,1.1-0.2,1.6-0.3V21.1C11,21.2,10.7,21.4,10.5,21.6z"/>
<path class="st0" d="M-13.8,15C-13.8,15-13.8,15-13.8,15l0,17.5c0.5,0.2,1.1,0.4,1.6,0.6V17.4C-12.8,16.7-13.3,15.9-13.8,15z"/>
<path class="st0" d="M9.6,9.6c0.2,0.1,0.5,0.3,0.7,0.4c0.3,0.2,0.6,0.4,0.9,0.7V-5.1c-0.5-0.2-1.1-0.3-1.6-0.4V9.6z"/>
<path class="st0" d="M-12.2,3v-34.9c-0.5,0.2-1.1,0.4-1.6,0.6V2.4C-13.3,2.6-12.8,2.8-12.2,3z"/>
<path class="st0" d="M6-21.4V-33c-0.5-0.1-1.1-0.1-1.6-0.2v11.1C5-21.9,5.5-21.7,6-21.4z"/>
<path class="st0" d="M-23.6-4.4c0.3,0.4,0.7,0.7,1,1.1v-22c-0.5,0.5-0.9,1.1-1.3,1.7c-0.1,0.2-0.2,0.3-0.3,0.5v17.9
	C-24-4.9-23.8-4.7-23.6-4.4z"/>
<path class="st0" d="M14.9-13c0.5,0.4,1,0.7,1.5,0.9v-18.1c-0.5-0.2-1-0.4-1.6-0.7L14.9-13C14.8-13.1,14.9-13,14.9-13z"/>
<path class="st0" d="M-8.4-20.9c0.4-0.3,0.9-0.5,1.4-0.8v-11.4c-0.5,0.1-1.1,0.2-1.6,0.3v12C-8.5-20.8-8.5-20.9-8.4-20.9z"/>
<path class="st0" d="M7.2-6.2c-0.1,0-0.1,0-0.2-0.1V8.5c0.6,0.2,1.1,0.4,1.6,0.7v-15C8.1-6,7.7-6.1,7.2-6.2z"/>
<path class="st0" d="M-25.2-21.3c-0.9,1.8-1.4,3.7-1.6,5.6v3.5c0.2,2,0.7,3.8,1.6,5.4V-21.3z"/>
<path class="st0" d="M-4.4-22.5v-10.9c-0.5,0-1.1,0.1-1.6,0.2V-22C-5.5-22.2-5-22.4-4.4-22.5z"/>
<path class="st0" d="M-14.9,1.9C-14.9,1.9-14.8,1.9-14.9,1.9l0.1-32.8c-0.1,0-0.1,0.1-0.2,0.1c-0.5,0.2-0.9,0.5-1.4,0.7V1.2
	C-15.9,1.4-15.4,1.7-14.9,1.9z"/>
<path class="st0" d="M-25.6,12.1c-0.5,0.5-0.9,1-1.2,1.6v7.4c0.4,1,0.9,2.1,1.6,3.1V11.7C-25.3,11.9-25.5,12-25.6,12.1z"/>
<path class="st0" d="M-9.6-12.1c-0.8-0.7-1.3-1.6-1.6-2.5v18c0.5,0.2,1.1,0.4,1.6,0.5V-12.1z"/>
<path class="st0" d="M10.7-17.4c0.2,0.2,0.3,0.4,0.5,0.6V-32c-0.1,0-0.2-0.1-0.3-0.1c-0.4-0.1-0.9-0.2-1.3-0.3v13.8
	C10-18.2,10.3-17.8,10.7-17.4z"/>
<path class="st0" d="M-20-1v-26.7c-0.6,0.5-1.1,0.9-1.6,1.4v24C-21.1-1.9-20.6-1.5-20-1z"/>
<path class="st0" d="M-1.8-22.8v-10.7c-0.5,0-1.1,0-1.6,0.1v10.8C-2.9-22.7-2.4-22.8-1.8-22.8z"/>
<path class="st0" d="M13.8-13.9v-17.3c-0.5-0.2-1.1-0.3-1.6-0.5v16.1C12.8-15,13.3-14.4,13.8-13.9z"/>
<path class="st0" d="M-17.4,0.6v-30.2c-0.6,0.3-1.1,0.7-1.6,1v28.2C-18.5,0-18,0.3-17.4,0.6z"/>
<path class="st0" d="M19-11.5v-17.3c-0.5-0.3-1-0.6-1.6-0.9v18C17.9-11.6,18.4-11.5,19-11.5z"/>
<path class="st0" d="M-3.2-9c-0.1,0-0.1,0-0.2-0.1V5.7C-2.9,5.9-2.3,6-1.8,6.1V-8.6C-2.3-8.7-2.8-8.9-3.2-9z"/>
<path class="st0" d="M8.6-19.6v-13c-0.5-0.1-1.1-0.2-1.6-0.3v12.1C7.6-20.4,8.1-20,8.6-19.6z"/>
<path class="st0" d="M-20.6,10.1c-0.3,0-0.7,0-1,0.1v18c0.5,0.4,1,0.8,1.6,1.2V10.1C-20.2,10.1-20.4,10.1-20.6,10.1z"/>
<path class="st0" d="M21.6-11.8V-27c-0.5-0.4-1-0.8-1.6-1.2v16.7C20.6-11.6,21.1-11.6,21.6-11.8z"/>
<path class="st0" d="M-0.8-8.3V6.4c0,0,0.1,0,0.1,0c0.5,0.1,1,0.2,1.5,0.3V-7.8C0.2-8-0.3-8.1-0.8-8.3z"/>
<path class="st0" d="M-19,10.2V30c0.5,0.3,1,0.6,1.6,0.9V10.8C-17.9,10.5-18.4,10.4-19,10.2z"/>
<path class="st0" d="M-0.8-22.8c0.6,0,1.1,0,1.6,0.1v-10.7c-0.5,0-1.1,0-1.6,0h0L-0.8-22.8L-0.8-22.8z"/>
<path class="st0" d="M-9.6-20v-12.6c-0.5,0.1-1.1,0.3-1.6,0.4v14.7C-10.9-18.4-10.4-19.2-9.6-20z"/>
<path class="st0" d="M3.4-22.4v-10.9c-0.5,0-1.1-0.1-1.6-0.1v10.8C2.4-22.6,2.9-22.5,3.4-22.4z"/>
<path class="st0" d="M4.4-6.9V7.6C5,7.8,5.5,8,6,8.1V-6.5C5.5-6.6,4.9-6.8,4.4-6.9z"/>
<path class="st0" d="M-24.2,11v14.5c0.5,0.6,1,1.2,1.6,1.8v-17C-23.2,10.5-23.7,10.7-24.2,11z"/>
<path class="st0" d="M1.8-7.6V6.9c0.6,0.1,1.1,0.3,1.6,0.4V-7.2C2.8-7.3,2.3-7.4,1.8-7.6z"/>
<path class="st0" d="M-11.4-16.1c0,0.5,0.1,1,0.2,1.5v-2.9C-11.3-17.1-11.4-16.6-11.4-16.1z"/>
</svg>
