<?xml version="1.0" encoding="utf-8"?>
<!-- Generator: Adobe Illustrator 19.1.0, SVG Export Plug-In . SVG Version: 6.00 Build 0)  -->
<svg version="1.1" id="Layer_1" xmlns="http://www.w3.org/2000/svg" xmlns:xlink="http://www.w3.org/1999/xlink" x="0px" y="0px"
	 viewBox="0 0 1000 1000" style="enable-background:new 0 0 1000 1000;" xml:space="preserve">
<style type="text/css">
	.st0{fill:none;stroke:#BE1E2D;stroke-width:0.25;}
</style>
<g>
	<g>
		<polygon class="st0" points="437.4,538.9 440.7,537 441,537.2 440.6,537.9 437.4,539.7 437.1,539.6 		"/>
		<polygon class="st0" points="441.1,537.3 440.7,537.9 440.5,541.4 440.8,541.5 441.1,540.8 441.4,537.5 		"/>
		<polygon class="st0" points="437,539.8 437.2,539.9 437,543.3 436.6,544 436.3,543.8 436.5,540.4 		"/>
		<polygon class="st0" points="436.7,544 437.1,543.4 440.3,541.6 440.6,541.7 440.2,542.4 437,544.2 		"/>
		<polygon class="st0" points="440.4,542.5 440.8,541.8 441.1,542 440.8,545.6 440.5,546 440.1,545.9 		"/>
		<polygon class="st0" points="440,546.1 440.3,546.3 440,546.9 436.8,548.7 436.4,548.5 436.8,548 		"/>
		<polygon class="st0" points="436.3,548.5 436.6,547.8 436.9,544.5 436.5,544.3 436.2,545 436,548.3 		"/>
		<path class="st0" d="M442.5,545c0-0.3-0.2-0.4-0.5-0.3c-0.3,0.1-0.5,0.5-0.5,0.8s0.2,0.4,0.5,0.3
			C442.3,545.6,442.5,545.3,442.5,545z"/>
	</g>
	<g>
		<polygon class="st0" points="445,534.5 448.2,532.7 448.5,532.8 448.1,533.5 444.9,535.4 444.6,535.2 		"/>
		<polygon class="st0" points="448.7,532.9 448.3,533.6 448,537 448.4,537.1 448.7,536.5 449,533.1 		"/>
		<polygon class="st0" points="444.5,535.4 444.8,535.6 444.5,539 444.2,539.6 443.9,539.4 444.1,536.1 		"/>
		<polygon class="st0" points="444.3,539.7 444.7,539 447.8,537.2 448.2,537.4 447.8,538.1 444.6,539.9 		"/>
		<polygon class="st0" points="447.9,538.1 448.3,537.5 448.6,537.6 448.4,541.2 448,541.7 447.7,541.5 		"/>
		<polygon class="st0" points="447.6,541.7 447.9,541.9 447.6,542.5 444.3,544.4 444,544.2 444.3,543.6 		"/>
		<polygon class="st0" points="443.9,544.1 444.2,543.5 444.4,540.1 444.1,540 443.8,540.6 443.5,543.9 		"/>
		<path class="st0" d="M450,540.6c0-0.3-0.2-0.4-0.5-0.3c-0.3,0.1-0.5,0.5-0.5,0.8s0.2,0.4,0.5,0.3C449.8,541.3,450,540.9,450,540.6
			z"/>
	</g>
	<g>
		<polygon class="st0" points="452.6,530.2 455.8,528.3 456.1,528.5 455.7,529.1 452.5,531 452.2,530.8 		"/>
		<polygon class="st0" points="456.2,528.6 455.8,529.2 455.6,532.6 455.9,532.7 456.3,532.1 456.5,528.8 		"/>
		<polygon class="st0" points="452.1,531 452.4,531.2 452.1,534.6 451.7,535.2 451.4,535.1 451.7,531.7 		"/>
		<polygon class="st0" points="451.9,535.3 452.2,534.7 455.4,532.8 455.8,533 455.3,533.7 452.2,535.5 		"/>
		<polygon class="st0" points="455.5,533.8 455.9,533.1 456.2,533.2 455.9,536.8 455.6,537.3 455.3,537.1 		"/>
		<polygon class="st0" points="455.1,537.4 455.5,537.6 455.2,538.1 451.9,540 451.5,539.8 451.9,539.2 		"/>
		<polygon class="st0" points="451.4,539.7 451.8,539.1 452,535.8 451.7,535.6 451.3,536.3 451.1,539.5 		"/>
		<path class="st0" d="M457.6,536.2c0-0.3-0.2-0.4-0.5-0.3c-0.3,0.1-0.5,0.5-0.5,0.8s0.2,0.4,0.5,0.3
			C457.4,536.9,457.6,536.5,457.6,536.2z"/>
	</g>
	<g>
		<polygon class="st0" points="460.1,525.8 463.4,523.9 463.6,524.1 463.3,524.8 460.1,526.6 459.8,526.5 		"/>
		<polygon class="st0" points="463.8,524.2 463.4,524.8 463.2,528.3 463.5,528.4 463.8,527.7 464.1,524.4 		"/>
		<polygon class="st0" points="459.7,526.7 459.9,526.8 459.7,530.2 459.3,530.9 459,530.7 459.2,527.3 		"/>
		<polygon class="st0" points="459.4,530.9 459.8,530.3 463,528.5 463.3,528.6 462.9,529.3 459.7,531.1 		"/>
		<polygon class="st0" points="463.1,529.4 463.5,528.7 463.8,528.9 463.5,532.5 463.2,532.9 462.8,532.8 		"/>
		<polygon class="st0" points="462.7,533 463,533.2 462.7,533.8 459.5,535.6 459.1,535.4 459.5,534.9 		"/>
		<polygon class="st0" points="459,535.4 459.3,534.7 459.6,531.4 459.2,531.2 458.9,531.9 458.6,535.2 		"/>
		<path class="st0" d="M465.2,531.9c0-0.3-0.2-0.4-0.5-0.3c-0.3,0.1-0.5,0.5-0.5,0.8s0.2,0.4,0.5,0.3
			C465,532.5,465.2,532.2,465.2,531.9z"/>
	</g>
	<g>
		<polygon class="st0" points="467.7,521.4 470.9,519.6 471.2,519.7 470.8,520.4 467.6,522.3 467.3,522.1 		"/>
		<polygon class="st0" points="471.3,519.8 471,520.5 470.7,523.9 471,524 471.4,523.4 471.7,520 		"/>
		<polygon class="st0" points="467.2,522.3 467.5,522.5 467.2,525.9 466.9,526.5 466.6,526.3 466.8,523 		"/>
		<polygon class="st0" points="467,526.6 467.4,525.9 470.5,524.1 470.9,524.3 470.4,525 467.3,526.8 		"/>
		<polygon class="st0" points="470.6,525 471,524.3 471.3,524.5 471,528.1 470.7,528.6 470.4,528.4 		"/>
		<polygon class="st0" points="470.3,528.6 470.6,528.8 470.3,529.4 467,531.3 466.7,531.1 467,530.5 		"/>
		<polygon class="st0" points="466.6,531 466.9,530.4 467.1,527 466.8,526.9 466.4,527.5 466.2,530.8 		"/>
		<path class="st0" d="M472.7,527.5c0-0.3-0.2-0.4-0.5-0.3c-0.3,0.1-0.5,0.5-0.5,0.8s0.2,0.4,0.5,0.3
			C472.5,528.2,472.7,527.8,472.7,527.5z"/>
	</g>
	<g>
		<polygon class="st0" points="475.3,517.1 478.5,515.2 478.8,515.4 478.4,516 475.2,517.9 474.9,517.7 		"/>
		<polygon class="st0" points="478.9,515.5 478.5,516.1 478.3,519.5 478.6,519.6 479,519 479.2,515.7 		"/>
		<polygon class="st0" points="474.8,517.9 475.1,518.1 474.8,521.5 474.4,522.1 474.1,522 474.4,518.6 		"/>
		<polygon class="st0" points="474.6,522.2 474.9,521.6 478.1,519.7 478.4,519.9 478,520.6 474.9,522.4 		"/>
		<polygon class="st0" points="478.2,520.7 478.6,520 478.9,520.1 478.6,523.7 478.3,524.2 477.9,524 		"/>
		<polygon class="st0" points="477.8,524.3 478.2,524.5 477.8,525 474.6,526.9 474.2,526.7 474.6,526.1 		"/>
		<polygon class="st0" points="474.1,526.6 474.5,526 474.7,522.7 474.4,522.5 474,523.2 473.8,526.4 		"/>
		<path class="st0" d="M480.3,523.1c0-0.3-0.2-0.4-0.5-0.3c-0.3,0.1-0.5,0.5-0.5,0.8s0.2,0.4,0.5,0.3
			C480.1,523.8,480.3,523.4,480.3,523.1z"/>
	</g>
	<g>
		<polygon class="st0" points="482.8,512.7 486,510.8 486.3,511 486,511.7 482.7,513.5 482.4,513.4 		"/>
		<polygon class="st0" points="486.5,511.1 486.1,511.7 485.8,515.2 486.2,515.3 486.5,514.6 486.8,511.3 		"/>
		<polygon class="st0" points="482.3,513.6 482.6,513.7 482.4,517.1 482,517.8 481.7,517.6 481.9,514.2 		"/>
		<polygon class="st0" points="482.1,517.8 482.5,517.2 485.7,515.4 486,515.5 485.6,516.2 482.4,518 		"/>
		<polygon class="st0" points="485.7,516.3 486.2,515.6 486.4,515.8 486.2,519.4 485.9,519.8 485.5,519.7 		"/>
		<polygon class="st0" points="485.4,519.9 485.7,520.1 485.4,520.7 482.1,522.5 481.8,522.3 482.2,521.8 		"/>
		<polygon class="st0" points="481.7,522.3 482,521.6 482.3,518.3 481.9,518.1 481.6,518.8 481.3,522.1 		"/>
		<path class="st0" d="M487.9,518.8c0-0.3-0.2-0.4-0.5-0.3c-0.3,0.1-0.5,0.5-0.5,0.8s0.2,0.4,0.5,0.3
			C487.7,519.4,487.9,519.1,487.9,518.8z"/>
	</g>
	<g>
		<polygon class="st0" points="490.4,508.3 493.6,506.5 493.9,506.6 493.5,507.3 490.3,509.2 490,509 		"/>
		<polygon class="st0" points="494,506.7 493.7,507.4 493.4,510.8 493.7,510.9 494.1,510.3 494.3,506.9 		"/>
		<polygon class="st0" points="489.9,509.2 490.2,509.4 489.9,512.8 489.5,513.4 489.3,513.2 489.5,509.9 		"/>
		<polygon class="st0" points="489.7,513.5 490.1,512.8 493.2,511 493.6,511.2 493.1,511.9 490,513.7 		"/>
		<polygon class="st0" points="493.3,511.9 493.7,511.2 494,511.4 493.7,515 493.4,515.5 493.1,515.3 		"/>
		<polygon class="st0" points="492.9,515.5 493.3,515.7 493,516.3 489.7,518.2 489.4,518 489.7,517.4 		"/>
		<polygon class="st0" points="489.2,517.9 489.6,517.3 489.8,513.9 489.5,513.8 489.1,514.4 488.9,517.7 		"/>
		<path class="st0" d="M495.4,514.4c0-0.3-0.2-0.4-0.5-0.3c-0.3,0.1-0.5,0.5-0.5,0.8s0.2,0.4,0.5,0.3
			C495.2,515.1,495.4,514.7,495.4,514.4z"/>
	</g>
	<g>
		<polygon class="st0" points="497.9,504 501.2,502.1 501.5,502.3 501.1,502.9 497.9,504.8 497.6,504.6 		"/>
		<polygon class="st0" points="501.6,502.4 501.2,503 501,506.4 501.3,506.5 501.6,505.9 501.9,502.6 		"/>
		<polygon class="st0" points="497.5,504.8 497.8,505 497.5,508.4 497.1,509 496.8,508.9 497,505.5 		"/>
		<polygon class="st0" points="497.2,509.1 497.6,508.5 500.8,506.6 501.1,506.8 500.7,507.5 497.6,509.3 		"/>
		<polygon class="st0" points="500.9,507.6 501.3,506.9 501.6,507 501.3,510.6 501,511.1 500.6,510.9 		"/>
		<polygon class="st0" points="500.5,511.2 500.8,511.4 500.5,511.9 497.3,513.8 496.9,513.6 497.3,513 		"/>
		<polygon class="st0" points="496.8,513.5 497.2,512.9 497.4,509.6 497.1,509.4 496.7,510.1 496.5,513.3 		"/>
		<path class="st0" d="M503,510c0-0.3-0.2-0.4-0.5-0.3s-0.5,0.5-0.5,0.8s0.2,0.4,0.5,0.3C502.8,510.7,503,510.3,503,510z"/>
	</g>
	<g>
		<polygon class="st0" points="505.5,499.6 508.7,497.7 509,497.9 508.6,498.6 505.4,500.4 505.1,500.3 		"/>
		<polygon class="st0" points="509.2,498 508.8,498.6 508.5,502.1 508.9,502.2 509.2,501.5 509.5,498.2 		"/>
		<polygon class="st0" points="505,500.5 505.3,500.6 505.1,504 504.7,504.7 504.4,504.5 504.6,501.1 		"/>
		<polygon class="st0" points="504.8,504.7 505.2,504.1 508.4,502.3 508.7,502.4 508.3,503.1 505.1,504.9 		"/>
		<polygon class="st0" points="508.4,503.2 508.8,502.5 509.1,502.7 508.9,506.3 508.5,506.7 508.2,506.6 		"/>
		<polygon class="st0" points="508.1,506.8 508.4,507 508.1,507.6 504.8,509.4 504.5,509.2 504.8,508.7 		"/>
		<polygon class="st0" points="504.4,509.2 504.7,508.5 505,505.2 504.6,505 504.3,505.7 504,509 		"/>
		<path class="st0" d="M510.6,505.7c0-0.3-0.2-0.4-0.5-0.3s-0.5,0.5-0.5,0.8s0.2,0.4,0.5,0.3C510.3,506.3,510.6,506,510.6,505.7z"/>
	</g>
	<g>
		<polygon class="st0" points="513.1,495.2 516.3,493.4 516.6,493.5 516.2,494.2 513,496.1 512.7,495.9 		"/>
		<polygon class="st0" points="516.7,493.6 516.4,494.2 516.1,497.7 516.4,497.8 516.8,497.2 517,493.8 		"/>
		<polygon class="st0" points="512.6,496.1 512.9,496.3 512.6,499.7 512.2,500.3 512,500.1 512.2,496.8 		"/>
		<polygon class="st0" points="512.4,500.4 512.7,499.7 515.9,497.9 516.3,498.1 515.8,498.8 512.7,500.6 		"/>
		<polygon class="st0" points="516,498.8 516.4,498.1 516.7,498.3 516.4,501.9 516.1,502.4 515.8,502.2 		"/>
		<polygon class="st0" points="515.6,502.4 516,502.6 515.7,503.2 512.4,505.1 512.1,504.9 512.4,504.3 		"/>
		<polygon class="st0" points="511.9,504.8 512.3,504.2 512.5,500.8 512.2,500.7 511.8,501.3 511.6,504.6 		"/>
		<path class="st0" d="M518.1,501.3c0-0.3-0.2-0.4-0.5-0.3s-0.5,0.5-0.5,0.8s0.2,0.4,0.5,0.3C517.9,502,518.1,501.6,518.1,501.3z"/>
	</g>
	<g>
		<polygon class="st0" points="520.6,490.9 523.9,489 524.2,489.2 523.8,489.8 520.6,491.7 520.3,491.5 		"/>
		<polygon class="st0" points="524.3,489.3 523.9,489.9 523.7,493.3 524,493.4 524.3,492.8 524.6,489.5 		"/>
		<polygon class="st0" points="520.2,491.7 520.4,491.9 520.2,495.3 519.8,495.9 519.5,495.8 519.7,492.4 		"/>
		<polygon class="st0" points="519.9,496 520.3,495.4 523.5,493.5 523.8,493.7 523.4,494.4 520.2,496.2 		"/>
		<polygon class="st0" points="523.6,494.5 524,493.8 524.3,493.9 524,497.5 523.7,498 523.3,497.8 		"/>
		<polygon class="st0" points="523.2,498.1 523.5,498.3 523.2,498.8 520,500.7 519.6,500.5 520,499.9 		"/>
		<polygon class="st0" points="519.5,500.4 519.8,499.8 520.1,496.5 519.7,496.3 519.4,497 519.2,500.2 		"/>
		<path class="st0" d="M525.7,496.9c0-0.3-0.2-0.4-0.5-0.3s-0.5,0.5-0.5,0.8s0.2,0.4,0.5,0.3C525.5,497.6,525.7,497.2,525.7,496.9z"
			/>
	</g>
	<g>
		<polygon class="st0" points="528.2,486.5 531.4,484.6 531.7,484.8 531.3,485.5 528.1,487.3 527.8,487.2 		"/>
		<polygon class="st0" points="531.9,484.9 531.5,485.5 531.2,489 531.6,489.1 531.9,488.4 532.2,485.1 		"/>
		<polygon class="st0" points="527.7,487.4 528,487.5 527.7,490.9 527.4,491.6 527.1,491.4 527.3,488 		"/>
		<polygon class="st0" points="527.5,491.6 527.9,491 531,489.2 531.4,489.3 531,490 527.8,491.8 		"/>
		<polygon class="st0" points="531.1,490.1 531.5,489.4 531.8,489.6 531.5,493.2 531.2,493.6 530.9,493.5 		"/>
		<polygon class="st0" points="530.8,493.7 531.1,493.9 530.8,494.5 527.5,496.3 527.2,496.1 527.5,495.6 		"/>
		<polygon class="st0" points="527.1,496.1 527.4,495.4 527.6,492.1 527.3,491.9 527,492.6 526.7,495.9 		"/>
		<path class="st0" d="M533.2,492.6c0-0.3-0.2-0.4-0.5-0.3s-0.5,0.5-0.5,0.8s0.2,0.4,0.5,0.3C533,493.2,533.2,492.9,533.2,492.6z"/>
	</g>
	<g>
		<polygon class="st0" points="535.8,482.1 539,480.3 539.3,480.4 538.9,481.1 535.7,483 535.4,482.8 		"/>
		<polygon class="st0" points="539.4,480.5 539,481.1 538.8,484.6 539.1,484.7 539.5,484.1 539.7,480.7 		"/>
		<polygon class="st0" points="535.3,483 535.6,483.2 535.3,486.6 534.9,487.2 534.6,487 534.9,483.7 		"/>
		<polygon class="st0" points="535.1,487.3 535.4,486.6 538.6,484.8 539,485 538.5,485.7 535.4,487.5 		"/>
		<polygon class="st0" points="538.7,485.7 539.1,485 539.4,485.2 539.1,488.8 538.8,489.3 538.5,489.1 		"/>
		<polygon class="st0" points="538.3,489.3 538.7,489.5 538.4,490.1 535.1,492 534.7,491.8 535.1,491.2 		"/>
		<polygon class="st0" points="534.6,491.7 535,491.1 535.2,487.7 534.9,487.6 534.5,488.2 534.3,491.5 		"/>
		<path class="st0" d="M540.8,488.2c0-0.3-0.2-0.4-0.5-0.3s-0.5,0.5-0.5,0.8s0.2,0.4,0.5,0.3S540.8,488.5,540.8,488.2z"/>
	</g>
	<g>
		<polygon class="st0" points="543.3,477.8 546.5,475.9 546.8,476.1 546.5,476.7 543.2,478.6 543,478.4 		"/>
		<polygon class="st0" points="547,476.2 546.6,476.8 546.3,480.2 546.7,480.3 547,479.7 547.3,476.4 		"/>
		<polygon class="st0" points="542.9,478.6 543.1,478.8 542.9,482.2 542.5,482.8 542.2,482.7 542.4,479.3 		"/>
		<polygon class="st0" points="542.6,482.9 543,482.3 546.2,480.4 546.5,480.6 546.1,481.3 542.9,483.1 		"/>
		<polygon class="st0" points="546.3,481.4 546.7,480.7 547,480.8 546.7,484.4 546.4,484.9 546,484.7 		"/>
		<polygon class="st0" points="545.9,485 546.2,485.2 545.9,485.7 542.7,487.6 542.3,487.4 542.7,486.8 		"/>
		<polygon class="st0" points="542.2,487.3 542.5,486.7 542.8,483.4 542.4,483.2 542.1,483.9 541.8,487.1 		"/>
		<path class="st0" d="M548.4,483.8c0-0.3-0.2-0.4-0.5-0.3s-0.5,0.5-0.5,0.8s0.2,0.4,0.5,0.3C548.2,484.5,548.4,484.1,548.4,483.8z"
			/>
	</g>
	<g>
		<polygon class="st0" points="550.9,473.4 554.1,471.5 554.4,471.7 554,472.4 550.8,474.2 550.5,474.1 		"/>
		<polygon class="st0" points="554.5,471.8 554.2,472.4 553.9,475.9 554.2,476 554.6,475.3 554.9,472 		"/>
		<polygon class="st0" points="550.4,474.3 550.7,474.4 550.4,477.8 550.1,478.5 549.8,478.3 550,474.9 		"/>
		<polygon class="st0" points="550.2,478.5 550.6,477.9 553.7,476.1 554.1,476.2 553.6,476.9 550.5,478.7 		"/>
		<polygon class="st0" points="553.8,477 554.2,476.3 554.5,476.5 554.2,480.1 553.9,480.5 553.6,480.4 		"/>
		<polygon class="st0" points="553.5,480.6 553.8,480.8 553.5,481.4 550.2,483.2 549.9,483 550.2,482.5 		"/>
		<polygon class="st0" points="549.7,483 550.1,482.3 550.3,479 550,478.8 549.6,479.5 549.4,482.8 		"/>
		<path class="st0" d="M555.9,479.5c0-0.3-0.2-0.4-0.5-0.3s-0.5,0.5-0.5,0.8s0.2,0.4,0.5,0.3C555.7,480.1,555.9,479.8,555.9,479.5z"
			/>
	</g>
	<g>
		<polygon class="st0" points="558.5,469 561.7,467.2 562,467.3 561.6,468 558.4,469.9 558.1,469.7 		"/>
		<polygon class="st0" points="562.1,467.4 561.7,468 561.5,471.5 561.8,471.6 562.2,471 562.4,467.6 		"/>
		<polygon class="st0" points="558,469.9 558.3,470.1 558,473.5 557.6,474.1 557.3,473.9 557.6,470.6 		"/>
		<polygon class="st0" points="557.8,474.2 558.1,473.5 561.3,471.7 561.6,471.9 561.2,472.6 558.1,474.4 		"/>
		<polygon class="st0" points="561.4,472.6 561.8,471.9 562.1,472.1 561.8,475.7 561.5,476.2 561.1,476 		"/>
		<polygon class="st0" points="561,476.2 561.4,476.4 561,477 557.8,478.9 557.4,478.7 557.8,478.1 		"/>
		<polygon class="st0" points="557.3,478.6 557.7,478 557.9,474.6 557.6,474.5 557.2,475.1 557,478.4 		"/>
		<path class="st0" d="M563.5,475.1c0-0.3-0.2-0.4-0.5-0.3s-0.5,0.5-0.5,0.8s0.2,0.4,0.5,0.3S563.5,475.4,563.5,475.1z"/>
	</g>
	<g>
		<polygon class="st0" points="566,464.7 569.2,462.8 569.5,463 569.2,463.6 565.9,465.5 565.6,465.3 		"/>
		<polygon class="st0" points="569.7,463.1 569.3,463.7 569,467.1 569.4,467.2 569.7,466.6 570,463.3 		"/>
		<polygon class="st0" points="565.5,465.5 565.8,465.7 565.6,469.1 565.2,469.7 564.9,469.6 565.1,466.2 		"/>
		<polygon class="st0" points="565.3,469.8 565.7,469.2 568.9,467.3 569.2,467.5 568.8,468.2 565.6,470 		"/>
		<polygon class="st0" points="568.9,468.3 569.3,467.6 569.6,467.7 569.4,471.3 569.1,471.8 568.7,471.6 		"/>
		<polygon class="st0" points="568.6,471.9 568.9,472.1 568.6,472.6 565.3,474.5 565,474.3 565.4,473.7 		"/>
		<polygon class="st0" points="564.9,474.2 565.2,473.6 565.5,470.3 565.1,470.1 564.8,470.8 564.5,474 		"/>
		<path class="st0" d="M571.1,470.7c0-0.3-0.2-0.4-0.5-0.3s-0.5,0.5-0.5,0.8s0.2,0.4,0.5,0.3C570.9,471.4,571.1,471,571.1,470.7z"/>
	</g>
	<g>
		<polygon class="st0" points="573.6,460.3 576.8,458.4 577.1,458.6 576.7,459.3 573.5,461.1 573.2,461 		"/>
		<polygon class="st0" points="577.2,458.7 576.9,459.3 576.6,462.8 576.9,462.9 577.3,462.2 577.5,458.9 		"/>
		<polygon class="st0" points="573.1,461.2 573.4,461.3 573.1,464.7 572.7,465.4 572.5,465.2 572.7,461.8 		"/>
		<polygon class="st0" points="572.9,465.4 573.2,464.8 576.4,463 576.8,463.1 576.3,463.8 573.2,465.6 		"/>
		<polygon class="st0" points="576.5,463.9 576.9,463.2 577.2,463.4 576.9,467 576.6,467.4 576.3,467.3 		"/>
		<polygon class="st0" points="576.1,467.5 576.5,467.7 576.2,468.3 572.9,470.1 572.6,469.9 572.9,469.4 		"/>
		<polygon class="st0" points="572.4,469.9 572.8,469.2 573,465.9 572.7,465.7 572.3,466.4 572.1,469.7 		"/>
		<path class="st0" d="M578.6,466.4c0-0.3-0.2-0.4-0.5-0.3s-0.5,0.5-0.5,0.8s0.2,0.4,0.5,0.3C578.4,467,578.6,466.7,578.6,466.4z"/>
	</g>
</g>
</svg>
