<?xml version="1.0" encoding="utf-8"?>
<!-- Generator: Adobe Illustrator 19.1.0, SVG Export Plug-In . SVG Version: 6.00 Build 0)  -->
<svg version="1.1" id="Layer_1" xmlns="http://www.w3.org/2000/svg" xmlns:xlink="http://www.w3.org/1999/xlink" x="0px" y="0px"
	 viewBox="0 0 1000 1000" style="enable-background:new 0 0 1000 1000;" xml:space="preserve">
<style type="text/css">
	.st0{fill:#FFFFFF;}
</style>
<path class="st0" d="M54.6-7.1c-0.3-0.7-1.1-1.2-1.9-1.2h-6.2C42.6-29.6,24-45.8,1.6-45.8c-25.2,0-45.8,20.5-45.8,45.8
	s20.5,45.8,45.8,45.8c16.3,0,31.5-8.8,39.6-22.9c1.2-2,0.5-4.5-1.5-5.7c-2-1.2-4.5-0.5-5.7,1.5C27.3,30.3,14.9,37.4,1.6,37.4
	c-20.6,0-37.4-16.8-37.4-37.4c0-20.6,16.8-37.4,37.4-37.4C19.3-37.4,34.2-25,38-8.3h-6.1c-0.8,0-1.5,0.5-1.9,1.2
	c-0.3,0.7-0.2,1.6,0.3,2.2L40.7,7.6c0.4,0.5,1,0.7,1.6,0.7c0.6,0,1.2-0.3,1.6-0.7L54.3-4.9C54.8-5.5,55-6.4,54.6-7.1z M1.6-35.4
	c-2.3,0-4.2,1.9-4.2,4.2V-6c-1.9,1.3-3.1,3.5-3.1,6c0,4,3.3,7.3,7.3,7.3c1.1,0,2.1-0.3,3.1-0.7l14.5,8.4c0.7,0.4,1.4,0.6,2.1,0.6
	c1.4,0,2.8-0.7,3.6-2.1c1.1-2,0.5-4.5-1.5-5.7L8.8-0.6C8.6-2.8,7.4-4.8,5.7-6v-25.2C5.7-33.5,3.9-35.4,1.6-35.4z"/>
<g>
</g>
<g>
</g>
<g>
</g>
<g>
</g>
<g>
</g>
<g>
</g>
</svg>
