<?xml version="1.0" encoding="utf-8"?>
<!-- Generator: Adobe Illustrator 19.1.0, SVG Export Plug-In . SVG Version: 6.00 Build 0)  -->
<svg version="1.1" id="Layer_1" xmlns="http://www.w3.org/2000/svg" xmlns:xlink="http://www.w3.org/1999/xlink" x="0px" y="0px"
	 viewBox="0 0 1000 1000" style="enable-background:new 0 0 1000 1000;" xml:space="preserve">
<style type="text/css">
	.st0{fill:#FFFFFF;}
</style>
<path class="st0" d="M25.6-31.8H13.8c-1.2,0-2.2,1-2.2,2.2v11.2c0,1.2,1,2.2,2.2,2.2h2.5v9.6l-13,6.1v-34h5.2c0.8,0,1.6-0.5,2-1.2
	c0.4-0.7,0.3-1.6-0.2-2.3L1.8-49.8c-0.4-0.6-1.1-0.9-1.8-0.9c-0.7,0-1.4,0.3-1.8,0.9L-10.4-38c-0.5,0.7-0.6,1.6-0.2,2.3
	c0.4,0.7,1.1,1.2,2,1.2h5.2V6.4l-13-6.1v-11.4c2.8-1.3,4.7-4.1,4.7-7.4c0-4.5-3.6-8.1-8.1-8.1s-8.1,3.6-8.1,8.1
	c0,3.3,1.9,6.1,4.7,7.4V2.4c0,1.3,0.8,2.5,1.9,3.1l17.8,8.3v13.3c-5,1.5-8.7,6.1-8.7,11.6c0,6.7,5.4,12.1,12.1,12.1
	c6.7,0,12.1-5.4,12.1-12.1c0-5.5-3.7-10.1-8.7-11.6V7l17.8-8.3c1.2-0.6,1.9-1.8,1.9-3.1v-11.8h2.5c1.2,0,2.2-1,2.2-2.2v-11.2
	C27.8-30.8,26.8-31.8,25.6-31.8z"/>
<g>
</g>
<g>
</g>
<g>
</g>
<g>
</g>
<g>
</g>
<g>
</g>
</svg>
