<?xml version="1.0" encoding="utf-8"?>
<!-- Generator: Adobe Illustrator 19.1.0, SVG Export Plug-In . SVG Version: 6.00 Build 0)  -->
<svg version="1.1" id="Layer_1" xmlns="http://www.w3.org/2000/svg" xmlns:xlink="http://www.w3.org/1999/xlink" x="0px" y="0px"
	 viewBox="0 0 1000 1000" style="enable-background:new 0 0 1000 1000;" xml:space="preserve">
<style type="text/css">
	.st0{fill:#FFFFFF;}
</style>
<path class="st0" d="M56.4-69V69c0.5-0.3,1.1-0.6,1.6-0.9V-68.1C57.5-68.4,56.9-68.7,56.4-69z"/>
<path class="st0" d="M34.6-44.6V-72H33v26.2C33.5-45.4,34.1-45,34.6-44.6z"/>
<path class="st0" d="M32-46.4V-72h-1.6v24.5C30.9-47.1,31.5-46.8,32-46.4z"/>
<path class="st0" d="M26.8-49.5V-72h-1.6v21.8C25.7-50,26.3-49.7,26.8-49.5z"/>
<path class="st0" d="M-55.4-69.4V69.5c0.5,0.2,1.1,0.5,1.6,0.7V-70.1C-54.3-69.9-54.9-69.7-55.4-69.4z"/>
<path class="st0" d="M29.4-48v-24h-1.6v23.1C28.3-48.7,28.9-48.4,29.4-48z"/>
<polygon class="st0" points="-29.4,43.9 -29.4,72 -27.8,72 -27.8,43.3 "/>
<path class="st0" d="M39.8-40.1V-72h-1.6v30.3C38.7-41.2,39.3-40.7,39.8-40.1z"/>
<path class="st0" d="M69.4-55.5v111c0.6-1.4,1.2-2.9,1.6-4.4V-51.1C70.6-52.6,70.1-54.1,69.4-55.5z"/>
<path class="st0" d="M33,41.3V72h1.6V40.2C34.1,40.6,33.5,41,33,41.3z"/>
<path class="st0" d="M37.2-42.5V-72h-1.6v28.2C36.1-43.4,36.7-43,37.2-42.5z"/>
<path class="st0" d="M-52.8-70.5v141c0.5,0.2,1.1,0.3,1.6,0.5V-71C-51.7-70.8-52.3-70.7-52.8-70.5z"/>
<polygon class="st0" points="-42.4,48.2 -42.4,72 -40.8,72 -40.8,47.7 "/>
<path class="st0" d="M16.4-53.4V-72h-1.6v18.2C15.3-53.7,15.9-53.6,16.4-53.4z"/>
<path class="st0" d="M-60.6-66.4V66.4c0.5,0.4,1.1,0.8,1.6,1.1V-67.5C-59.5-67.1-60.1-66.8-60.6-66.4z"/>
<path class="st0" d="M42.4-37.4V-72h-1.6v32.9C41.3-38.6,41.9-38,42.4-37.4z"/>
<path class="st0" d="M13.8-54.1V-72h-1.6v17.6C12.7-54.3,13.3-54.2,13.8-54.1z"/>
<path class="st0" d="M38.2,37.2V72h1.6V35.7C39.3,36.2,38.7,36.7,38.2,37.2z"/>
<path class="st0" d="M-16.4,47.2V72h1.6V47.8C-15.3,47.6-15.9,47.4-16.4,47.2z"/>
<path class="st0" d="M-58-68.1V68.1c0.5,0.3,1.1,0.6,1.6,0.9V-69C-56.9-68.7-57.5-68.4-58-68.1z"/>
<polygon class="st0" points="-32,44.7 -32,72 -30.4,72 -30.4,44.2 "/>
<path class="st0" d="M24.2-50.7V-72h-1.6v20.6C23.1-51.2,23.7-50.9,24.2-50.7z"/>
<path class="st0" d="M21.6-51.8V-72H20v19.7C20.5-52.2,21.1-52,21.6-51.8z"/>
<path class="st0" d="M35.6,39.4V72h1.6V38.1C36.7,38.5,36.1,39,35.6,39.4z"/>
<path class="st0" d="M19-52.7V-72h-1.6v18.8C17.9-53,18.5-52.8,19-52.7z"/>
<polygon class="st0" points="-39.8,47.3 -39.8,72 -38.2,72 -38.2,46.8 "/>
<path class="st0" d="M-21.6,44.9V72h1.6V45.7C-20.5,45.4-21.1,45.2-21.6,44.9z"/>
<path class="st0" d="M22.6,47v25h1.6V46.3C23.7,46.5,23.1,46.7,22.6,47z"/>
<path class="st0" d="M25.2,45.8V72h1.6V45C26.3,45.3,25.7,45.6,25.2,45.8z"/>
<path class="st0" d="M12.2,50v22h1.6V49.6C13.3,49.8,12.7,49.9,12.2,50z"/>
<path class="st0" d="M7,50.6V72h1.6V50.5C8.1,50.5,7.5,50.6,7,50.6z"/>
<polygon class="st0" points="-37.2,46.5 -37.2,72 -35.6,72 -35.6,45.9 "/>
<path class="st0" d="M59-67.5V67.5c0.5-0.4,1.1-0.7,1.6-1.1V-66.4C60.1-66.8,59.5-67.1,59-67.5z"/>
<path class="st0" d="M17.4,48.7V72H19V48.3C18.5,48.4,17.9,48.6,17.4,48.7z"/>
<path class="st0" d="M20,47.9V72h1.6V47.4C21.1,47.6,20.5,47.7,20,47.9z"/>
<polygon class="st0" points="-34.6,45.6 -34.6,72 -33,72 -33,45.1 "/>
<path class="st0" d="M64.2-63.2V63.2c0.6-0.6,1.1-1.2,1.6-1.8V-61.3C65.3-62,64.8-62.6,64.2-63.2z"/>
<path class="st0" d="M27.8,44.5V72h1.6V43.6C28.9,43.9,28.3,44.2,27.8,44.5z"/>
<path class="st0" d="M-19,46.1V72h1.6V46.8C-17.9,46.6-18.5,46.4-19,46.1z"/>
<path class="st0" d="M47.6-30.5v-41.2c-0.5-0.1-1.1-0.1-1.6-0.2v39C46.6-32.1,47.1-31.3,47.6-30.5z"/>
<path class="st0" d="M45-34.3V-72c-0.4,0-0.9,0-1.3,0h-0.3v35.7C44-35.6,44.5-35,45-34.3z"/>
<path class="st0" d="M50.2-25.9v-45.3c-0.5-0.1-1.1-0.2-1.6-0.3v42.7C49.2-27.9,49.7-26.9,50.2-25.9z"/>
<path class="st0" d="M30.4,43v29H32V42C31.5,42.4,30.9,42.7,30.4,43z"/>
<path class="st0" d="M52.8-19.8v-50.7c-0.5-0.2-1.1-0.3-1.6-0.5v47.2C51.8-22.5,52.3-21.2,52.8-19.8z"/>
<path class="st0" d="M4.4,50.8V72H6V50.7C5.5,50.7,4.9,50.7,4.4,50.8z"/>
<path class="st0" d="M-24.2,43.5V72h1.6V44.4C-23.1,44.1-23.7,43.8-24.2,43.5z"/>
<path class="st0" d="M55.4-8.6v-60.9c-0.5-0.2-1.1-0.5-1.6-0.7v53.5C54.5-14,55.1-11.3,55.4-8.6z"/>
<path class="st0" d="M66.8-60V60c0.6-0.8,1.1-1.7,1.6-2.5V-57.4C67.9-58.3,67.4-59.2,66.8-60z"/>
<path class="st0" d="M14.8,49.4V72h1.6V49C15.9,49.2,15.3,49.3,14.8,49.4z"/>
<path class="st0" d="M11.2-54.5V-72H9.6v17.2C10.1-54.7,10.7-54.6,11.2-54.5z"/>
<path class="st0" d="M-11.2,48.9V72h1.6V49.3C-10.1,49.2-10.7,49.1-11.2,48.9z"/>
<path class="st0" d="M-33-41.3V-72h-1.6v32.2C-34.1-40.3-33.5-40.8-33-41.3z"/>
<path class="st0" d="M51.2,19.4V71c0.5-0.1,1.1-0.3,1.6-0.5V15.4C52.3,16.7,51.8,18.1,51.2,19.4z"/>
<path class="st0" d="M-30.4-43.5V-72H-32v29.8C-31.5-42.6-30.9-43.1-30.4-43.5z"/>
<path class="st0" d="M-35.6-38.7V-72h-1.6v35C-36.7-37.6-36.1-38.2-35.6-38.7z"/>
<path class="st0" d="M-38.2-35.8V-72h-1.6v38.3C-39.3-34.4-38.8-35.1-38.2-35.8z"/>
<path class="st0" d="M-3.4,50.4V72h1.6V50.6C-2.3,50.5-2.9,50.5-3.4,50.4z"/>
<path class="st0" d="M-22.6-48.7V-72h-1.6v24.2C-23.7-48.1-23.1-48.4-22.6-48.7z"/>
<path class="st0" d="M48.6,24.4v47.1c0.5-0.1,1.1-0.2,1.6-0.3V21.5C49.7,22.5,49.2,23.5,48.6,24.4z"/>
<path class="st0" d="M-27.8-45.5V-72h-1.6v27.7C-28.9-44.7-28.3-45.1-27.8-45.5z"/>
<path class="st0" d="M-25.2-47.2V-72h-1.6v25.8C-26.3-46.5-25.7-46.9-25.2-47.2z"/>
<path class="st0" d="M61.6-65.6V65.6c0.6-0.5,1.1-0.9,1.6-1.4V-64.2C62.7-64.7,62.2-65.1,61.6-65.6z"/>
<path class="st0" d="M-8.6,49.6V72H-7V49.9C-7.5,49.8-8.1,49.7-8.6,49.6z"/>
<path class="st0" d="M-25.6,42.6l-1.2,0.4v29h1.6V42.8C-25.3,42.8-25.5,42.7-25.6,42.6z"/>
<path class="st0" d="M-47.6,49.9v21.8c0.5,0.1,1.1,0.1,1.6,0.2V49.4L-47.6,49.9z"/>
<path class="st0" d="M-42,26.2c-0.1-0.2-0.3-0.4-0.4-0.7v1.9L-42,26.2z"/>
<path class="st0" d="M-50.2,50.8l1.6-4.8V10.8c-1-4.2-1.6-8.5-1.6-13c0-4.5,0.6-8.8,1.6-13v-56.4c-0.5,0.1-1.1,0.2-1.6,0.3V71.2
	c0.5,0.1,1.1,0.2,1.6,0.3V50.3L-50.2,50.8z"/>
<path class="st0" d="M-45,49.1V72c0.4,0,0.9,0,1.3,0h0.3V48.5L-45,49.1z"/>
<path class="st0" d="M-47.6,14.3V43l1.6-4.8V18.6C-46.6,17.2-47.1,15.7-47.6,14.3z"/>
<path class="st0" d="M-40.8-32.3V-72h-1.6v42.1C-41.9-30.7-41.4-31.5-40.8-32.3z"/>
<path class="st0" d="M-0.8,50.7V72h1.6V50.8C0.3,50.7-0.3,50.7-0.8,50.7z"/>
<path class="st0" d="M-45,20.8v14.4l1.6-4.8v-6.6C-44,22.8-44.5,21.8-45,20.8z"/>
<path class="st0" d="M-43.4-28.2V-72h-0.2c-0.5,0-0.9,0-1.4,0v46.8C-44.5-26.2-44-27.2-43.4-28.2z"/>
<path class="st0" d="M-46-22.9v-49c-0.5,0-1.1,0.1-1.6,0.2v53.1C-47.1-20.1-46.6-21.5-46-22.9z"/>
<path class="st0" d="M46,28.5v43.4c0.5,0,1.1-0.1,1.6-0.2V26.1C47.1,26.9,46.6,27.7,46,28.5z"/>
<path class="st0" d="M40.8,34.7V72h1.6V33C41.9,33.6,41.3,34.1,40.8,34.7z"/>
<path class="st0" d="M9.6,50.4V72h1.6V50.1C10.7,50.2,10.1,50.3,9.6,50.4z"/>
<path class="st0" d="M43.4,31.8V72h0.2c0.5,0,0.9,0,1.4,0V29.8C44.5,30.5,44,31.2,43.4,31.8z"/>
<path class="st0" d="M-1.8-55v-17h-1.6v17.2C-2.9-54.9-2.3-54.9-1.8-55z"/>
<path class="st0" d="M-4.4-54.7V-72H-6v17.5C-5.5-54.5-4.9-54.6-4.4-54.7z"/>
<path class="st0" d="M-65.8-61.3V61.3c0.5,0.6,1,1.2,1.6,1.8V-63.2C-64.8-62.6-65.3-62-65.8-61.3z"/>
<path class="st0" d="M0.8-55.1V-72h-1.6v16.9C-0.3-55.1,0.3-55.1,0.8-55.1z"/>
<path class="st0" d="M-63.2-64.2V64.2c0.5,0.5,1,1,1.6,1.4V-65.6C-62.2-65.1-62.7-64.7-63.2-64.2z"/>
<path class="st0" d="M8.6-54.9V-72H7v17C7.5-55,8.1-54.9,8.6-54.9z"/>
<path class="st0" d="M2.8-55.2c0.2,0,0.4,0,0.6,0V-72H1.8v16.8C2.1-55.2,2.5-55.2,2.8-55.2z"/>
<path class="st0" d="M6-55.1V-72H4.4v16.8C4.9-55.1,5.5-55.1,6-55.1z"/>
<path class="st0" d="M-6,50.1V72h1.6V50.3C-4.9,50.2-5.5,50.2-6,50.1z"/>
<path class="st0" d="M-7-54.3V-72h-1.6v18C-8.1-54.1-7.5-54.2-7-54.3z"/>
<path class="st0" d="M2.8,50.8c-0.3,0-0.7,0-1,0V72h1.6V50.8C3.2,50.8,3,50.8,2.8,50.8z"/>
<path class="st0" d="M-13.8,48.2V72h1.6V48.7C-12.7,48.5-13.3,48.3-13.8,48.2z"/>
<path class="st0" d="M-14.8-52.2V-72h-1.6v20.4C-15.9-51.8-15.3-52-14.8-52.2z"/>
<path class="st0" d="M-71-51.1V51.1c0.4,1.5,1,3,1.6,4.4v-111C-70.1-54.1-70.6-52.6-71-51.1z"/>
<path class="st0" d="M-17.4-51.2V-72H-19v21.5C-18.5-50.8-17.9-51-17.4-51.2z"/>
<path class="st0" d="M-12.2-53v-19h-1.6v19.5C-13.3-52.7-12.7-52.9-12.2-53z"/>
<path class="st0" d="M-9.6-53.7V-72h-1.6v18.7C-10.7-53.5-10.1-53.6-9.6-53.7z"/>
<path class="st0" d="M53.8,12.2v57.9c0.5-0.2,1.1-0.4,1.6-0.7V4.2C55.1,6.9,54.5,9.6,53.8,12.2z"/>
<path class="st0" d="M-20-50.1V-72h-1.6v22.7C-21.1-49.5-20.5-49.8-20-50.1z"/>
<path class="st0" d="M-68.4-57.5V57.4c0.5,0.9,1,1.7,1.6,2.5V-60C-67.4-59.2-67.9-58.3-68.4-57.5z"/>
<path class="st0" d="M-9.6-19.8v-23.8c-0.5,0.2-1.1,0.3-1.6,0.5v19.6C-10.9-22.7-10.3-21.3-9.6-19.8z"/>
<path class="st0" d="M-4.4,3.5v-48.3c-0.5,0.1-1.1,0.2-1.6,0.3V1.8C-5.5,2.4-5,2.9-4.4,3.5z"/>
<path class="st0" d="M8.6,10.6V-45c-0.5-0.1-1.1-0.1-1.6-0.2v55.9C7.7,10.8,8.2,10.7,8.6,10.6z"/>
<path class="st0" d="M10.1,9.4c0.3-0.3,0.7-0.8,1.1-1.5v-52.5c-0.5-0.1-1.1-0.2-1.6-0.3V10C9.8,9.8,9.9,9.6,10.1,9.4z"/>
<path class="st0" d="M13,4.9c0.2-0.4,0.5-0.6,0.8-0.6V-44c-0.5-0.1-1.1-0.3-1.6-0.4V6.3C12.5,5.8,12.8,5.4,13,4.9z"/>
<path class="st0" d="M-7.2-14.6c0.1,0.1,0.1,0.3,0.2,0.4v-30c-0.5,0.1-1.1,0.3-1.6,0.4v26.3C-8-16.3-7.5-15.2-7.2-14.6z"/>
<path class="st0" d="M6,10.5v-55.7c-0.5,0-1.1-0.1-1.6-0.1V9.9C4.9,10.1,5.5,10.3,6,10.5z"/>
<path class="st0" d="M-1.8,5.9v-51.1c-0.5,0.1-1.1,0.1-1.6,0.2V4.5C-2.9,5-2.3,5.5-1.8,5.9z"/>
<path class="st0" d="M0.8,7.9v-53.2c-0.5,0-1.1,0.1-1.6,0.1V6.7C-0.3,7.1,0.3,7.5,0.8,7.9z"/>
<path class="st0" d="M3.4,9.4v-54.8c-0.2,0-0.4,0-0.6,0c-0.3,0-0.7,0-1,0V8.5C2.3,8.8,2.9,9.1,3.4,9.4z"/>
<path class="st0" d="M4.4,20v21c0.5,0,1.1-0.1,1.6-0.1V20.6C5.5,20.4,4.9,20.2,4.4,20z"/>
<path class="st0" d="M15.7,22.4c-0.3,0-0.6,0-0.9,0v16.9c0.5-0.2,1.1-0.3,1.6-0.5V22.4C16.2,22.4,15.9,22.4,15.7,22.4z"/>
<path class="st0" d="M40.8-22.8v41c0.6-1.1,1.1-2.2,1.6-3.3v-34.5C41.9-20.6,41.4-21.7,40.8-22.8z"/>
<path class="st0" d="M17.4,22.3v16.1c0.5-0.2,1.1-0.4,1.6-0.6V22C18.5,22.1,18,22.2,17.4,22.3z"/>
<path class="st0" d="M43.4,12.5c0.7-1.8,1.2-3.6,1.6-5.5v-18.4c-0.4-1.9-0.9-3.8-1.6-5.6V12.5z"/>
<path class="st0" d="M7,20.9v19.9c0.5-0.1,1.1-0.1,1.6-0.2V21.4C8.1,21.3,7.5,21.1,7,20.9z"/>
<path class="st0" d="M9.6,21.7v18.8c0.5-0.1,1.1-0.2,1.6-0.3V22C10.7,21.9,10.1,21.8,9.6,21.7z"/>
<path class="st0" d="M12.2,22.1v17.8c0.5-0.1,1.1-0.2,1.6-0.4V22.3C13.3,22.3,12.7,22.2,12.2,22.1z"/>
<path class="st0" d="M30.4-35.4v66.4c0.5-0.5,1.1-0.9,1.6-1.4V-34C31.5-34.5,30.9-35,30.4-35.4z"/>
<path class="st0" d="M-13.6-25.1c0.6,0,1.1,0.2,1.4,0.4v-18c-0.5,0.2-1.1,0.4-1.6,0.6v17C-13.7-25.1-13.7-25.1-13.6-25.1z"/>
<path class="st0" d="M1.8,18.8V41c0.3,0,0.7,0,1,0c0.2,0,0.4,0,0.6,0V19.6C2.9,19.3,2.3,19.1,1.8,18.8z"/>
<path class="st0" d="M38.2-26.9v49.4c0.6-0.8,1.1-1.6,1.6-2.4v-44.5C39.3-25.3,38.8-26.1,38.2-26.9z"/>
<path class="st0" d="M27.8-37.4v70.4c0.5-0.4,1.1-0.8,1.6-1.2v-68C28.9-36.6,28.3-37,27.8-37.4z"/>
<path class="st0" d="M20,21.7v15.7c0.5-0.2,1.1-0.5,1.6-0.7V20.9C21.1,21.2,20.6,21.4,20,21.7z"/>
<path class="st0" d="M35.6-30.3v56.1c0.6-0.6,1.1-1.3,1.6-2v-52.2C36.7-29,36.2-29.6,35.6-30.3z"/>
<path class="st0" d="M33-33.1v61.7c0.5-0.5,1.1-1.1,1.6-1.6v-58.4C34.1-32,33.5-32.5,33-33.1z"/>
<path class="st0" d="M22.6,20.2v15.9c0.5-0.3,1.1-0.6,1.6-0.9V18.8C23.7,19.3,23.2,19.8,22.6,20.2z"/>
<path class="st0" d="M-23.8-10.6c-0.2-0.9-0.3-1.7-0.4-2.5v47.4c0.6-0.2,1.1-0.3,1.6-0.4V-7C-23.1-8.2-23.5-9.4-23.8-10.6z"/>
<path class="st0" d="M-22.6-19.8v-17.3c-0.5,0.4-1.1,0.8-1.6,1.2v21.1C-24.1-16.7-23.4-18.4-22.6-19.8z"/>
<path class="st0" d="M-21.6-4.7v38.5c0.5,0.1,1,0.3,1.6,0.6V-1.6C-20.6-2.6-21.1-3.6-21.6-4.7z"/>
<path class="st0" d="M-20-22.9v-16c-0.5,0.3-1.1,0.7-1.6,1v16.6C-21.1-21.9-20.5-22.5-20-22.9z"/>
<path class="st0" d="M-14.8-25.1v-16.5c-0.5,0.2-1.1,0.5-1.6,0.8V-25C-15.8-25.2-15.3-25.2-14.8-25.1z"/>
<path class="st0" d="M25.2,17.5v17.2c0.5-0.3,1.1-0.7,1.6-1V14.4C26.5,15.3,25.9,16.4,25.2,17.5z"/>
<path class="st0" d="M-18.3-24.2c0.3-0.2,0.6-0.3,0.9-0.5v-15.7c-0.5,0.3-1.1,0.6-1.6,0.9v15.8C-18.7-23.9-18.5-24.1-18.3-24.2z"/>
<path class="st0" d="M-3.4,15.9v24.7c0.5,0.1,1.1,0.1,1.6,0.2V16.9C-2.3,16.5-2.9,16.2-3.4,15.9z"/>
<path class="st0" d="M-8.6,12v27.6c0.5,0.1,1.1,0.3,1.6,0.4V13.3C-7.5,12.8-8.1,12.4-8.6,12z"/>
<path class="st0" d="M-16.4,3.8v32.8c0.5,0.3,1,0.5,1.6,0.8V5.8C-15.4,5.1-15.9,4.5-16.4,3.8z"/>
<path class="st0" d="M-0.8,17.5v23.4c0.5,0,1.1,0.1,1.6,0.1V18.3C0.3,18-0.3,17.8-0.8,17.5z"/>
<path class="st0" d="M-6,14v26.1c0.5,0.1,1.1,0.2,1.6,0.3V15.2C-4.9,14.8-5.5,14.4-6,14z"/>
<path class="st0" d="M-13.8,6.9v30.9c0.5,0.2,1.1,0.4,1.6,0.6V8.6C-12.7,8.1-13.3,7.5-13.8,6.9z"/>
<path class="st0" d="M-11.2,9.6v29.1c0.5,0.2,1.1,0.3,1.6,0.5V11.1C-10.1,10.6-10.7,10.1-11.2,9.6z"/>
<path class="st0" d="M-19,0.1v35c0.5,0.3,1,0.7,1.6,1V2.5C-18,1.7-18.5,0.9-19,0.1z"/>
<path class="st0" d="M-29.4-31v66.8c0.6-0.2,1.1-0.3,1.6-0.5v-68C-28.4-32.1-28.9-31.6-29.4-31z"/>
<path class="st0" d="M-35.6,17.6V-22c-0.6,1.1-1.1,2.3-1.6,3.5v32.6C-36.7,15.3-36.2,16.5-35.6,17.6z"/>
<path class="st0" d="M-37.2,33.5v4.6c0.5-0.1,1-0.3,1.6-0.5v-9L-37.2,33.5z"/>
<path class="st0" d="M-26.8-33.6v68.7c0.6-0.2,1.2-0.3,1.6-0.5v-69.7C-25.7-34.6-26.3-34.1-26.8-33.6z"/>
<path class="st0" d="M-32-27.8v64.4c0.5-0.2,1.1-0.3,1.6-0.5v-65.9C-31-29.2-31.5-28.5-32-27.8z"/>
<path class="st0" d="M15.4,4.6c0.3,0.1,0.6,0.2,1,0.4v-48.2c-0.5-0.2-1.1-0.3-1.6-0.5V4.4C15,4.5,15.2,4.6,15.4,4.6z"/>
<path class="st0" d="M-10.5-7.1c-1,1-0.1,2.1-0.1,2.1c0.3,0.6,0.6,1.2,1,1.8V-8C-9.9-7.7-10.2-7.4-10.5-7.1z"/>
<path class="st0" d="M-8.6-9.1v7.5c0.5,0.7,1,1.5,1.6,2.2v-11.5c-0.1,0.2-0.3,0.4-0.5,0.6C-7.5-10.3-8-9.8-8.6-9.1z"/>
<path class="st0" d="M-34.6-23.8v43.3c0,0.1,0.1,0.1,0.1,0.2c0,0,1.1,1.9,0.1,5.3l-0.2,0.6v11.7c0.5-0.2,1.1-0.3,1.6-0.5v-63.2
	C-33.6-25.5-34.1-24.7-34.6-23.8z"/>
<path class="st0" d="M-39.8-9.3V4.8c0.4,2.2,0.9,4.4,1.6,6.6v-27.2C-38.9-13.7-39.4-11.6-39.8-9.3z"/>
<path class="st0" d="M21.6,7.2v-48.3c-0.5-0.3-1.1-0.5-1.6-0.7V6.5C20.5,6.8,21.1,7,21.6,7.2z"/>
<path class="st0" d="M25.3,8.9c0.7,0.3,1.2,0.5,1.5,0.8v-47.8c-0.5-0.4-1.1-0.7-1.6-1L25.3,8.9C25.3,8.9,25.3,8.9,25.3,8.9z"/>
<path class="st0" d="M24.2,8.4v-48.1c-0.5-0.3-1.1-0.6-1.6-0.9V7.7C23.2,8,23.8,8.2,24.2,8.4z"/>
<path class="st0" d="M-38.9,38.6c0,0,0.3-0.1,0.7-0.2v-1.9L-38.9,38.6z"/>
<path class="st0" d="M19,6.1v-48.3c-0.5-0.2-1.1-0.4-1.6-0.6V5.4C17.9,5.6,18.4,5.8,19,6.1z"/>
<path class="st0" d="M-24.2-13.1v-1.7C-24.2-14.2-24.2-13.6-24.2-13.1z"/>
</svg>
