<?xml version="1.0" encoding="utf-8"?>
<!-- Generator: Adobe Illustrator 19.1.0, SVG Export Plug-In . SVG Version: 6.00 Build 0)  -->
<svg version="1.1" id="Layer_1" xmlns="http://www.w3.org/2000/svg" xmlns:xlink="http://www.w3.org/1999/xlink" x="0px" y="0px"
	 viewBox="0 0 1000 1000" style="enable-background:new 0 0 1000 1000;" xml:space="preserve">
<style type="text/css">
	.st0{fill:#FFFFFF;}
</style>
<g>
	<g id="Wi-Fi">
		<g>
			<path class="st0" d="M0,16.3c-4.8,0-8.7,3.9-8.7,8.7s3.9,8.7,8.7,8.7s8.7-3.9,8.7-8.7S4.8,16.3,0,16.3z M46.6-14.1
				C35-28,18-35.9,0-35.9S-35-28-46.6-14.1c-1.5,1.8-1.3,4.6,0.5,6.1c0.8,0.7,1.8,1,2.8,1c1.2,0,2.5-0.5,3.3-1.6
				c10-11.9,24.5-18.7,40-18.7s30,6.8,40,18.7c0.9,1,2.1,1.6,3.3,1.6c1,0,2-0.3,2.8-1C47.9-9.5,48.2-12.3,46.6-14.1z M0-18.5
				c-12.9,0-25,5.7-33.3,15.6c-1.5,1.8-1.3,4.6,0.5,6.1c0.8,0.7,1.8,1,2.8,1c1.2,0,2.5-0.5,3.3-1.6C-20-5.2-10.3-9.8,0-9.8
				S20-5.2,26.6,2.7c0.9,1,2.1,1.6,3.3,1.6c1,0,2-0.3,2.8-1c1.8-1.5,2.1-4.3,0.5-6.1C25-12.8,12.9-18.5,0-18.5z M0-1.1
				c-7.7,0-15,3.4-20,9.3c-1.5,1.8-1.3,4.6,0.5,6.1c0.8,0.7,1.8,1,2.8,1c1.2,0,2.5-0.5,3.3-1.6C-10,9.9-5.1,7.6,0,7.6
				s10,2.3,13.3,6.2c0.9,1,2.1,1.6,3.3,1.6c1,0,2-0.3,2.8-1c1.8-1.5,2.1-4.3,0.5-6.1C15,2.3,7.7-1.1,0-1.1z"/>
		</g>
	</g>
</g>
<g>
</g>
<g>
</g>
<g>
</g>
<g>
</g>
<g>
</g>
<g>
</g>
</svg>
