<?xml version="1.0" encoding="utf-8"?>
<!-- Generator: Adobe Illustrator 19.1.0, SVG Export Plug-In . SVG Version: 6.00 Build 0)  -->
<svg version="1.1" id="Layer_1" xmlns="http://www.w3.org/2000/svg" xmlns:xlink="http://www.w3.org/1999/xlink" x="0px" y="0px"
	 viewBox="0 0 1000 1000" style="enable-background:new 0 0 1000 1000;" xml:space="preserve">
<style type="text/css">
	.st0{fill:#939598;}
</style>
<path class="st0" d="M43.7-72h-87.3C-59.3-72-72-59.3-72-43.7v87.3C-72,59.3-59.3,72-43.7,72h87.3C59.3,72,72,59.3,72,43.7v-87.3
	C72-59.3,59.3-72,43.7-72z M0,42.3c-5.8,0-10.6-4.7-10.6-10.6S-5.8,21.2,0,21.2c5.8,0,10.6,4.7,10.6,10.6S5.8,42.3,0,42.3z
	 M23.6,18.8c-1,0.8-2.2,1.2-3.4,1.2c-1.5,0-3-0.6-4.1-1.9c-4-4.8-9.9-7.6-16.2-7.6c-6.2,0-12.1,2.8-16.2,7.6c-1,1.2-2.5,1.9-4.1,1.9
	c-1.2,0-2.4-0.4-3.4-1.2c-2.2-1.9-2.5-5.2-0.6-7.5C-18.2,4.1-9.4,0,0,0c9.4,0,18.2,4.1,24.3,11.3C26.2,13.6,25.9,16.9,23.6,18.8z
	 M39.8,5.2c-1,0.8-2.2,1.2-3.4,1.2c-1.5,0-3-0.6-4.1-1.9C24.3-5.1,12.5-10.6,0-10.6S-24.3-5.1-32.4,4.6c-1,1.2-2.5,1.9-4.1,1.9
	c-1.2,0-2.4-0.4-3.4-1.2c-2.2-1.9-2.5-5.2-0.6-7.5c10.1-12,24.9-18.9,40.5-18.9c15.6,0,30.4,6.9,40.5,18.9C42.4,0,42.1,3.3,39.8,5.2
	z M56-8.4c-1,0.8-2.2,1.2-3.4,1.2c-1.5,0-3-0.6-4.1-1.9C36.4-23.5,18.7-31.7,0-31.7c-18.7,0-36.4,8.3-48.6,22.7
	c-1,1.2-2.5,1.9-4.1,1.9c-1.2,0-2.4-0.4-3.4-1.2c-2.2-1.9-2.5-5.2-0.6-7.5C-42.5-32.7-21.9-42.3,0-42.3c21.9,0,42.5,9.7,56.7,26.5
	C58.6-13.6,58.3-10.3,56-8.4z"/>
<g>
</g>
<g>
</g>
<g>
</g>
<g>
</g>
<g>
</g>
<g>
</g>
</svg>
