<?xml version="1.0" encoding="utf-8"?>
<!-- Generator: Adobe Illustrator 19.1.0, SVG Export Plug-In . SVG Version: 6.00 Build 0)  -->
<svg version="1.1" id="Layer_1" xmlns="http://www.w3.org/2000/svg" xmlns:xlink="http://www.w3.org/1999/xlink" x="0px" y="0px"
	 viewBox="0 0 1000 1000" style="enable-background:new 0 0 1000 1000;" xml:space="preserve">
<style type="text/css">
	.st0{fill:#FFFFFF;}
</style>
<path class="st0" d="M37.2-32.2V-72h-1.6v38.9C36.1-32.8,36.7-32.5,37.2-32.2z"/>
<path class="st0" d="M42.4-28.9V-72h-1.6v42C41.3-29.6,41.9-29.2,42.4-28.9z"/>
<path class="st0" d="M39.8-30.6V-72h-1.6v40.4C38.7-31.3,39.3-31,39.8-30.6z"/>
<path class="st0" d="M45-27v-45c-0.4,0-0.9,0-1.3,0h-0.3v43.8C43.9-27.8,44.5-27.4,45-27z"/>
<path class="st0" d="M50.2-22.6v-48.7c-0.5-0.1-1.1-0.2-1.6-0.3V-24C49.1-23.5,49.7-23.1,50.2-22.6z"/>
<path class="st0" d="M47.6-24.9v-46.9c-0.5-0.1-1.1-0.1-1.6-0.2v45.7C46.5-25.8,47.1-25.3,47.6-24.9z"/>
<path class="st0" d="M52.8-20.1v-50.4c-0.5-0.2-1.1-0.3-1.6-0.5v49.3C51.7-21.1,52.3-20.6,52.8-20.1z"/>
<path class="st0" d="M55.4-17.3v-52.2c-0.5-0.2-1.1-0.5-1.6-0.7V-19C54.3-18.5,54.9-17.9,55.4-17.3z"/>
<path class="st0" d="M35.6-20.8v13.5c0.5,0.5,1.1,1,1.6,1.5v-13.9C36.7-20,36.1-20.4,35.6-20.8z"/>
<path class="st0" d="M4.4,0.3C4.9,0.4,5.5,0.5,6,0.6v-10.7c-0.5-0.1-1.1-0.2-1.6-0.2V0.3z"/>
<path class="st0" d="M11.2-19.9v-10.8c-0.5-0.1-1.1-0.2-1.6-0.3v10.8C10.1-20.1,10.7-20,11.2-19.9z"/>
<path class="st0" d="M8.6-20.4v-10.7c-0.5-0.1-1.1-0.2-1.6-0.2v10.7C7.5-20.5,8.1-20.5,8.6-20.4z"/>
<path class="st0" d="M21.6-16.5v-11.4c-0.5-0.2-1.1-0.4-1.6-0.6v11.3C20.5-16.9,21.1-16.7,21.6-16.5z"/>
<path class="st0" d="M6-20.8v-10.6c-0.5-0.1-1.1-0.1-1.6-0.1v10.6C4.9-20.9,5.5-20.8,6-20.8z"/>
<path class="st0" d="M19-17.5v-11.2c-0.5-0.2-1.1-0.3-1.6-0.5v11.1C17.9-17.9,18.5-17.7,19-17.5z"/>
<path class="st0" d="M16.4-18.5v-11.1c-0.5-0.1-1.1-0.3-1.6-0.4v11C15.3-18.8,15.9-18.6,16.4-18.5z"/>
<path class="st0" d="M13.8-19.3v-10.9c-0.5-0.1-1.1-0.2-1.6-0.3v10.8C12.7-19.5,13.3-19.4,13.8-19.3z"/>
<path class="st0" d="M-7-20.6v-10.7c-0.5,0.1-1.1,0.1-1.6,0.2v10.7C-8.1-20.5-7.5-20.5-7-20.6z"/>
<path class="st0" d="M-9.6-20.2v-10.7c-0.5,0.1-1.1,0.2-1.6,0.3v10.8C-10.7-20-10.1-20.1-9.6-20.2z"/>
<path class="st0" d="M3.4-21v-10.6c-0.5,0-1.1,0-1.6,0v10.6C2.3-21,2.9-21,3.4-21z"/>
<path class="st0" d="M-12.2-19.7v-10.8c-0.5,0.1-1.1,0.2-1.6,0.3v10.9C-13.3-19.4-12.7-19.5-12.2-19.7z"/>
<path class="st0" d="M0-21.1c0.3,0,0.5,0,0.8,0v-10.6c-0.3,0-0.5,0-0.8,0c-0.3,0-0.5,0-0.8,0v10.6C-0.5-21.1-0.3-21.1,0-21.1z"/>
<path class="st0" d="M-4.4-20.9v-10.6c-0.5,0-1.1,0.1-1.6,0.1v10.6C-5.5-20.8-4.9-20.9-4.4-20.9z"/>
<path class="st0" d="M-1.8-21.1v-10.6c-0.5,0-1.1,0-1.6,0V-21C-2.9-21-2.3-21-1.8-21.1z"/>
<path class="st0" d="M-37.2-19.6v13.8c0.5-0.5,1.1-1,1.6-1.5v-13.4C-36.1-20.3-36.7-19.9-37.2-19.6z"/>
<path class="st0" d="M-63.2-64.2V64.2c0.5,0.5,1,1,1.6,1.4V-65.6C-62.2-65.1-62.7-64.7-63.2-64.2z"/>
<path class="st0" d="M-60.6-66.4V66.4c0.5,0.4,1.1,0.8,1.6,1.1V-67.5C-59.5-67.1-60.1-66.8-60.6-66.4z"/>
<path class="st0" d="M-14.8-19v-10.9c-0.5,0.1-1.1,0.3-1.6,0.4v11C-15.9-18.6-15.3-18.8-14.8-19z"/>
<path class="st0" d="M-39.8-17.6V-3c0.5-0.6,1.1-1.2,1.6-1.8v-14.1C-38.7-18.4-39.3-18-39.8-17.6z"/>
<path class="st0" d="M-71-51.1V51.1c0.4,1.5,1,3,1.6,4.4v-111C-70.1-54.1-70.6-52.6-71-51.1z"/>
<path class="st0" d="M-68.4-57.5V57.4c0.5,0.9,1,1.7,1.6,2.5V-60C-67.4-59.2-67.9-58.3-68.4-57.5z"/>
<path class="st0" d="M-65.8-61.3V61.3c0.5,0.6,1,1.2,1.6,1.8V-63.2C-64.8-62.6-65.3-62-65.8-61.3z"/>
<path class="st0" d="M0-10.6c-0.3,0-0.5,0-0.8,0V0C-0.5,0-0.3,0,0,0s0.5,0,0.8,0v-10.6C0.5-10.6,0.3-10.6,0-10.6z"/>
<path class="st0" d="M-3.4-10.4V0.2c0.5-0.1,1.1-0.1,1.6-0.1v-10.6C-2.3-10.5-2.9-10.5-3.4-10.4z"/>
<path class="st0" d="M-6-10.2V0.6c0.5-0.1,1.1-0.2,1.6-0.3v-10.7C-4.9-10.3-5.5-10.2-6-10.2z"/>
<path class="st0" d="M-34.6-21.3v13.2c0.5-0.5,1.1-0.9,1.6-1.3v-12.9C-33.5-22-34.1-21.7-34.6-21.3z"/>
<path class="st0" d="M1.8-10.6V0.1c0.5,0,1.1,0.1,1.6,0.1v-10.6C2.9-10.5,2.3-10.5,1.8-10.6z"/>
<path class="st0" d="M-26.8-25.7v11.9c0.5-0.3,1.1-0.6,1.6-0.9v-11.7C-25.7-26.2-26.3-26-26.8-25.7z"/>
<path class="st0" d="M-32-23v12.7c0.5-0.4,1.1-0.8,1.6-1.2v-12.4C-30.9-23.6-31.5-23.3-32-23z"/>
<path class="st0" d="M-29.4-24.4v12.3c0.5-0.4,1.1-0.7,1.6-1v-12C-28.3-25-28.9-24.7-29.4-24.4z"/>
<path class="st0" d="M7-10V0.8C7.5,0.9,8.1,1,8.6,1.2V-9.7C8.1-9.8,7.5-9.9,7-10z"/>
<path class="st0" d="M14.8-7.9V3.7c0.5,0.3,1.1,0.6,1.6,0.9V-7.3C15.9-7.5,15.3-7.7,14.8-7.9z"/>
<path class="st0" d="M12.2-8.8V2.4c0.5,0.2,1.1,0.5,1.6,0.7V-8.3C13.3-8.5,12.7-8.6,12.2-8.8z"/>
<path class="st0" d="M20-5.6V7.1c0.5,0.4,1.1,0.9,1.6,1.4V-4.6C21.1-5,20.5-5.3,20-5.6z"/>
<path class="st0" d="M17.4-6.8v12c0.5,0.4,1.1,0.7,1.6,1.1V-6.1C18.5-6.3,17.9-6.6,17.4-6.8z"/>
<path class="st0" d="M9.6-9.5v11c0.5,0.2,1.1,0.4,1.6,0.6V-9.1C10.7-9.2,10.1-9.4,9.6-9.5z"/>
<path class="st0" d="M7,23.9c0.6,0.5,1.1,1.1,1.6,1.8V12.4c-0.5-0.2-1.1-0.5-1.6-0.6V23.9z"/>
<path class="st0" d="M38.2-4.7c0.5,0.6,1.1,1.2,1.6,1.8v-14.6c-0.5-0.4-1.1-0.9-1.6-1.3V-4.7z"/>
<path class="st0" d="M33-22.4v12.9c0.5,0.4,1.1,0.9,1.6,1.3v-13.2C34.1-21.7,33.5-22.1,33-22.4z"/>
<path class="st0" d="M22.6,9.5c0.5,0.6,1.1,1.1,1.6,1.7V-3c-0.5-0.4-1.1-0.7-1.6-1.1V9.5z"/>
<path class="st0" d="M34.6-33.7V-72H33v37.5C33.5-34.2,34.1-33.9,34.6-33.7z"/>
<path class="st0" d="M30.4-23.9v12.5c0.5,0.4,1.1,0.8,1.6,1.2V-23C31.5-23.3,30.9-23.6,30.4-23.9z"/>
<path class="st0" d="M4.4,11v11.2C5,22.4,5.5,22.7,6,23.1V11.4C5.5,11.2,4.9,11.1,4.4,11z"/>
<path class="st0" d="M27.8-25.3v12.1c0.5,0.3,1.1,0.7,1.6,1v-12.3C28.9-24.7,28.3-25,27.8-25.3z"/>
<path class="st0" d="M22.6-27.5V-16c0.5,0.3,1.1,0.5,1.6,0.8v-11.7C23.7-27.1,23.1-27.3,22.6-27.5z"/>
<path class="st0" d="M25.2-26.5v11.8c0.5,0.3,1.1,0.6,1.6,0.9v-12C26.3-26,25.7-26.2,25.2-26.5z"/>
<path class="st0" d="M-0.1,10.5c-0.2,0-0.5,0-0.7,0v10.7c0.3,0,0.5,0,0.8,0s0.5,0,0.8,0V10.5C0.5,10.5,0.2,10.5-0.1,10.5z"/>
<path class="st0" d="M-21.6-4.6V8.4c0.5-0.5,1.1-0.9,1.6-1.4V-5.5C-20.5-5.3-21.1-5-21.6-4.6z"/>
<path class="st0" d="M-19-6.1V6.3c0.5-0.4,1.1-0.8,1.6-1.1v-12C-17.9-6.6-18.5-6.3-19-6.1z"/>
<path class="st0" d="M-13.8-8.3V3.1c0.5-0.3,1.1-0.5,1.6-0.7V-8.8C-12.7-8.6-13.3-8.5-13.8-8.3z"/>
<path class="st0" d="M-16.4-7.3V4.5c0.5-0.3,1.1-0.6,1.6-0.9V-7.9C-15.3-7.7-15.9-7.5-16.4-7.3z"/>
<path class="st0" d="M1.8,10.6v10.8c0.5,0.1,1.1,0.2,1.6,0.4v-11C2.9,10.7,2.3,10.6,1.8,10.6z"/>
<path class="st0" d="M-22.6-27.5c-0.5,0.2-1.1,0.4-1.6,0.6v11.6c0.5-0.3,1.1-0.5,1.6-0.8V-27.5z"/>
<path class="st0" d="M-24.2-2.9v14c0.5-0.6,1.1-1.2,1.6-1.7V-4C-23.1-3.7-23.7-3.3-24.2-2.9z"/>
<path class="st0" d="M-20-17.2v-11.3c-0.5,0.2-1.1,0.4-1.6,0.6v11.4C-21.1-16.7-20.5-16.9-20-17.2z"/>
<path class="st0" d="M-3.4,10.8v11c0.5-0.2,1.1-0.3,1.6-0.4V10.6C-2.3,10.6-2.9,10.7-3.4,10.8z"/>
<path class="st0" d="M-6,11.4V23c0.5-0.3,1-0.6,1.6-0.9V11C-4.9,11.1-5.5,11.2-6,11.4z"/>
<path class="st0" d="M-17.4-18.1v-11.1c-0.5,0.2-1.1,0.3-1.6,0.5v11.2C-18.5-17.7-17.9-17.9-17.4-18.1z"/>
<path class="st0" d="M-11.2-9.1V2c0.5-0.2,1.1-0.4,1.6-0.6v-11C-10.1-9.4-10.7-9.2-11.2-9.1z"/>
<path class="st0" d="M-8.6,12.3v13.2c0.5-0.6,1-1.2,1.6-1.7V11.7C-7.5,11.9-8.1,12.1-8.6,12.3z"/>
<path class="st0" d="M-7-10c-0.5,0.1-1.1,0.2-1.6,0.3V1.2C-8.1,1-7.5,0.9-7,0.8V-10z"/>
<path class="st0" d="M-25.2,12.7V-2.2c-0.5,0.4-1.1,0.8-1.6,1.3v73h1.6V16.9C-25.8,15.5-25.8,14-25.2,12.7z"/>
<path class="st0" d="M61.6-65.6V65.6c0.6-0.5,1.1-0.9,1.6-1.4V-64.2C62.7-64.7,62.2-65.1,61.6-65.6z"/>
<path class="st0" d="M-56.7-15.8c0.1-0.1,0.2-0.2,0.3-0.3V-69c-0.5,0.3-1.1,0.6-1.6,0.9V68.1c0.5,0.3,1.1,0.6,1.6,0.9V-8.6
	C-58.3-10.6-58.5-13.6-56.7-15.8z"/>
<path class="st0" d="M-55.4-7.8v77.3c0.5,0.2,1.1,0.5,1.6,0.7V-7.2C-54.4-7.3-54.9-7.5-55.4-7.8z"/>
<path class="st0" d="M-52.7-7.1c0,0-0.1,0-0.1,0v77.6c0.5,0.2,1.1,0.3,1.6,0.5V-7.3C-51.7-7.2-52.2-7.1-52.7-7.1z"/>
<path class="st0" d="M64.2-63.2V63.2c0.6-0.6,1.1-1.2,1.6-1.8V-61.3C65.3-62,64.8-62.6,64.2-63.2z"/>
<path class="st0" d="M-7-41.9V-72h-1.6v30.2C-8.1-41.9-7.5-41.9-7-41.9z"/>
<path class="st0" d="M66.8-60V60c0.6-0.8,1.1-1.7,1.6-2.5V-57.4C67.9-58.3,67.4-59.2,66.8-60z"/>
<path class="st0" d="M-53.8-19v-51.1c-0.5,0.2-1.1,0.4-1.6,0.7v52.2C-54.9-17.9-54.3-18.5-53.8-19z"/>
<path class="st0" d="M-45-12.9V72c0.4,0,0.9,0,1.3,0h0.3v-86.4C-43.9-13.9-44.5-13.4-45-12.9z"/>
<path class="st0" d="M-51.2-21.7V-71c-0.5,0.1-1.1,0.3-1.6,0.5v50.4C-52.3-20.6-51.7-21.1-51.2-21.7z"/>
<path class="st0" d="M52.6-7.2c-0.5,0-0.9-0.1-1.4-0.2V71c0.5-0.1,1.1-0.3,1.6-0.5V-7.2C52.7-7.2,52.7-7.2,52.6-7.2z"/>
<path class="st0" d="M53.8-7.4v77.5c0.5-0.2,1.1-0.4,1.6-0.7V-8C54.9-7.7,54.4-7.5,53.8-7.4z"/>
<path class="st0" d="M56.4-69v52.8c0.1,0.1,0.2,0.2,0.3,0.3c1.8,2.1,1.6,5.1-0.3,7V69c0.5-0.3,1.1-0.6,1.6-0.9V-68.1
	C57.5-68.4,56.9-68.7,56.4-69z"/>
<path class="st0" d="M59-67.5V67.5c0.5-0.4,1.1-0.7,1.6-1.1V-66.4C60.1-66.8,59.5-67.1,59-67.5z"/>
<path class="st0" d="M-50.2-7.7v79c0.5,0.1,1.1,0.2,1.6,0.3V-9C-49-8.5-49.6-8-50.2-7.7z"/>
<path class="st0" d="M-47.6-10.1v81.8c0.5,0.1,1.1,0.1,1.6,0.2v-83.8C-46.5-11.3-47.1-10.7-47.6-10.1z"/>
<path class="st0" d="M-48.6-24v-47.5c-0.5,0.1-1.1,0.2-1.6,0.3v48.6C-49.7-23.1-49.1-23.6-48.6-24z"/>
<path class="st0" d="M-22.6-38.7V-72h-1.6v33.8C-23.7-38.4-23.1-38.6-22.6-38.7z"/>
<path class="st0" d="M1.8,42.1V72h1.6V41.7C2.9,41.9,2.3,42,1.8,42.1z"/>
<path class="st0" d="M-17.4-40.2V-72H-19v32.2C-18.5-39.9-17.9-40.1-17.4-40.2z"/>
<path class="st0" d="M-25.2-37.9V-72h-1.6v34.7C-26.3-37.5-25.7-37.7-25.2-37.9z"/>
<path class="st0" d="M-9.6-41.7V-72h-1.6v30.6C-10.7-41.5-10.1-41.6-9.6-41.7z"/>
<path class="st0" d="M-40.8-1.8v-15c-0.5,0.5-1.1,0.9-1.6,1.4V72h1.6V4.3C-42,2.5-42.1,0.1-40.8-1.8z"/>
<path class="st0" d="M-14.8-40.8V-72h-1.6v31.5C-15.9-40.6-15.3-40.7-14.8-40.8z"/>
<path class="st0" d="M-12.2-41.3V-72h-1.6v31C-13.3-41.1-12.7-41.2-12.2-41.3z"/>
<path class="st0" d="M-27.8-36.9V-72h-1.6v35.8C-28.9-36.4-28.3-36.7-27.8-36.9z"/>
<path class="st0" d="M-43.4-28.2V-72h-0.2c-0.5,0-0.9,0-1.4,0v45C-44.5-27.4-43.9-27.8-43.4-28.2z"/>
<path class="st0" d="M-46-26.2v-45.7c-0.5,0-1.1,0.1-1.6,0.2v46.8C-47.1-25.3-46.5-25.8-46-26.2z"/>
<path class="st0" d="M-40.8-30v-42h-1.6v43.1C-41.9-29.3-41.3-29.6-40.8-30z"/>
<path class="st0" d="M-38.2-31.7V-72h-1.6v41.4C-39.3-31-38.7-31.3-38.2-31.7z"/>
<path class="st0" d="M-30.4-35.8V-72H-32v37C-31.5-35.3-30.9-35.5-30.4-35.8z"/>
<path class="st0" d="M-33-34.5V-72h-1.6v38.3C-34.1-34-33.5-34.2-33-34.5z"/>
<path class="st0" d="M-35.6-33.1V-72h-1.6v39.8C-36.7-32.5-36.1-32.9-35.6-33.1z"/>
<path class="st0" d="M69.4-55.5v111c0.6-1.4,1.2-2.9,1.6-4.4V-51.1C70.6-52.6,70.1-54.1,69.4-55.5z"/>
<path class="st0" d="M17.4,19.2V72H19V19.9C18.4,19.7,17.9,19.5,17.4,19.2z"/>
<path class="st0" d="M-8.6,37.9V72H-7V39.6C-7.6,39.1-8.1,38.5-8.6,37.9z"/>
<path class="st0" d="M-6,40.4V72h1.6V41.3C-5,41.1-5.5,40.8-6,40.4z"/>
<path class="st0" d="M-10.6,31.7c0-1.6,0.4-3.1,1-4.5V12.8c-0.5,0.3-1.1,0.6-1.6,0.9V72h1.6V36.2C-10.2,34.8-10.6,33.3-10.6,31.7z"
	/>
<path class="st0" d="M20.2,20c-0.1,0-0.1,0-0.2,0v52h1.6V19.8C21.1,19.9,20.7,20,20.2,20z"/>
<path class="st0" d="M23.6,18.8c-0.3,0.3-0.7,0.4-1,0.6V72h1.6V18.2C24,18.4,23.8,18.6,23.6,18.8z"/>
<path class="st0" d="M25.2-2.2v15.1c0.4,1.2,0.4,2.5,0,3.6V72h1.6V-1C26.3-1.4,25.7-1.8,25.2-2.2z"/>
<path class="st0" d="M-13.8,15.6V72h1.6V14.4C-12.8,14.8-13.3,15.2-13.8,15.6z"/>
<path class="st0" d="M-3.4,41.7V72h1.6V42.1C-2.3,42-2.9,41.9-3.4,41.7z"/>
<path class="st0" d="M7,39.7V72h1.6V37.9C8.1,38.6,7.6,39.2,7,39.7z"/>
<path class="st0" d="M0,42.3c-0.3,0-0.5,0-0.8,0V72h1.6V42.3C0.5,42.3,0.3,42.3,0,42.3z"/>
<path class="st0" d="M4.4,41.3V72H6V40.5C5.5,40.8,5,41.1,4.4,41.3z"/>
<path class="st0" d="M9.6,12.9v14.5c0.6,1.4,1,2.9,1,4.5c0,1.6-0.4,3.1-1,4.5V72h1.6V13.8C10.7,13.5,10.1,13.2,9.6,12.9z"/>
<path class="st0" d="M16.1,18.1c-0.4-0.5-0.8-1-1.3-1.4V72h1.6V18.4C16.3,18.3,16.2,18.2,16.1,18.1z"/>
<path class="st0" d="M-16.3,18.1c0,0-0.1,0.1-0.1,0.1V72h1.6V16.5C-15.3,17-15.8,17.5-16.3,18.1z"/>
<path class="st0" d="M12.2,14.5V72h1.6V15.7C13.3,15.3,12.8,14.9,12.2,14.5z"/>
<path class="st0" d="M-19,19.8V72h1.6V19.1C-17.9,19.4-18.4,19.7-19,19.8z"/>
<path class="st0" d="M-34.6,6.2V72h1.6V5.2C-33.5,5.6-34,5.9-34.6,6.2z"/>
<path class="st0" d="M40.8-16.8v15C42,0,42,2.3,40.8,4.1V72h1.6v-87.4C41.9-15.9,41.3-16.3,40.8-16.8z"/>
<path class="st0" d="M43.4-14.5V72h0.2c0.5,0,0.9,0,1.4,0v-84.9C44.5-13.4,43.9-14,43.4-14.5z"/>
<path class="st0" d="M39.8,5.2c-0.5,0.4-1,0.7-1.6,0.9V72h1.6L39.8,5.2C39.8,5.2,39.8,5.2,39.8,5.2z"/>
<path class="st0" d="M-36.5,6.5c-0.2,0-0.5,0-0.7-0.1V72h1.6V6.4C-35.9,6.5-36.2,6.5-36.5,6.5z"/>
<path class="st0" d="M46-11.9v83.8c0.5,0,1.1-0.1,1.6-0.2v-81.8C47.1-10.7,46.5-11.3,46-11.9z"/>
<path class="st0" d="M-39.8,5.4V72h1.6V6.2C-38.8,6-39.3,5.7-39.8,5.4z"/>
<path class="st0" d="M-32,4.1V72h1.6V2.4C-30.9,3-31.5,3.5-32,4.1z"/>
<path class="st0" d="M48.6-9v80.5c0.5-0.1,1.1-0.2,1.6-0.3v-79C49.6-8.1,49.1-8.5,48.6-9z"/>
<path class="st0" d="M-20.4,20c-0.4,0-0.8-0.1-1.2-0.2V72h1.6V20C-20.1,20-20.3,20-20.4,20z"/>
<path class="st0" d="M36.4,6.4c-0.3,0-0.5,0-0.8-0.1V72h1.6V6.3C36.9,6.4,36.7,6.4,36.4,6.4z"/>
<path class="st0" d="M30.4,2.4V72H32V4.2C31.5,3.6,31,3,30.4,2.4z"/>
<path class="st0" d="M27.8-0.1V72h1.6V1.4C28.9,0.9,28.3,0.4,27.8-0.1z"/>
<path class="st0" d="M-29.4,1.4V72h1.6V-0.1C-28.3,0.4-28.9,0.9-29.4,1.4z"/>
<path class="st0" d="M33,5.2V72h1.6V6.1C34,5.9,33.5,5.6,33,5.2z"/>
<path class="st0" d="M-23.8,18.8c-0.2-0.1-0.3-0.3-0.4-0.4V72h1.6V19.5C-23,19.3-23.4,19.1-23.8,18.8z"/>
<path class="st0" d="M-20-39.6V-72h-1.6v32.9C-21.1-39.2-20.5-39.4-20-39.6z"/>
<path class="st0" d="M8.6-41.8V-72H7v30C7.5-41.9,8.1-41.9,8.6-41.8z"/>
<path class="st0" d="M-1.8-42.3V-72h-1.6v29.8C-2.9-42.2-2.3-42.2-1.8-42.3z"/>
<path class="st0" d="M13.8-41v-31h-1.6v30.7C12.7-41.2,13.3-41.1,13.8-41z"/>
<path class="st0" d="M11.2-41.4V-72H9.6v30.3C10.1-41.6,10.7-41.5,11.2-41.4z"/>
<path class="st0" d="M3.4-42.2V-72H1.8v29.7C2.3-42.3,2.9-42.2,3.4-42.2z"/>
<path class="st0" d="M0-42.3c0.3,0,0.5,0,0.8,0V-72h-1.6v29.7C-0.5-42.3-0.3-42.3,0-42.3z"/>
<path class="st0" d="M6-42.1V-72H4.4v29.8C4.9-42.1,5.5-42.1,6-42.1z"/>
<path class="st0" d="M24.2-38.2V-72h-1.6v33.3C23.1-38.6,23.7-38.4,24.2-38.2z"/>
<path class="st0" d="M26.8-37.2V-72h-1.6v34.1C25.7-37.7,26.3-37.5,26.8-37.2z"/>
<path class="st0" d="M16.4-40.5V-72h-1.6v31.2C15.3-40.7,15.9-40.6,16.4-40.5z"/>
<path class="st0" d="M29.4-36.2V-72h-1.6v35.1C28.3-36.6,28.9-36.4,29.4-36.2z"/>
<path class="st0" d="M21.6-39.1V-72H20v32.5C20.5-39.4,21.1-39.2,21.6-39.1z"/>
<path class="st0" d="M19-39.8V-72h-1.6v31.8C17.9-40.1,18.5-39.9,19-39.8z"/>
<path class="st0" d="M32-35v-37h-1.6v36.3C30.9-35.5,31.5-35.2,32-35z"/>
<path class="st0" d="M-4.4-42.2V-72H-6v30C-5.5-42.1-4.9-42.1-4.4-42.2z"/>
</svg>
