<?xml version="1.0" encoding="utf-8"?>
<!-- Generator: Adobe Illustrator 19.1.0, SVG Export Plug-In . SVG Version: 6.00 Build 0)  -->
<svg version="1.1" id="Layer_1" xmlns="http://www.w3.org/2000/svg" xmlns:xlink="http://www.w3.org/1999/xlink" x="0px" y="0px"
	 viewBox="0 0 1000 1000" style="enable-background:new 0 0 1000 1000;" xml:space="preserve">
<style type="text/css">
	.st0{fill:#FFFFFF;}
</style>
<path class="st0" d="M0-42.1c-23.2,0-42.1,18.8-42.1,42.1S-23.2,42.1,0,42.1S42.1,23.2,42.1,0S23.2-42.1,0-42.1z M-16.3-32.2
	c-0.8,1-1.5,2.2-2.2,3.4c-1,1.8-2,3.8-2.8,5.9c-1.7-0.5-3.5-1-5.2-1.6C-23.5-27.7-20.1-30.3-16.3-32.2z M-30.8-18.8
	c2.5,0.9,5,1.7,7.5,2.4c-1,4.1-1.7,8.5-1.9,13h-10.7C-35.4-9-33.6-14.3-30.8-18.8z M-30.8,18.8c-2.8-4.6-4.6-9.8-5.2-15.4h10.7
	c0.2,4.5,0.9,8.9,1.9,13C-25.8,17.1-28.3,17.9-30.8,18.8z M-26.4,24.6c1.7-0.6,3.5-1.1,5.2-1.6c0.8,2.1,1.7,4.1,2.8,5.9
	c0.7,1.2,1.4,2.3,2.2,3.4C-20.1,30.3-23.5,27.7-26.4,24.6z M-3.4,34.3c-4.4-1.6-8.3-6.4-11-12.9c3.7-0.7,7.3-1.1,11-1.3V34.3z
	 M-3.4,13.3c-4.4,0.2-8.8,0.7-13.2,1.6c-0.9-3.5-1.5-7.4-1.7-11.4h14.9V13.3z M-3.4-3.4h-14.9c0.2-4,0.8-7.8,1.7-11.4
	c4.4,0.9,8.8,1.4,13.2,1.6V-3.4z M-3.4-20.1c-3.7-0.2-7.4-0.6-11-1.3c2.7-6.5,6.6-11.3,11-12.9V-20.1z M30.8-18.8
	c2.8,4.6,4.6,9.8,5.1,15.4H25.2c-0.2-4.5-0.9-8.9-1.9-13C25.8-17.1,28.3-17.9,30.8-18.8z M26.4-24.6C24.7-24,23-23.4,21.2-23
	c-0.8-2.1-1.7-4.1-2.8-5.9c-0.7-1.2-1.4-2.3-2.2-3.4C20.1-30.3,23.5-27.7,26.4-24.6z M3.4-34.3c4.4,1.6,8.3,6.4,11,12.9
	c-3.7,0.7-7.3,1.1-11,1.3V-34.3z M3.4-13.3c4.4-0.2,8.8-0.7,13.2-1.6c0.9,3.5,1.5,7.4,1.7,11.4H3.4L3.4-13.3L3.4-13.3z M3.4,3.4
	h14.9c-0.2,4-0.8,7.8-1.7,11.4c-4.4-0.9-8.8-1.4-13.2-1.6L3.4,3.4L3.4,3.4z M3.4,34.3V20.1c3.7,0.2,7.4,0.6,11,1.3
	C11.7,27.9,7.8,32.7,3.4,34.3z M16.3,32.2c0.8-1,1.5-2.2,2.2-3.4c1-1.8,2-3.8,2.8-5.9c1.7,0.5,3.5,1,5.2,1.6
	C23.5,27.7,20.1,30.3,16.3,32.2z M30.8,18.8c-2.5-0.9-5-1.7-7.5-2.4c1-4.1,1.7-8.5,1.9-13h10.7C35.4,9,33.6,14.3,30.8,18.8z"/>
<g>
</g>
<g>
</g>
<g>
</g>
<g>
</g>
<g>
</g>
<g>
</g>
</svg>
