<?xml version="1.0" encoding="utf-8"?>
<!-- Generator: Adobe Illustrator 19.2.0, SVG Export Plug-In . SVG Version: 6.00 Build 0)  -->
<svg version="1.1" id="Layer_1" xmlns="http://www.w3.org/2000/svg" xmlns:xlink="http://www.w3.org/1999/xlink" x="0px" y="0px"
	 width="1000px" height="1000px" viewBox="0 0 1000 1000" style="enable-background:new 0 0 1000 1000;" xml:space="preserve">
<style type="text/css">
	.st0{fill:#FFFFFF;}
</style>
<g>
	<path class="st0" d="M30-4.1c0.2-0.8,0.2-1.5,0.2-2.3c0-7.2-5.8-13-13-13c-1.6,0-3,0.3-4.5,0.8c-4.2-6.6-11.7-11-20-11
		c-13.2,0-23.9,10.7-23.9,23.9c0,0.6,0.1,1.3,0.1,1.9c-6.3,1.5-11.1,7.4-11.1,14.2c0,8.1,6.6,14.7,14.7,14.7h55.1
		c8.1,0,14.7-6.6,14.7-14.7C42.3,3.1,36.9-2.9,30-4.1z"/>
</g>
</svg>
