<?xml version="1.0" encoding="utf-8"?>
<!-- Generator: Adobe Illustrator 19.2.0, SVG Export Plug-In . SVG Version: 6.00 Build 0)  -->
<svg version="1.1" id="Layer_1" xmlns="http://www.w3.org/2000/svg" xmlns:xlink="http://www.w3.org/1999/xlink" x="0px" y="0px"
	 width="1000px" height="1000px" viewBox="0 0 1000 1000" style="enable-background:new 0 0 1000 1000;" xml:space="preserve">
<style type="text/css">
	.st0{fill:#FFFFFF;}
</style>
<path class="st0" d="M40.8-5.1C40.5-5.6,39.9-6,39.4-6H35C32.2-21.3,18.7-32.9,2.6-32.9c-18.1,0-32.9,14.7-32.9,32.9
	s14.7,32.9,32.9,32.9c11.7,0,22.7-6.3,28.5-16.5c0.9-1.5,0.3-3.3-1.1-4.1c-1.5-0.9-3.3-0.3-4.1,1.1c-4.8,8.4-13.8,13.5-23.3,13.5
	c-14.8,0-26.9-12.1-26.9-26.9s12.1-26.9,26.9-26.9C15.4-26.9,26-18,28.8-6h-4.4c-0.6,0-1.1,0.3-1.4,0.9c-0.2,0.5-0.2,1.1,0.2,1.6
	l7.5,9C31,5.8,31.4,6,31.8,6c0.4,0,0.9-0.2,1.1-0.5l7.5-9C40.9-3.9,41.1-4.6,40.8-5.1z"/>
</svg>
