<?xml version="1.0" encoding="utf-8"?>
<!-- Generator: Adobe Illustrator 19.2.1, SVG Export Plug-In . SVG Version: 6.00 Build 0)  -->
<svg version="1.1" id="Layer_1" xmlns="http://www.w3.org/2000/svg" xmlns:xlink="http://www.w3.org/1999/xlink" x="0px" y="0px"
	 viewBox="0 0 1000 1000" style="enable-background:new 0 0 1000 1000;" xml:space="preserve">
<path d="M37.5-3c0-9-3.9-17.4-10.9-23.6c-6.2-5.5-14.2-8.8-23-9.6c-0.4-1.7-1.9-2.9-3.7-2.9c-1.8,0-3.3,1.3-3.7,2.9
	c-8.8,0.7-16.8,4.1-23,9.6c-7,6.3-10.9,14.7-10.9,23.8c0,1.2,1,2.2,2.2,2.2h0.6c0.6,0,1.3-0.3,1.7-0.8c1.8-2.2,4.5-3.5,7.3-3.5
	c2.7,0,5.2,1.1,7,3.1c0.4,0.5,1,0.7,1.6,0.7c0.6,0,1.2-0.3,1.6-0.7c1.8-2,4.4-3.1,7-3.1c1.7,0,3.4,0.5,4.8,1.3v29.9
	c0,7,5.7,12.7,12.7,12.7s12.7-5.7,12.7-12.7c0-2.1-1.7-3.8-3.8-3.8s-3.8,1.7-3.8,3.8c0,2.9-2.3,5.2-5.2,5.2c-2.9,0-5.2-2.3-5.2-5.2
	V-3.6c1.5-0.9,3.1-1.3,4.8-1.3c2.7,0,5.2,1.1,7,3.1c0.4,0.5,1,0.7,1.6,0.7c0.6,0,1.2-0.3,1.6-0.7c1.8-2,4.4-3.1,7-3.1
	c2.8,0,5.5,1.3,7.3,3.5c0.4,0.5,1,0.8,1.7,0.8h0.6c0,0,0,0,0,0c1.2,0,2.2-1,2.2-2.2C37.5-2.9,37.5-2.9,37.5-3z"/>
</svg>
