<?xml version="1.0" encoding="utf-8"?>
<!-- Generator: Adobe Illustrator 19.1.0, SVG Export Plug-In . SVG Version: 6.00 Build 0)  -->
<svg version="1.1" id="Layer_1" xmlns="http://www.w3.org/2000/svg" xmlns:xlink="http://www.w3.org/1999/xlink" x="0px" y="0px"
	 viewBox="0 0 1000 1000" style="enable-background:new 0 0 1000 1000;" xml:space="preserve">
<style type="text/css">
	.st0{fill:none;stroke:#BE1E2D;stroke-width:0.25;}
</style>
<g>
	<g>
		<polygon class="st0" points="436.5,539.6 439.8,537.7 440.1,537.9 439.7,538.6 436.5,540.4 436.2,540.3 		"/>
		<polygon class="st0" points="440.2,538 439.8,538.6 439.6,542.1 439.9,542.2 440.2,541.5 440.5,538.2 		"/>
		<polygon class="st0" points="436.1,540.5 436.3,540.6 436.1,544 435.7,544.7 435.4,544.5 435.6,541.1 		"/>
		<polygon class="st0" points="435.8,544.7 436.2,544.1 439.4,542.3 439.7,542.4 439.3,543.1 436.1,544.9 		"/>
		<polygon class="st0" points="439.5,543.2 439.9,542.5 440.2,542.7 439.9,546.3 439.6,546.7 439.2,546.6 		"/>
		<polygon class="st0" points="439.1,546.8 439.4,547 439.1,547.6 435.9,549.4 435.5,549.2 435.9,548.7 		"/>
		<polygon class="st0" points="435.4,549.2 435.7,548.5 436,545.2 435.6,545 435.3,545.7 435.1,549 		"/>
		<path class="st0" d="M441.6,545.7c0-0.3-0.2-0.4-0.5-0.3c-0.3,0.1-0.5,0.5-0.5,0.8s0.2,0.4,0.5,0.3
			C441.4,546.3,441.6,546,441.6,545.7z"/>
	</g>
	<g>
		<polygon class="st0" points="444.1,535.2 447.3,533.4 447.6,533.5 447.2,534.2 444,536.1 443.7,535.9 		"/>
		<polygon class="st0" points="447.8,533.6 447.4,534.3 447.1,537.7 447.5,537.8 447.8,537.2 448.1,533.8 		"/>
		<polygon class="st0" points="443.6,536.1 443.9,536.3 443.6,539.7 443.3,540.3 443,540.1 443.2,536.8 		"/>
		<polygon class="st0" points="443.4,540.4 443.8,539.7 446.9,537.9 447.3,538.1 446.9,538.8 443.7,540.6 		"/>
		<polygon class="st0" points="447,538.8 447.4,538.2 447.7,538.3 447.5,541.9 447.1,542.4 446.8,542.2 		"/>
		<polygon class="st0" points="446.7,542.4 447,542.6 446.7,543.2 443.4,545.1 443.1,544.9 443.4,544.3 		"/>
		<polygon class="st0" points="443,544.8 443.3,544.2 443.5,540.8 443.2,540.7 442.9,541.3 442.6,544.6 		"/>
		<path class="st0" d="M449.1,541.3c0-0.3-0.2-0.4-0.5-0.3c-0.3,0.1-0.5,0.5-0.5,0.8s0.2,0.4,0.5,0.3
			C448.9,542,449.1,541.6,449.1,541.3z"/>
	</g>
	<g>
		<polygon class="st0" points="451.7,530.9 454.9,529 455.2,529.2 454.8,529.8 451.6,531.7 451.3,531.5 		"/>
		<polygon class="st0" points="455.3,529.3 454.9,529.9 454.7,533.3 455,533.4 455.4,532.8 455.6,529.5 		"/>
		<polygon class="st0" points="451.2,531.7 451.5,531.9 451.2,535.3 450.8,535.9 450.5,535.8 450.8,532.4 		"/>
		<polygon class="st0" points="451,536 451.3,535.4 454.5,533.5 454.9,533.7 454.4,534.4 451.3,536.2 		"/>
		<polygon class="st0" points="454.6,534.5 455,533.8 455.3,533.9 455,537.5 454.7,538 454.4,537.8 		"/>
		<polygon class="st0" points="454.2,538.1 454.6,538.3 454.3,538.8 451,540.7 450.6,540.5 451,539.9 		"/>
		<polygon class="st0" points="450.5,540.4 450.9,539.8 451.1,536.5 450.8,536.3 450.4,537 450.2,540.2 		"/>
		<path class="st0" d="M456.7,536.9c0-0.3-0.2-0.4-0.5-0.3c-0.3,0.1-0.5,0.5-0.5,0.8s0.2,0.4,0.5,0.3
			C456.5,537.6,456.7,537.2,456.7,536.9z"/>
	</g>
	<g>
		<polygon class="st0" points="459.2,526.5 462.5,524.6 462.7,524.8 462.4,525.5 459.2,527.3 458.9,527.2 		"/>
		<polygon class="st0" points="462.9,524.9 462.5,525.5 462.3,529 462.6,529.1 462.9,528.4 463.2,525.1 		"/>
		<polygon class="st0" points="458.8,527.4 459,527.5 458.8,530.9 458.4,531.6 458.1,531.4 458.3,528 		"/>
		<polygon class="st0" points="458.5,531.6 458.9,531 462.1,529.2 462.4,529.3 462,530 458.8,531.8 		"/>
		<polygon class="st0" points="462.2,530.1 462.6,529.4 462.9,529.6 462.6,533.2 462.3,533.6 461.9,533.5 		"/>
		<polygon class="st0" points="461.8,533.7 462.1,533.9 461.8,534.5 458.6,536.3 458.2,536.1 458.6,535.6 		"/>
		<polygon class="st0" points="458.1,536.1 458.4,535.4 458.7,532.1 458.3,531.9 458,532.6 457.7,535.9 		"/>
		<path class="st0" d="M464.3,532.6c0-0.3-0.2-0.4-0.5-0.3c-0.3,0.1-0.5,0.5-0.5,0.8s0.2,0.4,0.5,0.3
			C464.1,533.2,464.3,532.9,464.3,532.6z"/>
	</g>
	<g>
		<polygon class="st0" points="466.8,522.1 470,520.3 470.3,520.4 469.9,521.1 466.7,523 466.4,522.8 		"/>
		<polygon class="st0" points="470.4,520.5 470.1,521.2 469.8,524.6 470.1,524.7 470.5,524.1 470.8,520.7 		"/>
		<polygon class="st0" points="466.3,523 466.6,523.2 466.3,526.6 466,527.2 465.7,527 465.9,523.7 		"/>
		<polygon class="st0" points="466.1,527.3 466.5,526.6 469.6,524.8 470,525 469.5,525.7 466.4,527.5 		"/>
		<polygon class="st0" points="469.7,525.7 470.1,525 470.4,525.2 470.1,528.8 469.8,529.3 469.5,529.1 		"/>
		<polygon class="st0" points="469.4,529.3 469.7,529.5 469.4,530.1 466.1,532 465.8,531.8 466.1,531.2 		"/>
		<polygon class="st0" points="465.7,531.7 466,531.1 466.2,527.7 465.9,527.6 465.5,528.2 465.3,531.5 		"/>
		<path class="st0" d="M471.8,528.2c0-0.3-0.2-0.4-0.5-0.3c-0.3,0.1-0.5,0.5-0.5,0.8s0.2,0.4,0.5,0.3
			C471.6,528.9,471.8,528.5,471.8,528.2z"/>
	</g>
	<g>
		<polygon class="st0" points="474.4,517.8 477.6,515.9 477.9,516.1 477.5,516.7 474.3,518.6 474,518.4 		"/>
		<polygon class="st0" points="478,516.2 477.6,516.8 477.4,520.2 477.7,520.3 478.1,519.7 478.3,516.4 		"/>
		<polygon class="st0" points="473.9,518.6 474.2,518.8 473.9,522.2 473.5,522.8 473.2,522.7 473.5,519.3 		"/>
		<polygon class="st0" points="473.7,522.9 474,522.3 477.2,520.4 477.5,520.6 477.1,521.3 474,523.1 		"/>
		<polygon class="st0" points="477.3,521.4 477.7,520.7 478,520.8 477.7,524.4 477.4,524.9 477,524.7 		"/>
		<polygon class="st0" points="476.9,525 477.3,525.2 476.9,525.7 473.7,527.6 473.3,527.4 473.7,526.8 		"/>
		<polygon class="st0" points="473.2,527.3 473.6,526.7 473.8,523.4 473.5,523.2 473.1,523.9 472.9,527.1 		"/>
		<path class="st0" d="M479.4,523.8c0-0.3-0.2-0.4-0.5-0.3c-0.3,0.1-0.5,0.5-0.5,0.8s0.2,0.4,0.5,0.3
			C479.2,524.5,479.4,524.1,479.4,523.8z"/>
	</g>
	<g>
		<polygon class="st0" points="481.9,513.4 485.1,511.5 485.4,511.7 485.1,512.4 481.8,514.2 481.5,514.1 		"/>
		<polygon class="st0" points="485.6,511.8 485.2,512.4 484.9,515.9 485.3,516 485.6,515.3 485.9,512 		"/>
		<polygon class="st0" points="481.4,514.3 481.7,514.4 481.5,517.8 481.1,518.5 480.8,518.3 481,514.9 		"/>
		<polygon class="st0" points="481.2,518.5 481.6,517.9 484.8,516.1 485.1,516.2 484.7,516.9 481.5,518.7 		"/>
		<polygon class="st0" points="484.8,517 485.3,516.3 485.5,516.5 485.3,520.1 485,520.5 484.6,520.4 		"/>
		<polygon class="st0" points="484.5,520.6 484.8,520.8 484.5,521.4 481.2,523.2 480.9,523 481.3,522.5 		"/>
		<polygon class="st0" points="480.8,523 481.1,522.3 481.4,519 481,518.8 480.7,519.5 480.4,522.8 		"/>
		<path class="st0" d="M487,519.5c0-0.3-0.2-0.4-0.5-0.3c-0.3,0.1-0.5,0.5-0.5,0.8s0.2,0.4,0.5,0.3C486.8,520.1,487,519.8,487,519.5
			z"/>
	</g>
	<g>
		<polygon class="st0" points="489.5,509 492.7,507.2 493,507.3 492.6,508 489.4,509.9 489.1,509.7 		"/>
		<polygon class="st0" points="493.1,507.4 492.8,508.1 492.5,511.5 492.8,511.6 493.2,511 493.4,507.6 		"/>
		<polygon class="st0" points="489,509.9 489.3,510.1 489,513.5 488.6,514.1 488.4,513.9 488.6,510.6 		"/>
		<polygon class="st0" points="488.8,514.2 489.2,513.5 492.3,511.7 492.7,511.9 492.2,512.6 489.1,514.4 		"/>
		<polygon class="st0" points="492.4,512.6 492.8,511.9 493.1,512.1 492.8,515.7 492.5,516.2 492.2,516 		"/>
		<polygon class="st0" points="492,516.2 492.4,516.4 492.1,517 488.8,518.9 488.5,518.7 488.8,518.1 		"/>
		<polygon class="st0" points="488.3,518.6 488.7,518 488.9,514.6 488.6,514.5 488.2,515.1 488,518.4 		"/>
		<path class="st0" d="M494.5,515.1c0-0.3-0.2-0.4-0.5-0.3c-0.3,0.1-0.5,0.5-0.5,0.8s0.2,0.4,0.5,0.3
			C494.3,515.8,494.5,515.4,494.5,515.1z"/>
	</g>
	<g>
		<polygon class="st0" points="497,504.7 500.3,502.8 500.6,503 500.2,503.6 497,505.5 496.7,505.3 		"/>
		<polygon class="st0" points="500.7,503.1 500.3,503.7 500.1,507.1 500.4,507.2 500.7,506.6 501,503.3 		"/>
		<polygon class="st0" points="496.6,505.5 496.9,505.7 496.6,509.1 496.2,509.7 495.9,509.6 496.1,506.2 		"/>
		<polygon class="st0" points="496.3,509.8 496.7,509.2 499.9,507.3 500.2,507.5 499.8,508.2 496.7,510 		"/>
		<polygon class="st0" points="500,508.3 500.4,507.6 500.7,507.7 500.4,511.3 500.1,511.8 499.7,511.6 		"/>
		<polygon class="st0" points="499.6,511.9 499.9,512.1 499.6,512.6 496.4,514.5 496,514.3 496.4,513.7 		"/>
		<polygon class="st0" points="495.9,514.2 496.3,513.6 496.5,510.3 496.2,510.1 495.8,510.8 495.6,514 		"/>
		<path class="st0" d="M502.1,510.7c0-0.3-0.2-0.4-0.5-0.3s-0.5,0.5-0.5,0.8s0.2,0.4,0.5,0.3C501.9,511.4,502.1,511,502.1,510.7z"/>
	</g>
	<g>
		<polygon class="st0" points="504.6,500.3 507.8,498.4 508.1,498.6 507.7,499.3 504.5,501.1 504.2,501 		"/>
		<polygon class="st0" points="508.3,498.7 507.9,499.3 507.6,502.8 508,502.9 508.3,502.2 508.6,498.9 		"/>
		<polygon class="st0" points="504.1,501.2 504.4,501.3 504.2,504.7 503.8,505.4 503.5,505.2 503.7,501.8 		"/>
		<polygon class="st0" points="503.9,505.4 504.3,504.8 507.5,503 507.8,503.1 507.4,503.8 504.2,505.6 		"/>
		<polygon class="st0" points="507.5,503.9 507.9,503.2 508.2,503.4 508,507 507.6,507.4 507.3,507.3 		"/>
		<polygon class="st0" points="507.2,507.5 507.5,507.7 507.2,508.3 503.9,510.1 503.6,509.9 503.9,509.4 		"/>
		<polygon class="st0" points="503.5,509.9 503.8,509.2 504.1,505.9 503.7,505.7 503.4,506.4 503.1,509.7 		"/>
		<path class="st0" d="M509.7,506.4c0-0.3-0.2-0.4-0.5-0.3s-0.5,0.5-0.5,0.8s0.2,0.4,0.5,0.3C509.4,507,509.7,506.7,509.7,506.4z"/>
	</g>
	<g>
		<polygon class="st0" points="512.2,495.9 515.4,494.1 515.7,494.2 515.3,494.9 512.1,496.8 511.8,496.6 		"/>
		<polygon class="st0" points="515.8,494.3 515.5,494.9 515.2,498.4 515.5,498.5 515.9,497.9 516.1,494.5 		"/>
		<polygon class="st0" points="511.7,496.8 512,497 511.7,500.4 511.3,501 511.1,500.8 511.3,497.5 		"/>
		<polygon class="st0" points="511.5,501.1 511.8,500.4 515,498.6 515.4,498.8 514.9,499.5 511.8,501.3 		"/>
		<polygon class="st0" points="515.1,499.5 515.5,498.8 515.8,499 515.5,502.6 515.2,503.1 514.9,502.9 		"/>
		<polygon class="st0" points="514.7,503.1 515.1,503.3 514.8,503.9 511.5,505.8 511.2,505.6 511.5,505 		"/>
		<polygon class="st0" points="511,505.5 511.4,504.9 511.6,501.5 511.3,501.4 510.9,502 510.7,505.3 		"/>
		<path class="st0" d="M517.2,502c0-0.3-0.2-0.4-0.5-0.3c-0.3,0.1-0.5,0.5-0.5,0.8s0.2,0.4,0.5,0.3C517,502.7,517.2,502.3,517.2,502
			z"/>
	</g>
	<g>
		<polygon class="st0" points="519.7,491.6 523,489.7 523.3,489.9 522.9,490.5 519.7,492.4 519.4,492.2 		"/>
		<polygon class="st0" points="523.4,490 523,490.6 522.8,494 523.1,494.1 523.4,493.5 523.7,490.2 		"/>
		<polygon class="st0" points="519.3,492.4 519.5,492.6 519.3,496 518.9,496.6 518.6,496.5 518.8,493.1 		"/>
		<polygon class="st0" points="519,496.7 519.4,496.1 522.6,494.2 522.9,494.4 522.5,495.1 519.3,496.9 		"/>
		<polygon class="st0" points="522.7,495.2 523.1,494.5 523.4,494.6 523.1,498.2 522.8,498.7 522.4,498.5 		"/>
		<polygon class="st0" points="522.3,498.8 522.6,499 522.3,499.5 519.1,501.4 518.7,501.2 519.1,500.6 		"/>
		<polygon class="st0" points="518.6,501.1 518.9,500.5 519.2,497.2 518.8,497 518.5,497.7 518.3,500.9 		"/>
		<path class="st0" d="M524.8,497.6c0-0.3-0.2-0.4-0.5-0.3c-0.3,0.1-0.5,0.5-0.5,0.8s0.2,0.4,0.5,0.3
			C524.6,498.3,524.8,497.9,524.8,497.6z"/>
	</g>
	<g>
		<polygon class="st0" points="527.3,487.2 530.5,485.3 530.8,485.5 530.4,486.2 527.2,488 526.9,487.9 		"/>
		<polygon class="st0" points="531,485.6 530.6,486.2 530.3,489.7 530.7,489.8 531,489.1 531.3,485.8 		"/>
		<polygon class="st0" points="526.8,488.1 527.1,488.2 526.8,491.6 526.5,492.3 526.2,492.1 526.4,488.7 		"/>
		<polygon class="st0" points="526.6,492.3 527,491.7 530.1,489.9 530.5,490 530.1,490.7 526.9,492.5 		"/>
		<polygon class="st0" points="530.2,490.8 530.6,490.1 530.9,490.3 530.6,493.9 530.3,494.3 530,494.2 		"/>
		<polygon class="st0" points="529.9,494.4 530.2,494.6 529.9,495.2 526.6,497 526.3,496.8 526.6,496.3 		"/>
		<polygon class="st0" points="526.2,496.8 526.5,496.1 526.7,492.8 526.4,492.6 526.1,493.3 525.8,496.6 		"/>
		<path class="st0" d="M532.3,493.3c0-0.3-0.2-0.4-0.5-0.3c-0.3,0.1-0.5,0.5-0.5,0.8s0.2,0.4,0.5,0.3
			C532.1,493.9,532.3,493.6,532.3,493.3z"/>
	</g>
	<g>
		<polygon class="st0" points="534.9,482.8 538.1,481 538.4,481.1 538,481.8 534.8,483.7 534.5,483.5 		"/>
		<polygon class="st0" points="538.5,481.2 538.1,481.8 537.9,485.3 538.2,485.4 538.6,484.8 538.8,481.4 		"/>
		<polygon class="st0" points="534.4,483.7 534.7,483.9 534.4,487.3 534,487.9 533.7,487.7 534,484.4 		"/>
		<polygon class="st0" points="534.2,488 534.5,487.3 537.7,485.5 538.1,485.7 537.6,486.4 534.5,488.2 		"/>
		<polygon class="st0" points="537.8,486.4 538.2,485.7 538.5,485.9 538.2,489.5 537.9,490 537.6,489.8 		"/>
		<polygon class="st0" points="537.4,490 537.8,490.2 537.5,490.8 534.2,492.7 533.8,492.5 534.2,491.9 		"/>
		<polygon class="st0" points="533.7,492.4 534.1,491.8 534.3,488.4 534,488.3 533.6,488.9 533.4,492.2 		"/>
		<path class="st0" d="M539.9,488.9c0-0.3-0.2-0.4-0.5-0.3c-0.3,0.1-0.5,0.5-0.5,0.8s0.2,0.4,0.5,0.3
			C539.7,489.6,539.9,489.2,539.9,488.9z"/>
	</g>
	<g>
		<polygon class="st0" points="542.4,478.5 545.6,476.6 545.9,476.8 545.6,477.4 542.3,479.3 542.1,479.1 		"/>
		<polygon class="st0" points="546.1,476.9 545.7,477.5 545.4,480.9 545.8,481 546.1,480.4 546.4,477.1 		"/>
		<polygon class="st0" points="542,479.3 542.2,479.5 542,482.9 541.6,483.5 541.3,483.4 541.5,480 		"/>
		<polygon class="st0" points="541.7,483.6 542.1,483 545.3,481.1 545.6,481.3 545.2,482 542,483.8 		"/>
		<polygon class="st0" points="545.4,482.1 545.8,481.4 546.1,481.5 545.8,485.1 545.5,485.6 545.1,485.4 		"/>
		<polygon class="st0" points="545,485.7 545.3,485.9 545,486.4 541.8,488.3 541.4,488.1 541.8,487.5 		"/>
		<polygon class="st0" points="541.3,488 541.6,487.4 541.9,484.1 541.5,483.9 541.2,484.6 540.9,487.8 		"/>
		<path class="st0" d="M547.5,484.5c0-0.3-0.2-0.4-0.5-0.3c-0.3,0.1-0.5,0.5-0.5,0.8s0.2,0.4,0.5,0.3
			C547.3,485.2,547.5,484.8,547.5,484.5z"/>
	</g>
	<g>
		<polygon class="st0" points="550,474.1 553.2,472.2 553.5,472.4 553.1,473.1 549.9,474.9 549.6,474.8 		"/>
		<polygon class="st0" points="553.6,472.5 553.3,473.1 553,476.6 553.3,476.7 553.7,476 554,472.7 		"/>
		<polygon class="st0" points="549.5,475 549.8,475.1 549.5,478.5 549.2,479.2 548.9,479 549.1,475.6 		"/>
		<polygon class="st0" points="549.3,479.2 549.7,478.6 552.8,476.8 553.2,476.9 552.7,477.6 549.6,479.4 		"/>
		<polygon class="st0" points="552.9,477.7 553.3,477 553.6,477.2 553.3,480.8 553,481.2 552.7,481.1 		"/>
		<polygon class="st0" points="552.6,481.3 552.9,481.5 552.6,482.1 549.3,483.9 549,483.7 549.3,483.2 		"/>
		<polygon class="st0" points="548.8,483.7 549.2,483 549.4,479.7 549.1,479.5 548.7,480.2 548.5,483.5 		"/>
		<path class="st0" d="M555,480.2c0-0.3-0.2-0.4-0.5-0.3c-0.3,0.1-0.5,0.5-0.5,0.8s0.2,0.4,0.5,0.3C554.8,480.8,555,480.5,555,480.2
			z"/>
	</g>
	<g>
		<polygon class="st0" points="557.6,469.7 560.8,467.9 561.1,468 560.7,468.7 557.5,470.6 557.2,470.4 		"/>
		<polygon class="st0" points="561.2,468.1 560.8,468.7 560.6,472.2 560.9,472.3 561.3,471.7 561.5,468.3 		"/>
		<polygon class="st0" points="557.1,470.6 557.4,470.8 557.1,474.2 556.7,474.8 556.4,474.6 556.7,471.3 		"/>
		<polygon class="st0" points="556.9,474.9 557.2,474.2 560.4,472.4 560.7,472.6 560.3,473.3 557.2,475.1 		"/>
		<polygon class="st0" points="560.5,473.3 560.9,472.6 561.2,472.8 560.9,476.4 560.6,476.9 560.2,476.7 		"/>
		<polygon class="st0" points="560.1,476.9 560.5,477.1 560.1,477.7 556.9,479.6 556.5,479.4 556.9,478.8 		"/>
		<polygon class="st0" points="556.4,479.3 556.8,478.7 557,475.3 556.7,475.2 556.3,475.8 556.1,479.1 		"/>
		<path class="st0" d="M562.6,475.8c0-0.3-0.2-0.4-0.5-0.3c-0.3,0.1-0.5,0.5-0.5,0.8s0.2,0.4,0.5,0.3
			C562.4,476.5,562.6,476.1,562.6,475.8z"/>
	</g>
	<g>
		<polygon class="st0" points="565.1,465.4 568.3,463.5 568.6,463.7 568.3,464.3 565,466.2 564.7,466 		"/>
		<polygon class="st0" points="568.8,463.8 568.4,464.4 568.1,467.8 568.5,467.9 568.8,467.3 569.1,464 		"/>
		<polygon class="st0" points="564.6,466.2 564.9,466.4 564.7,469.8 564.3,470.4 564,470.3 564.2,466.9 		"/>
		<polygon class="st0" points="564.4,470.5 564.8,469.9 568,468 568.3,468.2 567.9,468.9 564.7,470.7 		"/>
		<polygon class="st0" points="568,469 568.4,468.3 568.7,468.4 568.5,472 568.2,472.5 567.8,472.3 		"/>
		<polygon class="st0" points="567.7,472.6 568,472.8 567.7,473.3 564.4,475.2 564.1,475 564.5,474.4 		"/>
		<polygon class="st0" points="564,474.9 564.3,474.3 564.6,471 564.2,470.8 563.9,471.5 563.6,474.7 		"/>
		<path class="st0" d="M570.2,471.4c0-0.3-0.2-0.4-0.5-0.3c-0.3,0.1-0.5,0.5-0.5,0.8s0.2,0.4,0.5,0.3
			C570,472.1,570.2,471.7,570.2,471.4z"/>
	</g>
	<g>
		<polygon class="st0" points="572.7,461 575.9,459.1 576.2,459.3 575.8,460 572.6,461.8 572.3,461.7 		"/>
		<polygon class="st0" points="576.3,459.4 576,460 575.7,463.5 576,463.6 576.4,462.9 576.6,459.6 		"/>
		<polygon class="st0" points="572.2,461.9 572.5,462 572.2,465.4 571.8,466.1 571.6,465.9 571.8,462.5 		"/>
		<polygon class="st0" points="572,466.1 572.3,465.5 575.5,463.7 575.9,463.8 575.4,464.5 572.3,466.3 		"/>
		<polygon class="st0" points="575.6,464.6 576,463.9 576.3,464.1 576,467.7 575.7,468.1 575.4,468 		"/>
		<polygon class="st0" points="575.2,468.2 575.6,468.4 575.3,469 572,470.8 571.7,470.6 572,470.1 		"/>
		<polygon class="st0" points="571.5,470.6 571.9,469.9 572.1,466.6 571.8,466.4 571.4,467.1 571.2,470.4 		"/>
		<path class="st0" d="M577.7,467.1c0-0.3-0.2-0.4-0.5-0.3c-0.3,0.1-0.5,0.5-0.5,0.8s0.2,0.4,0.5,0.3
			C577.5,467.7,577.7,467.4,577.7,467.1z"/>
	</g>
</g>
</svg>
