<?xml version="1.0" encoding="utf-8"?>
<!-- Generator: Adobe Illustrator 19.2.0, SVG Export Plug-In . SVG Version: 6.00 Build 0)  -->
<svg version="1.0" id="Layer_1" xmlns="http://www.w3.org/2000/svg" xmlns:xlink="http://www.w3.org/1999/xlink" x="0px" y="0px"
	 width="1000px" height="1000px" viewBox="0 0 1000 1000" enable-background="new 0 0 1000 1000" xml:space="preserve">
<path opacity="0.2" fill="none" stroke="#000000" stroke-miterlimit="10" enable-background="new    " d="M-54.2,40
	c2.4,6.6,7.7,11.9,14.3,14.3c6.1,2,11.8,2,23,2h34c11.2,0,16.9,0,23-2c6.6-2.4,11.9-7.7,14.3-14.3c2-6.1,2-11.8,2-23v-34
	c0-11.2,0-16.9-2-23c-2.4-6.6-7.7-11.9-14.3-14.3c-6.1-2-11.8-2-23-2h-34c-11.2,0-16.9,0-23,2c-6.6,2.4-11.9,7.7-14.3,14.3
	c-2,6.1-2,11.8-2,23v34C-56.1,28.2-56.1,33.9-54.2,40z"/>
</svg>
