<?xml version="1.0" encoding="utf-8"?>
<!-- Generator: Adobe Illustrator 19.2.0, SVG Export Plug-In . SVG Version: 6.00 Build 0)  -->
<svg version="1.1" id="Layer_1" xmlns="http://www.w3.org/2000/svg" xmlns:xlink="http://www.w3.org/1999/xlink" x="0px" y="0px"
	 width="2834.6px" height="2834.6px" viewBox="0 0 2834.6 2834.6" style="enable-background:new 0 0 2834.6 2834.6;"
	 xml:space="preserve">
<style type="text/css">
	.st0{fill:none;stroke:#000000;stroke-width:0.7087;stroke-miterlimit:10;}
</style>
<path class="st0" d="M-134.6-49c0-0.2,0-0.4,0-0.7s0-0.4,0-0.7v-12.9c0-4.3,0-6.4,0.7-8.7c0.9-2.5,2.9-4.5,5.4-5.4
	c2.3-0.7,4.4-0.7,8.7-0.7h6.4h6.4h213.9h6.4h6.4c4.3,0,6.4,0,8.7,0.7c2.5,0.9,4.5,2.9,5.4,5.4c0.7,2.3,0.7,4.4,0.7,8.7v12.9
	c0,0.2,0,0.4,0,0.7s0,0.4,0,0.7v12.9c0,4.3,0,6.4-0.7,8.7c-0.9,2.5-2.9,4.5-5.4,5.4c-2.3,0.7-4.4,0.7-8.7,0.7h-6.4h-6.4H-107h-6.4
	h-6.4c-4.3,0-6.4,0-8.7-0.7c-2.5-0.9-4.5-2.9-5.4-5.4c-0.7-2.3-0.7-4.4-0.7-8.7V-49z"/>
</svg>
