<?xml version="1.0" encoding="utf-8"?>
<!-- Generator: Adobe Illustrator 19.2.0, SVG Export Plug-In . SVG Version: 6.00 Build 0)  -->
<svg version="1.1" id="Layer_1" xmlns="http://www.w3.org/2000/svg" xmlns:xlink="http://www.w3.org/1999/xlink" x="0px" y="0px"
	 width="1000px" height="1000px" viewBox="0 0 1000 1000" style="enable-background:new 0 0 1000 1000;" xml:space="preserve">
<style type="text/css">
	.st0{opacity:0.2;fill:none;stroke:#000000;stroke-miterlimit:10;enable-background:new    ;}
</style>
<path class="st0" d="M-33,24.3c1.5,4,4.7,7.2,8.7,8.7c3.7,1.2,7.2,1.2,14,1.2h20.7c6.8,0,10.3,0,14-1.2c4-1.5,7.2-4.7,8.7-8.7
	c1.2-3.7,1.2-7.2,1.2-14v-20.7c0-6.8,0-10.3-1.2-14c-1.5-4-4.7-7.2-8.7-8.7c-3.7-1.2-7.2-1.2-14-1.2h-20.7c-6.8,0-10.3,0-14,1.2
	c-4,1.5-7.2,4.7-8.7,8.7c-1.2,3.7-1.2,7.2-1.2,14v20.7C-34.2,17.2-34.2,20.6-33,24.3z"/>
</svg>
