<?xml version="1.0" encoding="utf-8"?>
<!-- Generator: Adobe Illustrator 19.2.0, SVG Export Plug-In . SVG Version: 6.00 Build 0)  -->
<svg version="1.1" id="Layer_1" xmlns="http://www.w3.org/2000/svg" xmlns:xlink="http://www.w3.org/1999/xlink" x="0px" y="0px"
	 width="1000px" height="1000px" viewBox="0 0 1000 1000" style="enable-background:new 0 0 1000 1000;" xml:space="preserve">
<style type="text/css">
	.st0{fill:#FFFFFF;}
</style>
<path class="st0" d="M11.1,17.7c1.2,0,2.2,1,2.2,2.2s-1,2.2-2.2,2.2h-22.2c-1.2,0-2.2-1-2.2-2.2s1-2.2,2.2-2.2H11.1"/>
<path class="st0" d="M11.1,24.3c1.2,0,2.2,1,2.2,2.2s-1,2.2-2.2,2.2h-22.2c-1.2,0-2.2-1-2.2-2.2s1-2.2,2.2-2.2H11.1"/>
<path class="st0" d="M8.9,31c0,2.4-2,4.4-4.4,4.4h-8.9c-2.4,0-4.4-2-4.4-4.4L8.9,31"/>
<path class="st0" d="M0-40.5c-15,0-27.2,12.2-27.2,27.2c0,7.5,2.4,11.9,4.7,15.6c1.9,3.2,3.4,6,4,11.2c0,1.1,0.3,2.2,0.9,3.2
	c-0.4,0.9-0.7,2-0.7,3.1c0,1.2,0.3,2.3,0.8,3.3c-0.6,1-0.8,2.1-0.8,3.3c0,3.1,2,5.8,4.8,6.8c1.1,4.1,4.8,7.1,9.2,7.1h8.9
	c4.4,0,8.1-3,9.2-7.1c2.8-1,4.8-3.7,4.8-6.8c0-1.2-0.3-2.3-0.8-3.3c0.6-1,0.8-2.1,0.8-3.3c0-1.1-0.2-2.1-0.7-3.1
	c0.6-1,0.9-2,0.9-3.2c0.6-5.2,2.1-8,4-11.2c2.2-3.8,4.7-8.1,4.7-15.6C27.2-28.3,15-40.5,0-40.5L0-40.5z"/>
</svg>
