<?xml version="1.0" encoding="utf-8"?>
<!-- Generator: Adobe Illustrator 19.2.0, SVG Export Plug-In . SVG Version: 6.00 Build 0)  -->
<svg version="1.1" id="Layer_1" xmlns="http://www.w3.org/2000/svg" xmlns:xlink="http://www.w3.org/1999/xlink" x="0px" y="0px"
	 width="1000px" height="1000px" viewBox="0 0 1000 1000" style="enable-background:new 0 0 1000 1000;" xml:space="preserve">
<style type="text/css">
	.st0{fill:none;stroke:#FF0000;stroke-miterlimit:10;}
</style>
<path class="st0" d="M18.3-27.3l-1.8,8.9c-0.2,0.9-1.1,1.8-2.2,1.8h-16c-1.8,0-3.3,1.5-3.3,3.3v1.9c0,1.8,1.5,3.3,3.3,3.3h13.5
	c1.3,0,2.3,1.2,2,2.5c-0.3,1.4-1.7,8.3-1.8,9c-0.1,0.8-0.9,1.8-2.2,1.8h-11C-3.5,5.2-4,5.3-5.4,6.9c-1.4,1.7-13.4,16.8-13.4,16.8
	c-0.1,0.2-0.2,0.1-0.2-0.1v-51.4c0-1.2,1-2.2,2.2-2.2h33.1C17.5-29.9,18.6-28.7,18.3-27.3"/>
<path class="st0" d="M20.7-38.3c0,0-35.2,0-40.9,0c-5.6,0-7.3,4.3-7.3,6.9v65c0,3.2,1.6,4.1,2.5,4.5c0.9,0.4,3.3,0.6,4.9-1
	c0,0,19.4-22.6,19.7-23c0.3-0.4,0.5-0.4,0.7-0.4c0.2,0,8.2,0,12.3,0c5.2,0,6.2-3.6,6.8-5.8C20,6,25.4-20.2,27.1-28.5
	C28.3-34.9,26.7-38.3,20.7-38.3"/>
</svg>
