<?xml version="1.0" encoding="utf-8"?>
<!-- Generator: Adobe Illustrator 19.2.0, SVG Export Plug-In . SVG Version: 6.00 Build 0)  -->
<svg version="1.1" id="Layer_1" xmlns="http://www.w3.org/2000/svg" xmlns:xlink="http://www.w3.org/1999/xlink" x="0px" y="0px"
	 width="1000px" height="1000px" viewBox="0 0 1000 1000" style="enable-background:new 0 0 1000 1000;" xml:space="preserve">
<style type="text/css">
	.st0{fill:#FFFFFF;}
</style>
<g>
	<g>
		<g>
			<path class="st0" d="M-31.7,12.6c-2,0-3.6-1.6-3.6-3.6V-9.1c0-2,1.6-3.6,3.6-3.6c2,0,3.6,1.6,3.6,3.6V9.1
				C-28.1,11-29.7,12.6-31.7,12.6z"/>
		</g>
		<g>
			<path class="st0" d="M-21.1,21.7c-2,0-3.6-1.6-3.6-3.6v-36.2c0-2,1.6-3.6,3.6-3.6s3.6,1.6,3.6,3.6v36.2
				C-17.5,20.1-19.1,21.7-21.1,21.7z"/>
		</g>
		<g>
			<path class="st0" d="M-10.6,17.2c-2,0-3.6-1.6-3.6-3.6v-27.2c0-2,1.6-3.6,3.6-3.6S-7-15.6-7-13.6v27.2
				C-6.9,15.6-8.5,17.2-10.6,17.2z"/>
		</g>
		<g>
			<path class="st0" d="M0,26.2c-2,0-3.6-1.6-3.6-3.6v-45.3c0-2,1.6-3.6,3.6-3.6s3.6,1.6,3.6,3.6v45.3C3.6,24.6,2,26.2,0,26.2z"/>
		</g>
		<g>
			<path class="st0" d="M10.6,35.3c-2,0-3.6-1.6-3.6-3.6v-63.4c0-2,1.6-3.6,3.6-3.6s3.6,1.6,3.6,3.6v63.4
				C14.2,33.7,12.6,35.3,10.6,35.3z"/>
		</g>
		<g>
			<path class="st0" d="M21.1,21.7c-2,0-3.6-1.6-3.6-3.6v-36.2c0-2,1.6-3.6,3.6-3.6c2,0,3.6,1.6,3.6,3.6v36.2
				C24.8,20.1,23.2,21.7,21.1,21.7z"/>
		</g>
		<g>
			<path class="st0" d="M31.7,8.1c-2,0-3.6-1.6-3.6-3.6v-9.1c0-2,1.6-3.6,3.6-3.6c2,0,3.6,1.6,3.6,3.6v9.1
				C35.3,6.5,33.7,8.1,31.7,8.1z"/>
		</g>
	</g>
</g>
</svg>
