<?xml version="1.0" encoding="utf-8"?>
<!-- Generator: Adobe Illustrator 19.2.0, SVG Export Plug-In . SVG Version: 6.00 Build 0)  -->
<svg version="1.1" id="Layer_1" xmlns="http://www.w3.org/2000/svg" xmlns:xlink="http://www.w3.org/1999/xlink" x="0px" y="0px"
	 width="2834.6px" height="2834.6px" viewBox="0 0 2834.6 2834.6" style="enable-background:new 0 0 2834.6 2834.6;"
	 xml:space="preserve">
<style type="text/css">
	.st0{fill:#E6E7E8;stroke:#000000;stroke-width:0.7087;stroke-miterlimit:10;}
</style>
<path class="st0" d="M0.1-169.4c-58.5,0-105.9,47.4-105.9,105.9v95v53.2v10.9c0,21.3,0,31.9,3.6,43.3c4.5,12.5,14.4,22.3,26.9,26.9
	c11.4,3.6,22.1,3.6,43.3,3.6h64.1c21.3,0,31.9,0,43.3-3.6c12.5-4.5,22.3-14.4,26.9-26.9c3.6-11.4,3.6-22.1,3.6-43.3V84.7V31.5v-95
	C105.8-122,58.5-169.4,0.1-169.4z M63.6,79.1c0,12.8,0,19.1-2.2,26c-2.7,7.5-8.6,13.4-16.1,16.1c-6.9,2.2-13.2,2.2-26,2.2h-38.5
	c-12.8,0-19.1,0-26-2.2c-7.5-2.7-13.4-8.6-16.1-16.1c-2.2-6.9-2.2-13.2-2.2-26V40.6c0-12.8,0-19.1,2.2-26
	c2.7-7.5,8.6-13.4,16.1-16.1c6.9-2.2,13.2-2.2,26-2.2h38.5c12.8,0,19.1,0,26,2.2c7.5,2.7,13.4,8.6,16.1,16.1
	c2.2,6.9,2.2,13.2,2.2,26V79.1z"/>
</svg>
