<?xml version="1.0" encoding="utf-8"?>
<!-- Generator: Adobe Illustrator 19.1.0, SVG Export Plug-In . SVG Version: 6.00 Build 0)  -->
<svg version="1.1" id="Layer_1" xmlns="http://www.w3.org/2000/svg" xmlns:xlink="http://www.w3.org/1999/xlink" x="0px" y="0px"
	 viewBox="0 0 1000 1000" style="enable-background:new 0 0 1000 1000;" xml:space="preserve">
<path d="M-15.1,15.6c1.4-3.4,4.8-7,10.1-10.8c4.6-3.3,7.6-5.7,9-7.1C6.1-4.5,7.1-7,7.1-9.6c0-2.2-0.6-3.9-1.8-5.4
	c-1.2-1.4-2.9-2.1-5.1-2.1c-3,0-5.1,1.1-6.2,3.4c-0.6,1.3-1,3.4-1.1,6.3h-9.7c0.2-4.3,0.9-7.8,2.4-10.5c2.7-5.1,7.4-7.6,14.3-7.6
	c5.4,0,9.7,1.5,12.9,4.5c3.2,3,4.8,6.9,4.8,11.9c0,3.8-1.1,7.1-3.4,10.1c-1.5,1.9-3.9,4.1-7.3,6.5l-4,2.8c-2.5,1.8-4.2,3.1-5.2,3.9
	c-0.9,0.8-1.7,1.7-2.3,2.8h22.3v8.8h-34.9C-17.4,22-16.6,18.6-15.1,15.6z"/>
<g>
</g>
<g>
</g>
<g>
</g>
<g>
</g>
<g>
</g>
<g>
</g>
</svg>
