<?xml version="1.0" encoding="utf-8"?>
<!-- Generator: Adobe Illustrator 19.1.0, SVG Export Plug-In . SVG Version: 6.00 Build 0)  -->
<svg version="1.1" id="Layer_1" xmlns="http://www.w3.org/2000/svg" xmlns:xlink="http://www.w3.org/1999/xlink" x="0px" y="0px"
	 viewBox="0 0 1000 1000" style="enable-background:new 0 0 1000 1000;" xml:space="preserve">
<path d="M-13-21.4c3.2-3.4,7.2-5.1,12.3-5.1c7.8,0,13.1,3.4,16,10.3c1.6,3.9,2.5,9,2.5,15.4c0,6.2-0.8,11.3-2.4,15.4
	c-3,7.9-8.5,11.8-16.5,11.8c-3.8,0-7.3-1.1-10.3-3.4c-3-2.3-4.8-5.6-5.2-9.9h10c0.2,1.5,0.9,2.7,1.9,3.7c1,0.9,2.4,1.4,4.1,1.4
	c3.3,0,5.6-1.8,7-5.5c0.7-2,1.2-5,1.4-8.8c-0.9,1.1-1.9,2-2.9,2.6C2.8,7.7,0.5,8.2-2.2,8.2C-6.3,8.2-9.9,6.8-13,4
	c-3.1-2.8-4.7-6.8-4.7-12.1C-17.7-13.5-16.1-18-13-21.4z M3.9-1.1c2.3-1.5,3.4-4,3.4-7.6c0-2.9-0.7-5.2-2-6.9
	c-1.3-1.7-3.2-2.5-5.5-2.5c-1.7,0-3.2,0.5-4.4,1.4c-1.9,1.5-2.9,4-2.9,7.6c0,3,0.6,5.3,1.8,6.8S-2.6,0.1,0,0.1
	C1.3,0.1,2.6-0.3,3.9-1.1z"/>
<g>
</g>
<g>
</g>
<g>
</g>
<g>
</g>
<g>
</g>
<g>
</g>
</svg>
