<?xml version="1.0" encoding="utf-8"?>
<!-- Generator: Adobe Illustrator 19.1.0, SVG Export Plug-In . SVG Version: 6.00 Build 0)  -->
<svg version="1.1" id="Layer_1" xmlns="http://www.w3.org/2000/svg" xmlns:xlink="http://www.w3.org/1999/xlink" x="0px" y="0px"
	 viewBox="0 0 1000 1000" style="enable-background:new 0 0 1000 1000;" xml:space="preserve">
<style type="text/css">
	.st0{fill:#FFFFFF;}
</style>
<path class="st0" d="M30.6,14.7c-1-0.9-1.9-1.7-2.5-2.7c0,0,0-0.1-0.1-0.1C26.3,9.1,25.7,3.1,25.3-1c-0.1-0.5-0.1-1.1-0.1-1.5
	c0,0,0-0.1,0-0.1c-0.8-5.3-2.6-12.8-7.2-19c-3.4-4.5-7.6-7.5-12.6-8.7v-0.4c0-3-2.4-5.4-5.4-5.4c-3,0-5.4,2.4-5.4,5.4v0.4
	c-4.9,1.2-9.2,4.2-12.6,8.7c-4.6,6.2-6.4,13.8-7.2,19c0,0,0,0.1,0,0.1c0,0.5-0.1,1-0.1,1.5c-0.4,4-1,10.1-2.7,12.9
	c0,0,0,0.1-0.1,0.1c-0.6,1-1.5,1.8-2.5,2.7c-2.2,1.9-5.5,4.8-2.5,10.4c0.4,0.7,1.2,1.2,2,1.2h20.4c0.5,5.5,5.1,9.9,10.8,9.9
	c5.6,0,10.3-4.3,10.8-9.9h20.4c0.8,0,1.6-0.5,2-1.2C36.1,19.5,32.8,16.6,30.6,14.7z M0,30.4c-2.5,0-4.6-1.8-5-4.2H5
	C4.6,28.6,2.5,30.4,0,30.4z"/>
<g>
</g>
<g>
</g>
<g>
</g>
<g>
</g>
<g>
</g>
<g>
</g>
</svg>
