<?xml version="1.0" encoding="utf-8"?>
<!-- Generator: Adobe Illustrator 19.1.0, SVG Export Plug-In . SVG Version: 6.00 Build 0)  -->
<svg version="1.1" id="Layer_1" xmlns="http://www.w3.org/2000/svg" xmlns:xlink="http://www.w3.org/1999/xlink" x="0px" y="0px"
	 viewBox="0 0 1000 1000" style="enable-background:new 0 0 1000 1000;" xml:space="preserve">
<style type="text/css">
	.st0{fill:#6D6E71;}
</style>
<path class="st0" d="M-0.8-72v50.9c0.4-1.9,1-3.7,1.6-5.5V-72H-0.8z"/>
<rect x="-19" y="-72" class="st0" width="1.6" height="68.9"/>
<path class="st0" d="M20-72v24.7c0.5-0.2,1.1-0.4,1.6-0.6V-72H20z"/>
<path class="st0" d="M-3.4-72v68.9h0.8c0-4.6,0.3-8.7,0.8-12.6V-72H-3.4z"/>
<path class="st0" d="M27.8-23.6v20.5h1.6v-21.8C28.8-24.5,28.3-24,27.8-23.6z"/>
<rect x="-6" y="15.5" class="st0" width="1.6" height="56.5"/>
<path class="st0" d="M25.2-20.3v17.2h1.6v-19.4C26.2-21.8,25.7-21.1,25.2-20.3z"/>
<rect x="-11.2" y="15.5" class="st0" width="1.6" height="56.5"/>
<rect x="-8.6" y="15.5" class="st0" width="1.6" height="56.5"/>
<path class="st0" d="M4.4-72v37.9c0.5-0.8,1-1.6,1.6-2.4V-72H4.4z"/>
<path class="st0" d="M17.4-72v26c0.5-0.3,1.1-0.5,1.6-0.8V-72H17.4z"/>
<path class="st0" d="M50.2-52.2v-19c-0.5-0.1-1.1-0.2-1.6-0.3v19.4C49.1-52.2,49.7-52.2,50.2-52.2z"/>
<path class="st0" d="M9.6-72v31.5c0.5-0.5,1.1-1,1.6-1.4V-72H9.6z"/>
<path class="st0" d="M47.6-52.2v-19.5c-0.5-0.1-1.1-0.1-1.6-0.2v19.7C46.5-52.2,47.1-52.2,47.6-52.2z"/>
<path class="st0" d="M14.8-72v27.5c0.5-0.3,1.1-0.6,1.6-1V-72H14.8z"/>
<path class="st0" d="M45-52.1V-72c-0.4,0-0.9,0-1.3,0h-0.3v20C43.9-52.1,44.5-52.1,45-52.1z"/>
<path class="st0" d="M42.4-52v-20h-1.6v20.1C41.3-51.9,41.9-51.9,42.4-52z"/>
<path class="st0" d="M12.2-72v29.3c0.5-0.4,1.1-0.8,1.6-1.2V-72H12.2z"/>
<path class="st0" d="M7-72v34.3c0.5-0.6,1-1.2,1.6-1.8V-72H7z"/>
<path class="st0" d="M48.6-3.1h1.6v-26.7c-0.5,0-1.1,0-1.6,0V-3.1z"/>
<path class="st0" d="M1.8-72v42.9c0.5-1.1,1-2.3,1.6-3.3V-72H1.8z"/>
<rect x="-19" y="15.5" class="st0" width="1.6" height="56.5"/>
<path class="st0" d="M43.4-29.5v26.4H45v-26.6C44.5-29.6,43.9-29.6,43.4-29.5z"/>
<path class="st0" d="M40.8-29.2v26.1h1.6v-26.3C41.9-29.3,41.3-29.3,40.8-29.2z"/>
<rect x="-11.2" y="-72" class="st0" width="1.6" height="68.9"/>
<rect x="-13.8" y="-72" class="st0" width="1.6" height="68.9"/>
<rect x="-16.4" y="-72" class="st0" width="1.6" height="68.9"/>
<rect x="-3.4" y="15.5" class="st0" width="0.8" height="56.5"/>
<path class="st0" d="M-71-51.1V51.1c0.4,1.5,1,3,1.6,4.4v-111C-70.1-54.1-70.6-52.6-71-51.1z"/>
<path class="st0" d="M46-29.7v26.6h1.6v-26.7C47.1-29.7,46.5-29.7,46-29.7z"/>
<path class="st0" d="M-68.4-57.5V57.5c0.5,0.9,1,1.7,1.6,2.5V-60C-67.4-59.2-67.9-58.3-68.4-57.5z"/>
<path class="st0" d="M33-27v23.9h1.6v-24.6C34.1-27.5,33.5-27.2,33-27z"/>
<path class="st0" d="M24.2-18.4c-0.7,1.4-1.2,3-1.6,4.7v10.6h1.6V-18.4z"/>
<rect x="-13.8" y="15.5" class="st0" width="1.6" height="56.5"/>
<path class="st0" d="M30.4-25.6v22.5H32v-23.5C31.4-26.3,30.9-25.9,30.4-25.6z"/>
<rect x="-6" y="-72" class="st0" width="1.6" height="68.9"/>
<path class="st0" d="M38.2-28.7v25.6h1.6V-29C39.3-28.9,38.7-28.8,38.2-28.7z"/>
<rect x="-8.6" y="-72" class="st0" width="1.6" height="68.9"/>
<rect x="-16.4" y="15.5" class="st0" width="1.6" height="56.5"/>
<path class="st0" d="M35.6-28v24.9h1.6v-25.4C36.7-28.3,36.1-28.2,35.6-28z"/>
<path class="st0" d="M-63.2-64.2V64.2c0.5,0.5,1,1,1.6,1.4V-65.6C-62.2-65.1-62.7-64.7-63.2-64.2z"/>
<rect x="-29.4" y="-72" class="st0" width="1.6" height="144"/>
<path class="st0" d="M64.2-63.2V63.2c0.6-0.6,1.1-1.2,1.6-1.8V-61.3C65.3-62,64.8-62.6,64.2-63.2z"/>
<path class="st0" d="M66.8-60V60c0.6-0.8,1.1-1.7,1.6-2.5V-57.5C67.9-58.3,67.4-59.2,66.8-60z"/>
<rect x="27.8" y="15.5" class="st0" width="1.6" height="56.5"/>
<rect x="33" y="15.5" class="st0" width="1.6" height="56.5"/>
<rect x="30.4" y="15.5" class="st0" width="1.6" height="56.5"/>
<rect x="-26.8" y="-72" class="st0" width="1.6" height="144"/>
<rect x="22.6" y="15.5" class="st0" width="1.6" height="56.5"/>
<path class="st0" d="M69.4-55.5v111c0.6-1.4,1.2-2.9,1.6-4.4V-51.1C70.6-52.6,70.1-54.1,69.4-55.5z"/>
<rect x="25.2" y="15.5" class="st0" width="1.6" height="56.5"/>
<path class="st0" d="M56.4-69V69c0.5-0.3,1.1-0.6,1.6-0.9V-68.1C57.5-68.4,56.9-68.7,56.4-69z"/>
<rect x="-32" y="-72" class="st0" width="1.6" height="144"/>
<rect x="35.6" y="15.5" class="st0" width="1.6" height="56.5"/>
<path class="st0" d="M46,15.5v56.4c0.5,0,1.1-0.1,1.6-0.2V15.5H46z"/>
<path class="st0" d="M-47.6-71.7V71.7c0.5,0.1,1.1,0.1,1.6,0.2V-71.9C-46.5-71.9-47.1-71.8-47.6-71.7z"/>
<path class="st0" d="M48.6,15.5v56.1c0.5-0.1,1.1-0.2,1.6-0.3V15.5H48.6z"/>
<rect x="-34.6" y="-72" class="st0" width="1.6" height="144"/>
<rect x="-37.2" y="-72" class="st0" width="1.6" height="144"/>
<rect x="38.2" y="15.5" class="st0" width="1.6" height="56.5"/>
<path class="st0" d="M53.8-70.1V70.1c0.5-0.2,1.1-0.4,1.6-0.7V-69.4C54.9-69.7,54.3-69.9,53.8-70.1z"/>
<rect x="40.8" y="15.5" class="st0" width="1.6" height="56.5"/>
<path class="st0" d="M-65.8-61.3V61.3c0.5,0.6,1,1.2,1.6,1.8V-63.2C-64.8-62.6-65.3-62-65.8-61.3z"/>
<path class="st0" d="M43.4,15.5V72h0.3c0.5,0,0.9,0,1.3,0V15.5H43.4z"/>
<path class="st0" d="M59-67.5v135c0.5-0.4,1.1-0.7,1.6-1.1V-66.4C60.1-66.8,59.5-67.1,59-67.5z"/>
<path class="st0" d="M34.6-51.2V-72H33v21.1C33.5-51,34.1-51.1,34.6-51.2z"/>
<path class="st0" d="M-43.7-72c-0.5,0-0.9,0-1.3,0V72c0.4,0,0.9,0,1.3,0h0.3V-72H-43.7z"/>
<path class="st0" d="M29.4-50.3V-72h-1.6v22.1C28.3-50,28.9-50.1,29.4-50.3z"/>
<path class="st0" d="M-58-68.1V68.1c0.5,0.3,1.1,0.6,1.6,0.9V-69C-56.9-68.7-57.5-68.4-58-68.1z"/>
<rect x="-42.4" y="-72" class="st0" width="1.6" height="144"/>
<path class="st0" d="M32-50.8V-72h-1.6v21.5C30.9-50.6,31.5-50.7,32-50.8z"/>
<path class="st0" d="M-60.6-66.4V66.4c0.5,0.4,1.1,0.8,1.6,1.1v-135C-59.5-67.1-60.1-66.8-60.6-66.4z"/>
<rect x="-24.2" y="-72" class="st0" width="1.6" height="144"/>
<path class="st0" d="M39.8-51.8V-72h-1.6v20.4C38.7-51.7,39.3-51.7,39.8-51.8z"/>
<path class="st0" d="M61.6-65.6V65.6c0.6-0.5,1.1-0.9,1.6-1.4V-64.2C62.7-64.7,62.2-65.1,61.6-65.6z"/>
<path class="st0" d="M37.2-51.5V-72h-1.6v20.7C36.1-51.4,36.7-51.5,37.2-51.5z"/>
<path class="st0" d="M-55.4-69.4V69.4c0.5,0.2,1.1,0.5,1.6,0.7V-70.1C-54.3-69.9-54.9-69.7-55.4-69.4z"/>
<path class="st0" d="M51.2-71V71c0.5-0.1,1.1-0.3,1.6-0.5v-141C52.3-70.7,51.7-70.8,51.2-71z"/>
<path class="st0" d="M-50.2-71.2V71.2c0.5,0.1,1.1,0.2,1.6,0.3V-71.6C-49.1-71.5-49.7-71.4-50.2-71.2z"/>
<path class="st0" d="M24.2-48.8V-72h-1.6v23.7C23.1-48.5,23.7-48.7,24.2-48.8z"/>
<path class="st0" d="M26.8-49.6V-72h-1.6v22.9C25.7-49.3,26.3-49.5,26.8-49.6z"/>
<rect x="-39.8" y="-72" class="st0" width="1.6" height="144"/>
<path class="st0" d="M-52.8-70.5v141c0.5,0.2,1.1,0.3,1.6,0.5V-71C-51.7-70.8-52.3-70.7-52.8-70.5z"/>
<g>
	<polygon class="st0" points="-21.6,15.5 -21.6,72 -20,72 -20,15.5 -21.5,15.5 	"/>
	<polygon class="st0" points="-21.6,-72 -21.6,-3.1 -21.5,-3.1 -20,-3.1 -20,-72 	"/>
</g>
</svg>
