<?xml version="1.0" encoding="utf-8"?>
<!-- Generator: Adobe Illustrator 19.1.0, SVG Export Plug-In . SVG Version: 6.00 Build 0)  -->
<svg version="1.1" id="Layer_1" xmlns="http://www.w3.org/2000/svg" xmlns:xlink="http://www.w3.org/1999/xlink" x="0px" y="0px"
	 viewBox="0 0 1000 1000" style="enable-background:new 0 0 1000 1000;" xml:space="preserve">
<style type="text/css">
	.st0{fill:#FFFFFF;}
</style>
<g>
	<path class="st0" d="M27.7,26.7C33,21.5,36.4,15.2,38,8.5c0.5-1.9-1.9-3.2-3.3-1.8c0,0,0,0-0.1,0.1C23,18.3,4,18.1-7.3,6
		C-18-5.4-17.9-23-7-34.3c0.1-0.1,0.3-0.3,0.4-0.4c1.4-1.4,0.1-3.7-1.8-3.3c-6.6,1.6-12.9,4.9-18.1,10.1
		c-15.2,15-15.3,39.4-0.2,54.6C-11.7,41.8,12.7,41.8,27.7,26.7z"/>
</g>
<g>
</g>
<g>
</g>
<g>
</g>
<g>
</g>
<g>
</g>
<g>
</g>
</svg>
