<?xml version="1.0" encoding="utf-8"?>
<!-- Generator: Adobe Illustrator 19.2.0, SVG Export Plug-In . SVG Version: 6.00 Build 0)  -->
<svg version="1.0" id="Layer_1" xmlns="http://www.w3.org/2000/svg" xmlns:xlink="http://www.w3.org/1999/xlink" x="0px" y="0px"
	 width="1000px" height="1000px" viewBox="0 0 1000 1000" enable-background="new 0 0 1000 1000" xml:space="preserve">
<path fill="#929497" stroke="#231F20" d="M18.5,33.8c-7.5,0-9.7,0-25.7,0c-11.5,0-18.6-11.1-18.6-18.6c0-10.9,0-27.3,0-39.5
	c0-12.6,15.4-12.8,15.4,0c0,9.5,0,10.9,0,10.9s17.8,0,28.9,0c9.3,0,10.1,15.6,0,15.6c-10.1,0-29.8,0-29.8,0
	c0,8.3-1.2,17.2,10.6,17.2s7.2,0,19.3,0C27.7,19.4,28.7,33.8,18.5,33.8z"/>
</svg>
