<?xml version="1.0" encoding="utf-8"?>
<!-- Generator: Adobe Illustrator 19.2.0, SVG Export Plug-In . SVG Version: 6.00 Build 0)  -->
<svg version="1.1" id="Layer_1" xmlns="http://www.w3.org/2000/svg" xmlns:xlink="http://www.w3.org/1999/xlink" x="0px" y="0px"
	 width="1000px" height="1000px" viewBox="0 0 1000 1000" style="enable-background:new 0 0 1000 1000;" xml:space="preserve">
<style type="text/css">
	.st0{fill:none;stroke:#000000;stroke-miterlimit:10;}
</style>
<path class="st0" d="M0-38.1c-21,0-38.1,17-38.1,38.1S-21,38.1,0,38.1S38.1,21,38.1,0S21-38.1,0-38.1z"/>
<path class="st0" d="M-14.8-29.1c-0.7,0.9-1.4,2-2,3.1c-0.9,1.6-1.8,3.4-2.5,5.3c-1.5-0.5-3.2-0.9-4.7-1.4
	C-21.3-25.1-18.2-27.4-14.8-29.1z"/>
<path class="st0" d="M-27.9-17c2.3,0.8,4.5,1.5,6.8,2.2C-22-11.1-22.6-7.1-22.8-3h-9.7C-32-8.1-30.4-12.9-27.9-17z"/>
<path class="st0" d="M-27.9,17c-2.5-4.2-4.2-8.9-4.7-13.9h9.7c0.2,4.1,0.8,8.1,1.7,11.8C-23.3,15.5-25.6,16.2-27.9,17z"/>
<path class="st0" d="M-23.9,22.3c1.5-0.5,3.2-1,4.7-1.4c0.7,1.9,1.5,3.7,2.5,5.3c0.6,1.1,1.3,2.1,2,3.1
	C-18.2,27.4-21.3,25.1-23.9,22.3z"/>
<path class="st0" d="M-3.1,31c-4-1.4-7.5-5.8-10-11.7c3.3-0.6,6.6-1,10-1.2C-3.1,18.2-3.1,31-3.1,31z"/>
<path class="st0" d="M-3.1,12c-4,0.2-8,0.6-11.9,1.4c-0.8-3.2-1.4-6.7-1.5-10.3H-3C-3.1,3.2-3.1,12-3.1,12z"/>
<path class="st0" d="M-3.1-3.1h-13.5c0.2-3.6,0.7-7.1,1.5-10.3c4,0.8,8,1.3,11.9,1.4C-3.1-11.9-3.1-3.1-3.1-3.1z"/>
<path class="st0" d="M-3.1-18.2c-3.3-0.2-6.7-0.5-10-1.2c2.4-5.9,6-10.2,10-11.7C-3.1-31-3.1-18.2-3.1-18.2z"/>
<path class="st0" d="M27.9-17c2.5,4.2,4.2,8.9,4.6,13.9h-9.7c-0.2-4.1-0.8-8.1-1.7-11.8C23.3-15.5,25.6-16.2,27.9-17z"/>
<path class="st0" d="M23.9-22.3c-1.5,0.5-3.1,1.1-4.7,1.4c-0.7-1.9-1.5-3.7-2.5-5.3c-0.6-1.1-1.3-2.1-2-3.1
	C18.2-27.4,21.3-25.1,23.9-22.3z"/>
<path class="st0" d="M3.1-31c4,1.4,7.5,5.8,10,11.7c-3.3,0.6-6.6,1-10,1.2C3.1-18.2,3.1-31,3.1-31z"/>
<path class="st0" d="M3.1-12c4-0.2,8-0.6,11.9-1.4c0.8,3.2,1.4,6.7,1.5,10.3H3.1V-12z"/>
<path class="st0" d="M3.1,3.1h13.5c-0.2,3.6-0.7,7.1-1.5,10.3c-4-0.8-8-1.3-11.9-1.4C3.1,11.9,3.1,3.1,3.1,3.1z"/>
<path class="st0" d="M3.1,31V18.2c3.3,0.2,6.7,0.5,10,1.2C10.6,25.2,7.1,29.6,3.1,31z"/>
<path class="st0" d="M14.8,29.1c0.7-0.9,1.4-2,2-3.1c0.9-1.6,1.8-3.4,2.5-5.3c1.5,0.5,3.2,0.9,4.7,1.4
	C21.3,25.1,18.2,27.4,14.8,29.1z"/>
<path class="st0" d="M27.9,17c-2.3-0.8-4.5-1.5-6.8-2.2C22,11.1,22.6,7.1,22.8,3h9.7C32,8.1,30.4,12.9,27.9,17z"/>
</svg>
