<?xml version="1.0" encoding="utf-8"?>
<!-- Generator: Adobe Illustrator 19.2.0, SVG Export Plug-In . SVG Version: 6.00 Build 0)  -->
<svg version="1.1" id="Layer_1" xmlns="http://www.w3.org/2000/svg" xmlns:xlink="http://www.w3.org/1999/xlink" x="0px" y="0px"
	 width="1000px" height="1000px" viewBox="0 0 1000 1000" style="enable-background:new 0 0 1000 1000;" xml:space="preserve">
<style type="text/css">
	.st0{fill:#FFFFFF;stroke:#000000;stroke-miterlimit:10;}
</style>
<g>
	<path class="st0" d="M-54.2,40c-1.9-6.1-1.9-11.8-2-23v39.3h39.3c-11.2,0-16.9,0-23-2C-46.5,51.9-51.8,46.6-54.2,40z"/>
	<path class="st0" d="M-39.9-54.3c6.1-2,11.8-2,23-2h-39.3V-17c0-11.2,0-16.9,2-23C-51.8-46.6-46.5-51.9-39.9-54.3z"/>
	<path class="st0" d="M40.1,54.3c-6.1,2-11.8,2-23,2h39.3V17c0,11.2,0,16.9-2,23C52,46.6,46.7,51.9,40.1,54.3z"/>
	<path class="st0" d="M17.1-56.3c11.2,0,16.9,0,23,2C46.7-51.9,52-46.6,54.4-40c2,6.1,2,11.8,2,23v-39.3H17.1z"/>
</g>
</svg>
