<?xml version="1.0" encoding="utf-8"?>
<!-- Generator: Adobe Illustrator 19.2.0, SVG Export Plug-In . SVG Version: 6.00 Build 0)  -->
<svg version="1.0" id="Layer_1" xmlns="http://www.w3.org/2000/svg" xmlns:xlink="http://www.w3.org/1999/xlink" x="0px" y="0px"
	 width="2834.6px" height="2834.6px" viewBox="0 0 2834.6 2834.6" enable-background="new 0 0 2834.6 2834.6" xml:space="preserve">
<path fill="#E6E7E8" stroke="#000000" stroke-width="0.7087" stroke-miterlimit="10" d="M596.2-4.9c-2.4-6.7-7.7-12-14.4-14.4
	c-6.1-1.9-11.8-1.9-23.2-1.9h-5.8h-28.5l-360.6,0c-4.3,0-6.4,0-8.7-0.7c-2.5-0.9-4.5-2.9-5.4-5.4c-0.7-2.3-0.7-4.4-0.7-8.7V-49
	c0-0.2,0-0.4,0-0.7h0v-17.8c0-7.1,0-10.7-1.2-14.5c-1.5-4.2-4.8-7.5-9-9c-3.2-1-6.1-1.2-11-1.2v0h-3.5h-21.5h-205.3h-10.7h-10.7
	c-7.1,0-10.7,0-14.5,1.2c-4.2,1.5-7.5,4.8-9,9c-1.2,3.8-1.2,7.4-1.2,14.5v17.8h0c0,0.2,0,0.4,0,0.7v12.9c0,4.3,0,6.4-0.7,8.7
	c-0.9,2.5-2.9,4.5-5.4,5.4c-2.3,0.7-4.4,0.7-8.7,0.7l-360.6,0h-28.5h-5.8c-11.4,0-17.1,0-23.2,1.9c-6.7,2.4-12,7.7-14.4,14.4
	c-1.9,6.1-1.9,11.8-1.9,23.2v34.3c0,11.4,0,17.1,1.9,23.2c2.4,6.7,7.7,12,14.4,14.4c6.1,1.9,11.8,1.9,23.2,1.9h5.8h28.5H524.3h28.5
	h5.8c11.4,0,17.1,0,23.2-1.9c6.7-2.4,12-7.7,14.4-14.4c1.9-6.1,1.9-11.8,1.9-23.2V18.3C598.1,6.9,598.1,1.2,596.2-4.9z M-134.6-49
	c0-0.2,0-0.4,0-0.7s0-0.4,0-0.7v-12.9c0-4.3,0-6.4,0.7-8.7c0.9-2.5,2.9-4.5,5.4-5.4c2.3-0.7,4.4-0.7,8.7-0.7h6.4h6.4h213.9h6.4h6.4
	c4.3,0,6.4,0,8.7,0.7c2.5,0.9,4.5,2.9,5.4,5.4c0.7,2.3,0.7,4.4,0.7,8.7v12.9c0,0.2,0,0.4,0,0.7s0,0.4,0,0.7v12.9
	c0,4.3,0,6.4-0.7,8.7c-0.9,2.5-2.9,4.5-5.4,5.4c-2.3,0.7-4.4,0.7-8.7,0.7h-6.4h-6.4h-213.9h-6.4h-6.4c-4.3,0-6.4,0-8.7-0.7
	c-2.5-0.9-4.5-2.9-5.4-5.4c-0.7-2.3-0.7-4.4-0.7-8.7V-49z"/>
</svg>
