<?xml version="1.0" encoding="utf-8"?>
<!-- Generator: Adobe Illustrator 19.2.0, SVG Export Plug-In . SVG Version: 6.00 Build 0)  -->
<svg version="1.1" id="Layer_1" xmlns="http://www.w3.org/2000/svg" xmlns:xlink="http://www.w3.org/1999/xlink" x="0px" y="0px"
	 width="1000px" height="1000px" viewBox="0 0 1000 1000" style="enable-background:new 0 0 1000 1000;" xml:space="preserve">
<style type="text/css">
	.st0{fill:none;stroke:#000000;stroke-miterlimit:10;}
	.st1{fill:#E81313;stroke:#000000;stroke-miterlimit:10;}
</style>
<circle class="st0" cx="39" cy="-36.1" r="0"/>
<path class="st1" d="M24.5-2.6h-12H0v8.7h11.3c-2.2,4-6.4,6.7-11.3,6.7c-7.1,0-12.8-5.7-12.8-12.8S-7.1-12.8,0-12.8
	c2.8,0,5.5,0.9,7.6,2.5l8.4-8.5c-4.3-3.7-9.9-5.9-16-5.9c-13.6,0-24.7,11.1-24.7,24.7S-13.6,24.7,0,24.7S24.7,13.6,24.7,0
	C24.7-0.9,24.6-1.7,24.5-2.6z"/>
</svg>
