<?xml version="1.0" encoding="utf-8"?>
<!-- Generator: Adobe Illustrator 19.1.0, SVG Export Plug-In . SVG Version: 6.00 Build 0)  -->
<svg version="1.1" id="Layer_1" xmlns="http://www.w3.org/2000/svg" xmlns:xlink="http://www.w3.org/1999/xlink" x="0px" y="0px"
	 viewBox="0 0 1000 1000" style="enable-background:new 0 0 1000 1000;" xml:space="preserve">
<style type="text/css">
	.st0{fill:#010101;}
</style>
<path class="st0" d="M36.8,4.2c1.8-2.1,2.7-4.5,2.7-7.4c0-2.6-0.9-4.8-2.8-6.7c-1.9-1.9-4.1-2.8-6.7-2.8H16.4
	c0.1-0.5,0.3-0.9,0.4-1.2c0.1-0.3,0.3-0.7,0.5-1.1c0.2-0.4,0.4-0.7,0.5-0.9c0.6-1.1,1-2,1.4-2.8c0.3-0.7,0.6-1.7,0.9-3
	c0.3-1.3,0.5-2.5,0.5-3.8c0-0.8,0-1.4,0-1.9c0-0.5-0.1-1.2-0.2-2.2c-0.1-1-0.3-1.8-0.6-2.5c-0.2-0.7-0.6-1.4-1.2-2.2
	c-0.5-0.8-1.2-1.5-2-2c-0.8-0.5-1.8-0.9-3-1.3C12.4-37.8,11-38,9.5-38c-0.9,0-1.6,0.3-2.2,0.9c-0.7,0.7-1.2,1.5-1.7,2.5
	c-0.5,1-0.8,1.8-1,2.6c-0.2,0.7-0.4,1.7-0.6,3c-0.3,1.4-0.5,2.4-0.7,3c-0.1,0.6-0.4,1.4-0.9,2.4c-0.4,1-0.9,1.8-1.5,2.4
	c-1.1,1.1-2.8,3.1-5,5.9c-1.6,2.1-3.3,4.1-5,6c-1.7,1.9-3,2.9-3.8,2.9c-0.1,0-0.2,0-0.3,0.1h-23.3c-0.9,0-1.6,0.3-2.2,0.9
	c-0.6,0.6-0.9,1.4-0.9,2.2v31.7c0,0.9,0.3,1.6,0.9,2.2c0.6,0.6,1.4,0.9,2.2,0.9h23.8c1.2,0,3.8,0.8,7.8,2.2c2.5,0.9,4.5,1.5,6,2
	c1.4,0.4,3.4,0.9,6,1.4c2.6,0.5,4.9,0.8,7.1,0.8h0.8h3.8h1.8c4.4-0.1,7.6-1.4,9.7-3.9c1.9-2.3,2.7-5.3,2.4-9
	c1.3-1.2,2.2-2.8,2.7-4.6c0.6-2,0.6-3.9,0-5.8c1.5-2,2.2-4.3,2.1-6.8C37.6,6.9,37.3,5.7,36.8,4.2z"/>
</svg>
