<?xml version="1.0" encoding="utf-8"?>
<!-- Generator: Adobe Illustrator 19.2.0, SVG Export Plug-In . SVG Version: 6.00 Build 0)  -->
<svg version="1.1" id="Layer_1" xmlns="http://www.w3.org/2000/svg" xmlns:xlink="http://www.w3.org/1999/xlink" x="0px" y="0px"
	 width="1000px" height="1000px" viewBox="0 0 1000 1000" style="enable-background:new 0 0 1000 1000;" xml:space="preserve">
<style type="text/css">
	.st0{fill:#FFFFFF;}
</style>
<g>
	<path class="st0" d="M0-33.6c-12.8,0-23.3,10.5-23.3,23.3C-23.3,2.1-2.1,31-1.2,32.3l0.8,1.2c0.1,0.2,0.2,0.2,0.4,0.2
		s0.3-0.1,0.4-0.2l0.8-1.2C2.1,31,23.3,2.1,23.3-10.3C23.3-23.1,12.8-33.6,0-33.6z"/>
	<path class="st0" d="M0-18.6c4.6,0,8.4,3.8,8.4,8.4c0,4.5-3.8,8.3-8.4,8.3s-8.4-3.8-8.4-8.4S-4.6-18.6,0-18.6z"/>
</g>
</svg>
