<?xml version="1.0" encoding="utf-8"?>
<!-- Generator: Adobe Illustrator 19.2.0, SVG Export Plug-In . SVG Version: 6.00 Build 0)  -->
<svg version="1.1" id="Layer_1" xmlns="http://www.w3.org/2000/svg" xmlns:xlink="http://www.w3.org/1999/xlink" x="0px" y="0px"
	 width="1000px" height="1000px" viewBox="0 0 1000 1000" style="enable-background:new 0 0 1000 1000;" xml:space="preserve">
<style type="text/css">
	.st0{fill:#FFFFFF;stroke:#000000;stroke-miterlimit:10;}
</style>
<g>
	<path class="st0" d="M1.5-36.5h-2.9c-0.9,0-1.7,0.8-1.7,1.7v10.2c0,0.9,0.8,1.7,1.7,1.7h2.9c0.9,0,1.7-0.8,1.7-1.7v-10.2
		C3.1-35.7,2.4-36.5,1.5-36.5z"/>
	<path class="st0" d="M34.8-3.1H24.6c-0.9,0-1.7,0.8-1.7,1.7v2.9c0,0.9,0.8,1.7,1.7,1.7h10.2c0.9,0,1.7-0.8,1.7-1.7v-2.9
		C36.5-2.4,35.7-3.1,34.8-3.1z"/>
	<path class="st0" d="M1.5,22.9h-2.9c-0.9,0-1.7,0.8-1.7,1.7v10.2c0,0.9,0.8,1.7,1.7,1.7h2.9c0.9,0,1.7-0.8,1.7-1.7V24.6
		C3.1,23.7,2.4,22.9,1.5,22.9z"/>
	<path class="st0" d="M-22.9,1.5v-2.9c0-0.9-0.8-1.7-1.7-1.7h-10.2c-0.9,0-1.7,0.8-1.7,1.7v2.9c0,0.9,0.8,1.7,1.7,1.7h10.2
		C-23.7,3.1-22.9,2.4-22.9,1.5z"/>
	<path class="st0" d="M17.2-15.2c0.7,0.7,1.7,0.7,2.3,0l7.2-7.2c0.7-0.7,0.7-1.7,0-2.3l-2.1-2.1c-0.7-0.7-1.7-0.7-2.3,0l-7.2,7.2
		c-0.7,0.7-0.7,1.7,0,2.3L17.2-15.2z"/>
	<path class="st0" d="M19.6,15.2c-0.7-0.7-1.7-0.7-2.3,0l-2.1,2.1c-0.7,0.7-0.7,1.7,0,2.3l7.2,7.2c0.7,0.7,1.7,0.7,2.3,0l2.1-2.1
		c0.7-0.7,0.7-1.7,0-2.3L19.6,15.2z"/>
	<path class="st0" d="M-17.2,15.2c-0.7-0.7-1.7-0.7-2.3,0l-7.2,7.2c-0.7,0.7-0.7,1.7,0,2.3l2.1,2.1c0.7,0.7,1.7,0.7,2.3,0l7.2-7.2
		c0.7-0.7,0.7-1.7,0-2.3L-17.2,15.2z"/>
	<path class="st0" d="M-19.6-15.2c0.7,0.7,1.7,0.7,2.3,0l2.1-2.1c0.7-0.7,0.7-1.7,0-2.3l-7.2-7.2c-0.7-0.7-1.7-0.7-2.3,0l-2.1,2.1
		c-0.7,0.7-0.7,1.7,0,2.3L-19.6-15.2z"/>
</g>
</svg>
