<?xml version="1.0" encoding="utf-8"?>
<!-- Generator: Adobe Illustrator 19.2.0, SVG Export Plug-In . SVG Version: 6.00 Build 0)  -->
<svg version="1.1" id="Layer_1" xmlns="http://www.w3.org/2000/svg" xmlns:xlink="http://www.w3.org/1999/xlink" x="0px" y="0px"
	 width="1000px" height="1000px" viewBox="0 0 1000 1000" style="enable-background:new 0 0 1000 1000;" xml:space="preserve">
<style type="text/css">
	.st0{fill:#FFFFFF;}
</style>
<g>
	<g>
		<path class="st0" d="M0,17.5c7.3,0,13.3-6,13.3-13.3v-29.9C13.3-33,7.3-39,0-39s-13.3,6-13.3,13.3V4.2C-13.3,11.5-7.3,17.5,0,17.5
			z"/>
		<path class="st0" d="M21.4-2.2h-2.6c-0.8,0-1.6,0.7-1.6,1.6v5.4C17.2,14.3,9.5,22,0,22s-17.2-7.7-17.2-17.2v-5.4
			c0-0.8-0.7-1.6-1.6-1.6h-2.6c-0.8,0-1.6,0.7-1.6,1.6v5.4c0,11.3,8.8,21.3,20,22.7v3.9h-11.8c-0.8,0-1.6,0.7-1.6,1.6v2.6
			c0,0.8,0.7,1.6,1.6,1.6h29.4c0.8,0,1.6-0.7,1.6-1.6v-2.6c0-0.8-0.7-1.6-1.6-1.6H2.9v-3.9c11.2-1.5,20-11.4,20-22.7v-5.4
			C22.9-1.6,22.2-2.2,21.4-2.2z"/>
	</g>
</g>
</svg>
