<?xml version="1.0" encoding="utf-8"?>
<!-- Generator: Adobe Illustrator 19.2.0, SVG Export Plug-In . SVG Version: 6.00 Build 0)  -->
<svg version="1.0" id="Layer_1" xmlns="http://www.w3.org/2000/svg" xmlns:xlink="http://www.w3.org/1999/xlink" x="0px" y="0px"
	 width="1000px" height="1000px" viewBox="0 0 1000 1000" enable-background="new 0 0 1000 1000" xml:space="preserve">
<path fill="#BE1E2D" stroke="#BE1E2D" stroke-width="3" stroke-miterlimit="10" d="M27.1,6.7c-2,4.3-5.6,10.1-13,12.6V9.6l8.4-7.1
	L14-4.7v-6.8c3.6-0.3,7-1.7,9.4-4.7c3.8-4.8,3.1-11.9-2.9-15.6S8.9-33.1,8.9-33.1s6.8-0.5,6.6,3.3c-0.2,3.7-3.5,4-5.5,3.8
	c-2-0.2-4.4-1.2-9.5-3c-5.1-1.8-11.6-3.2-18.4-0.6s-7.8,10.8-7.5,13.6c0.3,2.8,4,7.1,8.6,7.1c-2.2-1.8-1.2-5.1-0.9-5.6
	c0.3-0.5,1.3-3.6,7.5-2.4s12.1,3.3,17.9,4.8c2,0.5,4.1,0.8,6.1,0.7v7l-8,7l8,7v10c-3,1-6.6,1.4-10.9,1c-3.3-0.3-6.6-1.5-9.3-3.5
	l12-4.9v-24.5l-12,4.6V17c-4-3-6.8-7.8-6.7-14.5c0.1-10.9,7.3-15.1,11.2-17.2C-24.5-9.8-27.6,3.8-27.1,11.1c0.8,11.9,11,22,24,22.7
	C23.1,35.1,27.9,16.4,27.1,6.7z"/>
</svg>
