<?xml version="1.0" encoding="utf-8"?>
<!-- Generator: Adobe Illustrator 19.1.0, SVG Export Plug-In . SVG Version: 6.00 Build 0)  -->
<svg version="1.1" id="Layer_1" xmlns="http://www.w3.org/2000/svg" xmlns:xlink="http://www.w3.org/1999/xlink" x="0px" y="0px"
	 viewBox="0 0 1000 1000" style="enable-background:new 0 0 1000 1000;" xml:space="preserve">
<style type="text/css">
	.st0{fill:#FFFFFF;stroke:#000000;stroke-miterlimit:10;}
</style>
<g>
	<path class="st0" d="M501.9,428h-5.8c-1.8,0-3.3,1.5-3.3,3.3v20.2c0,1.8,1.5,3.3,3.3,3.3h5.8c1.8,0,3.3-1.5,3.3-3.3v-20.2
		C505.2,429.5,503.7,428,501.9,428z"/>
	<path class="st0" d="M567.7,493.8h-20.2c-1.8,0-3.3,1.5-3.3,3.3v5.8c0,1.8,1.5,3.3,3.3,3.3h20.2c1.8,0,3.3-1.5,3.3-3.3v-5.8
		C571,495.3,569.5,493.8,567.7,493.8z"/>
	<path class="st0" d="M501.9,545.2h-5.8c-1.8,0-3.3,1.5-3.3,3.3v20.2c0,1.8,1.5,3.3,3.3,3.3h5.8c1.8,0,3.3-1.5,3.3-3.3v-20.2
		C505.2,546.7,503.7,545.2,501.9,545.2z"/>
	<path class="st0" d="M453.8,502.9v-5.8c0-1.8-1.5-3.3-3.3-3.3h-20.2c-1.8,0-3.3,1.5-3.3,3.3v5.8c0,1.8,1.5,3.3,3.3,3.3h20.2
		C452.3,506.2,453.8,504.7,453.8,502.9z"/>
	<path class="st0" d="M533,470.1c1.3,1.3,3.4,1.3,4.6,0l14.3-14.3c1.3-1.3,1.3-3.4,0-4.6l-4.1-4.1c-1.3-1.3-3.4-1.3-4.6,0
		l-14.3,14.3c-1.3,1.3-1.3,3.4,0,4.6L533,470.1z"/>
	<path class="st0" d="M537.6,529.9c-1.3-1.3-3.4-1.3-4.6,0l-4.1,4.1c-1.3,1.3-1.3,3.4,0,4.6l14.3,14.3c1.3,1.3,3.4,1.3,4.6,0
		l4.1-4.1c1.3-1.3,1.3-3.4,0-4.6L537.6,529.9z"/>
	<path class="st0" d="M465,529.9c-1.3-1.3-3.4-1.3-4.6,0l-14.3,14.3c-1.3,1.3-1.3,3.4,0,4.6l4.1,4.1c1.3,1.3,3.4,1.3,4.6,0
		l14.3-14.3c1.3-1.3,1.3-3.4,0-4.6L465,529.9z"/>
	<path class="st0" d="M460.4,470.1c1.3,1.3,3.4,1.3,4.6,0l4.1-4.1c1.3-1.3,1.3-3.4,0-4.6l-14.3-14.3c-1.3-1.3-3.4-1.3-4.6,0
		l-4.1,4.1c-1.3,1.3-1.3,3.4,0,4.6L460.4,470.1z"/>
</g>
</svg>
