<?xml version="1.0" encoding="utf-8"?>
<!-- Generator: Adobe Illustrator 19.1.0, SVG Export Plug-In . SVG Version: 6.00 Build 0)  -->
<svg version="1.1" id="Layer_1" xmlns="http://www.w3.org/2000/svg" xmlns:xlink="http://www.w3.org/1999/xlink" x="0px" y="0px"
	 viewBox="0 0 1000 1000" style="enable-background:new 0 0 1000 1000;" xml:space="preserve">
<style type="text/css">
	.st0{fill:#FFFFFF;}
</style>
<g>
	<path class="st0" d="M0,27.5c0,1.5-0.9,2.9-2.3,3.6c-0.5,0.3-1.1,0.4-1.7,0.4c-0.9,0-1.8-0.3-2.5-0.9l-21.6-17.9h-11.5
		c-2.2,0-4-1.8-4-4V-7c0-2.2,1.8-4,4-4h11.5l21.6-17.9c1.2-1,2.8-1.2,4.2-0.5c1.4,0.7,2.3,2,2.3,3.6L0,27.5L0,27.5z M15.2,21.3
		c-0.1,0-0.2,0-0.3,0c-1,0-2.1-0.4-2.8-1.2l-0.5-0.5c-1.4-1.4-1.5-3.6-0.4-5.1c3-4,4.5-8.7,4.5-13.7c0-5.3-1.8-10.3-5.1-14.5
		c-1.3-1.6-1.2-3.9,0.3-5.3l0.5-0.5c0.8-0.8,1.8-1.2,3-1.2c1.1,0.1,2.2,0.6,2.9,1.4c4.7,5.7,7.1,12.6,7.1,20
		c0,6.9-2.2,13.4-6.3,18.9C17.4,20.7,16.4,21.3,15.2,21.3z M31.6,33.6c-0.7,0.8-1.7,1.4-2.9,1.4c-0.1,0-0.1,0-0.2,0
		c-1,0-2.1-0.4-2.8-1.2l-0.5-0.5c-1.5-1.5-1.5-3.8-0.2-5.3c6.4-7.6,9.9-17.2,9.9-27.1c0-10.3-3.8-20.2-10.6-27.9
		c-1.4-1.6-1.3-3.9,0.2-5.4L25-33c0.8-0.8,1.8-1.2,2.9-1.2c1.1,0,2.1,0.5,2.8,1.3C39-23.6,43.5-11.6,43.5,0.8
		C43.5,12.8,39.3,24.4,31.6,33.6z"/>
</g>
<g>
</g>
<g>
</g>
<g>
</g>
<g>
</g>
<g>
</g>
<g>
</g>
</svg>
