<?xml version="1.0" encoding="utf-8"?>
<!-- Generator: Adobe Illustrator 19.2.0, SVG Export Plug-In . SVG Version: 6.00 Build 0)  -->
<svg version="1.0" id="Layer_1" xmlns="http://www.w3.org/2000/svg" xmlns:xlink="http://www.w3.org/1999/xlink" x="0px" y="0px"
	 width="1000px" height="1000px" viewBox="0 0 1000 1000" enable-background="new 0 0 1000 1000" xml:space="preserve">
<g>
	<polygon fill="none" stroke="#BE1E2D" stroke-miterlimit="10" points="0.1,77.6 -0.9,87.5 -21.7,87.5 -17.4,39.1 -16,22.8 -4,4.8 
		4.8,22.8 3.4,39.1 	"/>
	<polygon fill="none" stroke="#BE1E2D" stroke-miterlimit="10" points="-10.6,-39.1 -6.3,-87.5 14.6,-87.5 14.3,-85 10.2,-39.1 
		8.9,-22.8 -3.1,-4.8 -12,-22.8 	"/>
	<path fill="none" stroke="#BE1E2D" stroke-miterlimit="10" d="M-76,102.9l-6.3-7l8.2-93.6h6.1l0.9,1.1l12.7,13.8l-4.1,46.6l-2,23.7
		v1.4L-76,102.9z M-66.7-3.4l-0.9,1.1h-6.1l8.2-93.6l7.7-7l12.7,14v1.4l-2,23.7l-4.1,46.6L-66.7-3.4z M46.5,106.1l-7.7,7H-66.7
		l-6.3-7l15.2-14h4.5h30.8h20.8h30.8h4.5L46.5,106.1z M-63.8,0L-52-10.6v0.2h30.8h9.3L-6.7,0l-7,10.4h-35.6H-50h-3.9v0.2L-63.8,0z
		 M-54.5-106.1l7.7-7H58.8l6.3,7l-15.2,14h-4.5H14.6H-6.2h-30.8h-4.5L-54.5-106.1z M45.9-10.4l9.7,10.6L44,10.6v-0.2H40h-0.5H10.3
		H5.5H4L-1.3,0l7-10.4h1.6h4.8h2.9H45.9z M58.5,3.4l1.1-0.9h6.1l-8.2,93.4l-7.7,7l-12.7-14v-1.4l2-23.7l4.1-46.6L58.5,3.4z
		 M68.1-102.9l6.3,7L66.2-2.3h-6.1L59-3.2L46.5-17l0.5-7.2l3.6-39.6l2-23.7v-1.4L68.1-102.9z"/>
	<path fill="none" stroke="#BE1E2D" stroke-miterlimit="10" d="M-22.8,47.3l-27,40.3h-5.9l2.7-31.9l27.2-40.5h5.7L-22.8,47.3z
		 M-17.4-15.2H-23L-43-55.6l2.7-31.9h5.9l19.7,40.3L-17.4-15.2z M10.3,15.2h5.7l19.9,40.5l-2.7,31.9h-5.9L7.6,47.3L10.3,15.2z
		 M42.7-87.5h5.9l-2.7,31.9L18.7-15.2H13l2.7-32.1L42.7-87.5z"/>
	<ellipse fill="none" stroke="#BE1E2D" stroke-miterlimit="10" cx="72.4" cy="103.2" rx="9.9" ry="9.9"/>
</g>
</svg>
