<?xml version="1.0" encoding="utf-8"?>
<!-- Generator: Adobe Illustrator 19.2.0, SVG Export Plug-In . SVG Version: 6.00 Build 0)  -->
<svg version="1.1" id="Layer_1" xmlns="http://www.w3.org/2000/svg" xmlns:xlink="http://www.w3.org/1999/xlink" x="0px" y="0px"
	 width="1000px" height="1000px" viewBox="0 0 1000 1000" style="enable-background:new 0 0 1000 1000;" xml:space="preserve">
<style type="text/css">
	.st0{fill:#FFFFFF;}
</style>
<path class="st0" d="M24.7-4.3c0.5-1.4,0.2-3-0.9-4.1L2.7-29.6c-0.7-0.7-1.8-1.1-2.7-1.1c-1.1,0-1.9,0.4-2.7,1.1L-23.9-8.4
	c-1.1,1.1-1.4,2.7-0.9,4.1S-22.8-2-21.2-2h9.4v27.6c0,2.8,2.3,5.1,5.1,5.1H7.1c2.8,0,5.1-2.3,5.1-5.1V-2h9C22.8-2,24.2-2.9,24.7-4.3
	z"/>
</svg>
