<?xml version="1.0" encoding="utf-8"?>
<!-- Generator: Adobe Illustrator 19.2.0, SVG Export Plug-In . SVG Version: 6.00 Build 0)  -->
<svg version="1.1" id="Layer_1" xmlns="http://www.w3.org/2000/svg" xmlns:xlink="http://www.w3.org/1999/xlink" x="0px" y="0px"
	 width="1000px" height="1000px" viewBox="0 0 1000 1000" style="enable-background:new 0 0 1000 1000;" xml:space="preserve">
<style type="text/css">
	.st0{fill:#FFFFFF;}
</style>
<path class="st0" d="M35.3,11.6l-3.1-6.7c-0.6-1.3-1.9-2.1-3.3-2.1c-0.6,0-1.1,0.1-1.6,0.4c-0.8,0.4-1.5,1.1-1.8,2
	c-0.2,0.4-0.3,0.9-0.2,1.4L8.5-0.1C8.5-0.5,8.6-1,8.6-1.4c0-3.5-2.1-6.7-5.2-8.1v-12.1c0.4,0.2,0.9,0.3,1.5,0.3c1,0,1.9-0.4,2.6-1.1
	c1.4-1.4,1.4-3.8,0-5.2l-5.3-5.3l0,0L1-33.6c-0.6-0.3-2.5-0.3-2.7-0.1l-0.3,0.2l0,0L-2.6-33l-5.5,5.4c-1.4,1.4-1.4,3.8,0,5.2
	c0.7,0.7,1.6,1.1,2.6,1.1c0.5,0,1-0.1,1.5-0.3v12c-3.1,1.4-5.2,4.5-5.2,8.1c0,0.6,0.1,1.1,0.2,1.7l-16.1,6.4c0-0.5-0.1-0.9-0.2-1.4
	c-0.3-0.9-1-1.7-1.9-2.1c-0.5-0.2-1-0.3-1.5-0.3c-1.5,0-2.8,0.9-3.3,2.1l-3,6.6c-0.4,0.9-0.5,1.9-0.1,2.8c0.3,0.9,1.1,1.7,1.9,2.1
	l6.6,3c0.5,0.2,1,0.4,1.6,0.4c1.4,0,2.7-0.8,3.3-2.1c0.4-0.9,0.5-1.9,0.1-2.8c-0.2-0.5-0.5-1-0.9-1.4l18.1-7.2
	c1.3,0.7,2.8,1.1,4.3,1.1c1.6,0,3.2-0.4,4.5-1.2l18.6,7.3c-0.4,0.4-0.7,0.8-0.9,1.3c-0.4,0.9-0.3,2,0.1,2.8c0.6,1.3,1.9,2.1,3.3,2.1
	c0.5,0,1.1-0.1,1.6-0.4l6.7-3.1C35.4,15.5,36.1,13.4,35.3,11.6z"/>
</svg>
