<?xml version="1.0" encoding="utf-8"?>
<!-- Generator: Adobe Illustrator 19.2.0, SVG Export Plug-In . SVG Version: 6.00 Build 0)  -->
<svg version="1.0" id="Layer_1" xmlns="http://www.w3.org/2000/svg" xmlns:xlink="http://www.w3.org/1999/xlink" x="0px" y="0px"
	 width="1000px" height="1000px" viewBox="0 0 1000 1000" enable-background="new 0 0 1000 1000" xml:space="preserve">
<g>
	<path d="M17.8,5.1c-1.9,3.3-4,6.1-6.9,7.7C5,16,0.6,18.5,0.6,18.5l-11-5.7c-2.9-1.5-6.5-4.4-8.5-7.9c-9,3.6-13.8,12.3-13.8,19.9
		v16.3h65.6c0,0,0-8.5,0-16.3C32.8,17.3,26.6,8.8,17.8,5.1z"/>
	<path d="M-18.8-5.6C-16.1,3.1-9.2,12.1,0,12.1S16.1,3.1,18.7-5.6c2.3-0.8,4.2-3.1,4.9-6c1-4-0.5-7.8-3.4-8.9
		c0.3-1.1,0.4-2.1,0.4-3.3c0-9.6-9.6-17.3-21.3-17.3s-21.3,7.8-21.3,17.3c0,1.4,0.3,2.6,0.6,3.9c-2.1,1.5-3.2,4.8-2.3,8.3
		C-22.9-8.7-21-6.4-18.8-5.6z M-6.8-18.5c2.7,0,5,2,5.7,4.5h3.4c0.6-2.6,3-4.5,5.7-4.5c3.3,0,6,2.6,6,6c0,0.4-0.1,0.9-0.2,1.3
		c-0.6,2.7-3,4.7-5.8,4.7c-0.9,0-1.9-0.3-2.7-0.7C3.8-8,2.6-9.4,2.3-11h-3.4c-0.5,1.9-2,3.4-3.8,4.1c-0.7,0.2-1.3,0.3-2,0.3
		c-2,0-3.8-1-4.8-2.6c-0.7-0.9-1.1-2.1-1.1-3.4C-12.8-15.9-10.2-18.5-6.8-18.5z"/>
</g>
</svg>
