<?xml version="1.0" encoding="utf-8"?>
<!-- Generator: Adobe Illustrator 19.1.0, SVG Export Plug-In . SVG Version: 6.00 Build 0)  -->
<svg version="1.1" id="Layer_1" xmlns="http://www.w3.org/2000/svg" xmlns:xlink="http://www.w3.org/1999/xlink" x="0px" y="0px"
	 viewBox="0 0 1000 1000" style="enable-background:new 0 0 1000 1000;" xml:space="preserve">
<g>
	<g>
		<path d="M-27.7-12.4c0.9,3.4,3.1,6.1,5.8,7.1c3.1,10.3,11.2,20.9,22.1,20.9S19,4.9,22.1-5.4c2.7-0.9,4.9-3.6,5.8-7.1
			c1.2-4.9-0.7-9.5-4.4-10.7c0.8-1.2,1.7-2.4,1.7-3.7c0-2-2.1-3.7-2.8-5.6c-0.7-1.9-0.2-4.4-1.4-6c-1.2-1.5-3.9-1.7-5.5-2.8
			c-1.6-1.1-2.4-3.6-4.3-4.5C9.5-46.5,7-45.4,5-45.8c-1.9-0.4-3.7-2.3-5.8-2.3c-2.1,0-3.9,1.9-5.8,2.3c-2,0.4-4.4-0.7-6.2,0.1
			c-1.9,0.8-2.8,3.3-4.3,4.5c-1.7,1.2-4.3,1.3-5.5,2.8c-1.3,1.6-0.7,4.2-1.4,6c-0.7,1.9-2.8,3.5-2.8,5.6c0,1.6,1.2,2.9,2.1,4.3
			C-27.5-20.8-28.8-16.8-27.7-12.4z M24.4-13.3c-0.7,2.8-2.5,4.4-3.9,4.6l-1.2,0.2l-0.3,1.2C16.3,2.2,9,11.9,0.1,11.9
			c-8.9,0-16.2-9.7-18.8-19.3l-0.3-1.2l-1.2-0.2c-1.4-0.2-3.2-1.9-3.9-4.6c-0.5-2.1-0.2-4.1,0.7-5.3c0.4-0.5,0.8-0.9,1.3-1
			c0.1,0,0.2,0,0.4,0c0.1,0,0.2,0,0.3,0l1.7,0.2l0.3-1.7c0.7-4.5,2.3-8.4,4.5-11.5c0.4,0.9,0.3,2.5,1.2,3.1c0.9,0.5,2.6-0.6,3.7-0.2
			c1,0.4,1.5,2.3,2.6,2.6c1,0.2,2.4-1.3,3.5-1.2c1.1,0.1,2.1,1.9,3.2,1.9c1.1,0,2.1-1.8,3.2-1.9c1.1-0.1,2.5,1.5,3.5,1.2
			c1.1-0.2,1.7-2.2,2.6-2.6c1.1-0.4,2.8,0.7,3.7,0.2c1-0.6,0.7-2.6,1.3-3.4c0.2-0.3,0.5-0.5,0.9-0.7c2.7,3.3,4.6,7.6,5.3,12.5
			l0.3,1.7l1.7-0.2c0.2,0,0.3,0,0.5,0c0.1,0,0.1,0,0.2,0C24.2-19.2,25.1-16.2,24.4-13.3z"/>
		<path d="M17.6-13.4C17-17.9,5.8-20.1,3.8-15.6c-0.1,0.2-0.2,0.7-0.2,0.7c-2.3-1.1-4.9-1-7.2,0.1c-0.1-0.3-0.1-0.6-0.2-0.8
			c-2.1-4.6-13.9-2.1-13.9,2.6c0,0.1,0,0.2,0,0.2c0.1,2.1,1.8,3.5,4,4.2c3.1,1,7.2,0.6,8.9-1.2c0.8-0.9,1.2-1.9,1.4-3.1
			c2.1-1.3,4.8-1.4,6.9-0.1c0.1,0,0.1,0.1,0.2,0.1c0,1.1,0.5,2.2,1.3,3.1c1.3,1.5,4.1,2,6.8,1.7c0,0,0,0,0,0c3.1-0.4,6-2,6-4.9
			C17.6-13.1,17.6-13.3,17.6-13.4C17.6-13.4,17.6-13.4,17.6-13.4z"/>
		<path d="M20.5,8.2c-2.2,3.8-4.8,7-8.2,8.7c-7,3.6-12.2,6.5-12.2,6.5l0,0v-0.1l-0.1,0l-0.1,0v0.1l0,0c0,0-5.2-2.9-12.2-6.5
			c-3.4-1.7-6-4.9-8.2-8.7c-10.4,4.2-17.6,13.9-17.6,22.3c0,8.9,0,17.5,0,17.5h38h0.1h38c0,0,0-8.6,0-17.5
			C38,22.1,30.8,12.4,20.5,8.2z"/>
	</g>
</g>
</svg>
