<?xml version="1.0" encoding="utf-8"?>
<!-- Generator: Adobe Illustrator 19.1.0, SVG Export Plug-In . SVG Version: 6.00 Build 0)  -->
<svg version="1.1" id="Layer_1" xmlns="http://www.w3.org/2000/svg" xmlns:xlink="http://www.w3.org/1999/xlink" x="0px" y="0px"
	 viewBox="0 0 1000 1000" style="enable-background:new 0 0 1000 1000;" xml:space="preserve">
<style type="text/css">
	.st0{fill:#FFFFFF;}
</style>
<path class="st0" d="M26.1,49.7l6.5-12.5c2.2-4.3,3.4-9.1,3.4-13.9V23c0-5.4-2-10.7-5.5-14.8C27,4.1,22,1.4,16.7,0.7L4.4-1.3v-21.5
	c0-5.1-4.2-9.3-9.3-9.3H-5c-5.1,0-9.3,4.2-9.3,9.3v34.5L-27,6.3c-2.6-1.1-5.5-0.8-7.8,0.7c-2.3,1.5-3.7,4.1-3.7,6.9V14
	c0,2.4,1,4.6,2.8,6.2l21.5,19.1v10.4H26.1z M-5-38.3c1.3,0,2.4-1.1,2.4-2.4V-48c0-1.3-1.1-2.4-2.4-2.4s-2.4,1.1-2.4,2.4v7.3
	C-7.4-39.4-6.3-38.3-5-38.3z M9.9-18.7c0,1.3,1.1,2.4,2.4,2.4h7.3c1.3,0,2.4-1.1,2.4-2.4s-1.1-2.4-2.4-2.4h-7.3
	C11-21.1,9.9-20.1,9.9-18.7z M10.4-32.3c0.6,0,1.2-0.2,1.7-0.7l5.2-5.2c0.9-0.9,0.9-2.5,0-3.4c-0.9-0.9-2.5-0.9-3.4,0l-5.2,5.2
	c-0.9,0.9-0.9,2.5,0,3.4C9.2-32.5,9.8-32.3,10.4-32.3z M-23.9-33c0.5,0.5,1.1,0.7,1.7,0.7s1.2-0.2,1.7-0.7c0.9-0.9,0.9-2.5,0-3.4
	l-5.2-5.2c-0.9-0.9-2.5-0.9-3.4,0c-0.9,0.9-0.9,2.5,0,3.4L-23.9-33z M-31.3-16.3h7.3c1.3,0,2.4-1.1,2.4-2.4s-1.1-2.4-2.4-2.4h-7.3
	c-1.3,0-2.4,1.1-2.4,2.4S-32.6-16.3-31.3-16.3z"/>
<g>
</g>
<g>
</g>
<g>
</g>
<g>
</g>
<g>
</g>
<g>
</g>
</svg>
