<?xml version="1.0" encoding="utf-8"?>
<!-- Generator: Adobe Illustrator 19.2.0, SVG Export Plug-In . SVG Version: 6.00 Build 0)  -->
<svg version="1.1" id="Layer_1" xmlns="http://www.w3.org/2000/svg" xmlns:xlink="http://www.w3.org/1999/xlink" x="0px" y="0px"
	 width="1000px" height="1000px" viewBox="0 0 1000 1000" style="enable-background:new 0 0 1000 1000;" xml:space="preserve">
<style type="text/css">
	.st0{fill:#FFFFFF;}
</style>
<g>
	<g id="Wi-Fi">
		<g>
			<circle class="st0" cx="0" cy="23.4" r="8.2"/>
			<path class="st0" d="M43.7-13.3C32.8-26.3,16.9-33.7,0-33.7s-32.8,7.4-43.7,20.4c-1.4,1.7-1.2,4.3,0.5,5.7
				c0.7,0.7,1.7,0.9,2.6,0.9c1.1,0,2.3-0.5,3.1-1.5c9.4-11.2,23-17.5,37.5-17.5s28.1,6.4,37.5,17.5c0.8,0.9,2,1.5,3.1,1.5
				c0.9,0,1.9-0.3,2.6-0.9C44.9-9,45.2-11.6,43.7-13.3z"/>
			<path class="st0" d="M0-17.4c-12.1,0-23.4,5.3-31.2,14.6c-1.4,1.7-1.2,4.3,0.5,5.7c0.7,0.7,1.7,0.9,2.6,0.9
				c1.1,0,2.3-0.5,3.1-1.5C-18.7-4.9-9.6-9.3,0-9.3S18.7-4.9,24.9,2.5C25.8,3.4,26.9,4,28,4C29,4,29.9,3.7,30.6,3
				c1.7-1.4,2-4,0.5-5.7C23.4-12.1,12.1-17.4,0-17.4z"/>
			<path class="st0" d="M0-1.1c-7.2,0-14.1,3.2-18.7,8.7c-1.4,1.7-1.2,4.3,0.5,5.7c0.7,0.7,1.7,0.9,2.6,0.9c1.1,0,2.3-0.5,3.1-1.5
				C-9.4,9.2-4.8,7.1,0,7.1s9.4,2.2,12.5,5.8c0.8,0.9,2,1.5,3.1,1.5c0.9,0,1.9-0.3,2.6-0.9c1.7-1.4,2-4,0.5-5.7
				C14.1,2.1,7.2-1.1,0-1.1z"/>
		</g>
	</g>
</g>
</svg>
