<?xml version="1.0" encoding="utf-8"?>
<!-- Generator: Adobe Illustrator 19.1.0, SVG Export Plug-In . SVG Version: 6.00 Build 0)  -->
<svg version="1.1" id="Layer_1" xmlns="http://www.w3.org/2000/svg" xmlns:xlink="http://www.w3.org/1999/xlink" x="0px" y="0px"
	 viewBox="0 0 1000 1000" style="enable-background:new 0 0 1000 1000;" xml:space="preserve">
<style type="text/css">
	.st0{fill:#FFFFFF;}
</style>
<g>
	<g>
		<path class="st0" d="M-24-9.4c3.4,10.9,12,22.3,23.7,22.3c11.7,0,20.3-11.3,23.7-22.3c2.9-1,5.3-3.8,6.2-7.5c0.8-3,0.4-6-0.9-8.3
			c-0.9-1.5-2.1-2.5-3.6-3c7.1-25.2-39.3-24.8-49.6-9.4c-2,3-3,6.6-2.4,10c-0.9,0.5-1.7,1.4-2.3,2.4C-30.6-23-31-20-30.2-17
			C-29.3-13.3-26.9-10.4-24-9.4z M25.7-17.9C25-15,23-13.2,21.5-13l-1.3,0.2l-0.3,1.2C17-1.4,9.2,8.9-0.4,8.9S-17.8-1.4-20.6-11.6
			l-0.3-1.2l-1.3-0.2c-1.6-0.2-3.5-2-4.3-4.9c-0.5-2-0.3-4,0.5-5.3c0.1-0.2,0.2-0.4,0.4-0.5c0.4,0.6,0.8,1.3,1.4,1.8
			c2.7,2.8,6.9,4.2,10.8,3.5c8.9-1.6,14.1-4.2,20.1-8.6c5.5-4,6.8-2.2,10,1.3c1.2,1.2,2.7,1.6,4.2,1.3v0l1.8-0.2c0.3,0,0.5,0,0.8,0
			c0.8,0.2,1.4,0.8,1.6,1.4C26-21.9,26.2-19.9,25.7-17.9z"/>
		<path class="st0" d="M21.8,5.9c-2.4,4-5.1,7.4-8.7,9.3c-7.4,3.8-13,6.9-13,6.9l0,0V22L0,22l-0.1,0V22l0,0c0,0-5.5-3.1-13-6.9
			c-3.6-1.8-6.3-5.2-8.7-9.3c-11.1,4.5-18.8,14.8-18.8,23.8c0,9.5,0,18.7,0,18.7h40.5h0.2h40.4c0,0,0-9.2,0-18.7
			C40.5,20.7,32.8,10.4,21.8,5.9z"/>
	</g>
</g>
</svg>
