<?xml version="1.0" encoding="utf-8"?>
<!-- Generator: Adobe Illustrator 19.1.0, SVG Export Plug-In . SVG Version: 6.00 Build 0)  -->
<svg version="1.1" id="Layer_1" xmlns="http://www.w3.org/2000/svg" xmlns:xlink="http://www.w3.org/1999/xlink" x="0px" y="0px"
	 viewBox="0 0 1000 1000" style="enable-background:new 0 0 1000 1000;" xml:space="preserve">
<g>
	<g>
		<path d="M38.4,29.1c0-8.8-7.2-18.8-17.5-23.1c-2.2,3.9-4.7,7.2-8.1,9c-7,3.7-12.1,6.7-12.1,6.7L-12.2,15c-3.4-1.8-7.6-5.2-10-9.2
			C-32.7,10-38.4,20.2-38.4,29.1v19.1h76.8C38.4,48.2,38.4,38.3,38.4,29.1z"/>
		<path d="M-27.7-13.6c0.9,3.4,3.1,6.1,5.7,7C-18.8,3.6-10.8,14.2,0,14.2S18.8,3.6,21.9-6.6c2.7-0.9,4.9-3.6,5.7-7
			c1.2-4.7-0.6-9.1-4-10.4c0.3-1.3,0.5-2.5,0.5-3.9c0-11.2-11.2-20.2-24.9-20.2s-24.9,9.1-24.9,20.2c0,1.6,0.3,3.1,0.7,4.6
			C-27.5-21.5-28.7-17.7-27.7-13.6z M-23.6-19.7c0.4-0.6,0.9-1,1.4-1.1c0.1,0,0.2,0,0.4,0c0.1,0,0.2,0,0.3,0l1.7,0.2l0.3-1.7
			c0.7-4.9,2.5-9,5.1-12.2c1.7,2.9,7.1,5.1,13.5,5.1c7.4,0,13.5-2.9,14-6.5c3.3,3.4,5.5,8.1,6.4,13.7l0.3,1.7l1.7-0.2
			c0.2,0,0.5,0,0.7,0c0.1,0,0.2,0.1,0.3,0.1c1.6,0.7,2.3,3.4,1.7,6.1c-0.7,2.8-2.5,4.4-3.9,4.6L19-9.8l-0.3,1.1
			C16.1,0.9,8.8,10.5,0,10.5S-16.1,0.9-18.7-8.6L-19-9.8l-1.2-0.2c-1.4-0.2-3.2-1.8-3.9-4.6C-24.6-16.5-24.3-18.4-23.6-19.7z"/>
		<path d="M-8.1-7.7c0.8,0,1.5-0.2,2.3-0.4c2.2-0.8,3.9-2.6,4.5-4.8h4C3.1-11,4.4-9.4,6.2-8.5c1,0.5,2.1,0.8,3.2,0.8
			c3.3,0,6.1-2.3,6.8-5.5c0.1-0.5,0.2-1,0.2-1.5c0-3.9-3.1-7-7-7c-3.2,0-6,2.2-6.7,5.3h-4c-0.8-3-3.5-5.3-6.7-5.3c-3.9,0-7,3.1-7,7
			c0,1.5,0.5,2.9,1.3,4C-12.5-8.9-10.4-7.7-8.1-7.7z M9.4-18.2c1.9,0,3.5,1.6,3.5,3.5s-1.6,3.5-3.5,3.5s-3.5-1.6-3.5-3.5
			S7.4-18.2,9.4-18.2z M-8.1-18.2c1.9,0,3.5,1.6,3.5,3.5s-1.6,3.5-3.5,3.5s-3.5-1.6-3.5-3.5S-10-18.2-8.1-18.2z"/>
	</g>
</g>
</svg>
