<?xml version="1.0" encoding="utf-8"?>
<!-- Generator: Adobe Illustrator 19.1.0, SVG Export Plug-In . SVG Version: 6.00 Build 0)  -->
<svg version="1.1" id="Layer_1" xmlns="http://www.w3.org/2000/svg" xmlns:xlink="http://www.w3.org/1999/xlink" x="0px" y="0px"
	 viewBox="0 0 1000 1000" style="enable-background:new 0 0 1000 1000;" xml:space="preserve">
<g>
	<g>
		<g>
			<path d="M-27.5-12.9c0.9,3.5,3.1,6.2,5.8,7.1c3.1,10.3,11.2,21,22.1,21c10.9,0,19-10.7,22.1-21c2.7-0.9,4.9-3.6,5.8-7.1
				c1.2-4.9-0.7-9.6-4.4-10.7c0-0.2,0-0.4,0-0.6c0.2-1,1.4-2,1.4-3.1c0-1.1-1.2-2.1-1.4-3.1c-0.2-1.1,0.5-2.4,0.1-3.4
				c-0.4-1-1.8-1.5-2.4-2.4c-0.6-0.9-0.4-2.4-1.1-3.2c-0.7-0.8-2.2-0.8-3.1-1.5c-0.8-0.7-1.1-2.2-2-2.8C14.5-44.4,13-44,12-44.5
				c-1-0.5-1.6-1.9-2.6-2.2C8.4-47,7-46.3,6-46.5c-1-0.2-2-1.5-3.1-1.5c-1.1-0.1-2.2,0.9-3.3,0.9s-2.3-1-3.3-0.9
				c-1.1,0.1-2,1.3-3.1,1.5c-1.1,0.2-2.4-0.5-3.4-0.2c-1,0.3-1.7,1.7-2.6,2.2c-1,0.5-2.5,0.1-3.4,0.6c-0.9,0.6-1.2,2.1-2,2.8
				c-0.8,0.7-2.4,0.7-3.1,1.5c-0.7,0.8-0.5,2.3-1.1,3.2c-0.6,0.9-2,1.4-2.4,2.4c-0.4,1,0.3,2.4,0.1,3.4c-0.2,1-1.4,2-1.4,3.1
				c0,1.1,1.2,2.1,1.4,3.1c0.1,0.5,0,1-0.1,1.5C-27.4-20.8-28.6-17-27.5-12.9z M24.7-13.8c-0.7,2.8-2.5,4.4-4,4.6L19.6-9l-0.3,1.2
				C16.6,1.8,9.3,11.5,0.4,11.5S-15.9,1.8-18.5-7.8L-18.8-9L-20-9.2c-1.4-0.2-3.3-1.9-4-4.6c-0.5-2.1-0.2-4.2,0.7-5.4
				c0.4-0.5,0.8-0.8,1.3-1c0.1,0,0.2,0,0.4,0c0.1,0,0.2,0,0.3,0l1.7,0.2l0.3-1.7c1.7-11.7,9.6-19.5,19.7-19.5S18.3-33.4,20-21.7
				l0.3,1.7l1.7-0.2c0.3,0,0.5,0,0.7,0c0.2,0,0.4,0.1,0.6,0.2C24.7-19,25.4-16.4,24.7-13.8z"/>
			<path d="M-7.8-3.9C-10.7-1-10.4,4-10.4,4s5,0.3,7.9-2.6s2.6-7.9,2.6-7.9S-4.9-6.8-7.8-3.9z"/>
			<path d="M0.2-6.4c0,0-0.3,5,2.6,7.9C5.7,4.4,10.7,4,10.7,4S11-1,8.1-3.9C5.2-6.8,0.2-6.4,0.2-6.4z"/>
		</g>
		<path d="M21,6.9c-2.3,3.9-4.9,7.2-8.4,9C5.4,19.6,0,22.6,0,22.6l0,0v-0.1l-0.1,0l-0.1,0v0.1l0,0c0,0-5.4-3-12.6-6.7
			c-3.5-1.8-6.2-5.1-8.4-9C-31.9,11.3-39.3,21.3-39.3,30c0,9.2,0,18.1,0,18.1h39.3h0.2h39.3c0,0,0-8.9,0-18.1
			C39.2,21.3,31.8,11.3,21,6.9z"/>
	</g>
</g>
</svg>
