<?xml version="1.0" encoding="utf-8"?>
<!-- Generator: Adobe Illustrator 19.1.0, SVG Export Plug-In . SVG Version: 6.00 Build 0)  -->
<svg version="1.1" id="Layer_1" xmlns="http://www.w3.org/2000/svg" xmlns:xlink="http://www.w3.org/1999/xlink" x="0px" y="0px"
	 viewBox="0 0 1000 1000" style="enable-background:new 0 0 1000 1000;" xml:space="preserve">
<g>
	<path d="M20-10.7c2.4-0.8,4.4-3.3,5.2-6.4c1.1-4.3-0.5-8.3-3.6-9.5c0.3-1.1,0.4-2.3,0.4-3.5c0-10.2-10.1-18.4-22.7-18.4
		S-23.3-40.1-23.3-30c0,1.4,0.2,2.9,0.6,4.2c-2.2,1.7-3.2,5.1-2.3,8.8c0.8,3.1,2.8,5.5,5.2,6.4C-17-1.4-9.7,8.2,0.1,8.2
		S17.2-1.4,20-10.7z M0.1,4.9c-8,0-14.6-8.7-17-17.4l-0.3-1.1l-1.1-0.2c-1.3-0.2-2.9-1.7-3.6-4.2c-0.5-1.8-0.2-3.5,0.5-4.7
		c0.3-0.5,0.8-0.9,1.3-1.1c0.1,0,0.2,0,0.4,0c0.1,0,0.2,0,0.3,0l1.6,0.2l0.2-1.5c0.5-3.2,1.5-6.1,2.9-8.6c2.6,3,7.9,5,14,5
		c6.9,0,12.7-2.6,14.8-6.2c1.8,2.7,3.1,6,3.7,9.8l0.2,1.5l1.6-0.2c0.2,0,0.5,0,0.6,0c0.1,0,0.2,0.1,0.3,0.1c1.4,0.6,2.1,3.1,1.5,5.6
		c-0.6,2.5-2.3,4-3.6,4.2l-1.1,0.2l-0.3,1.1C14.8-3.8,8.1,4.9,0.1,4.9z M6.8,10.2l-4.5,2.2c-0.4-0.9-1.1-1.4-2-1.4
		c-0.9,0-1.6,0.7-2,1.6l-4.8-2.3c-2.2-1.1-4,0.2-4,2.8c0,0.9,0.2,1.6,0.6,2.2c0.6,0.9,1.5,1.4,2.6,1.4c0.3,0,0.6-0.1,0.9-0.2
		l4.5-1.5c0.3,1.1,1.2,2,2.1,2c1,0,1.8-0.8,2.1-1.9l4.2,1.4c0.6,0.2,1.1,0.2,1.6,0.2c0.6-0.1,1.1-0.4,1.5-0.8c0.6-0.6,1-1.6,1-2.7
		C10.8,10.4,9,9.1,6.8,10.2z M19.7,9.9c-2.1,3.6-4.6,6.7-7.9,8.4c-6.8,3.5-11.8,6.3-11.8,6.3l0,0v-0.1l-0.1,0l-0.1,0v0.1l0,0
		c0,0-5-2.8-11.8-6.3c-3.3-1.7-5.7-4.7-7.9-8.4c-10,4.1-17,13.4-17,21.5c0,8.6,0,16.9,0,16.9h36.6h0.2h36.6c0,0,0-8.3,0-16.9
		C36.7,23.3,29.7,14,19.7,9.9z"/>
</g>
</svg>
