<?xml version="1.0" encoding="utf-8"?>
<!-- Generator: Adobe Illustrator 19.1.0, SVG Export Plug-In . SVG Version: 6.00 Build 0)  -->
<svg version="1.1" id="Layer_1" xmlns="http://www.w3.org/2000/svg" xmlns:xlink="http://www.w3.org/1999/xlink" x="0px" y="0px"
	 viewBox="0 0 1000 1000" style="enable-background:new 0 0 1000 1000;" xml:space="preserve">
<style type="text/css">
	.st0{fill:#010101;}
</style>
<g>
	<path class="st0" d="M-33.9-21.6c0,1.4,1.5,2.7,1.7,4.1c0.3,1.4-0.6,3.1-0.1,4.4c0.5,1.3,2.3,2,3.1,3.1c0.7,1.2,0.5,3.1,1.5,4.1
		c0.9,1,2.7,1.1,3.8,1.9c0.2,0.3,0.5,0.5,0.7,0.8c0.7,1,1.1,2.3,2,2.9c0.3,0.2,0.7,0.3,1.1,0.4C-16.8,9.1-9.6,18,0,18
		c10,0,17.5-9.7,20.5-19.2c0.1-0.1,0.2-0.3,0.3-0.4c1.5-0.6,2.9-1.7,3.9-3.3c0.6-0.2,1.1-0.5,1.5-0.9c0.9-1.1,0.7-3,1.5-4.1
		c0.7-1.2,2.6-1.9,3.1-3.2c0.5-1.3-0.3-3-0.1-4.4c0.3-1.4,1.7-2.6,1.7-4.1c0-1.4-1.5-2.7-1.7-4.1c-0.3-1.4,0.6-3.1,0.1-4.4
		c-0.5-1.3-2.3-2-3.1-3.1c-0.7-1.2-0.5-3.1-1.5-4.1c-0.9-1-2.8-1.1-3.9-2c-1.1-0.9-1.4-2.8-2.6-3.5c-1.2-0.7-3-0.3-4.3-0.9
		c-1.2-0.6-2.1-2.3-3.4-2.8c-1.3-0.5-3,0.5-4.4,0.1c-1.3-0.3-2.5-1.8-3.9-2c-1.4-0.1-2.9,1.1-4.3,1.1s-2.9-1.2-4.3-1.1
		c-1.4,0.1-2.6,1.7-3.9,2c-1.4,0.3-3.1-0.6-4.4-0.1c-1.3,0.5-2.2,2.2-3.4,2.8c-1.3,0.6-3.2,0.1-4.3,0.9c-1.2,0.8-1.6,2.7-2.6,3.5
		c-1.1,0.9-3,1-3.9,2c-0.9,1.1-0.7,3-1.5,4.1c-0.7,1.2-2.6,1.9-3.1,3.2c-0.5,1.3,0.3,3,0.1,4.4C-32.4-24.3-33.9-23-33.9-21.6z
		 M17.6-3.4c-0.3,1.3-0.8,2.5-1.3,3.7C13.2,7.9,7.2,14.6,0,14.6c-6.8,0-12.7-6.1-15.9-13.3c-0.7-1.5-1.3-3.1-1.7-4.7l-0.3-1.1
		L-19-4.7c-1.3-0.2-3-1.7-3.7-4.3c-0.7-2.7,0.2-5.5,1.9-5.9c0.1,0,0.2,0,0.4,0c0.1,0,0.2,0,0.3,0l1.6,0.1l0.2-1.6
		c0.5-2.9,1.3-5.6,2.5-8c0.4-0.1,0.9-0.1,1.3-0.1c1.5,0.3,2.7,2.6,4.3,2.8c1.5,0.2,3.2-1.8,4.8-1.7c1.5,0.1,3,2.3,4.6,2.3
		c1.6,0,3.1-2.2,4.6-2.3c1.6-0.1,3.3,1.9,4.8,1.7c1.6-0.2,2.8-2.5,4.3-2.8c1-0.2,2.2,0.4,3.3,0.8c1,2.2,1.8,4.6,2.2,7.3l0.2,1.6
		l1.6-0.1c0.2,0,0.5,0,0.7,0c1.7,0.4,2.5,3.2,1.9,5.9c-0.7,2.6-2.3,4.1-3.7,4.3l-1.1,0.1L17.6-3.4z M7.9-14.6
		c-2.9,0-5.3,1.8-6.3,4.3c-1.7-0.7-3.7-0.8-5.4-0.1c-1-2.5-3.5-4.2-6.3-4.2c-3.8,0-6.8,3.1-6.8,6.8s3.1,6.8,6.8,6.8
		c3.5,0,6.3-2.7,6.8-6c1.4-1,3.2-0.9,4.6,0.2c0.5,3.3,3.3,5.8,6.7,5.8c3.8,0,6.8-3.1,6.8-6.8C14.8-11.5,11.7-14.6,7.9-14.6z
		 M-10.2-4.2c-2,0-3.6-1.6-3.6-3.6c0-2,1.6-3.6,3.6-3.6c2,0,3.6,1.6,3.6,3.6C-6.6-5.8-8.2-4.2-10.2-4.2z M7.9-4.2
		c-2,0-3.6-1.6-3.6-3.6c0-2,1.6-3.6,3.6-3.6c2,0,3.6,1.6,3.6,3.6C11.5-5.8,9.9-4.2,7.9-4.2z M19.1,11.1c-2.1,3.5-4.5,6.5-7.6,8.1
		c-6.5,3.3-11.4,6.1-11.4,6.1l0,0v-0.1l-0.1,0l-0.1,0v0.1l0,0c0,0-4.9-2.7-11.4-6.1c-3.2-1.6-5.6-4.6-7.6-8.1
		c-9.7,3.9-16.4,13-16.4,20.9c0,8.3,0,16.4,0,16.4h35.5h0.1h35.5c0,0,0-8.1,0-16.4C35.6,24.1,28.8,15,19.1,11.1z"/>
</g>
<g>
</g>
<g>
</g>
<g>
</g>
<g>
</g>
<g>
</g>
<g>
</g>
</svg>
