<?xml version="1.0" encoding="utf-8"?>
<!-- Generator: Adobe Illustrator 19.1.0, SVG Export Plug-In . SVG Version: 6.00 Build 0)  -->
<svg version="1.1" id="Layer_1" xmlns="http://www.w3.org/2000/svg" xmlns:xlink="http://www.w3.org/1999/xlink" x="0px" y="0px"
	 viewBox="0 0 1000 1000" style="enable-background:new 0 0 1000 1000;" xml:space="preserve">
<g>
	<path d="M-20.5-18.1c-0.1,0-0.1,0-0.2,0c-3.4,0.9-5.3,5.1-4.1,9.6c0.8,3.1,2.8,5.5,5.2,6.3C-16.8,6.9-9.7,16.4,0,16.4
		S16.8,6.9,19.6-2.2C22-3.1,24-5.5,24.8-8.5c1.1-4.5-0.7-8.7-4.1-9.6c-0.1,0-0.1,0-0.2,0c-0.3-1.8-0.9-3.5-1.5-5
		c-0.2-2.9-2.2-6.3-5.5-8.7c-0.5-0.3-0.9-0.6-1.4-0.9c-1-0.8-2.2-1.6-3.4-2.1c0.3-0.9,0.4-1.9,0.4-2.8c0-5.9-4.8-10.6-10.6-10.6
		s-10.6,4.8-10.6,10.6c0,1.6,0.4,3.1,1,4.4C-15.8-30.1-19.2-24.8-20.5-18.1z M21.6-9.3c-0.6,2.5-2.2,3.9-3.5,4.1L17-5.1l-0.3,1
		C14.4,4.5,7.9,13.1,0,13.1S-14.4,4.5-16.7-4l-0.3-1L-18-5.2c-1.3-0.2-2.9-1.6-3.5-4.1c-0.6-2.6,0.2-5.2,1.8-5.6c0.1,0,0.2,0,0.3,0
		c0.1,0,0.2,0,0.3,0l0.3,0c0.3,2.3,1.2,4.4,2.8,6c4.8,4.8,3.1-5.9,9.4-12.2c2-2,4.4-3.2,6.8-4.2c0.9,1.9,2.5,3.8,4.6,5.3
		c4.4,3.2,9.6,3.8,12.4,1.6c0.2,0.7,0.3,1.4,0.4,2.1l0.2,1.5l1.5-0.1c0.2,0,0.4,0,0.6,0C21.4-14.5,22.2-11.9,21.6-9.3z M19,11.3
		c-2.1,3.5-4.4,6.5-7.6,8.1c-6.5,3.3-11.4,6-11.4,6l0,0v-0.1l-0.1,0l-0.1,0v0.1l0,0c0,0-4.8-2.7-11.4-6c-3.2-1.6-5.5-4.6-7.6-8.1
		c-9.6,3.9-16.4,12.9-16.4,20.8c0,8.3,0,16.3,0,16.3h35.4h0.1h35.4c0,0,0-8,0-16.3C35.4,24.2,28.7,15.2,19,11.3z"/>
</g>
</svg>
