<?xml version="1.0" encoding="utf-8"?>
<!-- Generator: Adobe Illustrator 19.1.0, SVG Export Plug-In . SVG Version: 6.00 Build 0)  -->
<svg version="1.1" id="Layer_1" xmlns="http://www.w3.org/2000/svg" xmlns:xlink="http://www.w3.org/1999/xlink" x="0px" y="0px"
	 viewBox="0 0 1000 1000" style="enable-background:new 0 0 1000 1000;" xml:space="preserve">
<style type="text/css">
	.st0{fill:#FFFFFF;}
</style>
<g>
	<g>
		<path class="st0" d="M-3.7-0.4c-8.3-1.7-14.5-9-14.5-17.8c0-6.6,3.6-12.4,8.9-15.5c1.7,3.7,5.2,7.4,9.9,10.1
			c6.2,3.6,12.9,4.5,17.2,2.8c0.1,0.9,0.3,1.7,0.3,2.6c0,8.8-6.2,16.1-14.5,17.8c11.6-1.8,20.5-11.7,20.5-23.8
			c0-13.4-10.8-24.2-24.2-24.2c-13.4,0-24.2,10.8-24.2,24.2C-24.2-12.1-15.3-2.1-3.7-0.4z"/>
		<path class="st0" d="M18.1,6h-3c0,8.3-6.8,15.1-15.1,15.1c-8.3,0-15.1-6.8-15.1-15.1h-3c-10,0-18.1,8.1-18.1,18.1v18.1
			c0,3.3,2.7,6,6,6h60.5c3.3,0,6-2.7,6-6V24.2C36.3,14.2,28.2,6,18.1,6z"/>
	</g>
</g>
<g>
</g>
<g>
</g>
<g>
</g>
<g>
</g>
<g>
</g>
<g>
</g>
</svg>
