<?xml version="1.0" encoding="utf-8"?>
<!-- Generator: Adobe Illustrator 19.2.0, SVG Export Plug-In . SVG Version: 6.00 Build 0)  -->
<svg version="1.1" id="Layer_1" xmlns="http://www.w3.org/2000/svg" xmlns:xlink="http://www.w3.org/1999/xlink" x="0px" y="0px"
	 width="1000px" height="1000px" viewBox="0 0 1000 1000" style="enable-background:new 0 0 1000 1000;" xml:space="preserve">
<style type="text/css">
	.st0{fill:#FFFFFF;}
</style>
<path class="st0" d="M-24.7,4.3c-0.5,1.4-0.2,3,0.9,4.1l21.2,21.2c0.7,0.7,1.8,1.1,2.7,1.1c1.1,0,1.9-0.4,2.7-1.1L23.9,8.4
	c1.1-1.1,1.4-2.7,0.9-4.1S22.8,2,21.2,2h-9.4v-27.6c0-2.8-2.3-5.1-5.1-5.1H-7.1c-2.8,0-5.1,2.3-5.1,5.1V2h-9
	C-22.8,2-24.2,2.9-24.7,4.3z"/>
</svg>
