<?xml version="1.0" encoding="utf-8"?>
<!-- Generator: Adobe Illustrator 19.2.0, SVG Export Plug-In . SVG Version: 6.00 Build 0)  -->
<svg version="1.1" id="Layer_1" xmlns="http://www.w3.org/2000/svg" xmlns:xlink="http://www.w3.org/1999/xlink" x="0px" y="0px"
	 width="1000px" height="1000px" viewBox="0 0 1000 1000" style="enable-background:new 0 0 1000 1000;" xml:space="preserve">
<style type="text/css">
	.st0{fill:#FFFFFF;}
</style>
<g id="Settings">
	<g>
		<path class="st0" d="M34.1-3.8c-0.1-1-1.2-1.7-2.2-1.7c-3.1,0-5.9-1.8-7.1-4.7s-0.4-6.3,1.9-8.5c0.7-0.7,0.8-1.8,0.2-2.6
			c-1.6-2-3.4-3.9-5.4-5.5c-0.8-0.6-1.9-0.5-2.6,0.2c-2,2.3-5.7,3.1-8.6,1.9c-3-1.2-4.8-4.2-4.6-7.5c0.1-1-0.7-1.9-1.7-2
			c-2.6-0.3-5.2-0.3-7.7,0c-1,0.1-1.7,1-1.7,2c0.1,3.2-1.8,6.1-4.7,7.3c-2.8,1.1-6.5,0.3-8.5-1.9c-0.7-0.7-1.8-0.8-2.6-0.2
			c-2.1,1.6-3.9,3.5-5.6,5.5c-0.6,0.8-0.5,1.9,0.2,2.6c2.4,2.2,3.2,5.6,1.9,8.6c-1.2,2.8-4.1,4.6-7.5,4.6c-1.1,0-1.9,0.7-2,1.7
			c-0.3,2.6-0.3,5.2,0,7.8c0.1,1,1.3,1.7,2.3,1.7c3-0.1,5.9,1.8,7.1,4.7s0.4,6.3-1.9,8.5c-0.7,0.7-0.8,1.8-0.2,2.6
			c1.6,2,3.4,3.9,5.4,5.5c0.8,0.6,1.9,0.5,2.6-0.2c2.1-2.3,5.7-3.1,8.6-1.9c3,1.2,4.8,4.2,4.6,7.5c-0.1,1,0.7,1.9,1.7,2
			c1.3,0.2,2.6,0.2,4,0.2c1.3,0,2.5-0.1,3.8-0.2c1-0.1,1.7-1,1.7-2C5.3,29,7.2,26,10.1,24.8c2.8-1.2,6.5-0.3,8.5,1.9
			c0.7,0.7,1.8,0.8,2.6,0.2c2.1-1.6,3.9-3.5,5.6-5.5c0.6-0.8,0.5-1.9-0.2-2.6c-2.4-2.2-3.2-5.6-1.9-8.6c1.2-2.8,4-4.7,7-4.7h0.4
			c1,0.1,1.9-0.7,2-1.7C34.4,1.4,34.4-1.2,34.1-3.8z"/>
		<path class="st0" d="M0.1,11.5c-6.3,0-11.5-5.1-11.5-11.5c0-6.3,5.1-11.5,11.5-11.5c6.3,0,11.5,5.1,11.5,11.5
			C11.5,6.4,6.4,11.5,0.1,11.5z"/>
	</g>
</g>
</svg>
