<?xml version="1.0" encoding="utf-8"?>
<!-- Generator: Adobe Illustrator 19.1.0, SVG Export Plug-In . SVG Version: 6.00 Build 0)  -->
<svg version="1.1" id="Layer_1" xmlns="http://www.w3.org/2000/svg" xmlns:xlink="http://www.w3.org/1999/xlink" x="0px" y="0px"
	 viewBox="0 0 1000 1000" style="enable-background:new 0 0 1000 1000;" xml:space="preserve">
<style type="text/css">
	.st0{fill:#939598;stroke:#000000;}
</style>
<g>
	<path class="st0" d="M43.7-72h-87.3C-59.3-72-72-59.3-72-43.7v87.3C-72,59.3-59.3,72-43.7,72h87.3C59.3,72,72,59.3,72,43.7v-87.3
		C72-59.3,59.3-72,43.7-72z M45.9,46.2C34.3,57.8,17.7,60,8.1,51.6c-2.7,0.4-5.4,0.6-8.2,0.6c-28.8,0-52.2-23.3-52.2-52.2
		c0-2.8,0.2-5.6,0.6-8.2c-8-9.7-5.6-26,5.7-37.3c11.3-11.3,27.4-13.7,37.1-5.9c2.8-0.5,5.7-0.7,8.6-0.7c28.8,0,52.2,23.3,52.2,52.2
		c0,2.9-0.2,5.8-0.7,8.6C59.6,18.3,57.3,34.8,45.9,46.2z"/>
	<path class="st0" d="M20-1.7C16.7-3.4,12.4-5,7.2-6.2C2.8-7.3-0.7-8.2-3.2-9c-2.5-0.7-4.5-1.7-6-2.8c-1.5-1.1-2.2-2.6-2.2-4.3
		c0-1.9,1-3.5,3-4.8c2-1.3,4.5-1.9,7.6-1.9c3,0,5.3,0.5,7,1.5c1.7,1,3.2,2.3,4.5,3.9c1.6,2,2.9,3.5,4.2,4.4c1.2,1,2.7,1.5,4.4,1.5
		c2.4,0,4.2-0.6,5.5-1.8c1.3-1.2,1.9-2.8,1.9-4.7c0-1.8-0.6-3.6-1.8-5.4c-1.2-1.9-3-3.5-5.3-5.1c-2.3-1.5-5.2-2.7-8.7-3.6
		c-3.5-0.9-7.4-1.4-11.7-1.4c-5.5,0-10.3,0.9-14.2,2.7c-3.9,1.8-6.9,4.2-8.9,7.2c-2,3-3,6.2-3,9.6c0,3.8,1.1,7,3.3,9.6
		c2.2,2.6,5.1,4.7,8.7,6.3c3.6,1.6,8.4,3.1,14.2,4.5C4.4,7.4,8.1,8.7,10.3,10c2.2,1.4,3.4,3.5,3.4,6.5c0,1.9-1.1,3.6-3.2,5.1
		c-2.2,1.5-4.9,2.3-8.3,2.3c-4.2,0-7.4-0.7-9.8-2.2c-2.4-1.5-4.5-3.7-6.2-6.7c-0.9-1.6-1.8-2.8-2.7-3.6c-0.9-0.9-2.3-1.3-4.1-1.3
		c-2,0-3.7,0.7-5,2c-1.3,1.3-2,2.9-2,4.7c0,2.8,1,5.6,3.1,8.4c2.1,2.8,5.2,5.1,9.6,6.9c4.3,1.8,9.5,2.8,15.5,2.8
		c6.3,0,11.7-0.9,16.1-2.6c4.4-1.7,7.8-4.2,10-7.5c2.3-3.3,3.4-7.3,3.4-11.9c0-3.1-0.9-5.8-2.6-8.2C25.8,2.2,23.3,0.1,20-1.7z"/>
</g>
<g>
</g>
<g>
</g>
<g>
</g>
<g>
</g>
<g>
</g>
<g>
</g>
</svg>
