<?xml version="1.0" encoding="utf-8"?>
<!-- Generator: Adobe Illustrator 19.1.0, SVG Export Plug-In . SVG Version: 6.00 Build 0)  -->
<svg version="1.1" id="Layer_1" xmlns="http://www.w3.org/2000/svg" xmlns:xlink="http://www.w3.org/1999/xlink" x="0px" y="0px"
	 viewBox="0 0 1000 1000" style="enable-background:new 0 0 1000 1000;" xml:space="preserve">
<style type="text/css">
	.st0{fill:#FFFFFF;}
</style>
<rect x="4.4" y="-72" class="st0" width="1.6" height="39.6"/>
<path class="st0" d="M45-22.4V-72c-0.4,0-0.9,0-1.3,0h-0.3v49.4C44-22.7,44.6-22.6,45-22.4z"/>
<polygon class="st0" points="0,-32.4 0.8,-32.4 0.8,-72 -0.8,-72 -0.8,-32.4 "/>
<rect x="7" y="-72" class="st0" width="1.6" height="39.6"/>
<rect x="9.6" y="-72" class="st0" width="1.6" height="39.6"/>
<rect x="12.2" y="-72" class="st0" width="1.6" height="39.6"/>
<rect x="-3.4" y="-72" class="st0" width="1.6" height="39.6"/>
<rect x="-11.2" y="-72" class="st0" width="1.6" height="39.6"/>
<rect x="-8.6" y="-72" class="st0" width="1.6" height="39.6"/>
<rect x="14.8" y="-72" class="st0" width="1.6" height="39.6"/>
<rect x="-6" y="-72" class="st0" width="1.6" height="39.6"/>
<rect x="1.8" y="-72" class="st0" width="1.6" height="39.6"/>
<rect x="33" y="-72" class="st0" width="1.6" height="39.6"/>
<rect x="35.6" y="-72" class="st0" width="1.6" height="39.6"/>
<rect x="30.4" y="-72" class="st0" width="1.6" height="39.6"/>
<path class="st0" d="M39.8-32.1V-72h-1.6v39.6C38.9-32.3,39.4-32.2,39.8-32.1z"/>
<path class="st0" d="M41.4-21.6c0.3-0.3,0.7-0.5,1-0.6V-72h-1.6v50.9L41.4-21.6z"/>
<rect x="25.2" y="-72" class="st0" width="1.6" height="39.6"/>
<rect x="20" y="-72" class="st0" width="1.6" height="39.6"/>
<rect x="22.6" y="-72" class="st0" width="1.6" height="39.6"/>
<rect x="27.8" y="-72" class="st0" width="1.6" height="39.6"/>
<rect x="17.4" y="-72" class="st0" width="1.6" height="39.6"/>
<polygon class="st0" points="30.4,-21.8 30.4,-13.3 32,-14.5 32,-23.1 "/>
<polygon class="st0" points="-29.4,-21 -29.4,-12.4 -27.8,-11.2 -27.8,-19.7 "/>
<polygon class="st0" points="-37.2,-27.2 -37.2,-18.3 -35.6,-17.1 -35.6,-25.9 "/>
<polygon class="st0" points="-24.2,-16.9 -24.2,-8.5 -22.6,-7.3 -22.6,-15.6 "/>
<polygon class="st0" points="-32,-23.1 -32,-14.4 -30.4,-13.2 -30.4,-21.8 "/>
<polygon class="st0" points="-26.8,-19 -26.8,-10.5 -25.2,-9.3 -25.2,-17.7 "/>
<polygon class="st0" points="-13.8,-8.7 -13.8,-0.6 -12.2,0.6 -12.2,-7.4 "/>
<polygon class="st0" points="-21.6,-14.8 -21.6,-6.5 -20,-5.3 -20,-13.6 "/>
<path class="st0" d="M-38.2-28l-0.8-0.6c-0.3-0.2-0.6-0.5-0.8-0.7v9l1.6,1.2V-28z"/>
<polygon class="st0" points="-19,-12.8 -19,-4.6 -17.4,-3.4 -17.4,-11.5 "/>
<polygon class="st0" points="-11.2,-6.6 -11.2,1.3 -9.6,2.5 -9.6,-5.4 "/>
<path class="st0" d="M-68.4-57.5V57.4c0.5,0.9,1,1.7,1.6,2.5V-60C-67.4-59.2-67.9-58.3-68.4-57.5z"/>
<path class="st0" d="M-65.8-61.3V61.3c0.5,0.6,1,1.2,1.6,1.8V-63.2C-64.8-62.6-65.3-62-65.8-61.3z"/>
<path class="st0" d="M-63.2-64.2V64.2c0.5,0.5,1,1,1.6,1.4V-65.6C-62.2-65.1-62.7-64.7-63.2-64.2z"/>
<path class="st0" d="M-71-51.1V51.1c0.4,1.5,1,3,1.6,4.4v-111C-70.1-54.1-70.6-52.6-71-51.1z"/>
<path class="st0" d="M-60.6-66.4V66.4c0.5,0.4,1.1,0.8,1.6,1.1V-67.5C-59.5-67.1-60.1-66.8-60.6-66.4z"/>
<path class="st0" d="M-55.4-69.4V69.5c0.5,0.2,1.1,0.5,1.6,0.7V-70.1C-54.3-69.9-54.9-69.7-55.4-69.4z"/>
<path class="st0" d="M-50.2-71.2V71.2c0.5,0.1,1.1,0.2,1.6,0.3V-71.6C-49.1-71.5-49.7-71.3-50.2-71.2z"/>
<path class="st0" d="M-52.8-70.5v141c0.5,0.2,1.1,0.3,1.6,0.5V-71C-51.7-70.8-52.3-70.7-52.8-70.5z"/>
<path class="st0" d="M-58-68.1V68.1c0.5,0.3,1.1,0.6,1.6,0.9V-69C-56.9-68.7-57.5-68.4-58-68.1z"/>
<polygon class="st0" points="-16.4,-10.7 -16.4,-2.6 -14.8,-1.4 -14.8,-9.5 "/>
<polygon class="st0" points="22.6,-15.6 22.6,-7.3 24.2,-8.5 24.2,-16.9 "/>
<polygon class="st0" points="25.2,-17.7 25.2,-9.3 26.8,-10.5 26.8,-19 "/>
<polygon class="st0" points="20,-13.6 20,-5.4 21.6,-6.6 21.6,-14.8 "/>
<polygon class="st0" points="27.8,-19.7 27.8,-11.3 29.4,-12.5 29.4,-21 "/>
<path class="st0" d="M38.2-28v8.8l1.6-1.2v-8.9c-0.2,0.2-0.5,0.5-0.8,0.7L38.2-28z"/>
<rect x="-13.8" y="-72" class="st0" width="1.6" height="39.6"/>
<polygon class="st0" points="35.6,-25.9 35.6,-17.2 37.2,-18.4 37.2,-27.2 "/>
<polygon class="st0" points="17.4,-11.5 17.4,-3.4 19,-4.6 19,-12.8 "/>
<polygon class="st0" points="33,-23.9 33,-15.2 34.6,-16.4 34.6,-25.1 "/>
<polygon class="st0" points="-8.6,-4.6 -8.6,3.3 -7,4.5 -7,-3.3 "/>
<path class="st0" d="M-3.4-1v7.9c0.5,0.2,1.1,0.4,1.6,0.5v-8C-2.3-0.7-2.9-0.8-3.4-1z"/>
<path class="st0" d="M0-0.5c-0.3,0-0.5,0-0.8,0v8c0.3,0,0.5,0.1,0.8,0.1c0.3,0,0.5,0,0.8-0.1v-8C0.5-0.5,0.3-0.5,0-0.5z"/>
<path class="st0" d="M1.8-0.6v8c0.6-0.1,1.1-0.3,1.6-0.5V-1C2.9-0.8,2.3-0.7,1.8-0.6z"/>
<path class="st0" d="M-5.6-2.2L-6-2.5v7.8l1.1,0.8c0.2,0.1,0.3,0.2,0.5,0.3v-7.8C-4.8-1.6-5.2-1.9-5.6-2.2z"/>
<polygon class="st0" points="7,-3.3 7,4.5 8.6,3.3 8.6,-4.6 "/>
<polygon class="st0" points="12.2,-7.4 12.2,0.6 13.8,-0.7 13.8,-8.7 "/>
<path class="st0" d="M5.6-2.2C5.2-1.9,4.8-1.6,4.4-1.4v7.8c0.2-0.1,0.3-0.2,0.5-0.3L6,5.3v-7.8L5.6-2.2z"/>
<polygon class="st0" points="9.6,-5.4 9.6,2.5 11.2,1.3 11.2,-6.6 "/>
<polygon class="st0" points="14.8,-9.5 14.8,-1.4 16.4,-2.6 16.4,-10.7 "/>
<polygon class="st0" points="-34.6,-25.1 -34.6,-16.4 -33,-15.2 -33,-23.9 "/>
<path class="st0" d="M46-71.9v50.8c0.2,0.5,0.3,1.1,0.3,1.9v45.5h0.1c0,0.8-0.1,1.5-0.4,2.1v43.4c0.5,0,1.1-0.1,1.6-0.2V-71.7
	C47.1-71.8,46.5-71.9,46-71.9z"/>
<path class="st0" d="M69.4-55.5v111c0.6-1.4,1.2-2.9,1.6-4.4V-51.1C70.6-52.6,70.1-54.1,69.4-55.5z"/>
<rect x="12.2" y="32.5" class="st0" width="1.6" height="39.5"/>
<rect x="-29.4" y="32.5" class="st0" width="1.6" height="39.5"/>
<path class="st0" d="M48.6-71.6V71.6c0.5-0.1,1.1-0.2,1.6-0.3V-71.2C49.7-71.4,49.1-71.5,48.6-71.6z"/>
<rect x="-26.8" y="32.5" class="st0" width="1.6" height="39.5"/>
<path class="st0" d="M43.4,31.6V72h0.2c0.5,0,0.9,0,1.4,0V30.2C44.6,30.7,44,31.2,43.4,31.6z"/>
<path class="st0" d="M40.8,32.5V72h1.6V32.1C41.9,32.3,41.4,32.4,40.8,32.5z"/>
<rect x="-21.6" y="32.5" class="st0" width="1.6" height="39.5"/>
<rect x="-24.2" y="32.5" class="st0" width="1.6" height="39.5"/>
<path class="st0" d="M-42.4,32.1V72h1.6V32.5C-41.4,32.4-41.9,32.3-42.4,32.1z"/>
<path class="st0" d="M56.4-69V69c0.5-0.3,1.1-0.6,1.6-0.9V-68.1C57.5-68.4,56.9-68.7,56.4-69z"/>
<path class="st0" d="M-45,30.2V72c0.4,0,0.9,0,1.3,0h0.3V31.6C-44,31.2-44.6,30.7-45,30.2z"/>
<rect x="38.2" y="32.5" class="st0" width="1.6" height="39.5"/>
<path class="st0" d="M59-67.5V67.5c0.5-0.4,1.1-0.7,1.6-1.1V-66.4C60.1-66.8,59.5-67.1,59-67.5z"/>
<path class="st0" d="M-46.4,26.3v-45.5c0-0.9,0.1-1.6,0.4-2.1v-50.6c-0.5,0-1.1,0.1-1.6,0.2V71.7c0.5,0.1,1.1,0.1,1.6,0.2V28.4
	C-46.3,27.8-46.4,27.1-46.4,26.3z"/>
<rect x="-34.6" y="32.5" class="st0" width="1.6" height="39.5"/>
<rect x="-37.2" y="32.5" class="st0" width="1.6" height="39.5"/>
<path class="st0" d="M51.2-71V71c0.5-0.1,1.1-0.3,1.6-0.5v-141C52.3-70.7,51.7-70.8,51.2-71z"/>
<path class="st0" d="M53.8-70.1V70.1c0.5-0.2,1.1-0.4,1.6-0.7V-69.5C54.9-69.7,54.3-69.9,53.8-70.1z"/>
<rect x="-39.8" y="32.5" class="st0" width="1.6" height="39.5"/>
<rect x="-32" y="32.5" class="st0" width="1.6" height="39.5"/>
<rect x="4.4" y="32.5" class="st0" width="1.6" height="39.5"/>
<rect x="20" y="32.5" class="st0" width="1.6" height="39.5"/>
<rect x="-3.4" y="32.5" class="st0" width="1.6" height="39.5"/>
<polygon class="st0" points="0,32.5 -0.8,32.5 -0.8,72 0.8,72 0.8,32.5 "/>
<rect x="22.6" y="32.5" class="st0" width="1.6" height="39.5"/>
<rect x="1.8" y="32.5" class="st0" width="1.6" height="39.5"/>
<rect x="14.8" y="32.5" class="st0" width="1.6" height="39.5"/>
<rect x="17.4" y="32.5" class="st0" width="1.6" height="39.5"/>
<rect x="9.6" y="32.5" class="st0" width="1.6" height="39.5"/>
<rect x="7" y="32.5" class="st0" width="1.6" height="39.5"/>
<rect x="-8.6" y="32.5" class="st0" width="1.6" height="39.5"/>
<rect x="30.4" y="32.5" class="st0" width="1.6" height="39.5"/>
<rect x="33" y="32.5" class="st0" width="1.6" height="39.5"/>
<rect x="25.2" y="32.5" class="st0" width="1.6" height="39.5"/>
<rect x="35.6" y="32.5" class="st0" width="1.6" height="39.5"/>
<rect x="-16.4" y="32.5" class="st0" width="1.6" height="39.5"/>
<rect x="-13.8" y="32.5" class="st0" width="1.6" height="39.5"/>
<rect x="-6" y="32.5" class="st0" width="1.6" height="39.5"/>
<rect x="-11.2" y="32.5" class="st0" width="1.6" height="39.5"/>
<rect x="27.8" y="32.5" class="st0" width="1.6" height="39.5"/>
<rect x="-19" y="32.5" class="st0" width="1.6" height="39.5"/>
<path class="st0" d="M-43.4-22.6V-72h-0.2c-0.5,0-0.9,0-1.4,0v49.5C-44.6-22.7-44-22.7-43.4-22.6z"/>
<path class="st0" d="M64.2-63.2V63.2c0.6-0.6,1.1-1.2,1.6-1.8V-61.3C65.3-62,64.8-62.6,64.2-63.2z"/>
<path class="st0" d="M61.6-65.6V65.6c0.6-0.5,1.1-0.9,1.6-1.4V-64.2C62.7-64.7,62.2-65.1,61.6-65.6z"/>
<rect x="-26.8" y="-72" class="st0" width="1.6" height="39.6"/>
<rect x="-24.2" y="-72" class="st0" width="1.6" height="39.6"/>
<rect x="-32" y="-72" class="st0" width="1.6" height="39.6"/>
<path class="st0" d="M-38.2-32.4V-72h-1.6v39.9C-39.4-32.2-38.9-32.3-38.2-32.4z"/>
<rect x="-19" y="-72" class="st0" width="1.6" height="39.6"/>
<rect x="-21.6" y="-72" class="st0" width="1.6" height="39.6"/>
<path class="st0" d="M-41.5-21.6l0.7,0.5V-72h-1.6v49.8C-42.1-22-41.8-21.8-41.5-21.6z"/>
<rect x="-37.2" y="-72" class="st0" width="1.6" height="39.6"/>
<path class="st0" d="M66.8-60V60c0.6-0.8,1.1-1.7,1.6-2.5V-57.4C67.9-58.3,67.4-59.2,66.8-60z"/>
<rect x="-29.4" y="-72" class="st0" width="1.6" height="39.6"/>
<rect x="-16.4" y="-72" class="st0" width="1.6" height="39.6"/>
<rect x="-34.6" y="-72" class="st0" width="1.6" height="39.6"/>
</svg>
