<?xml version="1.0" encoding="utf-8"?>
<!-- Generator: Adobe Illustrator 19.2.0, SVG Export Plug-In . SVG Version: 6.00 Build 0)  -->
<svg version="1.0" id="Layer_1" xmlns="http://www.w3.org/2000/svg" xmlns:xlink="http://www.w3.org/1999/xlink" x="0px" y="0px"
	 width="1000px" height="1000px" viewBox="0 0 1000 1000" enable-background="new 0 0 1000 1000" xml:space="preserve">
<g>
	<path fill="#929497" d="M-31.7-27.3H0h31.7c2.9,0,3.4,1.5,1.1,3.2L4.7-1.8c-1.3,1-3,1.5-4.7,1.4c-1.7,0.1-3.5-0.4-4.7-1.4
		l-28.1-22.3C-35.1-25.9-34.6-27.3-31.7-27.3z"/>
	<path fill="#929497" d="M39,22.1c0,2.9-2.3,5.2-5.2,5.2H0h-33.8c-2.9,0-5.2-2.3-5.2-5.2v-38.3c0-2.9,1.9-3.8,4.1-2.1L-4.1,5.1
		C-3,6-1.5,6.4,0,6.4c1.5,0,3-0.4,4.2-1.3l30.7-23.3c2.3-1.7,4.1-0.8,4.1,2.1V22.1z"/>
</g>
</svg>
