<?xml version="1.0" encoding="utf-8"?>
<!-- Generator: Adobe Illustrator 19.1.0, SVG Export Plug-In . SVG Version: 6.00 Build 0)  -->
<svg version="1.1" id="Layer_1" xmlns="http://www.w3.org/2000/svg" xmlns:xlink="http://www.w3.org/1999/xlink" x="0px" y="0px"
	 viewBox="0 0 1000 1000" style="enable-background:new 0 0 1000 1000;" xml:space="preserve">
<style type="text/css">
	.st0{fill:#939598;stroke:#000000;}
</style>
<g>
	<path class="st0" d="M43.7-72h-87.3C-59.3-72-72-59.3-72-43.7v87.3C-72,59.3-59.3,72-43.7,72h87.3C59.3,72,72,59.3,72,43.7v-87.3
		C72-59.3,59.3-72,43.7-72z M2.8,50.8c-10.4,0-20.2-3-28.4-8.2l-24.6,8.2l8.2-24.6c-5.2-8.2-8.2-17.9-8.2-28.4c0-29.3,23.7-53,53-53
		c29.3,0,53,23.7,53,53C55.8,27,32.1,50.8,2.8,50.8z"/>
	<path class="st0" d="M2.8-45.4c-23.8,0-43.2,19.3-43.2,43.2c0,8,2.2,15.5,5.9,21.9c0,0,1.1,1.9,0.1,5.3l-4.5,13.6
		c0,0,11.2-3.3,14-4.1c2.4-0.6,3.1-1.3,5.4,0.3c5,3.5,13.6,6.2,22.3,6.2C26.6,40.9,46,21.6,46-2.2C46-26.1,26.6-45.4,2.8-45.4z
		 M27.3,12.2c0,1.7-2.5,10.2-11.6,10.2c-15.4,0-34.8-15.6-39.5-33c-2-7.6,3.3-12.3,5.5-13.6c2.3-1.3,3.2-0.9,4.7-0.9
		c1.5,0,2.2,1.2,2.2,1.2s3.2,7.5,4.2,9.3c1.1,1.9,1,3-0.3,4.3c0,0-1.5,1.7-3,3.2c-1,1-0.1,2.1-0.1,2.1c3.4,7,11.4,14.4,17.5,15.7
		C9.2,11,9.5,10,10.1,9.4c0.7-0.7,2-2.8,2.9-4.5c0.5-1.1,1.6-0.5,2.4-0.3c2.5,0.9,9.9,4.3,9.9,4.3C27.6,9.7,27.3,10.5,27.3,12.2z"/>
</g>
<g>
</g>
<g>
</g>
<g>
</g>
<g>
</g>
<g>
</g>
<g>
</g>
</svg>
