<?xml version="1.0" encoding="utf-8"?>
<!-- Generator: Adobe Illustrator 19.2.0, SVG Export Plug-In . SVG Version: 6.00 Build 0)  -->
<svg version="1.1" id="Layer_1" xmlns="http://www.w3.org/2000/svg" xmlns:xlink="http://www.w3.org/1999/xlink" x="0px" y="0px"
	 width="1000px" height="1000px" viewBox="0 0 1000 1000" style="enable-background:new 0 0 1000 1000;" xml:space="preserve">
<style type="text/css">
	.st0{fill:none;}
</style>
<g id="_x31_5_38_">
	<g>
		<path class="st0" d="M-20.1-20.6h1.1c1.7,0,3.1-1.4,3.1-3.1v-8.5v-3.2c0-1.7-1.4-3.1-3.1-3.1h-1.1c-1.7,0-3.1,1.4-3.1,3.1v3.2v8.5
			C-23.2-22-21.8-20.6-20.1-20.6z"/>
		<path class="st0" d="M19.6-20.7h1.1c1.7,0,3.1-1.4,3.1-3.1v-9.3v-2.5c0-1.7-1.4-3.1-3.1-3.1h-1.1c-1.7,0-3.1,1.4-3.1,3.1v2.5v9.3
			C16.5-22.1,17.9-20.7,19.6-20.7z"/>
		<path class="st0" d="M34.3-32.3h-7.9v9.3c0,3.1-2.5,4.8-5.6,4.8h-1.1c-3.1,0-5.6-2.5-5.6-5.6v-8.5h-27.4v8.5
			c0,3.1-2.5,5.6-5.6,5.6h-1.1c-3.1,0-5.6-2.5-5.6-5.6v-8.5h-8.6c-2.8,0-5,2.3-5,5v60.8c0,2.8,2.3,5,5,5h68.6c2.8,0,5-2.3,5-5v-60.8
			C39.3-30,37.1-32.3,34.3-32.3z"/>
		<polygon class="st0" points="34.3,33.6 -34.3,33.6 -34.3,-12.3 34.3,-12.3 34.3,33.6 		"/>
		<path class="st0" d="M2.6,3.1h9c0.4,0,0.6-0.3,0.6-0.6v-7.8c0-0.4-0.3-0.6-0.6-0.6h-9C2.2-6.1,2-5.8,2-5.4v7.8
			C2,2.8,2.2,3.1,2.6,3.1z"/>
		<path class="st0" d="M17.4,3.1h9c0.4,0,0.6-0.3,0.6-0.6v-7.8c0-0.4-0.3-0.6-0.6-0.6h-9c-0.4,0-0.6,0.3-0.6,0.6v7.8
			C16.7,2.8,17,3.1,17.4,3.1z"/>
		<path class="st0" d="M-26.9,15.9h9c0.4,0,0.6-0.3,0.6-0.6V7.4c0-0.4-0.3-0.6-0.6-0.6h-9c-0.4,0-0.6,0.3-0.6,0.6v7.8
			C-27.6,15.6-27.3,15.9-26.9,15.9z"/>
		<path class="st0" d="M-12.2,15.9h9c0.4,0,0.6-0.3,0.6-0.6V7.4c0-0.4-0.3-0.6-0.6-0.6h-9c-0.4,0-0.6,0.3-0.6,0.6v7.8
			C-12.8,15.6-12.5,15.9-12.2,15.9z"/>
		<path class="st0" d="M2.6,15.9h9c0.4,0,0.6-0.3,0.6-0.6V7.4c0-0.4-0.3-0.6-0.6-0.6h-9C2.2,6.8,2,7.1,2,7.4v7.8
			C2,15.6,2.2,15.9,2.6,15.9z"/>
		<path class="st0" d="M17.4,15.9h9c0.4,0,0.6-0.3,0.6-0.6V7.4c0-0.4-0.3-0.6-0.6-0.6h-9c-0.4,0-0.6,0.3-0.6,0.6v7.8
			C16.7,15.6,17,15.9,17.4,15.9z"/>
		<path class="st0" d="M-17.9,19.6h-9c-0.4,0-0.6,0.3-0.6,0.6v7.8c0,0.4,0.3,0.6,0.6,0.6h9c0.4,0,0.6-0.3,0.6-0.6v-7.8
			C-17.2,19.9-17.5,19.6-17.9,19.6z"/>
		<path class="st0" d="M-3.1,19.6h-9c-0.4,0-0.6,0.3-0.6,0.6v7.8c0,0.4,0.3,0.6,0.6,0.6h9c0.4,0,0.6-0.3,0.6-0.6v-7.8
			C-2.5,19.9-2.8,19.6-3.1,19.6z"/>
		<path class="st0" d="M11.6,19.6h-9c-0.4,0-0.6,0.3-0.6,0.6v7.8c0,0.4,0.3,0.6,0.6,0.6h9c0.4,0,0.6-0.3,0.6-0.6v-7.8
			C12.3,19.9,12,19.6,11.6,19.6z"/>
		<path class="st0" d="M26.4,19.6h-9c-0.4,0-0.6,0.3-0.6,0.6v7.8c0,0.4,0.3,0.6,0.6,0.6h9c0.4,0,0.6-0.3,0.6-0.6v-7.8
			C27,19.9,26.7,19.6,26.4,19.6z"/>
	</g>
</g>
</svg>
