<?xml version="1.0" encoding="utf-8"?>
<!-- Generator: Adobe Illustrator 19.2.0, SVG Export Plug-In . SVG Version: 6.00 Build 0)  -->
<svg version="1.1" id="Layer_1" xmlns="http://www.w3.org/2000/svg" xmlns:xlink="http://www.w3.org/1999/xlink" x="0px" y="0px"
	 width="1000px" height="1000px" viewBox="0 0 1000 1000" style="enable-background:new 0 0 1000 1000;" xml:space="preserve">
<style type="text/css">
	.st0{fill:#FFFFFF;}
</style>
<g>
	<path class="st0" d="M0-34.1c-18.8,0-34.1,15.3-34.1,34.1S-18.8,34.1,0,34.1S34.1,18.8,34.1,0S18.8-34.1,0-34.1z"/>
	<path class="st0" d="M0,27.6c-15.2,0-27.6-12.4-27.6-27.6S-15.2-27.6,0-27.6S27.6-15.2,27.6,0S15.2,27.6,0,27.6z"/>
	<path class="st0" d="M15.1-17.2c-0.4,0-0.8,0.1-1.1,0.3l-18.3,12c-0.2,0.2-0.5,0.4-0.6,0.6l-11.8,18.2c-0.6,0.8-0.4,1.9,0.2,2.6
		c0.4,0.4,0.9,0.6,1.5,0.6c0.4,0,0.8-0.1,1.1-0.3L4.3,4.9c0.2-0.2,0.5-0.3,0.6-0.6l11.8-18.2c0.6-0.8,0.4-1.9-0.2-2.6
		C16.1-16.9,15.6-17.2,15.1-17.2z"/>
</g>
</svg>
