<?xml version="1.0" encoding="utf-8"?>
<!-- Generator: Adobe Illustrator 19.2.1, SVG Export Plug-In . SVG Version: 6.00 Build 0)  -->
<svg version="1.1" id="Layer_1" xmlns="http://www.w3.org/2000/svg" xmlns:xlink="http://www.w3.org/1999/xlink" x="0px" y="0px"
	 viewBox="0 0 1000 1000" style="enable-background:new 0 0 1000 1000;" xml:space="preserve">
<style type="text/css">
	.st0{fill:#FFFFFF;}
</style>
<g>
	<path class="st0" d="M0,31.6c-16.2,0-29.4-13.2-29.4-29.4c0-8.4,3.6-16.4,9.9-22c1.7-1.5,4.4-1.4,5.9,0.3c1.5,1.7,1.4,4.4-0.3,5.9
		c-4.5,4-7.1,9.7-7.1,15.7c0,11.6,9.4,21,21,21s21-9.4,21-21c0-6-2.6-11.7-7-15.7c-1.7-1.5-1.9-4.2-0.4-5.9s4.2-1.9,5.9-0.3
		c6.3,5.6,9.9,13.6,9.9,22C29.4,18.3,16.2,31.6,0,31.6z"/>
	<path class="st0" d="M4.2-6.3v-21c0-2.3-1.9-4.2-4.2-4.2s-4.2,1.9-4.2,4.2v21C-4.2-4-2.3-2.1,0-2.1S4.2-4,4.2-6.3z"/>
</g>
</svg>
