<?xml version="1.0" encoding="utf-8"?>
<!-- Generator: Adobe Illustrator 19.2.0, SVG Export Plug-In . SVG Version: 6.00 Build 0)  -->
<svg version="1.1" id="Layer_1" xmlns="http://www.w3.org/2000/svg" xmlns:xlink="http://www.w3.org/1999/xlink" x="0px" y="0px"
	 width="1000px" height="1000px" viewBox="0 0 1000 1000" style="enable-background:new 0 0 1000 1000;" xml:space="preserve">
<style type="text/css">
	.st0{fill:#FFFFFF;}
</style>
<path class="st0" d="M25,2.3L25,2.3c1.4,0,2.6-1.2,2.6-2.6v-26.3c0-3.9-3.2-7.1-7.1-7.1H-3.6c-0.5,0-4.6,0.1-7.4,3l-15.8,15.8
	c-0.5,0.5-0.7,1.2-0.7,1.8v39.6c0,3.9,3.2,7.1,7.1,7.1h41.1c3.9,0,7.1-3.2,7.1-7.1V10.8c0-1.4-1.2-2.6-2.6-2.6H25L25,2.3L25,2.3z"/>
<path class="st0" d="M0.7-24.9c0-1.1,0.9-2,2-2h2.6c1.1,0,2,0.9,2,2v8c0,1.1-0.9,2-2,2H2.7c-1.1,0-2-0.9-2-2
	C0.7-16.9,0.7-24.9,0.7-24.9z"/>
<path class="st0" d="M-12-19.3c0-1.1,0.9-2,2-2h2.6c1.1,0,2,0.9,2,2v8c0,1.1-0.9,2-2,2H-10c-1.1,0-2-0.9-2-2V-19.3z"/>
<path class="st0" d="M18.8,23.6c0,1.8-1.5,3.3-3.3,3.3h-31.2c-1.8,0-3.3-1.5-3.3-3.3v-15c0-1.8,1.5-3.3,3.3-3.3h31.2
	c1.8,0,3.3,1.5,3.3,3.3V23.6z"/>
<path class="st0" d="M19.8-16.9c0,1.1-0.9,2-2,2h-2.6c-1.1,0-2-0.9-2-2v-8c0-1.1,0.9-2,2-2h2.6c1.1,0,2,0.9,2,2V-16.9z"/>
</svg>
