<?xml version="1.0" encoding="utf-8"?>
<!-- Generator: Adobe Illustrator 19.2.0, SVG Export Plug-In . SVG Version: 6.00 Build 0)  -->
<svg version="1.1" id="Layer_1" xmlns="http://www.w3.org/2000/svg" xmlns:xlink="http://www.w3.org/1999/xlink" x="0px" y="0px"
	 width="1000px" height="1000px" viewBox="0 0 1000 1000" style="enable-background:new 0 0 1000 1000;" xml:space="preserve">
<style type="text/css">
	.st0{fill:#030104;}
</style>
<path class="st0" d="M10.4,14.4v-45.5c0-5.7-4.7-10.4-10.4-10.4c-5.7,0-10.4,4.6-10.4,10.4v45.5c-3.2,2.9-5.2,7-5.2,11.6
	c0,8.6,7,15.6,15.6,15.6c8.6,0,15.6-7,15.6-15.6C15.6,21.4,13.6,17.2,10.4,14.4z"/>
<path class="st0" d="M0,36.4c-5.7,0-10.4-4.7-10.4-10.4c0-3.8,2.1-7.2,5.2-9v-48.1c0-2.9,2.3-5.2,5.2-5.2c2.9,0,5.2,2.3,5.2,5.2V17
	c3.1,1.8,5.2,5.2,5.2,9C10.4,31.7,5.7,36.4,0,36.4z"/>
</svg>
