<?xml version="1.0" encoding="utf-8"?>
<!-- Generator: Adobe Illustrator 19.2.1, SVG Export Plug-In . SVG Version: 6.00 Build 0)  -->
<svg version="1.1" id="Layer_1" xmlns="http://www.w3.org/2000/svg" xmlns:xlink="http://www.w3.org/1999/xlink" x="0px" y="0px"
	 viewBox="0 0 1000 1000" style="enable-background:new 0 0 1000 1000;" xml:space="preserve">
<style type="text/css">
	.st0{fill:none;stroke:#000000;stroke-width:0.5;stroke-miterlimit:10;}
</style>
<g>
	<g>
		<path class="st0" d="M35.3,0.6c-0.9-3.9-4-6.7-7.9-7.2c-9.1-1-18.3-1-27.4-1s-18.3,0-27.4,1c-3.8,0.4-7,3.3-7.9,7.2
			c-1.2,5.5-1.2,11.6-1.2,17.3s0,11.8,1.2,17.3c0.9,3.9,4,6.7,7.9,7.2c9.1,1,18.3,1,27.4,1s18.3,0,27.4-1c3.8-0.4,7-3.3,7.9-7.2
			c1.2-5.5,1.2-11.6,1.2-17.3C36.6,12.1,36.6,6.1,35.3,0.6z"/>
		<polygon class="st0" points="-15.7,4.8 -21,4.8 -21,33 -25.9,33 -25.9,4.8 -31.1,4.8 -31.1,0.2 -15.7,0.2 		"/>
		<path class="st0" d="M-2.4,33h-4.4v-2.7c-1.8,2-3.5,3-5.1,3c-1.5,0-2.4-0.6-2.8-1.8c-0.2-0.8-0.3-1.9-0.3-3.6V8.5h4.4v18
			c0,1,0,1.6,0,1.7c0.1,0.7,0.4,1,1,1c0.9,0,1.8-0.7,2.8-2V8.5h4.4V33L-2.4,33z"/>
		<path class="st0" d="M14.5,25.6c0,2.2-0.1,3.9-0.4,4.9c-0.6,1.8-1.8,2.7-3.5,2.7c-1.6,0-3.1-0.9-4.6-2.7v2.4H1.5V0.2h4.4v10.7
			c1.5-1.8,2.9-2.7,4.6-2.7c1.8,0,2.9,0.9,3.5,2.8c0.3,1,0.4,2.6,0.4,4.9v9.7C14.4,25.6,14.5,25.6,14.5,25.6z"/>
		<path class="st0" d="M31.1,21.6h-8.9V26c0,2.2,0.8,3.4,2.2,3.4c1.1,0,1.7-0.6,2-1.8c0-0.2,0.1-1.2,0.1-3H31v0.7
			c0,1.5,0,2.4-0.1,2.8c-0.1,1-0.4,1.9-1,2.7c-1.2,1.8-3,2.7-5.4,2.7s-4-0.8-5.4-2.5c-0.9-1.2-1.5-3.1-1.5-5.7v-8.5
			c0-2.6,0.4-4.5,1.3-5.7c1.2-1.7,3-2.5,5.3-2.5c2.2,0,3.9,0.8,5.2,2.5c0.9,1.2,1.3,3.1,1.3,5.7L31.1,21.6L31.1,21.6z"/>
		<path class="st0" d="M24.5,12.2c-1.5,0-2.2,1.1-2.2,3.4v2.2h4.4v-2.2C26.7,13.4,25.9,12.2,24.5,12.2z"/>
		<path class="st0" d="M8.1,12.2c-0.7,0-1.5,0.3-2.2,1.1v14.8c0.8,0.8,1.5,1.1,2.2,1.1c1.2,0,1.9-1.1,1.9-3.3V15.6
			C10,13.4,9.3,12.2,8.1,12.2z"/>
		<path class="st0" d="M10.6-9.9c1.7,0,3.4-1,5.1-3v2.7h4.5v-24.7h-4.5V-16c-1,1.3-1.9,2.1-2.8,2.1c-0.6,0-0.9-0.3-1-1
			c0-0.1,0-0.7,0-1.7v-18.2H7.3v19.5c0,1.8,0.1,2.9,0.4,3.7C8.1-10.4,9.1-9.9,10.6-9.9z"/>
		<path class="st0" d="M-20.6-23.7v13.4h4.9v-13.4l6-19.7h-4.9l-3.4,13l-3.5-13h-5.2c1,3,2.1,6.2,3.1,9.2
			C-22-29.5-21-26.1-20.6-23.7z"/>
		<path class="st0" d="M-3-9.9c2.2,0,3.9-0.8,5.2-2.5c0.9-1.2,1.3-3.1,1.3-5.8v-8.6c0-2.6-0.4-4.6-1.3-5.8C1-34.3-0.7-35.2-3-35.2
			s-3.9,0.8-5.2,2.6c-0.9,1.2-1.3,3.1-1.3,5.8v8.6c0,2.6,0.4,4.6,1.3,5.8C-7-10.8-5.2-9.9-3-9.9z"/>
		<path class="st0" d="M-5.2-27.7c0-2.2,0.7-3.4,2.1-3.4S-1-30-1-27.7v10.3c0,2.2-0.7,3.4-2.1,3.4s-2.1-1.1-2.1-3.4V-27.7z"/>
	</g>
</g>
</svg>
