<?xml version="1.0" encoding="utf-8"?>
<!-- Generator: Adobe Illustrator 19.2.0, SVG Export Plug-In . SVG Version: 6.00 Build 0)  -->
<svg version="1.2" baseProfile="tiny" id="Layer_1" xmlns="http://www.w3.org/2000/svg" xmlns:xlink="http://www.w3.org/1999/xlink"
	 x="0px" y="0px" width="1000px" height="1000px" viewBox="0 0 1000 1000" xml:space="preserve">
<path fill="#FFFFFF" d="M-5.2-46.1H5.2c1,0,1.8,0.8,1.8,1.8s-0.8,1.8-1.8,1.8H-5.2c-1,0-1.8-0.8-1.8-1.8C-7-45.2-6.2-46.1-5.2-46.1z
	"/>
<path fill="#FFFFFF" d="M0,49.8c-3.1,0-5.5-2.5-5.5-5.5c0-3.1,2.5-5.5,5.5-5.5c3.1,0,5.5,2.5,5.5,5.5S3.1,49.8,0,49.8z"/>
<path fill="#FFFFFF" d="M22.2-57.3h-44.5c-5.8,0-10.5,4.7-10.5,10.5v93.5c0,5.8,4.7,10.5,10.5,10.5h44.5c5.8,0,10.5-4.7,10.5-10.5
	v-93.5C32.8-52.5,28.1-57.3,22.2-57.3z M27.1,31.2h-54.2v-62.3h54.2V31.2z"/>
</svg>
