<?xml version="1.0" encoding="utf-8"?>
<!-- Generator: Adobe Illustrator 19.1.0, SVG Export Plug-In . SVG Version: 6.00 Build 0)  -->
<svg version="1.1" id="Layer_1" xmlns="http://www.w3.org/2000/svg" xmlns:xlink="http://www.w3.org/1999/xlink" x="0px" y="0px"
	 viewBox="0 0 1000 1000" style="enable-background:new 0 0 1000 1000;" xml:space="preserve">
<style type="text/css">
	.st0{fill:none;stroke:#BE1E2D;stroke-width:0.25;}
</style>
<g>
	<polygon class="st0" points="436.5,539.6 439.8,537.7 440.1,537.9 439.7,538.6 436.5,540.4 436.2,540.3 	"/>
	<polygon class="st0" points="440.2,538 439.8,538.6 439.6,542.1 439.9,542.2 440.2,541.5 440.5,538.2 	"/>
	<polygon class="st0" points="436.1,540.5 436.3,540.6 436.1,544 435.7,544.7 435.4,544.5 435.6,541.1 	"/>
	<polygon class="st0" points="435.8,544.7 436.2,544.1 439.4,542.3 439.7,542.4 439.3,543.1 436.1,544.9 	"/>
	<polygon class="st0" points="439.5,543.2 439.9,542.5 440.2,542.7 439.9,546.3 439.6,546.7 439.2,546.6 	"/>
	<polygon class="st0" points="439.1,546.8 439.4,547 439.1,547.6 435.9,549.4 435.5,549.2 435.9,548.7 	"/>
	<polygon class="st0" points="435.4,549.2 435.7,548.5 436,545.2 435.6,545 435.3,545.7 435.1,549 	"/>
	<path class="st0" d="M441.6,545.7c0-0.3-0.2-0.4-0.5-0.3c-0.3,0.1-0.5,0.5-0.5,0.8s0.2,0.4,0.5,0.3
		C441.4,546.3,441.6,546,441.6,545.7z"/>
</g>
</svg>
